<?xml version="1.0" standalone="no"?>
<!DOCTYPE svg PUBLIC "-//W3C//DTD SVG 1.1//EN" "http://www.w3.org/Graphics/SVG/1.1/DTD/svg11.dtd">

<svg style="stroke-width:0.7pt; stroke-linejoin: round; stroke:#444; fill:white;" xmlns="http://www.w3.org/2000/svg" font-family="Helvetica, Arial, FreeSans, Sans, sans, sans-serif" height="836px" viewBox="0 0 1200 836" width="1200px" version="1.1" xmlns:xlink="http://www.w3.org/1999/xlink" enable-background="new 0 0 1200 836"><defs><style type="text/css">path { fill-rule: evenodd; }
#context path { fill: #eee; stroke: #bbb; } #graticule path { fill: none; stroke-width:0.25pt;  } #graticule .equator { stroke-width: 0.5pt } </style></defs><metadata><views><view padding="0.0" h="836.727992415" w="1200"><proj lon0="10.0" lat2="50" lat1="60.0" id="lcc" lat0="0" /><bbox y="-1481.17" h="743.7" w="1067.87" x="-533.93" /><llbbox lon1="45.0" lon0="-25.0" lat1="72.0" lat0="33.0" /></view></views></metadata><g id="sea"><path style="fill:#d0ddf0" id="sea" d="M603.490,834.723L606.980,834.707L610.469,834.682L613.959,834.646L617.449,834.600L620.938,834.543L624.427,834.477L627.916,834.400L631.405,834.313L634.894,834.215L638.382,834.108L641.870,833.990L645.357,833.861L648.844,833.723L652.331,833.574L655.817,833.415L659.303,833.246L662.788,833.067L666.273,832.877L669.757,832.677L673.241,832.467L676.724,832.247L680.206,832.016L683.687,831.775L687.168,831.524L690.648,831.263L694.128,830.991L697.606,830.710L701.084,830.418L704.560,830.115L708.036,829.803L711.511,829.480L714.985,829.148L718.458,828.804L721.930,828.451L725.401,828.088L728.871,827.714L732.339,827.330L735.807,826.936L739.273,826.532L742.738,826.118L746.202,825.693L749.665,825.258L753.126,824.813L756.587,824.358L760.045,823.893L763.503,823.417L766.958,822.932L770.413,822.436L773.866,821.930L777.317,821.414L780.767,820.888L784.216,820.351L787.663,819.805L791.108,819.248L794.551,818.682L797.993,818.105L801.433,817.518L804.872,816.921L808.308,816.314L811.743,815.696L815.176,815.069L818.607,814.431L822.037,813.784L825.464,813.126L828.889,812.459L832.313,811.781L835.734,811.093L839.154,810.395L842.571,809.687L845.986,808.969L849.399,808.241L852.810,807.503L856.219,806.755L859.625,805.997L863.030,805.229L866.432,804.451L869.832,803.663L873.229,802.865L876.624,802.057L880.017,801.239L883.407,800.411L886.795,799.573L890.180,798.725L893.563,797.868L896.943,797.000L900.321,796.122L903.696,795.235L907.068,794.337L910.438,793.430L913.805,792.512L917.170,791.585L920.531,790.648L923.890,789.701L927.246,788.744L930.600,787.777L933.950,786.801L937.298,785.814L940.642,784.818L943.984,783.812L947.323,782.796L950.658,781.770L953.991,780.735L957.321,779.690L960.647,778.635L963.971,777.570L967.291,776.495L970.608,775.411L973.922,774.317L977.233,773.213L980.540,772.099L983.844,770.976L987.145,769.843L990.443,768.700L993.737,767.548L997.028,766.386L1000.315,765.214L1003.599,764.033L1006.879,762.842L1010.156,761.641L1013.429,760.431L1016.699,759.211L1019.965,757.982L1023.227,756.743L1026.486,755.494L1029.741,754.236L1032.993,752.968L1036.241,751.691L1039.485,750.404L1042.725,749.107L1045.961,747.801L1049.193,746.486L1052.422,745.161L1055.647,743.826L1058.867,742.483L1062.084,741.129L1065.297,739.766L1068.506,738.394L1071.710,737.013L1074.911,735.621L1078.108,734.221L1081.300,732.811L1084.488,731.392L1087.672,729.963L1090.852,728.525L1094.028,727.078L1097.199,725.621L1100.366,724.155L1103.529,722.680L1106.687,721.196L1109.841,719.702L1112.991,718.199L1116.136,716.687L1119.277,715.165L1122.413,713.634L1125.545,712.094L1128.672,710.545L1131.794,708.987L1134.912,707.419L1138.026,705.842L1141.134,704.257L1144.239,702.662L1147.338,701.057L1150.433,699.444L1153.522,697.822L1156.608,696.191L1159.688,694.550L1162.763,692.901L1165.834,691.242L1168.900,689.575L1171.960,687.898L1175.016,686.213L1178.067,684.518L1181.113,682.815L1184.154,681.103L1187.190,679.381L1190.220,677.651L1193.246,675.912L1196.267,674.164L1199.282,672.407L1196.944,668.407L1194.609,664.413L1192.277,660.424L1189.948,656.441L1187.623,652.464L1185.301,648.492L1182.983,644.526L1180.667,640.565L1178.355,636.610L1176.045,632.659L1173.739,628.715L1171.436,624.775L1169.136,620.841L1166.839,616.912L1164.545,612.987L1162.254,609.068L1159.966,605.154L1157.680,601.245L1155.398,597.341L1153.118,593.442L1150.842,589.547L1148.568,585.658L1146.296,581.772L1144.028,577.892L1141.762,574.016L1139.499,570.145L1137.239,566.279L1134.981,562.416L1132.725,558.559L1130.473,554.705L1128.223,550.856L1125.975,547.012L1123.730,543.171L1121.487,539.335L1119.247,535.503L1117.009,531.675L1114.773,527.851L1112.540,524.031L1110.309,520.215L1108.081,516.403L1105.855,512.595L1103.631,508.790L1101.409,504.990L1099.189,501.193L1096.972,497.400L1094.756,493.611L1092.543,489.825L1090.332,486.043L1088.123,482.264L1085.916,478.489L1083.711,474.717L1081.508,470.949L1079.307,467.183L1077.108,463.422L1074.910,459.663L1072.715,455.908L1070.521,452.156L1068.330,448.407L1066.140,444.661L1063.952,440.918L1061.765,437.178L1059.581,433.441L1057.398,429.707L1055.216,425.975L1053.037,422.247L1050.859,418.521L1048.682,414.798L1046.507,411.078L1044.334,407.361L1042.162,403.646L1039.992,399.933L1037.823,396.223L1035.655,392.516L1033.489,388.810L1031.325,385.108L1029.161,381.407L1026.999,377.709L1024.839,374.013L1022.679,370.320L1020.521,366.628L1018.364,362.938L1016.209,359.251L1014.054,355.566L1011.901,351.882L1009.749,348.201L1007.598,344.521L1005.447,340.843L1003.298,337.168L1001.150,333.493L999.003,329.821L996.857,326.150L994.712,322.481L992.568,318.813L990.425,315.147L988.283,311.482L986.141,307.819L984.000,304.157L981.860,300.496L979.721,296.837L977.583,293.179L975.445,289.522L973.308,285.867L971.171,282.212L969.035,278.559L966.900,274.906L964.765,271.255L962.631,267.604L960.498,263.955L958.365,260.306L956.232,256.658L954.100,253.010L951.968,249.364L949.836,245.718L947.705,242.072L945.574,238.427L943.444,234.783L941.313,231.139L939.183,227.495L937.053,223.852L934.924,220.209L932.794,216.566L930.665,212.924L928.535,209.281L926.406,205.639L924.277,201.997L922.147,198.354L920.018,194.712L917.888,191.069L915.759,187.427L913.629,183.784L911.499,180.141L909.369,176.497L907.239,172.853L905.108,169.209L902.978,165.564L900.846,161.918L898.715,158.272L896.583,154.625L894.451,150.978L892.318,147.330L890.184,143.680L888.051,140.030L885.916,136.379L883.781,132.727L881.645,129.074L879.509,125.420L877.372,121.764L875.234,118.108L873.096,114.450L870.956,110.790L868.816,107.129L866.675,103.467L864.533,99.802L862.390,96.137L860.246,92.469L858.101,88.800L855.955,85.129L853.807,81.456L851.659,77.781L849.509,74.103L847.358,70.424L845.206,66.742L843.052,63.058L840.897,59.372L838.741,55.683L836.583,51.992L834.423,48.298L832.262,44.602L830.099,40.902L827.935,37.200L825.769,33.495L823.601,29.786L821.431,26.075L819.260,22.360L817.086,18.642L814.911,14.921L812.733,11.196L810.554,7.468L808.372,3.736L806.188,0.000L806.188,0.000L805.150,0.604L804.111,1.206L803.070,1.804L802.027,2.400L800.983,2.992L799.937,3.581L798.889,4.167L797.839,4.750L796.787,5.330L795.734,5.907L794.680,6.480L793.623,7.051L792.565,7.619L791.505,8.183L790.444,8.744L789.381,9.302L788.316,9.857L787.250,10.409L786.182,10.958L785.112,11.504L784.041,12.046L782.968,12.586L781.894,13.122L780.818,13.655L779.740,14.185L778.661,14.711L777.581,15.235L776.499,15.755L775.415,16.272L774.330,16.786L773.243,17.297L772.155,17.804L771.065,18.309L769.974,18.810L768.882,19.308L767.787,19.803L766.692,20.294L765.595,20.783L764.497,21.268L763.397,21.749L762.296,22.228L761.193,22.703L760.089,23.176L758.984,23.644L757.877,24.110L756.769,24.572L755.659,25.032L754.549,25.487L753.436,25.940L752.323,26.389L751.208,26.835L750.092,27.278L748.975,27.718L747.856,28.154L746.736,28.587L745.615,29.016L744.492,29.443L743.369,29.866L742.244,30.285L741.117,30.702L739.990,31.115L738.861,31.525L737.731,31.931L736.600,32.334L735.468,32.734L734.335,33.131L733.200,33.524L732.065,33.913L730.928,34.300L729.790,34.683L728.651,35.063L727.511,35.439L726.369,35.812L725.227,36.182L724.084,36.548L722.939,36.911L721.793,37.271L720.647,37.627L719.499,37.980L718.350,38.330L717.201,38.676L716.050,39.019L714.898,39.358L713.745,39.694L712.592,40.027L711.437,40.356L710.281,40.682L709.125,41.004L707.967,41.323L706.809,41.639L705.649,41.951L704.489,42.260L703.328,42.565L702.166,42.867L701.003,43.166L699.839,43.461L698.674,43.753L697.508,44.041L696.342,44.326L695.175,44.607L694.007,44.885L692.838,45.160L691.668,45.431L690.497,45.699L689.326,45.963L688.154,46.224L686.981,46.481L685.808,46.735L684.633,46.985L683.458,47.232L682.283,47.476L681.106,47.716L679.929,47.953L678.751,48.186L677.573,48.416L676.393,48.642L675.214,48.865L674.033,49.084L672.852,49.300L671.670,49.512L670.488,49.721L669.305,49.927L668.121,50.128L666.937,50.327L665.752,50.522L664.567,50.713L663.381,50.901L662.194,51.086L661.007,51.267L659.820,51.445L658.632,51.619L657.443,51.789L656.254,51.956L655.065,52.120L653.875,52.280L652.684,52.437L651.493,52.590L650.302,52.739L649.110,52.885L647.918,53.028L646.725,53.167L645.532,53.303L644.339,53.435L643.145,53.563L641.951,53.688L640.756,53.810L639.562,53.928L638.366,54.042L637.171,54.153L635.975,54.261L634.779,54.365L633.582,54.465L632.385,54.562L631.188,54.656L629.991,54.746L628.793,54.832L627.595,54.915L626.397,54.994L625.199,55.070L624.000,55.142L622.802,55.211L621.603,55.276L620.404,55.338L619.204,55.396L618.005,55.451L616.805,55.502L615.606,55.550L614.406,55.594L613.206,55.634L612.005,55.671L610.805,55.705L609.605,55.735L608.404,55.761L607.204,55.784L606.003,55.804L604.803,55.820L603.602,55.832L602.401,55.841L601.201,55.846L600.000,55.848L598.799,55.846L597.599,55.841L596.398,55.832L595.197,55.820L593.997,55.804L592.796,55.784L591.596,55.761L590.395,55.735L589.195,55.705L587.995,55.671L586.794,55.634L585.594,55.594L584.394,55.550L583.195,55.502L581.995,55.451L580.796,55.396L579.596,55.338L578.397,55.276L577.198,55.211L576.000,55.142L574.801,55.070L573.603,54.994L572.405,54.915L571.207,54.832L570.009,54.746L568.812,54.656L567.615,54.562L566.418,54.465L565.221,54.365L564.025,54.261L562.829,54.153L561.634,54.042L560.438,53.928L559.244,53.810L558.049,53.688L556.855,53.563L555.661,53.435L554.468,53.303L553.275,53.167L552.082,53.028L550.890,52.885L549.698,52.739L548.507,52.590L547.316,52.437L546.125,52.280L544.935,52.120L543.746,51.956L542.557,51.789L541.368,51.619L540.180,51.445L538.993,51.267L537.806,51.086L536.619,50.901L535.433,50.713L534.248,50.522L533.063,50.327L531.879,50.128L530.695,49.927L529.512,49.721L528.330,49.512L527.148,49.300L525.967,49.084L524.786,48.865L523.607,48.642L522.427,48.416L521.249,48.186L520.071,47.953L518.894,47.716L517.717,47.476L516.542,47.232L515.367,46.985L514.192,46.735L513.019,46.481L511.846,46.224L510.674,45.963L509.503,45.699L508.332,45.431L507.162,45.160L505.993,44.885L504.825,44.607L503.658,44.326L502.492,44.041L501.326,43.753L500.161,43.461L498.997,43.166L497.834,42.867L496.672,42.565L495.511,42.260L494.351,41.951L493.191,41.639L492.033,41.323L490.875,41.004L489.719,40.682L488.563,40.356L487.408,40.027L486.255,39.694L485.102,39.358L483.950,39.019L482.799,38.676L481.650,38.330L480.501,37.980L479.353,37.627L478.207,37.271L477.061,36.911L475.916,36.548L474.773,36.182L473.631,35.812L472.489,35.439L471.349,35.063L470.210,34.683L469.072,34.300L467.935,33.913L466.800,33.524L465.665,33.131L464.532,32.734L463.400,32.334L462.269,31.931L461.139,31.525L460.010,31.115L458.883,30.702L457.756,30.285L456.631,29.866L455.508,29.443L454.385,29.016L453.264,28.587L452.144,28.154L451.025,27.718L449.908,27.278L448.792,26.835L447.677,26.389L446.564,25.940L445.451,25.487L444.341,25.032L443.231,24.572L442.123,24.110L441.016,23.644L439.911,23.176L438.807,22.703L437.704,22.228L436.603,21.749L435.503,21.268L434.405,20.783L433.308,20.294L432.213,19.803L431.118,19.308L430.026,18.810L428.935,18.309L427.845,17.804L426.757,17.297L425.670,16.786L424.585,16.272L423.501,15.755L422.419,15.235L421.339,14.711L420.260,14.185L419.182,13.655L418.106,13.122L417.032,12.586L415.959,12.046L414.888,11.504L413.818,10.958L412.750,10.409L411.684,9.857L410.619,9.302L409.556,8.744L408.495,8.183L407.435,7.619L406.377,7.051L405.320,6.480L404.266,5.907L403.213,5.330L402.161,4.750L401.111,4.167L400.063,3.581L399.017,2.992L397.973,2.400L396.930,1.804L395.889,1.206L394.850,0.604L393.812,0.000L391.628,3.736L389.446,7.468L387.267,11.196L385.089,14.921L382.914,18.642L380.740,22.360L378.569,26.075L376.399,29.786L374.231,33.495L372.065,37.200L369.901,40.902L367.738,44.602L365.577,48.298L363.417,51.992L361.259,55.683L359.103,59.372L356.948,63.058L354.794,66.742L352.642,70.424L350.491,74.103L348.341,77.781L346.193,81.456L344.045,85.129L341.899,88.800L339.754,92.469L337.610,96.137L335.467,99.802L333.325,103.467L331.184,107.129L329.044,110.790L326.904,114.450L324.766,118.108L322.628,121.764L320.491,125.420L318.355,129.074L316.219,132.727L314.084,136.379L311.949,140.030L309.816,143.680L307.682,147.330L305.549,150.978L303.417,154.625L301.285,158.272L299.154,161.918L297.022,165.564L294.892,169.209L292.761,172.853L290.631,176.497L288.501,180.141L286.371,183.784L284.241,187.427L282.112,191.069L279.982,194.712L277.853,198.354L275.723,201.997L273.594,205.639L271.465,209.281L269.335,212.924L267.206,216.566L265.076,220.209L262.947,223.852L260.817,227.495L258.687,231.139L256.556,234.783L254.426,238.427L252.295,242.072L250.164,245.718L248.032,249.364L245.900,253.010L243.768,256.658L241.635,260.306L239.502,263.955L237.369,267.604L235.235,271.255L233.100,274.906L230.965,278.559L228.829,282.212L226.692,285.867L224.555,289.522L222.417,293.179L220.279,296.837L218.140,300.496L216.000,304.157L213.859,307.819L211.717,311.482L209.575,315.147L207.432,318.813L205.288,322.481L203.143,326.150L200.997,329.821L198.850,333.493L196.702,337.168L194.553,340.843L192.402,344.521L190.251,348.201L188.099,351.882L185.946,355.566L183.791,359.251L181.636,362.938L179.479,366.628L177.321,370.320L175.161,374.013L173.001,377.709L170.839,381.407L168.675,385.108L166.511,388.810L164.345,392.516L162.177,396.223L160.008,399.933L157.838,403.646L155.666,407.361L153.493,411.078L151.318,414.798L149.141,418.521L146.963,422.247L144.784,425.975L142.602,429.707L140.419,433.441L138.235,437.178L136.048,440.918L133.860,444.661L131.670,448.407L129.479,452.156L127.285,455.908L125.090,459.663L122.892,463.422L120.693,467.183L118.492,470.949L116.289,474.717L114.084,478.489L111.877,482.264L109.668,486.043L107.457,489.825L105.244,493.611L103.028,497.400L100.811,501.193L98.591,504.990L96.369,508.790L94.145,512.595L91.919,516.403L89.691,520.215L87.460,524.031L85.227,527.851L82.991,531.675L80.753,535.503L78.513,539.335L76.270,543.171L74.025,547.012L71.777,550.856L69.527,554.705L67.275,558.559L65.019,562.416L62.761,566.279L60.501,570.145L58.238,574.016L55.972,577.892L53.704,581.772L51.432,585.658L49.158,589.547L46.882,593.442L44.602,597.341L42.320,601.245L40.034,605.154L37.746,609.068L35.455,612.987L33.161,616.912L30.864,620.841L28.564,624.775L26.261,628.715L23.955,632.659L21.645,636.610L19.333,640.565L17.017,644.526L14.699,648.492L12.377,652.464L10.052,656.441L7.723,660.424L5.391,664.413L3.056,668.407L0.718,672.407L0.718,672.407L3.733,674.164L6.754,675.912L9.780,677.651L12.810,679.381L15.846,681.103L18.887,682.815L21.933,684.518L24.984,686.213L28.040,687.898L31.100,689.575L34.166,691.242L37.237,692.901L40.312,694.550L43.392,696.191L46.478,697.822L49.567,699.444L52.662,701.057L55.761,702.662L58.866,704.257L61.974,705.842L65.088,707.419L68.206,708.987L71.328,710.545L74.455,712.094L77.587,713.634L80.723,715.165L83.864,716.687L87.009,718.199L90.159,719.702L93.313,721.196L96.471,722.680L99.634,724.155L102.801,725.621L105.972,727.078L109.148,728.525L112.328,729.963L115.512,731.392L118.700,732.811L121.892,734.221L125.089,735.621L128.290,737.013L131.494,738.394L134.703,739.766L137.916,741.129L141.133,742.483L144.353,743.826L147.578,745.161L150.807,746.486L154.039,747.801L157.275,749.107L160.515,750.404L163.759,751.691L167.007,752.968L170.259,754.236L173.514,755.494L176.773,756.743L180.035,757.982L183.301,759.211L186.571,760.431L189.844,761.641L193.121,762.842L196.401,764.033L199.685,765.214L202.972,766.386L206.263,767.548L209.557,768.700L212.855,769.843L216.156,770.976L219.460,772.099L222.767,773.213L226.078,774.317L229.392,775.411L232.709,776.495L236.029,777.570L239.353,778.635L242.679,779.690L246.009,780.735L249.342,781.770L252.677,782.796L256.016,783.812L259.358,784.818L262.702,785.814L266.050,786.801L269.400,787.777L272.754,788.744L276.110,789.701L279.469,790.648L282.830,791.585L286.195,792.512L289.562,793.430L292.932,794.337L296.304,795.235L299.679,796.122L303.057,797.000L306.437,797.868L309.820,798.725L313.205,799.573L316.593,800.411L319.983,801.239L323.376,802.057L326.771,802.865L330.168,803.663L333.568,804.451L336.970,805.229L340.375,805.997L343.781,806.755L347.190,807.503L350.601,808.241L354.014,808.969L357.429,809.687L360.846,810.395L364.266,811.093L367.687,811.781L371.111,812.459L374.536,813.126L377.963,813.784L381.393,814.431L384.824,815.069L388.257,815.696L391.692,816.314L395.128,816.921L398.567,817.518L402.007,818.105L405.449,818.682L408.892,819.248L412.337,819.805L415.784,820.351L419.233,820.888L422.683,821.414L426.134,821.930L429.587,822.436L433.042,822.932L436.497,823.417L439.955,823.893L443.413,824.358L446.874,824.813L450.335,825.258L453.798,825.693L457.262,826.118L460.727,826.532L464.193,826.936L467.661,827.330L471.129,827.714L474.599,828.088L478.070,828.451L481.542,828.804L485.015,829.148L488.489,829.480L491.964,829.803L495.440,830.115L498.916,830.418L502.394,830.710L505.872,830.991L509.352,831.263L512.832,831.524L516.313,831.775L519.794,832.016L523.276,832.247L526.759,832.467L530.243,832.677L533.727,832.877L537.212,833.067L540.697,833.246L544.183,833.415L547.669,833.574L551.156,833.723L554.643,833.861L558.130,833.990L561.618,834.108L565.106,834.215L568.595,834.313L572.084,834.400L575.573,834.477L579.062,834.543L582.551,834.600L586.041,834.646L589.531,834.682L593.020,834.707L596.510,834.723L600.000,834.728L603.490,834.723Z" /></g><g id="graticule"><path data-lat="35" d="M22.178565,635.697534L37.183534,644.318066L37.183534,644.318066L52.317084,652.710822L52.317084,652.710822L67.575756,660.873885L67.575756,660.873885L82.956065,668.805389L82.956065,668.805389L98.454498,676.503522L98.454498,676.503522L114.067513,683.966527L114.067513,683.966527L129.791543,691.192697L129.791543,691.192697L145.622997,698.180382L145.622997,698.180382L161.558257,704.927986L161.558257,704.927986L177.593683,711.433967L177.593683,711.433967L193.725612,717.696838L193.725612,717.696838L209.950357,723.715169L209.950357,723.715169L226.264213,729.487586L226.264213,729.487586L242.663451,735.012768L242.663451,735.012768L259.144327,740.289454L259.144327,740.289454L275.703073,745.316439L275.703073,745.316439L292.335909,750.092574L292.335909,750.092574L309.039033,754.616767L309.039033,754.616767L325.808629,758.887986L325.808629,758.887986L342.640867,762.905254L342.640867,762.905254L359.531901,766.667653L359.531901,766.667653L376.477871,770.174325L376.477871,770.174325L393.474908,773.424468L393.474908,773.424468L410.519126,776.417339L410.519126,776.417339L427.606634,779.152254L427.606634,779.152254L444.733526,781.628590L444.733526,781.628590L461.895890,783.845780L461.895890,783.845780L479.089805,785.803317L479.089805,785.803317L496.311343,787.500754L496.311343,787.500754L513.556570,788.937704L513.556570,788.937704L530.821546,790.113839L530.821546,790.113839L548.102326,791.028889L548.102326,791.028889L565.394962,791.682645L565.394962,791.682645L582.695504,792.074959L582.695504,792.074959L600.000000,792.205740L600.000000,792.205740L617.304496,792.074959L617.304496,792.074959L634.605038,791.682645L634.605038,791.682645L651.897674,791.028889L651.897674,791.028889L669.178454,790.113839L669.178454,790.113839L686.443430,788.937704L686.443430,788.937704L703.688657,787.500754L703.688657,787.500754L720.910195,785.803317L720.910195,785.803317L738.104110,783.845780L738.104110,783.845780L755.266474,781.628590L755.266474,781.628590L772.393366,779.152254L772.393366,779.152254L789.480874,776.417339L789.480874,776.417339L806.525092,773.424468L806.525092,773.424468L823.522129,770.174325L823.522129,770.174325L840.468099,766.667653L840.468099,766.667653L857.359133,762.905254L857.359133,762.905254L874.191371,758.887986L874.191371,758.887986L890.960967,754.616767L890.960967,754.616767L907.664091,750.092574L907.664091,750.092574L924.296927,745.316439L924.296927,745.316439L940.855673,740.289454L940.855673,740.289454L957.336549,735.012768L957.336549,735.012768L973.735787,729.487586L973.735787,729.487586L990.049643,723.715169L990.049643,723.715169L1006.274388,717.696838L1006.274388,717.696838L1022.406317,711.433967L1022.406317,711.433967L1038.441743,704.927986L1038.441743,704.927986L1054.377003,698.180382L1054.377003,698.180382L1070.208457,691.192697L1070.208457,691.192697L1085.932487,683.966527L1085.932487,683.966527L1101.545502,676.503522L1101.545502,676.503522L1117.043935,668.805389L1117.043935,668.805389L1132.424244,660.873885L1132.424244,660.873885L1147.682916,652.710822L1147.682916,652.710822L1162.816466,644.318066L1162.816466,644.318066L1177.821435,635.697534" /><path data-lat="40" d="M74.716137,545.829468L88.356801,553.666191L88.356801,553.666191L102.114355,561.295848L102.114355,561.295848L115.985655,568.716696L115.985655,568.716696L129.967532,575.927039L129.967532,575.927039L144.056792,582.925231L144.056792,582.925231L158.250216,589.709673L158.250216,589.709673L172.544562,596.278814L172.544562,596.278814L186.936564,602.631154L186.936564,602.631154L201.422934,608.765242L201.422934,608.765242L216.000362,614.679676L216.000362,614.679676L230.665518,620.373105L230.665518,620.373105L245.415052,625.844228L245.415052,625.844228L260.245594,631.091796L260.245594,631.091796L275.153756,636.114609L275.153756,636.114609L290.136132,640.911520L290.136132,640.911520L305.189299,645.481434L305.189299,645.481434L320.309818,649.823305L320.309818,649.823305L335.494235,653.936143L335.494235,653.936143L350.739080,657.819007L350.739080,657.819007L366.040871,661.471011L366.040871,661.471011L381.396112,664.891320L381.396112,664.891320L396.801295,668.079153L396.801295,668.079153L412.252901,671.033781L412.252901,671.033781L427.747399,673.754530L427.747399,673.754530L443.281249,676.240777L443.281249,676.240777L458.850904,678.491955L458.850904,678.491955L474.452805,680.507550L474.452805,680.507550L490.083389,682.287101L490.083389,682.287101L505.739083,683.830202L505.739083,683.830202L521.416313,685.136499L521.416313,685.136499L537.111496,686.205695L537.111496,686.205695L552.821046,687.037546L552.821046,687.037546L568.541375,687.631860L568.541375,687.631860L584.268890,687.988503L584.268890,687.988503L600.000000,688.107393L600.000000,688.107393L615.731110,687.988503L615.731110,687.988503L631.458625,687.631860L631.458625,687.631860L647.178954,687.037546L647.178954,687.037546L662.888504,686.205695L662.888504,686.205695L678.583687,685.136499L678.583687,685.136499L694.260917,683.830202L694.260917,683.830202L709.916611,682.287101L709.916611,682.287101L725.547195,680.507550L725.547195,680.507550L741.149096,678.491955L741.149096,678.491955L756.718751,676.240777L756.718751,676.240777L772.252601,673.754530L772.252601,673.754530L787.747099,671.033781L787.747099,671.033781L803.198705,668.079153L803.198705,668.079153L818.603888,664.891320L818.603888,664.891320L833.959129,661.471011L833.959129,661.471011L849.260920,657.819007L849.260920,657.819007L864.505765,653.936143L864.505765,653.936143L879.690182,649.823305L879.690182,649.823305L894.810701,645.481434L894.810701,645.481434L909.863868,640.911520L909.863868,640.911520L924.846244,636.114609L924.846244,636.114609L939.754406,631.091796L939.754406,631.091796L954.584948,625.844228L954.584948,625.844228L969.334482,620.373105L969.334482,620.373105L983.999638,614.679676L983.999638,614.679676L998.577066,608.765242L998.577066,608.765242L1013.063436,602.631154L1013.063436,602.631154L1027.455438,596.278814L1027.455438,596.278814L1041.749784,589.709673L1041.749784,589.709673L1055.943208,582.925231L1055.943208,582.925231L1070.032468,575.927039L1070.032468,575.927039L1084.014345,568.716696L1084.014345,568.716696L1097.885645,561.295848L1097.885645,561.295848L1111.643199,553.666191L1111.643199,553.666191L1125.283863,545.829468" /><path data-lat="45" d="M125.934247,458.218405L138.244871,465.291004L138.244871,465.291004L150.660986,472.176726L150.660986,472.176726L163.179756,478.874000L163.179756,478.874000L175.798322,485.381295L175.798322,485.381295L188.513801,491.697124L188.513801,491.697124L201.323287,497.820045L201.323287,497.820045L214.223855,503.748658L214.223855,503.748658L227.212556,509.481609L227.212556,509.481609L240.286424,515.017589L240.286424,515.017589L253.442471,520.355333L253.442471,520.355333L266.677693,525.493621L266.677693,525.493621L279.989065,530.431279L279.989065,530.431279L293.373546,535.167180L293.373546,535.167180L306.828079,539.700241L306.828079,539.700241L320.349590,544.029426L320.349590,544.029426L333.934989,548.153748L333.934989,548.153748L347.581173,552.072263L347.581173,552.072263L361.285024,555.784076L361.285024,555.784076L375.043412,559.288339L375.043412,559.288339L388.853193,562.584252L388.853193,562.584252L402.711212,565.671062L402.711212,565.671062L416.614304,568.548063L416.614304,568.548063L430.559291,571.214598L430.559291,571.214598L444.542989,573.670059L444.542989,573.670059L458.562203,575.913883L458.562203,575.913883L472.613729,577.945559L472.613729,577.945559L486.694358,579.764622L486.694358,579.764622L500.800872,581.370657L500.800872,581.370657L514.930049,582.763296L514.930049,582.763296L529.078661,583.942223L529.078661,583.942223L543.243476,584.907166L543.243476,584.907166L557.421258,585.657906L557.421258,585.657906L571.608766,586.194272L571.608766,586.194272L585.802761,586.516140L585.802761,586.516140L600.000000,586.623438L600.000000,586.623438L614.197239,586.516140L614.197239,586.516140L628.391234,586.194272L628.391234,586.194272L642.578742,585.657906L642.578742,585.657906L656.756524,584.907166L656.756524,584.907166L670.921339,583.942223L670.921339,583.942223L685.069951,582.763296L685.069951,582.763296L699.199128,581.370657L699.199128,581.370657L713.305642,579.764622L713.305642,579.764622L727.386271,577.945559L727.386271,577.945559L741.437797,575.913883L741.437797,575.913883L755.457011,573.670059L755.457011,573.670059L769.440709,571.214598L769.440709,571.214598L783.385696,568.548063L783.385696,568.548063L797.288788,565.671062L797.288788,565.671062L811.146807,562.584252L811.146807,562.584252L824.956588,559.288339L824.956588,559.288339L838.714976,555.784076L838.714976,555.784076L852.418827,552.072263L852.418827,552.072263L866.065011,548.153748L866.065011,548.153748L879.650410,544.029426L879.650410,544.029426L893.171921,539.700241L893.171921,539.700241L906.626454,535.167180L906.626454,535.167180L920.010935,530.431279L920.010935,530.431279L933.322307,525.493621L933.322307,525.493621L946.557529,520.355333L946.557529,520.355333L959.713576,515.017589L959.713576,515.017589L972.787444,509.481609L972.787444,509.481609L985.776145,503.748658L985.776145,503.748658L998.676713,497.820045L998.676713,497.820045L1011.486199,491.697124L1011.486199,491.697124L1024.201678,485.381295L1024.201678,485.381295L1036.820244,478.874000L1036.820244,478.874000L1049.339014,472.176726L1049.339014,472.176726L1061.755129,465.291004L1061.755129,465.291004L1074.065753,458.218405" /><path data-lat="50" d="M176.158048,372.308157L187.164451,378.631465L187.164451,378.631465L198.265169,384.787696L198.265169,384.787696L209.457668,390.775443L209.457668,390.775443L220.739389,396.593337L220.739389,396.593337L232.107756,402.240050L232.107756,402.240050L243.560170,407.714292L243.560170,407.714292L255.094017,413.014812L255.094017,413.014812L266.706660,418.140400L266.706660,418.140400L278.395448,423.089883L278.395448,423.089883L290.157708,427.862132L290.157708,427.862132L301.990755,432.456055L301.990755,432.456055L313.891884,436.870605L313.891884,436.870605L325.858378,441.104771L325.858378,441.104771L337.887501,445.157588L337.887501,445.157588L349.976506,449.028128L349.976506,449.028128L362.122632,452.715507L362.122632,452.715507L374.323102,456.218884L374.323102,456.218884L386.575130,459.537458L386.575130,459.537458L398.875918,462.670470L398.875918,462.670470L411.222653,465.617205L411.222653,465.617205L423.612517,468.376990L423.612517,468.376990L436.042678,470.949194L436.042678,470.949194L448.510296,473.333229L448.510296,473.333229L461.012523,475.528552L461.012523,475.528552L473.546503,477.534659L473.546503,477.534659L486.109373,479.351094L486.109373,479.351094L498.698262,480.977441L498.698262,480.977441L511.310294,482.413328L511.310294,482.413328L523.942589,483.658428L523.942589,483.658428L536.592259,484.712455L536.592259,484.712455L549.256415,485.575170L549.256415,485.575170L561.932164,486.246375L561.932164,486.246375L574.616610,486.725916L574.616610,486.725916L587.306855,487.013685L587.306855,487.013685L600.000000,487.109615L600.000000,487.109615L612.693145,487.013685L612.693145,487.013685L625.383390,486.725916L625.383390,486.725916L638.067836,486.246375L638.067836,486.246375L650.743585,485.575170L650.743585,485.575170L663.407741,484.712455L663.407741,484.712455L676.057411,483.658428L676.057411,483.658428L688.689706,482.413328L688.689706,482.413328L701.301738,480.977441L701.301738,480.977441L713.890627,479.351094L713.890627,479.351094L726.453497,477.534659L726.453497,477.534659L738.987477,475.528552L738.987477,475.528552L751.489704,473.333229L751.489704,473.333229L763.957322,470.949194L763.957322,470.949194L776.387483,468.376990L776.387483,468.376990L788.777347,465.617205L788.777347,465.617205L801.124082,462.670470L801.124082,462.670470L813.424870,459.537458L813.424870,459.537458L825.676898,456.218884L825.676898,456.218884L837.877368,452.715507L837.877368,452.715507L850.023494,449.028128L850.023494,449.028128L862.112499,445.157588L862.112499,445.157588L874.141622,441.104771L874.141622,441.104771L886.108116,436.870605L886.108116,436.870605L898.009245,432.456055L898.009245,432.456055L909.842292,427.862132L909.842292,427.862132L921.604552,423.089883L921.604552,423.089883L933.293340,418.140400L933.293340,418.140400L944.905983,413.014812L944.905983,413.014812L956.439830,407.714292L956.439830,407.714292L967.892244,402.240050L967.892244,402.240050L979.260611,396.593337L979.260611,396.593337L990.542332,390.775443L990.542332,390.775443L1001.734831,384.787696L1001.734831,384.787696L1012.835549,378.631465L1012.835549,378.631465L1023.841952,372.308157" /><path data-lat="55" d="M225.706031,287.553928L235.425763,293.138029L235.425763,293.138029L245.228785,298.574584L245.228785,298.574584L255.112858,303.862351L255.112858,303.862351L265.075723,309.000121L265.075723,309.000121L275.115104,313.986722L275.115104,313.986722L285.228709,318.821014L285.228709,318.821014L295.414225,323.501893L295.414225,323.501893L305.669327,328.028289L305.669327,328.028289L315.991671,332.399167L315.991671,332.399167L326.378900,336.613530L326.378900,336.613530L336.828639,340.670415L336.828639,340.670415L347.338503,344.568895L347.338503,344.568895L357.906089,348.308079L357.906089,348.308079L368.528983,351.887113L368.528983,351.887113L379.204759,355.305179L379.204759,355.305179L389.930978,358.561496L389.930978,358.561496L400.705189,361.655321L400.705189,361.655321L411.524930,364.585947L411.524930,364.585947L422.387730,367.352704L422.387730,367.352704L433.291108,369.954959L433.291108,369.954959L444.232571,372.392120L444.232571,372.392120L455.209621,374.663628L455.209621,374.663628L466.219749,376.768965L466.219749,376.768965L477.260441,378.707649L477.260441,378.707649L488.329173,380.479239L488.329173,380.479239L499.423418,382.083329L499.423418,382.083329L510.540641,383.519552L510.540641,383.519552L521.678301,384.787581L521.678301,384.787581L532.833854,385.887126L532.833854,385.887126L544.004752,386.817936L544.004752,386.817936L555.188443,387.579798L555.188443,387.579798L566.382371,388.172537L566.382371,388.172537L577.583980,388.596019L577.583980,388.596019L588.790709,388.850148L588.790709,388.850148L600.000000,388.934863L600.000000,388.934863L611.209291,388.850148L611.209291,388.850148L622.416020,388.596019L622.416020,388.596019L633.617629,388.172537L633.617629,388.172537L644.811557,387.579798L644.811557,387.579798L655.995248,386.817936L655.995248,386.817936L667.166146,385.887126L667.166146,385.887126L678.321699,384.787581L678.321699,384.787581L689.459359,383.519552L689.459359,383.519552L700.576582,382.083329L700.576582,382.083329L711.670827,380.479239L711.670827,380.479239L722.739559,378.707649L722.739559,378.707649L733.780251,376.768965L733.780251,376.768965L744.790379,374.663628L744.790379,374.663628L755.767429,372.392120L755.767429,372.392120L766.708892,369.954959L766.708892,369.954959L777.612270,367.352704L777.612270,367.352704L788.475070,364.585947L788.475070,364.585947L799.294811,361.655321L799.294811,361.655321L810.069022,358.561496L810.069022,358.561496L820.795241,355.305179L820.795241,355.305179L831.471017,351.887113L831.471017,351.887113L842.093911,348.308079L842.093911,348.308079L852.661497,344.568895L852.661497,344.568895L863.171361,340.670415L863.171361,340.670415L873.621100,336.613530L873.621100,336.613530L884.008329,332.399167L884.008329,332.399167L894.330673,328.028289L894.330673,328.028289L904.585775,323.501893L904.585775,323.501893L914.771291,318.821014L914.771291,318.821014L924.884896,313.986722L924.884896,313.986722L934.924277,309.000121L934.924277,309.000121L944.887142,303.862351L944.887142,303.862351L954.771215,298.574584L954.771215,298.574584L964.574237,293.138029L964.574237,293.138029L974.293969,287.553928" /><path data-lat="60" d="M274.904510,203.397542L283.346648,208.247649L283.346648,208.247649L291.861127,212.969605L291.861127,212.969605L300.446003,217.562329L300.446003,217.562329L309.099315,222.024774L309.099315,222.024774L317.819086,226.355919L317.819086,226.355919L326.603324,230.554775L326.603324,230.554775L335.450021,234.620383L335.450021,234.620383L344.357157,238.551814L344.357157,238.551814L353.322697,242.348169L353.322697,242.348169L362.344593,246.008582L362.344593,246.008582L371.420783,249.532216L371.420783,249.532216L380.549194,252.918266L380.549194,252.918266L389.727740,256.165959L389.727740,256.165959L398.954325,259.274552L398.954325,259.274552L408.226841,262.243336L408.226841,262.243336L417.543169,265.071632L417.543169,265.071632L426.901180,267.758794L426.901180,267.758794L436.298738,270.304208L436.298738,270.304208L445.733695,272.707293L445.733695,272.707293L455.203895,274.967500L455.203895,274.967500L464.707175,277.084311L464.707175,277.084311L474.241363,279.057245L474.241363,279.057245L483.804283,280.885849L483.804283,280.885849L493.393748,282.569706L493.393748,282.569706L503.007569,284.108432L503.007569,284.108432L512.643548,285.501675L512.643548,285.501675L522.299485,286.749116L522.299485,286.749116L531.973173,287.850471L531.973173,287.850471L541.662402,288.805488L541.662402,288.805488L551.364959,289.613949L551.364959,289.613949L561.078627,290.275669L561.078627,290.275669L570.801187,290.790497L570.801187,290.790497L580.530418,291.158315L580.530418,291.158315L590.264097,291.379039L590.264097,291.379039L600.000000,291.452620L600.000000,291.452620L609.735903,291.379039L609.735903,291.379039L619.469582,291.158315L619.469582,291.158315L629.198813,290.790497L629.198813,290.790497L638.921373,290.275669L638.921373,290.275669L648.635041,289.613949L648.635041,289.613949L658.337598,288.805488L658.337598,288.805488L668.026827,287.850471L668.026827,287.850471L677.700515,286.749116L677.700515,286.749116L687.356452,285.501675L687.356452,285.501675L696.992431,284.108432L696.992431,284.108432L706.606252,282.569706L706.606252,282.569706L716.195717,280.885849L716.195717,280.885849L725.758637,279.057245L725.758637,279.057245L735.292825,277.084311L735.292825,277.084311L744.796105,274.967500L744.796105,274.967500L754.266305,272.707293L754.266305,272.707293L763.701262,270.304208L763.701262,270.304208L773.098820,267.758794L773.098820,267.758794L782.456831,265.071632L782.456831,265.071632L791.773159,262.243336L791.773159,262.243336L801.045675,259.274552L801.045675,259.274552L810.272260,256.165959L810.272260,256.165959L819.450806,252.918266L819.450806,252.918266L828.579217,249.532216L828.579217,249.532216L837.655407,246.008582L837.655407,246.008582L846.677303,242.348169L846.677303,242.348169L855.642843,238.551814L855.642843,238.551814L864.549979,234.620383L864.549979,234.620383L873.396676,230.554775L873.396676,230.554775L882.180914,226.355919L882.180914,226.355919L890.900685,222.024774L890.900685,222.024774L899.553997,217.562329L899.553997,217.562329L908.138873,212.969605L908.138873,212.969605L916.653352,208.247649L916.653352,208.247649L925.095490,203.397542" /><path data-lat="65" d="M324.107773,119.232974L331.272191,123.349017L331.272191,123.349017L338.498002,127.356303L338.498002,127.356303L345.783556,131.253918L345.783556,131.253918L353.127188,135.040971L353.127188,135.040971L360.527220,138.716597L360.527220,138.716597L367.981961,142.279955L367.981961,142.279955L375.489709,145.730232L375.489709,145.730232L383.048749,149.066640L383.048749,149.066640L390.657353,152.288417L390.657353,152.288417L398.313783,155.394825L398.313783,155.394825L406.016290,158.385157L406.016290,158.385157L413.763114,161.258728L413.763114,161.258728L421.552486,164.014882L421.552486,164.014882L429.382625,166.652989L429.382625,166.652989L437.251744,169.172447L437.251744,169.172447L445.158044,171.572679L445.158044,171.572679L453.099719,173.853139L453.099719,173.853139L461.074954,176.013304L461.074954,176.013304L469.081928,178.052682L469.081928,178.052682L477.118812,179.970806L477.118812,179.970806L485.183769,181.767237L485.183769,181.767237L493.274956,183.441567L493.274956,183.441567L501.390526,184.993411L501.390526,184.993411L509.528624,186.422417L509.528624,186.422417L517.687391,187.728256L517.687391,187.728256L525.864963,188.910631L525.864963,188.910631L534.059472,189.969272L534.059472,189.969272L542.269046,190.903937L542.269046,190.903937L550.491808,191.714412L550.491808,191.714412L558.725882,192.400512L558.725882,192.400512L566.969384,192.962080L566.969384,192.962080L575.220433,193.398989L575.220433,193.398989L583.477143,193.711138L583.477143,193.711138L591.737628,193.898456L591.737628,193.898456L600.000000,193.960900L600.000000,193.960900L608.262372,193.898456L608.262372,193.898456L616.522857,193.711138L616.522857,193.711138L624.779567,193.398989L624.779567,193.398989L633.030616,192.962080L633.030616,192.962080L641.274118,192.400512L641.274118,192.400512L649.508192,191.714412L649.508192,191.714412L657.730954,190.903937L657.730954,190.903937L665.940528,189.969272L665.940528,189.969272L674.135037,188.910631L674.135037,188.910631L682.312609,187.728256L682.312609,187.728256L690.471376,186.422417L690.471376,186.422417L698.609474,184.993411L698.609474,184.993411L706.725044,183.441567L706.725044,183.441567L714.816231,181.767237L714.816231,181.767237L722.881188,179.970806L722.881188,179.970806L730.918072,178.052682L730.918072,178.052682L738.925046,176.013304L738.925046,176.013304L746.900281,173.853139L746.900281,173.853139L754.841956,171.572679L754.841956,171.572679L762.748256,169.172447L762.748256,169.172447L770.617375,166.652989L770.617375,166.652989L778.447514,164.014882L778.447514,164.014882L786.236886,161.258728L786.236886,161.258728L793.983710,158.385157L793.983710,158.385157L801.686217,155.394825L801.686217,155.394825L809.342647,152.288417L809.342647,152.288417L816.951251,149.066640L816.951251,149.066640L824.510291,145.730232L824.510291,145.730232L832.018039,142.279955L832.018039,142.279955L839.472780,138.716597L839.472780,138.716597L846.872812,135.040971L846.872812,135.040971L854.216444,131.253918L854.216444,131.253918L861.501998,127.356303L861.501998,127.356303L868.727809,123.349017L868.727809,123.349017L875.892227,119.232974" /><path data-lat="70" d="M373.731051,34.349948L379.606843,37.725660L379.606843,37.725660L385.532986,41.012177L385.532986,41.012177L391.508126,44.208749L391.508126,44.208749L397.530897,47.314645L397.530897,47.314645L403.599924,50.329155L403.599924,50.329155L409.713821,53.251591L409.713821,53.251591L415.871190,56.081285L415.871190,56.081285L422.070625,58.817591L422.070625,58.817591L428.310710,61.459883L428.310710,61.459883L434.590018,64.007558L434.590018,64.007558L440.907116,66.460035L440.907116,66.460035L447.260559,68.816752L447.260559,68.816752L453.648898,71.077171L453.648898,71.077171L460.070672,73.240775L460.070672,73.240775L466.524414,75.307072L466.524414,75.307072L473.008649,77.275587L473.008649,77.275587L479.521897,79.145873L479.521897,79.145873L486.062669,80.917500L486.062669,80.917500L492.629471,82.590066L492.629471,82.590066L499.220802,84.163187L499.220802,84.163187L505.835158,85.636504L505.835158,85.636504L512.471026,87.009681L512.471026,87.009681L519.126892,88.282403L519.126892,88.282403L525.801233,89.454381L525.801233,89.454381L532.492526,90.525346L532.492526,90.525346L539.199241,91.495053L539.199241,91.495053L545.919847,92.363282L545.919847,92.363282L552.652808,93.129833L552.652808,93.129833L559.396585,93.794533L559.396585,93.794533L566.149639,94.357227L566.149639,94.357227L572.910427,94.817790L572.910427,94.817790L579.677403,95.176114L579.677403,95.176114L586.449022,95.432118L586.449022,95.432118L593.223737,95.585744L593.223737,95.585744L600.000000,95.636957L600.000000,95.636957L606.776263,95.585744L606.776263,95.585744L613.550978,95.432118L613.550978,95.432118L620.322597,95.176114L620.322597,95.176114L627.089573,94.817790L627.089573,94.817790L633.850361,94.357227L633.850361,94.357227L640.603415,93.794533L640.603415,93.794533L647.347192,93.129833L647.347192,93.129833L654.080153,92.363282L654.080153,92.363282L660.800759,91.495053L660.800759,91.495053L667.507474,90.525346L667.507474,90.525346L674.198767,89.454381L674.198767,89.454381L680.873108,88.282403L680.873108,88.282403L687.528974,87.009681L687.528974,87.009681L694.164842,85.636504L694.164842,85.636504L700.779198,84.163187L700.779198,84.163187L707.370529,82.590066L707.370529,82.590066L713.937331,80.917500L713.937331,80.917500L720.478103,79.145873L720.478103,79.145873L726.991351,77.275587L726.991351,77.275587L733.475586,75.307072L733.475586,75.307072L739.929328,73.240775L739.929328,73.240775L746.351102,71.077171L746.351102,71.077171L752.739441,68.816752L752.739441,68.816752L759.092884,66.460035L759.092884,66.460035L765.409982,64.007558L765.409982,64.007558L771.689290,61.459883L771.689290,61.459883L777.929375,58.817591L777.929375,58.817591L784.128810,56.081285L784.128810,56.081285L790.286179,53.251591L790.286179,53.251591L796.400076,50.329155L796.400076,50.329155L802.469103,47.314645L802.469103,47.314645L808.491874,44.208749L808.491874,44.208749L814.467014,41.012177L814.467014,41.012177L820.393157,37.725660L820.393157,37.725660L826.268949,34.349948" /><path data-lon="10.0" d="M421.203843,821.189693L424.415578,800.103086L424.415578,800.103086L427.606634,779.152254L427.606634,779.152254L430.777867,758.331565L430.777867,758.331565L433.930121,737.635483L433.930121,737.635483L437.064227,717.058557L437.064227,717.058557L440.181000,696.595420L440.181000,696.595420L443.281249,676.240777L443.281249,676.240777L446.365770,655.989399L446.365770,655.989399L449.435349,635.836117L449.435349,635.836117L452.490767,615.775812L452.490767,615.775812L455.532796,595.803413L455.532796,595.803413L458.562203,575.913883L458.562203,575.913883L461.579750,556.102216L461.579750,556.102216L464.586197,536.363429L464.586197,536.363429L467.582301,516.692550L467.582301,516.692550L470.568818,497.084616L470.568818,497.084616L473.546503,477.534659L473.546503,477.534659L476.516117,458.037699L476.516117,458.037699L479.478421,438.588734L479.478421,438.588734L482.434181,419.182730L482.434181,419.182730L485.384172,399.814609L485.384172,399.814609L488.329173,380.479239L488.329173,380.479239L491.269979,361.171420L491.269979,361.171420L494.207393,341.885868L494.207393,341.885868L497.142235,322.617204L497.142235,322.617204L500.075341,303.359935L500.075341,303.359935L503.007569,284.108432L503.007569,284.108432L505.939799,264.856914L505.939799,264.856914L508.872939,245.599422L508.872939,245.599422L511.807928,226.329793L511.807928,226.329793L514.745740,207.041627L514.745740,207.041627L517.687391,187.728256L517.687391,187.728256L520.633944,168.382701L520.633944,168.382701L523.586517,148.997627L523.586517,148.997627L526.546289,129.565285L526.546289,129.565285L529.514512,110.077451L529.514512,110.077451L532.492526,90.525346L532.492526,90.525346L535.481764,70.899544L535.481764,70.899544L538.483778,51.189861" /><path data-lon="5.0" d="M510.346010,831.338580L511.956475,810.069668L511.956475,810.069668L513.556570,788.937704L513.556570,788.937704L515.146726,767.937009L515.146726,767.937009L516.727365,747.061997L516.727365,747.061997L518.298903,726.307172L518.298903,726.307172L519.861751,705.667120L519.861751,705.667120L521.416313,685.136499L521.416313,685.136499L522.962988,664.710037L522.962988,664.710037L524.502171,644.382518L524.502171,644.382518L526.034254,624.148781L526.034254,624.148781L527.559622,604.003709L527.559622,604.003709L529.078661,583.942223L529.078661,583.942223L530.591754,563.959273L530.591754,563.959273L532.099281,544.049832L532.099281,544.049832L533.601621,524.208888L533.601621,524.208888L535.099154,504.431433L535.099154,504.431433L536.592259,484.712455L536.592259,484.712455L538.081316,465.046933L538.081316,465.046933L539.566708,445.429820L539.566708,445.429820L541.048819,425.856040L541.048819,425.856040L542.528036,406.320471L542.528036,406.320471L544.004752,386.817936L544.004752,386.817936L545.479364,367.343189L545.479364,367.343189L546.952275,347.890903L546.952275,347.890903L548.423897,328.455651L548.423897,328.455651L549.894648,309.031892L549.894648,309.031892L551.364959,289.613949L551.364959,289.613949L552.835271,270.195991L552.835271,270.195991L554.306039,250.772007L554.306039,250.772007L555.777735,231.335781L555.777735,231.335781L557.250846,211.880858L557.250846,211.880858L558.725882,192.400512L558.725882,192.400512L560.203375,172.887704L560.203375,172.887704L561.683888,153.335035L561.683888,153.335035L563.168010,133.734689L563.168010,133.734689L564.656370,114.078372L564.656370,114.078372L566.149639,94.357227L566.149639,94.357227L567.648537,74.561750L567.648537,74.561750L569.153841,54.681665" /><path data-lon="15.0" d="M333.082397,804.339269L337.877068,783.555349L337.877068,783.555349L342.640867,762.905254L342.640867,762.905254L347.375074,742.383434L347.375074,742.383434L352.080947,721.984431L352.080947,721.984431L356.759727,701.702875L356.759727,701.702875L361.412634,681.533475L361.412634,681.533475L366.040871,661.471011L366.040871,661.471011L370.645628,641.510330L370.645628,641.510330L375.228080,621.646337L375.228080,621.646337L379.789390,601.873986L379.789390,601.873986L384.330713,582.188279L384.330713,582.188279L388.853193,562.584252L388.853193,562.584252L393.357968,543.056970L393.357968,543.056970L397.846172,523.601522L397.846172,523.601522L402.318935,504.213007L402.318935,504.213007L406.777385,484.886534L406.777385,484.886534L411.222653,465.617205L411.222653,465.617205L415.655871,446.400113L415.655871,446.400113L420.078175,427.230326L420.078175,427.230326L424.490711,408.102884L424.490711,408.102884L428.894633,389.012781L428.894633,389.012781L433.291108,369.954959L433.291108,369.954959L437.681318,350.924293L437.681318,350.924293L442.066465,331.915574L442.066465,331.915574L446.447773,312.923501L446.447773,312.923501L450.826489,293.942658L450.826489,293.942658L455.203895,274.967500L455.203895,274.967500L459.581303,255.992326L459.581303,255.992326L463.960070,237.011265L463.960070,237.011265L468.341597,218.018240L468.341597,218.018240L472.727339,199.006944L472.727339,199.006944L477.118812,179.970806L477.118812,179.970806L481.517603,160.902945L481.517603,160.902945L485.925379,141.796132L485.925379,141.796132L490.343904,122.642730L490.343904,122.642730L494.775046,103.434633L494.775046,103.434633L499.220802,84.163187L499.220802,84.163187L503.683316,64.819102L503.683316,64.819102L508.164902,45.392340" /><path data-lon="0.0" d="M600.000000,834.727992L600.000000,813.398196L600.000000,813.398196L600.000000,792.205740L600.000000,792.205740L600.000000,771.144928L600.000000,771.144928L600.000000,750.210159L600.000000,750.210159L600.000000,729.395921L600.000000,729.395921L600.000000,708.696785L600.000000,708.696785L600.000000,688.107393L600.000000,688.107393L600.000000,667.622458L600.000000,667.622458L600.000000,647.236750L600.000000,647.236750L600.000000,626.945092L600.000000,626.945092L600.000000,606.742352L600.000000,606.742352L600.000000,586.623438L600.000000,586.623438L600.000000,566.583285L600.000000,566.583285L600.000000,546.616852L600.000000,546.616852L600.000000,526.719111L600.000000,526.719111L600.000000,506.885040L600.000000,506.885040L600.000000,487.109615L600.000000,487.109615L600.000000,467.387798L600.000000,467.387798L600.000000,447.714530L600.000000,447.714530L600.000000,428.084718L600.000000,428.084718L600.000000,408.493226L600.000000,408.493226L600.000000,388.934863L600.000000,388.934863L600.000000,369.404368L600.000000,369.404368L600.000000,349.896398L600.000000,349.896398L600.000000,330.405511L600.000000,330.405511L600.000000,310.926149L600.000000,310.926149L600.000000,291.452620L600.000000,291.452620L600.000000,271.979076L600.000000,271.979076L600.000000,252.499489L600.000000,252.499489L600.000000,233.007625L600.000000,233.007625L600.000000,213.497010L600.000000,213.497010L600.000000,193.960900L600.000000,193.960900L600.000000,174.392235L600.000000,174.392235L600.000000,154.783594L600.000000,154.783594L600.000000,135.127140L600.000000,135.127140L600.000000,115.414554L600.000000,115.414554L600.000000,95.636957L600.000000,95.636957L600.000000,75.784813L600.000000,75.784813L600.000000,55.847819" /><path data-lon="20.0" d="M246.484746,780.883505L252.834981,760.520924L252.834981,760.520924L259.144327,740.289454L259.144327,740.289454L265.414480,720.183660L265.414480,720.183660L271.647108,700.198192L271.647108,700.198192L277.843852,680.327791L277.843852,680.327791L284.006328,660.567271L284.006328,660.567271L290.136132,640.911520L290.136132,640.911520L296.234837,621.355489L296.234837,621.355489L302.304001,601.894185L302.304001,601.894185L308.345164,582.522666L308.345164,582.522666L314.359855,563.236034L314.359855,563.236034L320.349590,544.029426L320.349590,544.029426L326.315876,524.898008L326.315876,524.898008L332.260214,505.836967L332.260214,505.836967L338.184102,486.841503L338.184102,486.841503L344.089034,467.906822L344.089034,467.906822L349.976506,449.028128L349.976506,449.028128L355.848018,430.200610L355.848018,430.200610L361.705077,411.419440L361.705077,411.419440L367.549198,392.679756L367.549198,392.679756L373.381910,373.976654L373.381910,373.976654L379.204759,355.305179L379.204759,355.305179L385.019312,336.660308L385.019312,336.660308L390.827158,318.036940L390.827158,318.036940L396.629919,299.429881L396.629919,299.429881L402.429248,280.833824L402.429248,280.833824L408.226841,262.243336L408.226841,262.243336L414.024438,243.652834L414.024438,243.652834L419.823834,225.056563L419.823834,225.056563L425.626886,206.448570L425.626886,206.448570L431.435520,187.822678L431.435520,187.822678L437.251744,169.172447L437.251744,169.172447L443.077660,150.491136L443.077660,150.491136L448.915478,131.771663L448.915478,131.771663L454.767531,113.006545L454.767531,113.006545L460.636294,94.187840L460.636294,94.187840L466.524414,75.307072L466.524414,75.307072L472.434726,56.355137L472.434726,56.355137L478.370300,37.322201" /><path data-lon="-5.0" d="M689.653990,831.338580L688.043525,810.069668L688.043525,810.069668L686.443430,788.937704L686.443430,788.937704L684.853274,767.937009L684.853274,767.937009L683.272635,747.061997L683.272635,747.061997L681.701097,726.307172L681.701097,726.307172L680.138249,705.667120L680.138249,705.667120L678.583687,685.136499L678.583687,685.136499L677.037012,664.710037L677.037012,664.710037L675.497829,644.382518L675.497829,644.382518L673.965746,624.148781L673.965746,624.148781L672.440378,604.003709L672.440378,604.003709L670.921339,583.942223L670.921339,583.942223L669.408246,563.959273L669.408246,563.959273L667.900719,544.049832L667.900719,544.049832L666.398379,524.208888L666.398379,524.208888L664.900846,504.431433L664.900846,504.431433L663.407741,484.712455L663.407741,484.712455L661.918684,465.046933L661.918684,465.046933L660.433292,445.429820L660.433292,445.429820L658.951181,425.856040L658.951181,425.856040L657.471964,406.320471L657.471964,406.320471L655.995248,386.817936L655.995248,386.817936L654.520636,367.343189L654.520636,367.343189L653.047725,347.890903L653.047725,347.890903L651.576103,328.455651L651.576103,328.455651L650.105352,309.031892L650.105352,309.031892L648.635041,289.613949L648.635041,289.613949L647.164729,270.195991L647.164729,270.195991L645.693961,250.772007L645.693961,250.772007L644.222265,231.335781L644.222265,231.335781L642.749154,211.880858L642.749154,211.880858L641.274118,192.400512L641.274118,192.400512L639.796625,172.887704L639.796625,172.887704L638.316112,153.335035L638.316112,153.335035L636.831990,133.734689L636.831990,133.734689L635.343630,114.078372L635.343630,114.078372L633.850361,94.357227L633.850361,94.357227L632.351463,74.561750L632.351463,74.561750L630.846159,54.681665" /><path data-lon="25.0" d="M161.905264,750.956308L169.774809,731.131312L169.774809,731.131312L177.593683,711.433967L177.593683,711.433967L185.363988,691.858978L185.363988,691.858978L193.087789,672.401140L193.087789,672.401140L200.767121,653.055331L200.767121,653.055331L208.403987,633.816502L208.403987,633.816502L216.000362,614.679676L216.000362,614.679676L223.558199,595.639936L223.558199,595.639936L231.079427,576.692424L231.079427,576.692424L238.565955,557.832326L238.565955,557.832326L246.019676,539.054874L246.019676,539.054874L253.442471,520.355333L253.442471,520.355333L260.836208,501.728997L260.836208,501.728997L268.202745,483.171180L268.202745,483.171180L275.543939,464.677209L275.543939,464.677209L282.861642,446.242416L282.861642,446.242416L290.157708,427.862132L290.157708,427.862132L297.433995,409.531673L297.433995,409.531673L304.692371,391.246338L304.692371,391.246338L311.934714,373.001394L311.934714,373.001394L319.162918,354.792066L319.162918,354.792066L326.378900,336.613530L326.378900,336.613530L333.584600,318.460896L333.584600,318.460896L340.781989,300.329198L340.781989,300.329198L347.973076,282.213377L347.973076,282.213377L355.159911,264.108269L355.159911,264.108269L362.344593,246.008582L362.344593,246.008582L369.529281,227.908881L369.529281,227.908881L376.716199,209.803564L376.716199,209.803564L383.907646,191.686835L383.907646,191.686835L391.106011,173.552679L391.106011,173.552679L398.313783,155.394825L398.313783,155.394825L405.533565,137.206714L405.533565,137.206714L412.768097,118.981447L412.768097,118.981447L420.020269,100.711741L420.020269,100.711741L427.293150,82.389862L427.293150,82.389862L434.590018,64.007558L434.590018,64.007558L441.914389,45.555967L441.914389,45.555967L449.270065,27.025513" /><path data-lon="-10.0" d="M778.796157,821.189693L775.584422,800.103086L775.584422,800.103086L772.393366,779.152254L772.393366,779.152254L769.222133,758.331565L769.222133,758.331565L766.069879,737.635483L766.069879,737.635483L762.935773,717.058557L762.935773,717.058557L759.819000,696.595420L759.819000,696.595420L756.718751,676.240777L756.718751,676.240777L753.634230,655.989399L753.634230,655.989399L750.564651,635.836117L750.564651,635.836117L747.509233,615.775812L747.509233,615.775812L744.467204,595.803413L744.467204,595.803413L741.437797,575.913883L741.437797,575.913883L738.420250,556.102216L738.420250,556.102216L735.413803,536.363429L735.413803,536.363429L732.417699,516.692550L732.417699,516.692550L729.431182,497.084616L729.431182,497.084616L726.453497,477.534659L726.453497,477.534659L723.483883,458.037699L723.483883,458.037699L720.521579,438.588734L720.521579,438.588734L717.565819,419.182730L717.565819,419.182730L714.615828,399.814609L714.615828,399.814609L711.670827,380.479239L711.670827,380.479239L708.730021,361.171420L708.730021,361.171420L705.792607,341.885868L705.792607,341.885868L702.857765,322.617204L702.857765,322.617204L699.924659,303.359935L699.924659,303.359935L696.992431,284.108432L696.992431,284.108432L694.060201,264.856914L694.060201,264.856914L691.127061,245.599422L691.127061,245.599422L688.192072,226.329793L688.192072,226.329793L685.254260,207.041627L685.254260,207.041627L682.312609,187.728256L682.312609,187.728256L679.366056,168.382701L679.366056,168.382701L676.413483,148.997627L676.413483,148.997627L673.453711,129.565285L673.453711,129.565285L670.485488,110.077451L670.485488,110.077451L667.507474,90.525346L667.507474,90.525346L664.518236,70.899544L664.518236,70.899544L661.516222,51.189861" /><path data-lon="30.0" d="M79.826803,714.728526L89.170733,695.554294L89.170733,695.554294L98.454498,676.503522L98.454498,676.503522L107.680594,657.571091L107.680594,657.571091L116.851474,638.751965L116.851474,638.751965L125.969554,620.041189L125.969554,620.041189L135.037211,601.433883L135.037211,601.433883L144.056792,582.925231L144.056792,582.925231L153.030614,564.510479L153.030614,564.510479L161.960968,546.184926L161.960968,546.184926L170.850121,527.943919L170.850121,527.943919L179.700322,509.782845L179.700322,509.782845L188.513801,491.697124L188.513801,491.697124L197.292778,473.682205L197.292778,473.682205L206.039460,455.733556L206.039460,455.733556L214.756050,437.846657L214.756050,437.846657L223.444748,420.016994L223.444748,420.016994L232.107756,402.240050L232.107756,402.240050L240.747279,384.511297L240.747279,384.511297L249.365535,366.826186L249.365535,366.826186L257.964753,349.180139L257.964753,349.180139L266.547185,331.568540L266.547185,331.568540L275.115104,313.986722L275.115104,313.986722L283.670815,296.429956L283.670815,296.429956L292.216659,278.893438L292.216659,278.893438L300.755019,261.372277L300.755019,261.372277L309.288330,243.861476L309.288330,243.861476L317.819086,226.355919L317.819086,226.355919L326.349849,208.850348L326.349849,208.850348L334.883258,191.339346L334.883258,191.339346L343.422047,173.817306L343.422047,173.817306L351.969049,156.278411L351.969049,156.278411L360.527220,138.716597L360.527220,138.716597L369.099652,121.125517L369.099652,121.125517L377.689596,103.498503L377.689596,103.498503L386.300486,85.828507L386.300486,85.828507L394.935965,68.108052L394.935965,68.108052L403.599924,50.329155L403.599924,50.329155L412.296540,32.483245L412.296540,32.483245L421.030325,14.561060" /><path data-lon="-15.0" d="M866.917603,804.339269L862.122932,783.555349L862.122932,783.555349L857.359133,762.905254L857.359133,762.905254L852.624926,742.383434L852.624926,742.383434L847.919053,721.984431L847.919053,721.984431L843.240273,701.702875L843.240273,701.702875L838.587366,681.533475L838.587366,681.533475L833.959129,661.471011L833.959129,661.471011L829.354372,641.510330L829.354372,641.510330L824.771920,621.646337L824.771920,621.646337L820.210610,601.873986L820.210610,601.873986L815.669287,582.188279L815.669287,582.188279L811.146807,562.584252L811.146807,562.584252L806.642032,543.056970L806.642032,543.056970L802.153828,523.601522L802.153828,523.601522L797.681065,504.213007L797.681065,504.213007L793.222615,484.886534L793.222615,484.886534L788.777347,465.617205L788.777347,465.617205L784.344129,446.400113L784.344129,446.400113L779.921825,427.230326L779.921825,427.230326L775.509289,408.102884L775.509289,408.102884L771.105367,389.012781L771.105367,389.012781L766.708892,369.954959L766.708892,369.954959L762.318682,350.924293L762.318682,350.924293L757.933535,331.915574L757.933535,331.915574L753.552227,312.923501L753.552227,312.923501L749.173511,293.942658L749.173511,293.942658L744.796105,274.967500L744.796105,274.967500L740.418697,255.992326L740.418697,255.992326L736.039930,237.011265L736.039930,237.011265L731.658403,218.018240L731.658403,218.018240L727.272661,199.006944L727.272661,199.006944L722.881188,179.970806L722.881188,179.970806L718.482397,160.902945L718.482397,160.902945L714.074621,141.796132L714.074621,141.796132L709.656096,122.642730L709.656096,122.642730L705.224954,103.434633L705.224954,103.434633L700.779198,84.163187L700.779198,84.163187L696.316684,64.819102L696.316684,64.819102L691.835098,45.392340" /><path data-lon="35.0" d="M0.717937,672.406980L11.482908,653.992974L11.482908,653.992974L22.178565,635.697534L22.178565,635.697534L32.807782,617.515743L32.807782,617.515743L43.373386,599.442764L43.373386,599.442764L53.878159,581.473840L53.878159,581.473840L64.324842,563.604283L64.324842,563.604283L74.716137,545.829468L74.716137,545.829468L85.054714,528.144831L85.054714,528.144831L95.343212,510.545856L95.343212,510.545856L105.584243,493.028075L105.584243,493.028075L115.780398,475.587057L115.780398,475.587057L125.934247,458.218405L125.934247,458.218405L136.048346,440.917748L136.048346,440.917748L146.125239,423.680733L146.125239,423.680733L156.167464,406.503021L156.167464,406.503021L166.177555,389.380275L166.177555,389.380275L176.158048,372.308157L176.158048,372.308157L186.111485,355.282319L186.111485,355.282319L196.040421,338.298394L196.040421,338.298394L205.947424,321.351984L205.947424,321.351984L215.835087,304.438656L215.835087,304.438656L225.706031,287.553928L225.706031,287.553928L235.562910,270.693259L235.562910,270.693259L245.408420,253.852035L245.408420,253.852035L255.245310,237.025559L255.245310,237.025559L265.076382,220.209032L265.076382,220.209032L274.904510,203.397542L274.904510,203.397542L284.732647,186.586038L284.732647,186.586038L294.563832,169.769318L294.563832,169.769318L304.401215,152.941998L304.401215,152.941998L314.248060,136.098491L314.248060,136.098491L324.107773,119.232974L324.107773,119.232974L333.983916,102.339352L333.983916,102.339352L343.880234,85.411219L343.880234,85.411219L353.800683,68.441810L353.800683,68.441810L363.749462,51.423941L363.749462,51.423941L373.731051,34.349948L373.731051,34.349948L383.750264,17.211599L383.750264,17.211599L393.812299,0.000000" /><path data-lon="-20.0" d="M953.515254,780.883505L947.165019,760.520924L947.165019,760.520924L940.855673,740.289454L940.855673,740.289454L934.585520,720.183660L934.585520,720.183660L928.352892,700.198192L928.352892,700.198192L922.156148,680.327791L922.156148,680.327791L915.993672,660.567271L915.993672,660.567271L909.863868,640.911520L909.863868,640.911520L903.765163,621.355489L903.765163,621.355489L897.695999,601.894185L897.695999,601.894185L891.654836,582.522666L891.654836,582.522666L885.640145,563.236034L885.640145,563.236034L879.650410,544.029426L879.650410,544.029426L873.684124,524.898008L873.684124,524.898008L867.739786,505.836967L867.739786,505.836967L861.815898,486.841503L861.815898,486.841503L855.910966,467.906822L855.910966,467.906822L850.023494,449.028128L850.023494,449.028128L844.151982,430.200610L844.151982,430.200610L838.294923,411.419440L838.294923,411.419440L832.450802,392.679756L832.450802,392.679756L826.618090,373.976654L826.618090,373.976654L820.795241,355.305179L820.795241,355.305179L814.980688,336.660308L814.980688,336.660308L809.172842,318.036940L809.172842,318.036940L803.370081,299.429881L803.370081,299.429881L797.570752,280.833824L797.570752,280.833824L791.773159,262.243336L791.773159,262.243336L785.975562,243.652834L785.975562,243.652834L780.176166,225.056563L780.176166,225.056563L774.373114,206.448570L774.373114,206.448570L768.564480,187.822678L768.564480,187.822678L762.748256,169.172447L762.748256,169.172447L756.922340,150.491136L756.922340,150.491136L751.084522,131.771663L751.084522,131.771663L745.232469,113.006545L745.232469,113.006545L739.363706,94.187840L739.363706,94.187840L733.475586,75.307072L733.475586,75.307072L727.565274,56.355137L727.565274,56.355137L721.629700,37.322201" /><path data-lon="-25.0" d="M1038.094736,750.956308L1030.225191,731.131312L1030.225191,731.131312L1022.406317,711.433967L1022.406317,711.433967L1014.636012,691.858978L1014.636012,691.858978L1006.912211,672.401140L1006.912211,672.401140L999.232879,653.055331L999.232879,653.055331L991.596013,633.816502L991.596013,633.816502L983.999638,614.679676L983.999638,614.679676L976.441801,595.639936L976.441801,595.639936L968.920573,576.692424L968.920573,576.692424L961.434045,557.832326L961.434045,557.832326L953.980324,539.054874L953.980324,539.054874L946.557529,520.355333L946.557529,520.355333L939.163792,501.728997L939.163792,501.728997L931.797255,483.171180L931.797255,483.171180L924.456061,464.677209L924.456061,464.677209L917.138358,446.242416L917.138358,446.242416L909.842292,427.862132L909.842292,427.862132L902.566005,409.531673L902.566005,409.531673L895.307629,391.246338L895.307629,391.246338L888.065286,373.001394L888.065286,373.001394L880.837082,354.792066L880.837082,354.792066L873.621100,336.613530L873.621100,336.613530L866.415400,318.460896L866.415400,318.460896L859.218011,300.329198L859.218011,300.329198L852.026924,282.213377L852.026924,282.213377L844.840089,264.108269L844.840089,264.108269L837.655407,246.008582L837.655407,246.008582L830.470719,227.908881L830.470719,227.908881L823.283801,209.803564L823.283801,209.803564L816.092354,191.686835L816.092354,191.686835L808.893989,173.552679L808.893989,173.552679L801.686217,155.394825L801.686217,155.394825L794.466435,137.206714L794.466435,137.206714L787.231903,118.981447L787.231903,118.981447L779.979731,100.711741L779.979731,100.711741L772.706850,82.389862L772.706850,82.389862L765.409982,64.007558L765.409982,64.007558L758.085611,45.555967L758.085611,45.555967L750.729935,27.025513" /><path data-lon="-30.0" d="M1120.173197,714.728526L1110.829267,695.554294L1110.829267,695.554294L1101.545502,676.503522L1101.545502,676.503522L1092.319406,657.571091L1092.319406,657.571091L1083.148526,638.751965L1083.148526,638.751965L1074.030446,620.041189L1074.030446,620.041189L1064.962789,601.433883L1064.962789,601.433883L1055.943208,582.925231L1055.943208,582.925231L1046.969386,564.510479L1046.969386,564.510479L1038.039032,546.184926L1038.039032,546.184926L1029.149879,527.943919L1029.149879,527.943919L1020.299678,509.782845L1020.299678,509.782845L1011.486199,491.697124L1011.486199,491.697124L1002.707222,473.682205L1002.707222,473.682205L993.960540,455.733556L993.960540,455.733556L985.243950,437.846657L985.243950,437.846657L976.555252,420.016994L976.555252,420.016994L967.892244,402.240050L967.892244,402.240050L959.252721,384.511297L959.252721,384.511297L950.634465,366.826186L950.634465,366.826186L942.035247,349.180139L942.035247,349.180139L933.452815,331.568540L933.452815,331.568540L924.884896,313.986722L924.884896,313.986722L916.329185,296.429956L916.329185,296.429956L907.783341,278.893438L907.783341,278.893438L899.244981,261.372277L899.244981,261.372277L890.711670,243.861476L890.711670,243.861476L882.180914,226.355919L882.180914,226.355919L873.650151,208.850348L873.650151,208.850348L865.116742,191.339346L865.116742,191.339346L856.577953,173.817306L856.577953,173.817306L848.030951,156.278411L848.030951,156.278411L839.472780,138.716597L839.472780,138.716597L830.900348,121.125517L830.900348,121.125517L822.310404,103.498503L822.310404,103.498503L813.699514,85.828507L813.699514,85.828507L805.064035,68.108052L805.064035,68.108052L796.400076,50.329155L796.400076,50.329155L787.703460,32.483245L787.703460,32.483245L778.969675,14.561060" /><path data-lon="-35.0" d="M1199.282063,672.406980L1188.517092,653.992974L1188.517092,653.992974L1177.821435,635.697534L1177.821435,635.697534L1167.192218,617.515743L1167.192218,617.515743L1156.626614,599.442764L1156.626614,599.442764L1146.121841,581.473840L1146.121841,581.473840L1135.675158,563.604283L1135.675158,563.604283L1125.283863,545.829468L1125.283863,545.829468L1114.945286,528.144831L1114.945286,528.144831L1104.656788,510.545856L1104.656788,510.545856L1094.415757,493.028075L1094.415757,493.028075L1084.219602,475.587057L1084.219602,475.587057L1074.065753,458.218405L1074.065753,458.218405L1063.951654,440.917748L1063.951654,440.917748L1053.874761,423.680733L1053.874761,423.680733L1043.832536,406.503021L1043.832536,406.503021L1033.822445,389.380275L1033.822445,389.380275L1023.841952,372.308157L1023.841952,372.308157L1013.888515,355.282319L1013.888515,355.282319L1003.959579,338.298394L1003.959579,338.298394L994.052576,321.351984L994.052576,321.351984L984.164913,304.438656L984.164913,304.438656L974.293969,287.553928L974.293969,287.553928L964.437090,270.693259L964.437090,270.693259L954.591580,253.852035L954.591580,253.852035L944.754690,237.025559L944.754690,237.025559L934.923618,220.209032L934.923618,220.209032L925.095490,203.397542L925.095490,203.397542L915.267353,186.586038L915.267353,186.586038L905.436168,169.769318L905.436168,169.769318L895.598785,152.941998L895.598785,152.941998L885.751940,136.098491L885.751940,136.098491L875.892227,119.232974L875.892227,119.232974L866.016084,102.339352L866.016084,102.339352L856.119766,85.411219L856.119766,85.411219L846.199317,68.441810L846.199317,68.441810L836.250538,51.423941L836.250538,51.423941L826.268949,34.349948L826.268949,34.349948L816.249736,17.211599L816.249736,17.211599L806.187701,0.000000" /></g><g id="countries"><path data-iso="ALB" d="M762,681L763,679L762,678L762,676L763,674L765,673L766,671L767,669L767,667L768,665L770,664L771,662L770,660L769,658L769,656L767,655L765,656L763,653L762,652L760,650L761,647L760,645L760,643L759,641L759,639L759,637L759,635L758,632L757,630L753,628L752,627L750,625L748,626L746,627L745,626L743,625L742,627L741,629L741,631L739,634L741,636L741,638L742,640L743,640L745,640L745,642L745,644L745,646L744,648L744,651L745,652L745,655L745,657L747,658L745,660L745,662L744,665L746,667L747,669L747,671L745,670L746,672L749,673L751,674L753,675L755,676L757,679L757,681L758,682L761,683L762,681Z" /><path data-iso="ALA" d="M697,282L697,280L697,278L697,280L699,279L697,277L695,277L694,278L696,279L694,279L694,281L695,283L697,282Z" /><path data-iso="AND" d="M476,629L477,627L474,626L472,627L472,629L474,630L476,629Z" /><path data-iso="ARM" d="M1110,554L1112,553L1114,552L1116,551L1119,551L1121,552L1123,552L1125,553L1127,551L1128,550L1126,547L1124,543L1121,539L1119,536L1117,532L1115,528L1113,524L1112,523L1112,524L1110,526L1107,528L1106,529L1103,530L1102,531L1100,533L1098,534L1097,536L1093,538L1094,540L1097,539L1098,541L1100,542L1102,545L1101,548L1102,549L1103,551L1105,552L1107,554L1110,554Z" /><path data-iso="AZE" d="M1131,556L1130,555L1128,551L1128,550L1127,551L1125,553L1126,554L1128,554L1131,556L1131,556Z" /><path data-iso="BIH" d="M726,627L726,627L727,627L727,626L727,626L727,625L726,624L725,623L725,623L725,622L725,622L725,622L725,620L725,620L726,618L727,618L727,618L727,616L727,615L728,614L727,614L727,614L729,612L729,612L730,612L730,611L730,611L731,611L731,611L731,612L731,612L732,612L732,612L732,612L733,612L733,612L733,612L733,611L732,610L731,609L731,609L731,609L731,609L731,609L731,608L730,608L730,608L730,608L730,608L730,608L731,607L731,607L732,607L732,607L733,607L734,607L735,606L735,606L736,605L737,606L737,606L737,606L738,606L738,605L738,604L737,602L735,599L734,599L734,598L734,597L734,597L734,597L735,597L735,598L737,597L738,597L739,596L739,595L738,595L738,596L737,595L737,594L735,594L734,592L733,592L733,592L732,592L731,591L731,589L731,587L731,587L731,586L732,584L732,584L733,583L732,579L730,579L728,581L728,581L725,580L724,578L723,577L721,578L719,577L717,576L715,578L713,577L710,578L708,577L707,578L704,578L702,578L700,578L698,577L696,577L694,578L691,578L690,580L690,582L688,582L686,579L683,579L682,580L682,582L681,585L682,587L682,589L684,589L686,590L687,592L688,594L689,596L689,598L691,600L693,601L694,603L696,604L697,606L699,607L701,609L703,610L704,611L707,612L707,615L708,616L710,618L713,620L712,622L714,622L716,623L718,624L720,625L724,627L726,628L727,628L726,627Z" /><path data-iso="BLR" d="M766,440L765,438L767,437L770,438L771,436L772,434L773,431L777,430L780,429L782,428L784,428L789,426L792,426L794,427L798,427L800,426L804,427L806,426L807,427L809,428L811,427L813,427L815,428L816,426L818,426L820,425L823,425L825,425L827,426L828,424L829,422L831,422L832,424L835,425L836,424L838,422L840,422L841,421L844,421L846,422L847,423L849,422L849,420L848,418L847,416L847,414L847,412L848,410L849,409L849,406L851,406L853,405L855,404L858,403L857,402L855,400L854,398L854,397L853,395L852,392L850,390L848,389L846,388L847,386L847,384L849,383L851,383L853,384L855,383L857,382L858,380L859,378L861,376L859,374L857,374L855,372L855,370L853,370L851,370L847,371L847,369L846,366L844,366L842,366L839,365L839,363L837,361L835,360L835,358L833,357L830,355L831,353L831,351L830,349L829,348L828,346L827,344L827,342L825,341L823,340L821,339L817,340L815,340L813,342L810,344L809,342L809,340L807,339L804,340L803,342L801,340L799,339L797,341L795,340L794,340L793,341L792,343L791,345L791,348L788,348L786,348L784,349L783,352L781,354L781,356L781,358L782,360L784,361L784,363L782,364L780,366L779,368L777,369L776,370L776,373L776,375L777,377L776,379L775,381L778,381L779,383L778,385L776,383L774,383L772,384L772,386L769,386L769,388L768,390L766,391L763,393L762,392L759,393L757,394L755,395L756,397L757,400L760,404L761,407L762,409L763,411L763,413L764,417L763,419L761,420L759,422L757,425L758,427L760,428L762,429L764,430L764,432L764,434L764,436L764,438L765,440L766,440Z" /><path data-iso="DZA" d="M564,832L560,830L559,828L559,824L558,822L556,819L556,817L556,815L556,811L557,809L559,808L561,807L563,804L565,802L568,801L569,799L570,797L570,794L570,792L572,789L572,786L571,785L571,783L572,781L571,777L570,775L570,773L571,770L571,768L571,766L572,763L571,761L569,760L571,759L574,756L575,754L577,753L577,751L575,752L573,751L571,751L567,752L563,752L562,750L560,750L558,749L556,748L554,748L554,750L551,751L549,751L547,750L544,750L543,748L541,747L539,747L538,748L537,750L534,751L531,752L528,752L526,753L524,754L522,755L520,755L517,752L516,750L513,749L510,749L507,748L503,748L501,748L499,748L497,747L495,748L493,749L491,750L489,749L487,749L484,749L482,748L480,749L478,751L476,752L473,751L471,750L467,751L464,751L461,751L457,751L455,750L452,751L450,751L447,752L445,753L443,753L441,754L439,755L437,756L435,757L433,758L432,760L430,762L428,762L426,761L425,759L422,760L420,762L418,762L416,762L413,762L411,763L409,764L408,766L407,768L405,769L403,769L399,771L397,772L394,772L392,771L390,771L390,773L392,774L393,776L395,778L396,781L394,782L397,785L394,787L395,789L396,794L394,798L393,801L394,803L394,806L393,808L393,812L394,814L395,817L395,817L395,817L399,818L402,818L405,819L409,819L412,820L416,820L419,821L423,821L426,822L430,822L433,823L436,823L440,824L443,824L447,825L450,825L454,826L457,826L461,827L464,827L468,827L471,828L475,828L478,828L482,829L485,829L488,829L492,830L495,830L499,830L502,831L506,831L509,831L513,832L516,832L520,832L523,832L527,832L530,833L534,833L537,833L541,833L544,833L548,834L551,834L555,834L558,834L562,834L565,834L567,834L564,832Z" /><path data-iso="FRO" d="M447,242L445,240L445,239L445,242L446,244L447,242Z M447,235L447,236L449,236L447,235Z M445,230L445,229L443,230L445,232L445,230Z M448,231L447,229L446,226L445,228L446,230L447,232L449,233L448,231Z M449,229L449,227L448,226L447,228L449,229L450,231L449,229Z M453,229L452,228L451,230L453,229Z" /><path data-iso="GEO" d="M1066,544L1068,544L1069,542L1071,541L1073,540L1077,539L1077,537L1078,535L1080,534L1081,536L1083,536L1086,537L1087,538L1089,538L1091,537L1093,538L1097,536L1098,534L1100,533L1102,531L1103,530L1106,529L1107,528L1110,526L1112,524L1112,523L1110,520L1108,516L1106,513L1104,509L1101,505L1099,501L1098,498L1095,499L1095,501L1092,500L1090,501L1088,504L1087,506L1086,508L1084,509L1081,509L1081,506L1078,506L1076,507L1071,508L1068,507L1066,506L1064,506L1063,507L1060,508L1058,508L1056,510L1053,511L1051,512L1049,513L1046,513L1044,513L1041,513L1039,515L1037,514L1034,514L1032,514L1031,516L1027,516L1025,518L1026,521L1027,521L1029,521L1031,522L1033,522L1035,522L1037,522L1040,521L1042,522L1044,522L1046,524L1048,523L1050,523L1052,524L1056,529L1058,531L1060,533L1062,534L1063,536L1064,538L1064,540L1063,543L1063,545L1066,544Z" /><path data-iso="GRL" d="M381,45L379,45L381,46L381,45Z M366,48L366,48L366,48L366,48Z M398,38L399,36L399,34L401,33L400,31L401,30L403,29L401,27L403,26L401,25L404,24L403,22L406,21L406,18L405,18L402,19L400,21L401,19L402,17L404,15L406,15L408,14L405,14L403,13L405,11L403,12L401,12L402,11L405,10L406,8L405,7L405,6L404,6L403,5L402,5L401,4L400,4L399,3L398,2L397,2L396,1L395,1L394,0L392,4L389,7L387,11L387,12L388,12L389,14L389,16L388,20L387,22L386,25L386,27L387,29L388,32L390,33L392,34L394,32L394,30L396,29L395,31L394,33L394,35L396,35L395,38L398,38Z M370,46L372,46L374,46L374,44L375,46L377,46L379,44L378,42L381,44L382,43L384,44L384,42L386,43L388,43L390,43L392,42L390,41L383,37L382,35L380,34L379,32L378,30L377,28L376,30L374,33L372,37L370,41L368,45L367,46L368,47L370,46Z" /><path data-iso="IMN" d="M434,388L435,388L437,387L438,385L438,383L436,383L434,385L433,386L432,388L434,388Z" /><path data-iso="IRN" d="M1158,601L1155,597L1153,593L1151,590L1149,586L1146,582L1144,578L1142,574L1139,570L1137,566L1135,562L1133,559L1131,556L1131,556L1128,554L1126,554L1124,554L1122,553L1121,556L1122,558L1123,560L1122,562L1120,563L1118,565L1120,566L1121,567L1123,569L1124,571L1126,572L1128,573L1128,575L1130,576L1131,578L1133,580L1135,580L1135,582L1136,584L1135,586L1135,588L1137,590L1139,590L1141,589L1143,590L1144,592L1145,594L1147,595L1149,596L1151,597L1152,599L1153,600L1155,601L1156,603L1158,604L1159,604L1158,601Z" /><path data-iso="IRQ" d="M1104,723L1107,721L1110,720L1113,718L1116,717L1119,715L1122,714L1126,712L1129,711L1132,709L1135,707L1138,706L1141,704L1144,703L1147,701L1150,699L1154,698L1157,696L1160,695L1163,693L1166,691L1169,690L1172,688L1175,686L1178,685L1181,683L1184,681L1187,679L1190,678L1193,676L1196,674L1199,672L1197,668L1195,664L1192,660L1190,656L1188,652L1185,648L1183,645L1181,641L1178,637L1176,633L1174,629L1171,625L1169,621L1167,617L1165,613L1162,609L1160,605L1159,604L1158,604L1156,603L1155,601L1153,600L1152,599L1151,599L1149,600L1148,602L1147,604L1146,606L1144,605L1144,603L1142,601L1140,601L1139,603L1138,605L1136,606L1133,607L1131,607L1128,608L1125,609L1123,611L1120,612L1120,617L1117,619L1118,620L1117,622L1116,624L1115,629L1114,633L1110,636L1108,638L1108,642L1112,648L1115,651L1117,655L1116,658L1117,660L1118,664L1120,667L1122,672L1122,678L1122,681L1119,684L1117,686L1116,688L1115,690L1113,692L1112,694L1111,696L1110,698L1108,700L1107,702L1106,704L1105,706L1103,707L1102,709L1101,711L1100,713L1098,715L1097,717L1100,721L1102,723L1104,723Z" /><path data-iso="ISR" d="M1039,750L1043,749L1046,748L1049,746L1052,745L1051,743L1049,741L1049,739L1048,737L1048,739L1047,741L1045,742L1045,744L1045,746L1043,748L1041,748L1039,748L1039,750L1039,750Z" /><path data-iso="JEY" d="M444,487L443,489L445,489L444,487Z" /><path data-iso="JOR" d="M1091,729L1094,727L1097,726L1100,724L1102,723L1100,721L1099,719L1097,717L1094,721L1091,727L1089,729L1091,729Z" /><path data-iso="LBN" d="M1041,748L1043,748L1045,746L1045,744L1045,742L1047,741L1048,739L1048,737L1049,736L1049,734L1050,732L1048,732L1048,730L1049,728L1051,727L1052,725L1052,723L1053,721L1054,719L1055,716L1053,715L1052,713L1050,712L1048,712L1047,710L1046,710L1043,712L1041,712L1042,714L1041,716L1040,718L1039,720L1039,722L1039,724L1040,726L1040,729L1039,730L1040,732L1040,736L1040,739L1039,742L1039,744L1040,746L1039,748L1041,748Z" /><path data-iso="LBY" d="M628,834L631,834L635,834L636,834L631,832L629,832L627,831L627,832L626,834L626,834L628,834Z" /><path data-iso="LIE" d="M594,544L594,541L593,544L594,545L594,544Z" /><path data-iso="MAR" d="M395,817L394,814L393,812L393,808L394,806L394,803L393,801L394,798L396,794L395,789L394,787L397,785L394,782L396,781L395,778L393,776L392,774L390,773L390,771L388,770L387,769L384,770L381,768L380,766L380,768L379,767L378,764L378,762L376,764L374,765L371,765L369,764L367,763L365,762L363,763L361,762L358,762L354,762L352,761L350,760L348,759L346,757L345,756L344,754L343,752L341,749L341,747L341,744L341,744L340,742L338,743L336,743L333,744L331,743L330,745L329,747L328,749L323,755L320,760L315,767L313,768L311,771L309,773L307,775L305,777L302,778L300,778L298,779L295,779L293,780L291,780L289,781L287,781L284,781L282,782L278,782L275,783L273,783L271,785L268,787L268,787L269,788L273,789L276,790L279,791L283,792L286,793L290,793L293,794L296,795L300,796L303,797L306,798L310,799L313,800L317,800L320,801L323,802L327,803L330,804L334,804L337,805L340,806L344,807L347,808L351,808L354,809L357,810L361,810L364,811L368,812L371,812L375,813L378,814L381,814L385,815L388,816L392,816L395,817L395,817Z" /><path data-iso="MDA" d="M853,541L855,541L856,539L856,537L857,535L858,533L857,531L860,529L859,527L859,525L858,523L857,521L858,519L860,518L861,521L862,519L865,519L867,519L868,518L870,518L873,517L871,516L869,515L869,513L869,511L867,510L865,509L863,509L862,507L861,505L861,503L860,501L858,502L856,501L854,500L853,498L853,496L853,494L852,492L850,491L849,492L847,491L845,489L843,489L842,491L840,491L839,489L837,489L835,488L833,488L831,487L827,488L825,489L824,490L821,491L819,491L819,493L818,494L820,494L822,495L824,497L826,498L827,499L828,501L829,503L832,505L833,506L834,508L836,509L838,510L839,512L841,513L843,514L844,516L845,518L847,519L847,522L848,523L848,525L847,528L848,530L848,532L849,535L850,537L851,539L851,541L853,542L853,541Z M818,494L818,494L817,494L818,494Z" /><path data-iso="MLT" d="M678,772L677,771L676,769L674,771L675,772L678,772Z" /><path data-iso="MNE" d="M741,638L741,636L739,634L741,631L741,629L742,627L743,625L745,626L746,627L748,626L750,625L750,624L750,622L749,620L751,619L753,618L753,617L753,617L751,616L750,616L750,616L749,616L748,615L748,615L746,614L746,614L744,614L744,614L743,613L742,613L742,613L742,613L741,613L741,613L740,613L740,612L740,612L739,612L738,610L737,609L735,609L734,608L734,608L734,607L733,607L732,608L732,607L732,607L731,607L731,607L730,608L730,608L730,608L730,608L730,608L731,608L731,609L731,609L731,609L731,609L731,609L732,610L733,611L733,612L733,612L733,612L732,612L732,612L732,612L731,612L731,612L731,611L731,611L730,611L730,611L730,612L729,612L729,612L727,614L727,614L728,614L727,615L727,616L727,616L727,618L727,618L726,618L725,620L725,622L725,622L725,622L725,623L725,623L726,624L727,625L727,626L727,626L727,627L726,627L726,627L727,628L726,628L726,628L727,630L730,630L728,631L730,632L732,633L734,634L736,635L738,637L739,639L742,640L741,638Z" /><path data-iso="RUS" d="M713,392L717,391L724,390L728,390L733,389L739,389L742,388L745,388L743,385L743,382L743,380L744,378L742,377L741,376L738,375L736,375L733,375L731,375L729,374L727,374L725,374L724,376L725,380L723,381L720,380L718,380L719,378L721,375L721,373L720,376L719,378L716,381L713,381L711,382L712,384L712,387L711,389L710,392L713,392Z M777,260L776,260L778,261L777,260Z M846,144L844,144L842,144L843,145L845,145L846,144Z M845,143L843,143L846,144L845,143Z M810,149L808,149L808,150L810,149Z M808,152L807,150L806,150L805,152L808,152Z M843,99L841,99L844,100L843,99Z M1025,518L1027,516L1031,516L1032,514L1034,514L1037,514L1039,515L1041,513L1044,513L1046,513L1049,513L1051,512L1053,511L1056,510L1058,508L1060,508L1063,507L1064,506L1066,506L1068,507L1071,508L1076,507L1078,506L1081,506L1081,509L1084,509L1086,508L1087,506L1088,504L1090,501L1092,500L1095,501L1095,499L1098,498L1097,497L1095,494L1093,490L1090,486L1088,482L1086,478L1084,475L1082,471L1079,467L1077,463L1075,460L1073,456L1071,452L1068,448L1066,445L1064,441L1062,437L1060,433L1057,430L1055,426L1053,422L1051,419L1049,415L1047,411L1044,407L1042,404L1040,400L1038,396L1036,393L1033,389L1031,385L1029,381L1027,378L1025,374L1023,370L1021,367L1018,363L1016,359L1014,356L1012,352L1010,348L1008,345L1005,341L1003,337L1001,333L999,330L997,326L995,322L993,319L990,315L988,311L986,308L984,304L982,300L980,297L978,293L975,290L973,286L971,282L969,279L967,275L965,271L963,268L960,264L958,260L956,257L954,253L952,249L950,246L948,242L946,238L943,235L941,231L939,227L937,224L935,220L933,217L931,213L929,209L926,206L924,202L922,198L920,195L918,191L916,187L914,184L911,180L909,176L907,173L905,169L903,166L901,162L899,158L897,155L894,151L892,147L890,144L888,140L886,136L884,133L882,129L880,125L877,122L875,118L873,114L871,111L869,107L867,103L865,100L862,96L860,92L858,89L856,85L854,81L853,80L852,80L851,78L851,77L850,74L847,70L845,67L843,63L841,59L840,59L836,62L833,63L831,62L830,64L839,67L840,69L842,70L841,71L842,73L843,75L843,77L844,79L844,83L845,85L847,87L849,86L851,87L853,88L854,90L855,92L856,94L857,96L857,98L857,100L858,102L859,104L860,106L861,108L859,105L857,104L855,104L854,106L855,108L853,107L854,105L854,103L852,103L850,102L848,103L845,104L841,104L842,107L841,109L841,113L840,115L838,117L836,120L836,123L835,125L834,127L833,129L833,131L834,133L836,134L841,137L843,139L844,140L845,142L846,145L843,145L841,145L841,147L838,148L836,147L833,147L831,147L829,149L828,151L828,149L829,147L826,148L823,147L822,146L819,145L816,145L814,146L815,148L815,151L813,152L815,154L817,155L819,156L822,159L825,159L826,158L827,156L829,158L830,160L832,161L833,163L832,166L830,167L830,169L827,168L825,168L823,169L821,169L819,168L817,167L815,167L813,165L811,165L809,167L807,166L805,165L803,164L803,161L802,159L801,157L800,156L799,154L798,153L796,152L795,149L796,147L796,145L794,143L795,141L794,139L792,138L790,137L788,136L786,135L784,136L782,135L780,136L781,134L781,132L779,133L777,132L779,131L776,132L776,130L774,129L771,128L770,127L769,125L767,124L765,124L767,123L769,123L772,123L772,125L775,127L779,128L778,126L780,127L782,128L783,126L784,127L786,128L788,128L789,127L794,128L797,128L801,128L804,127L806,126L811,126L813,127L815,127L820,125L823,123L826,120L828,117L829,115L830,113L831,111L831,108L832,106L832,103L832,101L831,98L831,97L829,96L827,94L826,92L824,90L823,88L821,88L820,87L818,88L817,86L815,86L813,85L810,84L812,86L810,86L807,85L805,84L803,84L801,84L803,85L800,85L799,83L797,83L795,81L793,81L791,80L789,80L787,79L784,78L781,78L779,77L777,77L773,77L771,78L769,79L767,78L763,80L761,81L762,83L761,85L760,86L760,88L759,86L761,84L761,82L759,82L760,80L758,78L756,81L757,78L755,79L753,79L752,81L753,79L751,78L748,78L749,75L750,77L752,77L755,77L756,74L754,73L752,74L749,73L747,73L748,75L746,76L747,77L745,78L744,80L744,78L742,77L740,77L741,80L741,83L738,83L738,85L737,87L735,89L733,90L734,92L734,94L732,96L731,97L730,100L732,100L732,102L732,107L735,112L740,113L742,115L744,118L747,120L748,122L746,129L745,134L745,137L748,139L749,141L751,144L753,146L754,148L756,149L757,152L759,154L759,157L758,159L758,161L759,164L758,166L760,166L761,168L759,170L760,172L763,173L765,174L766,176L765,177L766,179L767,181L769,181L772,182L772,184L773,187L772,189L771,191L770,193L773,195L776,197L779,197L781,198L783,199L785,201L787,202L788,204L788,207L788,210L788,212L787,214L786,216L786,218L785,221L783,224L782,230L781,233L780,235L779,237L778,240L777,242L775,245L774,247L773,249L772,251L770,253L770,256L769,258L771,257L773,256L773,254L776,253L776,255L775,257L777,259L779,259L781,260L782,261L786,260L788,259L790,261L792,262L794,262L794,264L790,264L787,264L783,265L783,268L782,270L780,269L778,271L779,273L777,273L775,272L775,274L776,276L777,278L777,281L776,282L776,286L776,288L774,290L775,294L776,297L777,301L778,303L780,305L781,307L781,309L780,312L779,314L779,316L781,316L783,318L786,319L786,321L786,323L786,325L787,327L789,328L790,330L791,332L793,333L794,336L795,338L795,340L797,341L799,339L801,340L803,342L804,340L807,339L809,340L809,342L810,344L813,342L815,340L817,340L821,339L823,340L825,341L827,342L827,344L828,346L829,348L830,349L831,351L831,353L830,355L833,357L835,358L835,360L837,361L839,363L839,365L842,366L844,366L846,366L847,369L847,371L851,370L853,370L855,370L855,372L857,374L859,374L861,376L859,378L858,380L857,382L855,383L853,384L851,383L849,383L847,384L847,386L846,388L848,389L850,390L852,392L853,395L854,397L854,398L855,400L857,402L858,403L860,404L862,403L864,401L864,398L863,397L865,396L868,396L870,396L871,394L872,392L875,392L877,391L879,390L881,391L883,392L884,394L885,396L888,397L890,397L889,400L888,401L889,403L890,405L892,406L893,408L895,408L898,408L900,406L902,406L904,408L906,407L907,409L908,411L910,412L910,415L913,417L914,419L916,417L918,416L921,415L923,417L924,416L926,416L928,415L929,413L931,412L934,409L936,409L938,410L939,412L942,413L944,413L946,415L947,413L947,411L949,411L951,411L954,411L956,411L958,411L960,409L963,411L964,410L966,411L968,411L971,410L973,410L974,412L976,414L976,416L975,418L974,420L974,423L976,423L978,422L978,424L976,424L975,426L976,429L979,430L981,431L980,433L982,433L982,435L982,437L982,439L983,441L983,443L981,444L978,445L975,446L973,447L972,449L973,451L971,453L968,456L969,458L969,460L970,462L971,464L972,464L974,462L975,460L977,458L975,462L977,460L979,459L979,457L981,456L983,457L985,458L985,460L982,461L981,463L980,465L978,466L976,468L977,469L978,471L975,472L973,473L972,475L970,476L971,477L973,479L975,478L978,479L980,480L983,482L981,482L979,482L979,484L979,486L979,489L979,486L977,485L977,487L977,490L977,492L976,494L976,496L977,497L976,495L978,497L979,498L979,500L976,500L975,501L974,504L972,504L971,503L967,502L967,505L969,506L968,507L967,509L970,508L973,508L975,509L978,510L979,512L981,513L983,512L985,512L987,510L989,512L991,512L993,514L995,514L999,512L1002,513L1004,514L1007,514L1009,515L1012,516L1015,517L1019,519L1021,520L1023,520L1026,521L1025,518Z M805,260L807,258L806,256L805,254L807,252L810,252L812,253L814,250L813,248L813,246L813,244L815,243L814,241L813,239L811,237L809,235L808,234L801,232L799,231L797,230L795,229L793,228L791,228L789,227L788,229L789,232L787,233L785,233L785,235L786,237L785,239L785,239L783,239L784,241L788,242L790,243L791,245L792,247L793,249L796,251L798,252L799,255L801,256L802,258L803,260L805,260Z" /><path data-iso="SRB" d="M775,627L777,625L779,625L781,624L784,624L786,623L786,621L785,619L785,617L785,615L784,613L786,612L788,611L789,609L790,607L790,605L788,604L787,602L785,601L783,600L782,599L781,597L780,595L779,593L779,591L780,589L781,587L781,585L781,583L779,582L778,580L779,578L781,577L779,576L777,575L775,577L774,579L773,581L771,579L770,578L767,578L765,578L763,577L761,575L762,574L761,572L762,570L759,569L757,568L755,567L753,566L752,565L751,563L750,561L749,560L747,558L746,557L744,556L742,554L741,553L738,553L736,553L734,553L733,553L731,554L730,556L729,557L727,558L725,559L724,561L724,563L725,564L724,566L726,567L726,569L728,571L729,572L731,574L729,574L728,577L729,579L728,581L730,579L732,579L733,583L732,584L732,584L731,586L731,587L731,587L731,589L731,591L732,592L733,592L733,592L734,592L735,594L737,594L737,595L738,596L738,595L739,595L739,596L738,597L737,597L735,598L735,597L734,597L734,597L734,597L734,598L734,599L735,599L736,600L737,602L738,604L738,605L738,606L737,606L737,606L737,606L736,605L735,606L735,606L734,607L734,607L734,608L734,608L735,609L735,609L738,610L740,612L740,612L740,613L741,613L741,613L742,613L742,613L742,613L743,613L744,614L744,614L744,614L746,614L748,615L748,615L750,616L750,616L751,616L753,617L753,617L753,618L755,618L755,615L756,614L757,612L757,610L759,609L760,611L764,612L766,613L767,615L769,616L770,618L772,618L774,619L774,621L773,624L772,625L773,627L775,627Z" /><path data-iso="SYR" d="M1052,745L1056,744L1059,742L1062,741L1065,740L1069,738L1072,737L1075,736L1078,734L1081,733L1084,731L1088,730L1089,729L1091,727L1094,721L1097,717L1098,715L1100,713L1101,711L1102,709L1103,707L1105,706L1106,704L1107,702L1108,700L1110,698L1111,696L1112,694L1113,692L1115,690L1116,688L1117,686L1119,684L1122,681L1122,678L1122,672L1120,667L1118,664L1117,660L1116,658L1117,655L1115,651L1112,648L1108,642L1108,638L1110,636L1114,633L1115,629L1116,624L1117,622L1118,620L1117,619L1117,618L1116,617L1114,617L1113,616L1112,618L1111,620L1104,626L1099,629L1095,630L1092,632L1091,634L1089,636L1086,640L1085,643L1082,645L1074,651L1070,652L1068,653L1065,654L1062,652L1058,653L1056,654L1054,656L1052,659L1049,661L1047,664L1043,666L1041,666L1039,665L1037,665L1034,666L1034,668L1035,671L1035,673L1036,674L1038,675L1038,677L1036,678L1035,680L1035,684L1034,686L1034,688L1032,688L1030,688L1029,690L1030,692L1030,694L1030,696L1032,696L1034,698L1035,700L1036,702L1036,705L1037,707L1038,708L1039,710L1041,712L1043,712L1046,710L1047,710L1048,712L1050,712L1052,713L1053,715L1055,716L1054,719L1053,721L1052,723L1052,725L1051,727L1049,728L1048,730L1048,732L1050,732L1049,734L1049,736L1048,737L1049,739L1049,741L1051,743L1052,745L1052,745Z" /><path data-iso="TUN" d="M617,819L618,817L616,815L615,816L613,816L614,819L616,820L617,819Z M622,797L621,796L620,798L622,797Z M603,835L607,835L610,835L614,835L617,835L621,835L624,834L626,834L626,834L627,832L627,831L625,831L623,830L621,830L622,828L620,827L620,823L619,821L616,822L615,823L613,824L613,822L612,819L608,821L606,820L603,817L601,814L600,811L601,809L602,806L604,806L606,804L608,803L611,801L612,799L613,797L615,795L616,793L617,791L618,789L620,787L618,786L618,783L617,780L617,778L615,778L614,776L612,776L610,774L609,772L608,770L608,767L608,765L609,763L612,762L614,761L615,758L616,756L617,754L619,752L618,750L617,748L615,750L613,751L612,753L609,753L608,755L605,755L604,754L606,753L604,751L604,748L602,747L604,746L602,745L600,745L597,745L598,747L596,746L598,744L598,743L595,743L593,744L591,744L589,745L586,746L583,748L581,750L579,751L577,751L577,753L575,754L574,756L571,759L569,760L571,761L572,763L571,766L571,768L571,770L570,773L570,775L571,777L572,781L571,783L571,785L572,786L572,789L570,792L570,794L570,797L569,799L568,801L565,802L563,804L561,807L559,808L557,809L556,811L556,815L556,817L556,819L558,822L559,824L559,828L560,830L564,832L567,834L569,834L572,834L576,834L579,835L583,835L586,835L590,835L593,835L597,835L600,835L603,835Z" /><path data-iso="UKR" d="M874,532L877,528L876,529L874,532L873,534L874,532Z M908,512L910,512L912,511L908,512L908,512L908,512L908,512Z M901,513L898,513L893,513L891,512L893,513L895,513L901,513Z M861,545L862,543L864,542L866,540L867,539L869,538L872,539L874,540L874,538L872,537L871,535L870,533L871,531L873,533L873,531L874,530L874,528L877,528L878,526L879,523L880,519L881,517L881,515L881,513L881,511L883,510L884,508L887,508L889,507L890,504L890,506L892,505L894,505L894,503L894,500L893,498L891,496L890,495L892,496L893,498L894,499L894,501L895,504L897,504L899,504L902,504L904,501L903,503L902,505L901,506L898,506L896,507L893,507L890,508L894,508L896,508L898,509L897,511L899,511L901,512L903,513L907,512L909,510L911,510L912,508L915,508L917,508L919,508L920,506L921,508L922,510L924,509L922,511L920,512L919,514L917,516L915,518L913,521L912,522L911,525L912,526L914,525L917,524L919,525L921,526L923,526L925,525L928,527L929,529L928,531L929,533L930,535L928,537L931,537L933,538L935,538L937,537L939,534L941,532L941,530L942,528L943,527L945,525L947,524L949,523L950,521L952,519L952,517L953,515L955,515L958,516L960,515L961,514L963,513L965,511L964,510L964,507L963,505L961,505L959,505L957,507L956,508L954,509L953,511L951,512L948,512L942,508L940,506L938,504L936,501L935,499L937,498L938,496L939,494L938,492L940,493L941,495L940,497L940,499L941,497L941,495L941,493L942,491L944,489L945,487L946,485L949,484L951,484L951,481L953,480L955,478L957,479L957,477L958,475L960,473L962,472L963,468L966,467L968,466L970,466L971,464L970,462L969,460L969,458L968,456L971,453L973,451L972,449L973,447L975,446L978,445L981,444L983,443L983,441L982,439L982,437L982,435L982,433L980,433L981,431L979,430L976,429L975,426L976,424L978,424L978,422L976,423L974,423L974,420L975,418L976,416L976,414L974,412L973,410L971,410L968,411L966,411L964,410L963,411L960,409L958,411L956,411L954,411L951,411L949,411L947,411L947,413L946,415L944,413L942,413L939,412L938,410L936,409L934,409L931,412L929,413L928,415L926,416L924,416L923,417L921,415L918,416L916,417L914,419L913,417L910,415L910,412L908,411L907,409L906,407L904,408L902,406L900,406L898,408L895,408L893,408L892,406L890,405L889,403L888,401L889,400L890,397L888,397L885,396L884,394L883,392L881,391L879,390L877,391L875,392L872,392L871,394L870,396L868,396L865,396L863,397L864,398L864,401L862,403L860,404L858,403L855,404L853,405L851,406L849,406L849,409L848,410L847,412L847,414L847,416L848,418L849,420L849,422L847,423L846,422L844,421L841,421L840,422L838,422L836,424L835,425L832,424L831,422L829,422L828,424L827,426L825,425L823,425L820,425L818,426L816,426L815,428L813,427L811,427L809,428L807,427L806,426L804,427L800,426L798,427L794,427L792,426L789,426L784,428L782,428L780,429L777,430L773,431L772,434L771,436L770,438L767,437L765,438L766,440L765,440L766,441L767,442L767,444L769,446L771,448L772,450L775,452L773,453L774,454L775,456L774,459L774,461L771,462L770,465L769,466L766,470L765,472L764,474L763,476L762,479L762,482L763,484L763,486L764,488L764,490L762,490L761,492L760,495L760,497L760,499L759,500L759,503L761,504L762,506L764,506L766,509L769,509L771,510L773,509L775,508L777,509L779,508L781,508L783,509L786,508L788,508L790,507L792,507L794,508L796,509L798,510L800,508L802,505L809,502L811,501L813,500L814,498L814,496L815,495L817,494L819,493L819,491L821,491L824,490L825,489L827,488L831,487L833,488L835,488L837,489L839,489L840,491L842,491L843,489L845,489L847,491L849,492L850,491L852,492L853,494L853,496L853,498L854,500L856,501L858,502L860,501L861,503L861,505L862,507L863,509L865,509L867,510L869,511L869,513L869,515L871,516L873,517L870,518L868,518L867,519L865,519L862,519L861,521L860,518L858,519L857,521L858,523L859,525L859,527L860,529L857,531L858,533L857,535L856,537L856,539L855,541L853,541L853,542L854,543L856,545L859,545L861,545Z" /></g></svg>