<?xml version="1.0" standalone="no"?>
<!DOCTYPE svg PUBLIC "-//W3C//DTD SVG 1.1//EN" "http://www.w3.org/Graphics/SVG/1.1/DTD/svg11.dtd">

<svg style="stroke-width:1px; stroke-linejoin: round; stroke:#444; fill:white;" xmlns="http://www.w3.org/2000/svg" font-family="Helvetica, Arial, FreeSans, Sans, sans, sans-serif" height="663px" viewBox="0 0 500 663" width="500px" version="1.1" xmlns:xlink="http://www.w3.org/1999/xlink" enable-background="new 0 0 500 663"><defs><style type="text/css">path { fill-rule: evenodd; }
#context path { fill: #eee; stroke: #bbb; }</style></defs><metadata><view><proj>laea</proj><center>51.106213,10.381548</center><bbox>4003595.53,2786171.23,641248.56,850253.33</bbox><padding>0.0</padding></view></metadata><g id="DEU"><path data-iso="DEU" d="M60,111L60,110L63,109L60,108L56,110L58,112Z M78,103L76,102L69,102L67,103Z M89,101L92,100L92,100L86,99L83,100L81,101L83,102Z M134,101L135,101L133,100L132,102Z M102,98L106,98L105,97L100,97L98,98L100,100Z M115,96L116,96L111,95L110,97L112,98Z M122,95L121,95L119,95Z M302,79L303,81L305,77L303,76L301,77L299,79L298,81L301,82Z M307,73L310,70L306,72L307,74Z M430,88L433,87L435,85L437,86L443,85L442,82L442,79L431,69L429,68L426,66L424,64L423,61L420,60L420,63L422,66L422,69L421,72L422,74L423,72L426,72L425,75L427,74L428,72L428,69L430,69L432,71L433,73L435,74L435,76L435,80L434,78L430,79L430,75L427,75L427,78L429,81L429,84L425,86L424,87L427,89Z M172,38L173,37L175,35L176,33L174,33L170,33L168,37L170,38Z M288,42L295,43L292,38L291,36L289,35L285,33L282,33L280,35L279,40L282,40L284,40L284,42L286,43Z M161,35L162,33L163,30L159,32L157,34L159,36Z M383,33L385,31L385,27L387,26L386,24L384,25L384,27L383,33L383,36Z M402,55L401,53L398,55L399,52L401,51L402,49L405,46L412,46L414,46L411,48L414,47L416,48L415,50L417,51L417,48L419,45L417,44L414,41L411,40L410,38L409,35L410,33L412,31L414,29L413,27L412,25L409,25L403,26L400,25L399,23L399,20L400,19L401,17L399,17L392,19L392,21L394,22L393,23L392,27L394,27L396,25L399,24L400,26L402,28L405,27L405,29L406,31L405,34L401,33L401,31L399,29L397,31L397,28L397,26L395,28L394,30L392,28L388,30L389,33L391,32L391,34L393,35L392,36L389,37L388,40L391,40L392,42L393,43L390,44L388,44L386,47L388,51L391,51L392,53L394,54L396,54L397,52L396,55L400,56Z M147,23L145,18L146,16L146,16L144,17L143,21L145,24Z M157,18L158,15L156,13L151,13L149,14L148,16L152,18L155,19Z M240,661L243,659L245,657L247,654L249,652L251,649L252,647L251,645L250,643L250,639L249,636L252,636L252,638L253,639L257,639L259,637L261,637L269,641L271,641L275,639L277,641L275,643L279,645L281,650L283,652L290,651L294,648L296,649L296,651L299,650L301,649L303,647L307,646L305,644L309,641L312,641L316,640L317,638L318,636L321,634L324,634L328,634L332,635L334,633L339,632L352,632L354,628L353,625L353,623L356,621L355,624L357,625L359,624L364,625L367,624L369,628L370,629L372,629L375,629L378,626L380,625L382,625L387,626L387,628L388,631L388,633L389,636L391,637L394,640L397,642L399,642L402,642L403,639L403,637L403,634L404,631L405,629L405,627L404,624L403,622L401,621L398,622L394,620L396,618L396,616L399,609L398,607L395,602L393,601L391,599L391,597L390,595L385,590L384,588L385,586L387,584L390,582L392,579L396,577L398,576L401,573L407,571L415,569L416,568L423,561L423,559L424,557L423,554L424,551L424,549L424,546L428,545L435,546L437,548L439,549L440,546L443,545L444,541L444,539L444,536L443,534L442,532L443,527L440,522L438,519L434,518L432,516L431,513L429,513L427,511L425,513L423,513L421,512L419,510L418,506L415,503L413,501L412,500L406,499L405,496L398,489L396,486L395,484L393,482L391,481L389,481L388,482L384,482L382,480L379,475L375,473L374,471L374,468L372,466L371,464L370,462L369,458L367,457L367,455L366,452L364,451L362,450L360,447L360,445L364,443L364,440L366,438L367,434L366,431L364,430L364,428L363,426L360,425L352,421L351,418L350,417L348,416L348,413L348,410L347,408L345,406L342,404L343,402L343,399L341,397L347,398L347,401L349,402L351,402L350,404L352,407L353,410L355,409L354,407L355,405L356,402L358,400L359,397L361,395L363,394L364,392L365,390L368,390L372,389L376,389L378,386L381,386L383,385L390,388L391,387L392,384L394,380L396,381L398,380L401,380L403,377L405,372L407,373L409,373L410,370L413,369L414,370L416,371L418,368L419,366L420,365L420,362L422,361L425,360L431,360L434,359L437,359L440,356L440,354L442,353L445,351L448,351L457,346L458,344L460,344L465,344L466,342L465,339L463,339L461,336L459,334L459,332L462,330L464,331L466,332L468,331L472,331L473,333L475,333L477,336L476,338L476,341L480,339L480,341L479,344L479,346L482,347L484,348L488,348L489,347L490,344L491,341L493,339L495,332L497,325L497,322L498,320L498,317L498,315L499,313L499,310L499,308L497,305L496,303L495,301L495,294L493,292L491,291L489,290L486,289L481,286L481,283L483,280L482,277L481,274L477,270L476,268L475,265L473,263L473,260L477,255L478,252L478,246L480,243L480,241L481,239L477,235L478,231L477,229L478,227L477,224L474,223L472,222L471,219L470,217L468,213L468,210L470,207L471,205L472,203L471,201L471,199L472,196L471,195L467,191L464,190L461,187L458,183L451,178L448,176L445,176L444,174L446,172L445,169L444,164L447,162L450,161L453,158L454,156L455,154L456,148L455,145L456,143L457,141L457,137L456,135L456,133L454,126L453,122L451,118L450,116L449,113L449,109L448,105L447,102L447,100L444,99L447,98L447,96L445,95L443,97L438,96L435,96L432,94L427,91L425,89L424,88L423,86L428,82L426,79L425,78L424,76L421,74L420,71L421,68L422,66L418,63L415,61L411,64L406,66L407,68L405,67L403,65L402,63L400,63L400,61L397,62L397,59L395,56L392,55L389,53L386,52L386,50L384,46L384,44L382,43L381,41L380,39L378,40L376,41L375,43L373,46L371,46L369,44L367,45L364,44L364,42L364,44L361,45L358,47L354,49L352,52L350,55L353,56L351,56L349,53L348,51L350,49L351,47L352,44L354,44L356,45L357,44L359,42L361,41L364,41L366,40L368,41L375,41L375,39L373,39L371,38L359,39L357,38L356,35L355,37L354,39L352,44L349,48L346,53L344,54L339,57L337,60L337,64L335,66L335,68L334,66L335,64L334,61L332,63L320,66L316,65L312,66L311,69L311,72L309,73L308,75L306,77L304,79L303,82L303,85L302,87L300,84L297,84L296,82L294,84L291,83L291,81L289,79L288,78L282,78L277,80L275,83L273,82L272,79L269,79L267,77L267,74L270,71L272,71L274,70L276,67L283,62L284,60L283,56L283,53L284,48L284,45L281,47L278,46L280,46L276,46L272,48L269,51L268,52L265,52L263,52L259,48L251,44L246,41L244,41L242,43L239,44L239,47L236,50L235,47L237,46L238,44L238,41L239,39L235,36L222,39L220,37L222,37L224,37L227,35L228,34L229,32L230,29L230,24L230,22L228,20L225,20L227,19L229,19L228,16L227,13L224,11L223,13L219,13L217,10L215,9L213,8L210,8L208,7L207,4L206,6L204,7L201,9L199,9L196,9L194,9L189,8L188,5L178,2L174,1L169,0L165,1L162,1L161,3L161,5L161,7L162,11L163,14L164,16L167,18L169,20L170,26L172,26L173,28L177,33L178,35L178,37L177,39L175,40L173,42L171,43L165,43L161,44L159,45L161,46L162,47L159,47L157,49L157,51L158,53L162,55L164,53L168,53L170,52L173,53L176,51L174,54L172,55L170,56L170,58L168,61L168,63L169,65L170,68L173,66L176,66L177,68L178,70L178,73L177,76L175,76L173,75L171,74L169,75L173,84L174,86L177,88L180,87L182,88L190,89L192,90L195,93L197,95L198,98L199,101L201,102L203,104L204,106L204,108L205,111L206,113L210,115L212,116L217,116L218,119L212,118L207,115L206,114L202,109L201,106L199,104L197,101L191,91L189,91L187,91L183,90L178,92L175,92L172,93L170,93L166,92L164,91L162,89L159,88L157,88L155,91L154,93L152,98L150,104L150,107L151,111L152,114L154,117L153,120L151,122L150,124L150,126L150,132L149,130L149,125L150,123L152,119L153,118L151,117L147,116L145,115L143,112L142,111L139,111L138,113L137,116L138,119L140,119L141,120L141,123L139,126L137,129L135,129L133,126L132,125L129,125L128,123L128,120L130,120L133,119L133,116L132,115L131,113L130,112L128,109L126,106L127,103L123,101L107,103L99,104L97,103L89,103L85,105L82,107L80,109L78,110L78,113L80,116L79,117L76,117L75,119L74,123L74,129L74,132L76,133L88,134L90,136L88,135L85,135L84,138L84,140L82,141L82,145L81,148L80,150L81,153L81,159L81,162L80,165L79,168L74,175L73,177L73,180L72,189L71,192L70,194L68,193L65,193L62,193L55,193L54,196L54,198L55,199L52,201L52,204L53,206L55,208L59,209L62,210L65,211L67,209L70,215L71,217L70,220L69,222L68,225L69,229L66,230L64,233L60,235L58,238L54,239L52,241L50,242L50,245L52,246L55,248L57,250L55,252L54,254L51,256L46,256L41,258L38,260L36,260L33,259L33,262L31,262L30,260L28,259L26,258L23,257L21,256L18,256L20,259L17,259L14,259L12,260L9,261L10,263L10,267L9,269L11,269L13,271L12,273L13,275L17,277L16,279L16,281L19,286L21,289L22,293L21,297L21,299L21,302L20,304L18,305L15,310L13,312L12,316L14,318L18,317L16,318L16,320L13,322L7,326L4,329L3,328L0,328L1,330L1,332L2,335L5,334L8,336L8,338L9,340L11,341L11,343L10,346L7,347L7,349L6,351L7,353L7,355L8,357L11,357L13,359L14,364L16,366L20,367L18,369L16,371L15,374L16,376L18,377L21,377L23,379L24,381L25,384L24,386L24,388L25,392L23,393L21,393L19,395L18,397L16,398L14,399L12,401L13,403L11,404L10,406L10,409L9,411L9,414L10,416L10,419L11,421L11,423L13,424L16,430L19,432L20,434L22,434L23,436L25,437L28,437L30,439L30,442L29,444L29,446L25,448L25,451L23,453L22,455L21,457L20,460L20,463L21,467L23,466L29,470L30,472L32,476L31,478L32,480L36,484L37,486L37,489L39,490L39,492L40,494L42,494L45,495L46,492L47,489L49,490L51,490L56,492L56,495L58,499L60,496L64,498L69,499L71,499L73,497L75,497L76,495L79,495L83,496L83,499L84,501L86,503L89,503L91,506L93,506L95,506L97,506L99,506L104,507L108,507L117,512L122,513L122,515L120,519L116,527L113,529L112,531L109,532L109,534L107,536L105,538L102,539L100,543L99,546L99,549L100,551L97,554L97,556L96,559L95,561L95,563L96,565L95,568L93,569L92,573L91,575L87,580L87,583L85,585L85,588L85,591L87,596L86,599L84,602L84,605L83,607L83,609L82,611L81,614L81,619L80,621L80,624L82,626L84,630L84,632L88,631L87,633L85,634L89,636L94,635L96,633L98,632L102,633L103,635L110,635L113,634L115,633L116,632L119,630L123,630L125,631L127,633L129,634L134,633L135,632L137,630L140,631L141,633L142,632L143,629L144,627L141,627L139,627L136,629L134,628L131,625L132,623L134,621L135,619L137,618L140,617L141,615L144,616L145,618L147,616L148,619L150,620L149,622L150,624L153,624L155,622L157,623L158,626L161,628L163,628L166,627L168,626L174,627L178,628L180,628L183,629L199,639L202,640L208,639L209,636L211,634L214,635L214,638L217,639L219,639L222,640L223,642L224,644L226,643L230,648L229,651L229,654L232,654L234,653L236,653L237,655L236,660L234,662Z M143,11L143,5L144,3L145,2L147,3L151,3L154,1L161,1L150,1L148,1L147,0L143,0L143,1L142,10L143,13Z" /></g></svg>