<?xml version="1.0" standalone="no"?>
<!DOCTYPE svg PUBLIC "-//W3C//DTD SVG 1.1//EN" "http://www.w3.org/Graphics/SVG/1.1/DTD/svg11.dtd">

<svg style="stroke-width:1px; stroke-linejoin: round; stroke:#444; fill:white;" xmlns="http://www.w3.org/2000/svg" font-family="Helvetica, Arial, FreeSans, Sans, sans, sans-serif" height="301px" width="301px" version="1.1" xmlns:xlink="http://www.w3.org/1999/xlink" viewBox="0 0 301 301" enable-background="new 0 0 301 301">

<defs>

<style type="text/css"><![CDATA[
path { fill-rule: evenodd; }
#context path { fill: #eee; stroke: #bbb; }]]></style>

</defs>

<metadata>

<view>

<proj>

laea</proj>

<center>

-10.782781,-53.093972</center>

<bbox>

2024652.76,1446617.54,4309487.80,4288837.97</bbox>

<padding>

18.0</padding>

</view>

</metadata>

<g id="bg">

<rect y="0" width="301.44443545" style="stroke:none;fill:#d0ddf0" height="299" x="0" />

</g>

<g id="context">

<path data-regid="0.0" data-iso="ARG" d="M139,298L137,298L135,296L135,294L136,292L135,291L133,289L131,288L129,287L128,285L128,283L128,281L128,279L129,277L130,275L129,273L129,273L130,270L130,268L130,266L131,264L131,262L131,260L132,258L134,256L135,255L137,253L138,251L139,249L141,248L142,246L144,245L145,243L146,242L148,241L150,239L152,239L154,237L156,235L155,233L156,231L155,229L155,227L153,226L151,227L150,226L150,227L150,229L150,231L149,233L147,235L145,236L144,238L142,238L140,238L139,239L136,239L134,239L132,239L130,238L128,238L126,238L126,236L127,235L128,233L128,231L130,229L130,227L132,225L130,224L128,223L126,222L124,221L122,220L120,219L118,218L116,216L113,216L111,216L109,215L108,213L106,212L105,211L103,210L102,208L101,206L99,205L98,204L96,203L92,204L90,205L89,207L88,209L87,207L86,205L84,205L80,205L78,204L78,204L76,203L74,206L73,207L71,208L70,210L72,211L71,213L71,216L69,219L68,220L65,221L64,223L63,225L64,227L64,229L64,231L64,235L65,237L65,240L63,240L63,242L62,244L61,246L60,248L59,249L59,252L59,254L58,256L59,258L59,260L59,262L58,264L57,266L56,268L56,270L57,272L58,274L59,276L60,278L61,279L61,281L63,282L62,284L63,287L63,288L62,290L61,292L61,294L61,296L61,298L62,299L139,299Z" data-oid="ARG" />

<path data-regid="0.0" data-iso="BOL" d="M70,210L71,208L73,207L74,206L76,203L78,204L78,204L80,205L84,205L86,205L87,207L88,209L89,207L90,205L92,204L96,203L98,204L99,205L99,204L100,202L100,199L101,196L101,194L101,192L103,190L103,188L105,187L107,186L109,186L112,185L114,185L117,184L119,184L121,184L123,185L125,187L127,188L127,190L129,189L127,187L128,185L129,183L129,181L130,179L130,177L130,175L129,173L128,172L126,171L125,169L124,167L125,165L122,164L120,164L117,164L115,164L113,164L113,161L112,159L112,159L111,157L112,155L112,153L111,151L111,149L110,147L108,146L106,145L103,146L101,145L100,144L98,143L96,142L94,141L93,140L91,140L88,139L86,139L84,139L82,137L81,136L80,134L78,133L77,131L78,129L77,127L77,125L77,123L77,121L75,121L73,121L70,122L68,122L67,124L65,125L63,126L62,127L60,128L58,129L57,131L55,131L53,130L51,130L49,130L50,132L52,134L53,137L55,139L55,142L54,144L54,146L54,148L54,150L55,152L54,154L53,156L53,158L53,160L52,162L53,164L54,166L55,168L54,170L53,171L52,173L53,175L53,176L54,177L56,179L56,181L57,183L57,185L59,186L60,188L60,191L59,193L59,195L61,196L62,198L63,200L63,202L64,205L65,207L66,209L66,211L68,211Z" data-oid="BOL" />

<path data-regid="0.0" data-iso="CHL" d="M61,298L61,296L61,294L61,292L62,290L63,288L63,287L62,284L63,282L61,281L61,279L60,278L59,276L58,274L57,272L56,270L56,268L57,266L58,264L59,262L59,260L59,258L58,256L59,254L59,252L59,249L60,248L61,246L62,244L63,242L63,240L65,240L65,237L64,235L64,231L64,229L64,227L63,225L64,223L65,221L68,220L69,219L71,216L71,213L72,211L70,210L68,211L66,211L66,209L65,207L64,205L63,202L63,200L62,198L61,196L59,195L59,193L60,191L60,188L59,186L57,185L57,183L56,181L56,179L54,177L53,176L53,175L53,175L51,176L51,178L50,181L47,181L48,182L48,184L48,186L49,188L50,190L50,192L50,194L50,196L51,198L51,200L51,202L51,204L51,207L51,209L51,211L51,213L49,214L51,216L50,218L51,220L51,222L51,225L52,227L52,229L51,230L51,232L51,235L51,237L51,239L51,241L51,243L50,245L50,247L50,249L49,251L49,253L49,255L50,257L50,259L50,261L49,262L49,265L49,267L50,269L50,271L51,273L51,275L52,277L53,279L52,281L52,283L52,285L52,287L51,289L51,291L51,293L51,295L50,297L49,299L49,299L62,299Z" data-oid="CHL" />

<path data-regid="0.0" data-iso="COL" d="M45,82L46,80L46,78L46,75L47,73L47,71L47,69L48,66L48,64L48,62L47,60L46,59L44,57L43,55L43,53L43,52L44,52L46,51L48,50L50,51L49,49L47,48L45,48L45,46L45,44L47,43L49,44L52,43L55,43L56,41L57,43L60,41L61,40L63,43L64,46L65,46L65,45L64,43L64,42L63,40L62,38L60,36L59,35L61,33L61,31L60,29L59,27L59,25L59,23L59,21L59,19L60,17L61,15L61,13L59,12L57,13L55,13L53,13L51,13L49,14L47,13L45,11L44,9L42,8L40,7L38,8L36,8L34,8L32,8L30,8L29,6L27,4L27,2L28,0L28,0L0,0L0,56L1,55L3,55L4,57L6,57L8,58L9,58L12,59L13,60L14,62L15,64L17,64L19,65L20,67L21,69L23,70L23,72L24,73L27,72L29,73L31,72L32,71L34,71L36,72L38,71L40,72L42,73L44,74L43,76L42,78L40,80L41,82L43,83L45,84Z" data-oid="COL" />

<path data-regid="0.0" data-iso="ECU" d="M1,74L2,73L4,71L5,70L7,68L7,66L9,64L8,62L7,60L6,58L8,58L6,57L4,57L3,55L1,55L0,56L0,75Z" data-oid="ECU" />

<path data-regid="0.0" data-iso="FRA" d="M153,38L155,37L157,38L159,38L161,38L163,36L164,34L164,32L166,30L167,28L169,26L169,26L169,25L167,23L167,21L165,20L163,19L161,17L159,16L157,16L155,15L153,15L152,17L151,18L150,20L150,23L151,25L152,27L153,29L153,31L152,32L152,34L151,36L149,37L151,39Z" data-oid="FRA" />

<path data-regid="0.0" data-iso="GUY" d="M123,43L125,43L127,42L129,41L132,40L133,41L136,40L136,40L135,40L134,38L133,36L131,34L131,32L130,31L128,29L127,28L125,26L126,24L127,22L127,20L129,20L131,18L131,16L131,16L132,14L131,12L129,11L127,9L125,7L123,7L121,10L122,8L122,6L123,4L121,2L120,1L119,0L111,0L110,0L108,1L107,3L108,5L109,7L107,8L105,8L104,10L104,12L102,14L104,15L105,17L107,18L107,18L109,18L111,18L112,20L112,22L113,23L114,25L115,27L114,29L113,30L113,32L112,35L113,37L114,39L114,41L116,43L117,44L119,45L122,45Z" data-oid="GUY" />

<path data-regid="0.0" data-iso="PER" d="M50,181L51,178L51,176L53,175L53,175L52,173L53,171L54,170L55,168L54,166L53,164L52,162L53,160L53,158L53,156L54,154L55,152L54,150L54,148L54,146L54,144L55,142L55,139L53,137L52,134L50,132L49,130L47,130L45,131L43,131L42,129L42,126L42,124L42,121L40,122L38,124L36,125L33,125L32,123L31,122L28,121L25,121L26,119L25,117L23,115L22,114L21,112L20,110L19,108L21,107L20,105L22,103L23,102L24,99L24,97L25,95L25,93L27,91L28,90L30,88L32,87L34,86L36,86L38,85L40,84L42,84L44,85L45,84L43,83L41,82L40,80L42,78L43,76L44,74L42,73L40,72L38,71L36,72L34,71L32,71L31,72L29,73L27,72L24,73L23,72L23,70L21,69L20,67L19,65L17,64L15,64L14,62L13,60L12,59L9,58L8,58L6,58L7,60L8,62L9,64L7,66L7,68L5,70L4,71L2,73L1,74L0,75L0,140L0,141L2,142L3,144L4,146L5,148L7,149L7,152L6,153L7,155L9,157L10,158L11,160L13,161L14,162L16,164L18,165L21,166L23,167L25,168L27,169L29,170L31,171L34,171L35,172L37,173L39,174L41,175L42,177L43,178L45,180L47,181Z" data-oid="PER" />

<path data-regid="0.0" data-iso="PRY" d="M140,238L142,238L144,238L145,236L147,235L149,233L150,231L150,229L150,227L150,226L151,224L151,221L152,219L152,217L151,215L149,215L147,216L145,214L144,212L144,210L143,208L143,206L141,204L139,204L137,204L135,204L133,204L131,204L129,203L128,201L128,199L129,197L129,195L128,193L127,191L127,190L127,188L125,187L123,185L121,184L119,184L117,184L114,185L112,185L109,186L107,186L105,187L103,188L103,190L101,192L101,194L101,196L100,199L100,202L99,204L99,205L101,206L102,208L103,210L105,211L106,212L108,213L109,215L111,216L113,216L116,216L118,218L120,219L122,220L124,221L126,222L128,223L130,224L132,225L130,227L130,229L128,231L128,233L127,235L126,236L126,238L128,238L130,238L132,239L134,239L136,239L139,239Z" data-oid="PRY" />

<path data-regid="0.0" data-iso="SUR" d="M139,39L139,37L142,37L144,36L146,36L148,37L149,37L151,36L152,34L152,32L153,31L153,29L152,27L151,25L150,23L150,20L151,18L152,17L153,16L152,14L150,13L148,13L146,14L144,13L142,13L140,14L138,14L135,13L133,13L132,14L131,16L131,18L129,20L127,20L127,22L126,24L125,26L127,28L128,29L130,31L131,32L131,34L133,36L134,38L135,40L136,40L138,41Z" data-oid="SUR" />

<path data-regid="0.0" data-iso="URY" d="M151,288L153,287L156,285L157,283L158,281L157,279L157,276L159,275L158,273L156,272L155,270L154,269L152,268L151,266L148,265L147,264L145,263L143,263L142,261L141,260L139,259L137,257L135,257L134,258L132,258L131,260L131,262L131,264L130,266L130,268L130,270L129,273L129,273L129,273L130,275L130,277L129,278L128,280L129,282L130,284L132,285L134,286L136,286L138,287L139,288L141,289L143,288L145,288L147,289L149,289Z" data-oid="URY" />

<path data-regid="0.0" data-iso="VEN" d="M76,48L77,47L79,46L81,45L83,44L84,42L86,41L88,40L89,38L87,38L85,37L84,35L83,33L83,31L82,29L81,28L79,26L82,26L84,27L86,27L88,28L91,29L92,30L93,28L94,27L97,26L99,26L101,25L103,24L105,23L107,22L107,19L105,17L104,15L102,14L104,12L104,10L105,8L107,8L109,7L108,5L107,3L108,1L110,0L111,0L28,0L28,0L27,2L27,4L29,6L30,8L32,8L34,8L36,8L38,8L40,7L42,8L44,9L45,11L47,13L49,14L51,13L53,13L55,13L57,13L59,12L61,13L61,15L60,17L59,19L59,21L59,23L59,25L59,27L60,29L61,31L61,33L59,35L60,36L62,38L63,40L64,42L64,43L65,45L65,46L68,49L70,49L72,48L74,48L74,50Z" data-oid="VEN" />

</g>

<g id="BRA">

<path data-iso="BRA" d="M195,221L194,221L193,222Z M175,57L175,57L173,59Z M170,62L172,60L172,57L171,57L169,59L168,61L168,63Z M179,65L181,65L183,65L185,64L187,64L189,62L190,61L191,59L191,57L190,55L188,55L186,54L184,55L182,55L180,54L178,54L176,55L176,57L175,59L177,60L175,61L176,64L177,65Z M184,53L184,53L183,54Z M183,52L181,51L179,53L182,53Z M178,50L178,50L178,52Z M180,49L180,49L179,51Z M159,280L160,279L162,277L163,275L164,273L165,270L164,268L166,267L167,265L168,264L170,262L170,260L171,257L173,258L175,258L174,260L172,262L171,263L171,266L169,267L167,268L165,268L165,271L167,269L170,267L172,265L173,264L174,262L177,257L178,255L179,252L182,249L185,247L186,245L187,243L187,241L187,239L188,237L187,235L187,233L186,231L187,230L188,228L188,226L190,226L191,224L192,222L195,221L198,219L199,217L201,216L203,215L205,215L208,214L209,213L211,212L213,212L213,210L216,210L218,210L220,210L222,210L223,208L224,210L226,210L228,210L230,208L231,207L233,205L235,205L236,204L236,201L237,199L238,197L239,196L241,195L242,192L243,190L244,189L246,187L246,185L246,182L246,179L248,177L249,176L250,174L250,171L251,169L251,167L252,165L253,163L252,161L252,159L252,156L252,154L253,152L253,150L253,148L252,146L254,144L254,142L256,142L256,144L258,142L260,141L261,139L262,137L263,135L265,133L265,131L267,130L269,128L271,127L272,126L274,124L275,122L277,121L278,119L280,117L281,115L281,113L282,111L282,109L283,107L283,105L282,103L282,101L281,98L281,96L280,94L280,92L278,91L276,90L274,90L272,90L270,89L268,89L266,87L265,87L263,85L261,83L260,82L258,80L256,79L255,77L253,76L251,75L249,74L247,74L245,74L242,74L240,74L238,74L236,73L234,73L232,73L230,71L228,71L226,70L224,71L222,72L220,72L221,70L219,71L219,73L218,75L216,76L217,74L217,72L218,70L218,68L217,70L218,68L217,66L216,65L214,64L212,65L211,63L210,62L208,62L206,60L204,60L203,59L201,59L199,57L197,58L195,58L193,59L193,61L191,62L191,64L189,63L188,65L186,66L185,68L184,70L183,71L184,69L184,68L183,66L182,67L180,66L178,67L177,66L175,64L175,62L174,60L171,62L169,63L167,64L165,65L164,63L165,62L167,62L169,60L169,58L171,56L172,55L173,53L175,52L177,50L178,48L180,47L181,46L181,44L181,42L179,41L177,40L176,38L175,36L174,34L174,32L173,30L173,27L172,25L170,24L169,26L169,26L167,28L166,30L164,32L164,34L163,36L161,38L159,38L157,38L155,37L153,38L151,39L149,37L148,37L146,36L144,36L142,37L139,37L139,39L138,41L136,40L136,40L133,41L132,40L129,41L127,42L125,43L123,43L122,45L119,45L117,44L116,43L114,41L114,39L113,37L112,35L113,32L113,30L114,29L115,27L114,25L113,23L112,22L112,20L111,18L109,18L107,18L107,18L107,19L107,22L105,23L103,24L101,25L99,26L97,26L94,27L93,28L92,30L91,29L88,28L86,27L84,27L82,26L79,26L81,28L82,29L83,31L83,33L84,35L85,37L87,38L89,38L88,40L86,41L84,42L83,44L81,45L79,46L77,47L76,48L74,50L74,48L72,48L70,49L68,49L65,46L64,46L63,43L61,40L60,41L57,43L56,41L55,43L52,43L49,44L47,43L45,44L45,46L45,48L47,48L49,49L50,51L48,50L46,51L44,52L43,52L43,53L43,55L44,57L46,59L47,60L48,62L48,64L48,66L47,69L47,71L47,73L46,75L46,78L46,80L45,82L45,84L44,85L42,84L40,84L38,85L36,86L34,86L32,87L30,88L28,90L27,91L25,93L25,95L24,97L24,99L23,102L22,103L20,105L21,107L19,108L20,110L21,112L22,114L23,115L25,117L26,119L25,121L28,121L31,122L32,123L33,125L36,125L38,124L40,122L42,121L42,124L42,126L42,129L43,131L45,131L47,130L49,130L51,130L53,130L55,131L57,131L58,129L60,128L62,127L63,126L65,125L67,124L68,122L70,122L73,121L75,121L77,121L77,123L77,125L77,127L78,129L77,131L78,133L80,134L81,136L82,137L84,139L86,139L88,139L91,140L93,140L94,141L96,142L98,143L100,144L101,145L103,146L106,145L108,146L110,147L111,149L111,151L112,153L112,155L111,157L112,159L112,159L113,161L113,164L115,164L117,164L120,164L122,164L125,165L124,167L125,169L126,171L128,172L129,173L130,175L130,177L130,179L129,181L129,183L128,185L127,187L129,189L127,190L127,191L128,193L129,195L129,197L128,199L128,201L129,203L131,204L133,204L135,204L137,204L139,204L141,204L143,206L143,208L144,210L144,212L145,214L147,216L149,215L151,215L152,217L152,219L151,221L151,224L150,226L151,227L153,226L155,227L155,229L156,231L155,233L156,235L154,237L152,239L150,239L148,241L146,242L145,243L144,245L142,246L141,248L139,249L138,251L137,253L135,255L134,256L132,258L134,258L135,257L137,257L139,259L141,260L142,261L143,263L145,263L147,264L148,265L151,266L152,268L154,269L155,270L156,272L158,273L159,275L157,276L157,279L158,281Z" />

</g>

<g id="layer" style="stroke:none;opacity:.4;fill:#50BF32">

<path data-iso="" d="M130,180L130,180L129,180Z M130,178L131,178L130,177L130,177L130,179Z M101,145L101,145L101,145L102,145Z M158,145L160,144L162,144L164,143L166,141L168,140L169,139L171,138L173,137L171,137L171,134L169,133L168,131L166,130L166,127L166,125L164,123L162,124L160,125L159,126L158,128L159,130L160,132L162,133L165,133L166,135L167,137L166,139L165,141L165,139L165,137L165,134L163,133L160,133L159,131L157,132L156,134L157,136L159,137L160,139L160,139L160,141L160,139L158,138L157,140L156,142L157,140L157,138L156,136L154,137L152,138L152,140L150,142L150,140L151,138L153,137L154,135L155,133L156,132L156,130L155,131L153,129L151,130L149,130L149,133L147,134L146,136L146,135L147,133L148,131L149,129L151,129L153,128L156,129L158,128L159,126L159,124L157,123L157,123L156,121L157,120L158,118L160,117L161,115L163,115L164,113L166,115L167,117L167,119L166,121L168,121L170,122L170,123L172,122L172,122L172,121L173,120L175,122L176,122L178,122L178,119L177,118L178,116L180,116L178,116L179,114L178,112L177,110L176,109L177,107L175,109L173,109L171,108L169,108L169,109L168,111L168,113L167,114L165,112L164,111L165,109L166,108L168,109L167,108L167,106L169,105L171,105L172,105L172,104L172,104L173,105L173,105L175,106L177,105L177,103L179,102L177,102L175,100L175,99L173,99L171,99L169,100L166,100L166,98L168,98L171,98L173,98L175,98L177,98L179,97L180,96L181,94L183,94L183,91L181,92L180,90L182,88L183,87L183,84L181,83L180,83L178,83L177,80L175,80L173,78L171,77L170,75L172,77L174,78L176,78L178,79L180,81L181,79L183,78L183,81L184,83L185,85L185,87L188,87L187,89L188,88L190,87L192,88L195,88L197,87L195,85L195,85L196,83L194,82L195,80L196,78L197,77L195,77L196,75L197,73L196,71L195,69L194,68L194,70L193,72L192,71L192,68L191,70L189,71L189,70L190,68L189,67L188,68L186,69L185,70L184,72L182,74L182,71L182,69L183,67L184,67L183,66L182,67L180,66L180,66L178,67L177,66L175,64L175,62L174,60L171,62L171,63L169,63L169,63L168,64L167,64L165,65L166,67L167,69L167,71L167,73L166,76L165,76L164,78L164,78L163,78L161,77L159,78L159,76L161,75L163,75L165,73L166,72L166,70L165,68L164,66L163,68L161,67L159,68L157,68L155,69L153,70L151,70L149,72L148,73L146,72L146,74L145,75L144,76L145,74L145,72L144,70L142,70L140,69L138,69L139,67L138,67L136,68L134,69L133,71L131,71L132,70L133,68L135,68L136,67L138,65L140,66L142,66L144,66L146,66L147,65L146,63L144,63L142,62L140,61L141,59L143,61L142,59L143,57L145,59L146,60L148,61L147,63L149,64L151,63L153,63L155,62L157,62L158,62L159,61L160,59L161,58L163,58L162,60L161,62L163,61L165,60L167,61L168,61L169,59L167,59L166,58L167,56L169,55L171,54L170,52L172,51L172,49L172,47L173,45L174,43L174,41L174,39L173,38L173,35L173,33L172,31L170,30L170,28L169,26L167,28L166,30L164,32L164,34L163,36L161,38L157,38L155,37L153,38L151,39L149,37L148,37L146,36L144,36L142,37L139,37L139,39L138,41L136,40L133,41L132,40L129,41L127,42L125,43L123,43L122,45L119,45L117,44L116,43L114,41L114,39L113,37L112,35L113,32L113,30L114,29L115,27L114,25L113,23L112,22L112,20L111,18L107,18L107,19L107,22L105,23L103,24L101,25L99,26L97,26L94,27L93,28L92,30L91,29L88,28L86,27L84,27L82,26L79,26L81,28L82,29L83,31L83,33L84,35L85,37L87,38L89,38L88,40L86,41L84,42L83,44L81,45L79,46L77,47L76,48L74,50L74,48L72,48L70,49L68,49L65,46L64,46L63,43L61,40L60,41L57,43L56,41L55,43L52,43L49,44L47,43L45,44L45,46L45,48L47,48L49,49L50,51L48,50L46,51L44,52L43,52L43,53L43,55L44,57L46,59L47,60L48,62L48,64L48,66L47,69L47,71L47,73L46,75L46,78L46,80L45,82L45,84L44,85L42,84L40,84L38,85L36,86L34,86L32,87L30,88L28,90L27,91L25,93L25,95L24,97L24,99L23,102L22,103L20,105L21,107L19,108L20,110L21,112L22,114L23,115L25,117L26,119L25,121L28,121L31,122L32,123L33,125L36,125L38,124L40,122L42,121L42,124L42,126L42,129L43,131L45,131L47,130L53,130L55,131L57,131L58,129L60,128L62,127L63,126L65,125L67,124L68,122L70,122L73,121L77,121L77,123L77,125L77,127L78,129L77,131L78,133L80,134L81,136L82,137L84,139L88,139L91,140L89,139L91,139L93,138L94,140L96,141L98,142L100,141L102,141L104,143L105,143L107,142L109,141L111,142L111,140L109,139L107,140L106,139L105,138L104,139L102,139L101,137L101,136L100,134L98,133L96,132L95,132L93,133L91,133L89,134L87,135L85,134L87,133L89,132L90,131L92,130L94,129L96,130L98,129L96,129L96,127L95,124L93,125L93,123L91,122L91,120L93,119L96,119L96,121L97,123L99,123L101,125L102,127L103,128L105,129L106,132L108,133L110,134L112,133L114,132L117,132L119,133L121,132L122,133L124,133L127,133L125,135L126,137L128,137L130,139L129,141L131,143L132,144L134,144L136,142L136,145L137,145L138,143L138,141L137,140L137,139L138,137L136,135L136,133L137,135L139,137L140,136L141,137L143,138L144,140L146,142L147,144L149,144L152,144L154,144L156,145Z M94,141L94,141L94,141L94,141Z M182,63L183,63L185,64L184,63L185,61L184,59L183,57L182,56L180,56L180,54L178,54L176,55L176,57L175,59L177,60L175,61L176,64L177,65L181,65Z M114,40L114,40L114,39L113,37L112,35L113,32L113,30L114,29L115,27L114,25L113,23L112,22L112,21L112,21L110,20L108,20L107,20L107,22L105,23L107,23L105,24L103,25L102,27L101,29L103,30L104,32L102,33L104,34L105,36L107,35L108,35L110,34L112,34L110,35L111,37L110,38L108,39L109,41L111,40L113,41Z M111,44L113,42L111,42L109,43L107,44L107,44L109,45L111,46Z M71,57L69,57L71,57Z M115,64L115,62L113,62L111,62L110,62L110,64L112,65L114,66L116,66Z M140,64L140,62L139,64Z M77,71L77,69L77,71Z M124,74L126,73L128,71L128,70L126,71L124,71L123,73L122,75Z M72,71L70,71L70,72Z M106,78L107,77L107,76L105,77L103,78L105,78Z M149,80L151,80L153,80L155,79L157,79L155,78L153,79L150,79L148,80L148,77L147,75L146,75L147,77L147,80L146,81L148,82Z M100,80L97,80L99,80Z M98,86L99,84L97,83L99,82L97,81L95,81L96,83L97,85L95,87L94,87L96,87Z M161,95L159,94L158,94L160,96Z M64,115L63,115L63,117Z M63,126L63,126L64,126L64,124L67,124L65,123L63,122L61,123L59,121L58,121L59,123L60,125L62,127Z M79,128L78,126L80,125L78,124L77,125L77,127L78,129L78,129L78,129Z M102,53L104,53L105,54L107,54L105,53L107,52L105,52L106,50L106,48L107,46L107,44L106,43L104,42L102,43L100,44L98,45L97,46L98,48L100,49L101,48L102,47L103,46L104,47L102,49L102,51L101,53L101,55Z M85,60L87,60L87,58L87,57L90,57L88,56L87,55L85,56L83,55L82,53L83,52L83,51L85,53L87,52L89,52L89,54L91,54L92,52L93,51L93,54L93,56L95,56L97,54L98,53L99,51L97,51L96,50L94,50L93,50L94,48L92,48L92,50L90,50L88,49L86,50L85,49L83,49L81,49L80,51L80,53L81,55L83,55L81,57L79,57L79,59L80,61L82,60L84,61Z M68,72L66,72L66,72Z M48,50L48,50L47,51L48,51Z M52,55L54,55L57,55L58,53L56,52L54,51L56,50L54,49L56,48L57,46L55,45L53,45L50,45L52,43L54,43L55,43L52,43L49,44L47,43L46,43L47,44L48,46L49,48L47,48L46,48L47,48L49,49L50,51L49,50L49,51L49,53L49,55Z M59,42L60,41L62,42L61,40L60,41L57,43L56,41L56,42L57,43Z M176,66L174,66L172,65L171,66L173,66L175,67Z M83,76L82,74L80,73L79,73L80,75L81,77L82,78Z M175,64L176,65L176,66L177,66Z M177,64L178,62L176,61L175,61L175,61L175,61L176,64L177,65L177,65Z M147,127L149,127L152,127L153,126L154,124L153,122L152,120L151,118L151,116L150,114L148,113L146,112L144,112L143,112L141,111L139,111L137,110L139,110L138,108L136,108L134,106L132,105L131,103L129,101L128,99L126,99L124,97L122,99L121,100L121,103L120,105L118,106L117,107L119,107L121,107L121,105L122,103L124,103L126,103L126,104L128,105L130,106L131,109L132,111L132,111L134,112L136,112L137,113L135,113L133,113L131,113L129,112L128,112L126,113L124,112L124,110L123,112L122,114L124,113L124,115L126,114L128,115L130,116L132,116L134,116L136,118L136,120L136,121L138,121L140,121L138,120L137,119L139,119L141,119L143,119L145,119L147,120L149,122L150,123L150,126L148,126L146,126L144,125L142,124L141,126L143,127L145,128Z M100,64L99,62L98,62L97,61L98,62L96,61L94,61L93,60L95,60L93,58L93,60L91,59L90,59L91,60L93,61L95,62L97,63L99,64Z M47,45L45,46L46,47Z M64,46L64,45L63,47L64,47Z M142,50L144,50L145,48L146,46L144,45L144,42L145,41L143,40L141,39L140,38L139,39L138,42L138,44L139,46L141,47L143,46L142,47L141,48L140,50L141,50Z M73,60L74,61L76,60L77,58L75,58L73,58L71,59L71,61Z M61,62L63,61L65,60L64,58L63,56L61,57L59,58L57,59L58,61L59,62Z M65,64L64,62L62,62L62,64L64,64Z M75,63L73,63L72,65L74,65L75,66Z M87,70L85,71L86,72Z M110,75L110,75L111,75Z M109,74L108,73L106,71L105,69L105,71L106,73L108,74L110,75Z M128,75L128,73L130,71L128,72L127,74L127,76L128,77Z M105,101L103,100L103,102Z M29,108L26,108L25,106L26,109L27,110L29,111Z M87,115L89,115L89,114L89,112L91,110L92,109L92,107L91,105L88,105L86,105L87,107L86,109L84,109L84,107L83,105L83,103L82,105L82,107L81,105L80,107L80,109L81,112L79,111L77,112L77,114L79,115L81,116L83,116L85,117Z M176,112L174,111L172,110L174,112L174,112Z M102,115L103,113L105,114L104,111L102,110L100,110L99,111L98,113L100,115Z M174,114L173,112L171,110L170,112L172,114L174,114L176,116Z M84,118L81,118L82,119Z M77,122L77,122L77,122Z M71,122L70,122L69,122L70,122Z M76,120L75,121L75,121L76,121Z M176,118L174,117L174,119Z M121,125L119,123L118,126L120,126Z M88,127L86,126L84,126L82,126L83,128L85,129L88,129L89,129Z M141,127L140,125L139,123L137,122L135,122L133,124L131,124L128,124L129,126L131,127L133,127L135,127L136,128L137,128L139,128L141,129Z M57,131L58,129L58,129L56,129L54,130L55,131L55,131L57,131Z M141,131L139,132L140,133Z M96,140L98,139L100,138L98,137L96,138L95,140Z M174,33L173,31L173,31L173,30L173,27L172,25L170,24L169,26L169,25L171,25L172,28L173,29L173,32L174,33Z M114,27L112,26L110,26L111,28L113,28Z M111,40L110,38L108,39L109,41Z M181,42L181,42L180,42L179,42L180,43L181,44Z M176,51L177,49L176,47L174,48L175,49L176,51Z M142,50L143,49L142,47L141,48L141,48L141,50Z M181,52L179,53L179,53L179,53Z M83,59L83,59L83,58L83,59L81,57L80,59L82,59Z M86,57L84,57L83,58L84,58L86,59Z M169,58L168,56L167,59Z M198,58L197,58L197,58L195,58L194,59L194,60L195,60L197,60L199,61Z M191,58L191,57L189,57L191,59Z M204,60L203,59L202,59L201,61L203,61Z M193,62L194,60L193,59L193,61L191,62L191,63Z M213,65L212,65L211,63L210,62L208,62L207,61L207,63L209,64L211,65L213,66Z M204,83L205,81L203,79L205,79L207,79L207,77L209,75L208,73L207,71L208,69L206,69L204,67L204,69L202,69L200,70L198,72L199,73L201,74L202,76L200,75L201,77L200,79L199,81L200,83L202,83Z M226,72L226,70L225,70L224,71L223,71L224,72L226,73Z M236,73L236,73L233,73L234,75L236,75Z M238,76L236,77L238,78Z M258,85L259,83L258,82L257,83L256,85L258,85Z M206,87L207,85L208,83L206,83L205,84L203,86L202,87L203,88L205,89Z M252,84L251,86L253,86Z M239,89L239,87L238,88L238,90Z M271,90L269,90L271,92Z M201,90L200,89L201,91Z M249,94L251,93L250,91L248,92L247,94L248,96Z M185,99L185,97L187,96L188,95L190,93L188,92L188,90L186,91L185,92L184,95L184,97L183,98L185,99Z M204,93L202,93L203,95Z M241,95L239,96L242,96Z M221,109L222,107L223,105L223,103L225,102L225,100L223,98L222,96L222,98L220,99L219,100L217,101L215,102L214,103L213,104L211,106L209,106L211,107L213,106L215,105L217,106L218,104L220,104L222,104L220,105L220,107L220,109L219,111L221,112Z M219,99L221,97L219,98L219,100Z M247,101L248,99L245,99L244,101L246,101Z M208,102L206,101L206,99L205,101L203,102L205,103L207,103Z M188,104L188,102L188,102L186,101L184,102L184,104L186,105Z M260,103L258,103L260,104Z M236,110L236,108L237,106L237,104L235,103L236,104L235,107L235,109L236,111Z M226,116L226,113L227,112L229,112L228,113L227,115L229,114L231,114L231,112L232,111L234,110L233,108L231,108L229,109L228,110L226,112L224,112L225,110L225,108L226,106L226,104L224,104L223,106L223,108L222,111L221,112L223,114L223,116Z M239,106L238,105L238,107Z M172,104L172,104L172,105L173,105Z M183,104L181,105L183,106Z M281,116L281,115L281,115L281,113L282,111L282,109L282,108L282,107L282,110L281,112L280,114L281,116Z M169,109L169,108L169,107L171,105L169,105L167,106L167,108L168,109L168,111Z M240,107L238,107L238,108Z M186,106L186,109L186,109Z M200,113L201,111L201,108L200,110L200,112L201,115Z M205,113L205,111L206,109L205,111L203,112L202,114L204,113L206,115Z M144,114L144,112L143,112L142,112L140,112L139,112L137,110L134,110L132,111L134,112L136,112L137,113L139,113L141,114L143,115L145,116Z M259,115L261,115L262,113L260,114L258,114L258,116Z M239,112L238,113L239,114Z M233,114L231,114L230,115L231,115L233,116Z M208,116L207,114L208,116Z M258,116L257,117L257,119Z M221,127L222,125L223,123L225,123L225,120L223,121L222,123L221,120L218,120L220,119L221,118L221,115L220,118L218,119L217,121L217,123L215,124L215,126L216,125L218,124L220,124L219,126L221,127Z M165,117L163,116L164,119Z M265,121L263,119L262,121L265,122Z M241,127L241,125L243,124L242,121L240,120L239,122L240,124L239,126L238,127L239,128Z M266,124L266,122L263,123L261,124L264,124L266,124Z M256,123L253,123L253,125L255,125Z M234,123L232,123L234,123Z M121,125L119,123L118,126L120,126Z M224,134L224,132L224,130L224,128L223,126L223,128L222,130L220,130L221,132L222,134L224,136Z M267,130L269,128L271,127L271,127L269,127L267,128L266,130L266,130Z M217,129L218,127L216,127L216,129Z M139,128L139,127L137,128Z M228,134L227,132L227,130L225,132L226,134L228,135Z M141,131L139,132L140,133Z M107,138L105,136L104,137L101,137L102,139L104,139L105,138L106,139L107,140Z M219,142L220,140L220,138L219,140L218,142L219,144Z M249,141L247,139L245,138L246,141L245,142L247,143L249,143Z M139,141L138,138L137,140L138,141Z M114,141L113,139L113,141L114,143Z M160,139L160,139L160,139L160,141Z M115,158L115,157L117,157L116,155L118,155L118,153L116,152L115,154L114,152L116,152L116,150L114,148L114,148L113,148L111,148L113,147L115,147L114,145L112,144L111,145L109,144L107,142L105,143L104,143L106,143L106,145L108,146L110,147L111,149L111,149L111,149L112,152L112,154L113,156L112,156L111,157L112,158L113,159Z M136,145L136,142L134,144L136,145Z M244,149L242,147L240,146L238,146L238,144L237,146L239,147L241,147L243,149L245,150Z M131,145L131,143L130,143L129,145L130,147Z M221,150L221,148L221,146L219,147L219,149L221,148L221,151Z M224,150L224,148L224,146L223,148L222,150L224,151Z M231,149L231,147L230,146L230,148L231,151Z M115,147L113,147L114,148L114,148Z M200,153L200,151L202,150L201,148L203,147L200,147L200,149L199,151L200,154Z M217,158L218,157L219,155L217,154L218,151L215,151L216,154L218,155L216,157L216,159Z M148,155L147,153L146,155L148,155Z M126,165L127,164L128,161L130,162L131,160L132,158L132,156L132,154L130,153L130,156L129,158L128,159L126,161L126,163L126,165Z M167,156L167,154L165,155L167,157Z M121,159L123,158L122,156L120,157L118,157L118,159L120,160Z M218,161L219,159L217,160L216,162Z M133,165L132,163L131,164L132,166Z M250,168L249,169L250,170Z M127,171L129,170L129,168L127,167L126,169L127,171L127,171Z M139,171L138,169L139,171Z M135,174L137,174L139,175L138,173L136,173L134,174L133,176Z M143,176L144,175L143,173L141,175L139,175L140,176L141,177Z M133,181L134,179L133,178L132,181L131,179L130,181L133,181Z M142,185L143,183L144,182L144,180L142,180L140,179L138,180L137,181L136,183L138,182L140,182L142,182L141,184L140,185Z M246,184L245,182L244,184L244,186L246,187Z M151,181L151,179L150,181L150,183Z M244,184L242,185L244,186Z M148,187L147,184L147,187L148,189Z M170,187L168,187L170,188Z M134,191L134,189L132,188L132,191Z M139,192L139,190L138,188L137,189L138,191L139,193Z M160,196L162,196L163,193L163,191L161,190L161,193L160,194L160,197Z M165,192L163,191L165,193Z M135,202L134,200L134,198L134,196L134,194L132,194L133,196L133,198L132,200L132,202L132,204L135,204Z M167,195L166,193L164,195L164,197L167,197Z M131,195L129,196L130,196Z M157,197L157,195L154,194L155,197L156,198Z M131,199L130,196L129,196L129,197L129,197L129,197L130,199Z M149,199L148,197L148,199L150,200Z M206,205L208,203L210,205L211,206L212,204L210,203L207,203L206,201L203,201L202,202L201,204L201,206L201,205L203,205L204,207L206,207Z M208,207L208,207L211,207L213,207L213,204L212,204L211,206L210,205L208,203L206,205L206,207L207,208Z M228,206L230,205L228,205L225,206L223,204L223,207L224,207L226,207Z M144,206L145,204L143,204L143,207Z M203,205L201,205L201,206L202,207Z M145,208L146,206L144,207L145,208Z M204,207L202,207L203,209Z M156,207L154,207L155,208Z M190,220L192,219L194,218L196,218L198,218L199,218L199,217L201,216L203,215L203,215L204,215L205,215L205,215L208,214L209,213L211,212L212,212L213,211L213,211L213,210L215,210L216,209L214,209L212,210L210,211L209,212L207,213L205,214L202,214L200,215L199,216L196,216L198,215L196,215L194,216L192,217L190,218L189,220Z M146,214L145,214L146,215Z M164,219L163,221L165,221Z M185,233L186,231L186,229L188,227L186,226L188,225L190,226L190,226L191,224L192,222L192,222L190,221L188,221L188,223L186,224L186,226L185,229L185,231L183,232L183,233Z M176,224L175,222L174,223L176,225Z M172,225L170,223L171,225Z M156,225L156,223L155,225Z M156,225L155,225L155,227Z M164,227L162,226L160,226L161,228L163,228L166,228Z M173,229L173,227L171,227L172,229L173,231Z M155,233L155,232L155,233L155,234Z M183,233L183,232L183,232L182,234L184,234Z M179,239L182,239L182,239L183,237L181,237L179,235L178,234L177,235L177,237L177,237L178,239Z M184,234L182,234L182,236Z M155,238L155,236L154,237L152,239L153,239Z M180,241L180,240L178,239L177,237L177,237L176,236L176,238L177,240L178,242Z M183,240L182,239L182,239L182,240L183,241Z M181,247L181,245L182,243L183,241L182,241L180,241L180,243L179,245L178,247Z M180,249L182,248L181,246L181,248L179,249L179,250L179,251Z M179,249L179,249L177,250L179,250Z M178,253L178,252L177,253L174,253L175,254L177,255Z" />

</g>

</svg>

