<?xml version="1.0" standalone="no"?>
<!DOCTYPE svg PUBLIC "-//W3C//DTD SVG 1.1//EN" "http://www.w3.org/Graphics/SVG/1.1/DTD/svg11.dtd">

<svg style="stroke-width:1px; stroke-linejoin: round; stroke:#444; fill:white;" xmlns="http://www.w3.org/2000/svg" font-family="Helvetica, Arial, FreeSans, Sans, sans, sans-serif" height="301px" viewBox="0 0 301 301" width="301px" version="1.1" xmlns:xlink="http://www.w3.org/1999/xlink" enable-background="new 0 0 301 301">

<defs>

<style type="text/css">path { fill-rule: evenodd; }
#context path { fill: #eee; stroke: #bbb; }</style>

</defs>

<metadata>

<view>

<proj>

laea</proj>

<center>

-10.782781,-53.093972</center>

<bbox>

2024652.76,1446617.54,4309487.80,4288837.97</bbox>

<padding>

18.0</padding>

</view>

</metadata>

<g id="bg">

<rect y="0" width="301.44443545" style="stroke:none;fill:#d0ddf0" height="299" x="0" />

</g>

<g id="context">

<path data-regid="0.0" data-iso="ARG" d="M139,298L137,298L135,296L135,294L136,292L135,291L133,289L131,288L129,287L128,285L128,283L128,281L128,279L129,277L130,275L129,273L129,273L130,270L130,268L130,266L131,264L131,262L131,260L132,258L134,256L135,255L137,253L138,251L139,249L141,248L142,246L144,245L145,243L146,242L148,241L150,239L152,239L154,237L156,235L155,233L156,231L155,229L155,227L153,226L151,227L150,226L150,227L150,229L150,231L149,233L147,235L145,236L144,238L142,238L140,238L139,239L136,239L134,239L132,239L130,238L128,238L126,238L126,236L127,235L128,233L128,231L130,229L130,227L132,225L130,224L128,223L126,222L124,221L122,220L120,219L118,218L116,216L113,216L111,216L109,215L108,213L106,212L105,211L103,210L102,208L101,206L99,205L98,204L96,203L92,204L90,205L89,207L88,209L87,207L86,205L84,205L80,205L78,204L78,204L76,203L74,206L73,207L71,208L70,210L72,211L71,213L71,216L69,219L68,220L65,221L64,223L63,225L64,227L64,229L64,231L64,235L65,237L65,240L63,240L63,242L62,244L61,246L60,248L59,249L59,252L59,254L58,256L59,258L59,260L59,262L58,264L57,266L56,268L56,270L57,272L58,274L59,276L60,278L61,279L61,281L63,282L62,284L63,287L63,288L62,290L61,292L61,294L61,296L61,298L62,299L139,299Z" data-oid="ARG" />

<path data-regid="0.0" data-iso="BOL" d="M70,210L71,208L73,207L74,206L76,203L78,204L78,204L80,205L84,205L86,205L87,207L88,209L89,207L90,205L92,204L96,203L98,204L99,205L99,204L100,202L100,199L101,196L101,194L101,192L103,190L103,188L105,187L107,186L109,186L112,185L114,185L117,184L119,184L121,184L123,185L125,187L127,188L127,190L129,189L127,187L128,185L129,183L129,181L130,179L130,177L130,175L129,173L128,172L126,171L125,169L124,167L125,165L122,164L120,164L117,164L115,164L113,164L113,161L112,159L112,159L111,157L112,155L112,153L111,151L111,149L110,147L108,146L106,145L103,146L101,145L100,144L98,143L96,142L94,141L93,140L91,140L88,139L86,139L84,139L82,137L81,136L80,134L78,133L77,131L78,129L77,127L77,125L77,123L77,121L75,121L73,121L70,122L68,122L67,124L65,125L63,126L62,127L60,128L58,129L57,131L55,131L53,130L51,130L49,130L50,132L52,134L53,137L55,139L55,142L54,144L54,146L54,148L54,150L55,152L54,154L53,156L53,158L53,160L52,162L53,164L54,166L55,168L54,170L53,171L52,173L53,175L53,176L54,177L56,179L56,181L57,183L57,185L59,186L60,188L60,191L59,193L59,195L61,196L62,198L63,200L63,202L64,205L65,207L66,209L66,211L68,211Z" data-oid="BOL" />

<path data-regid="0.0" data-iso="CHL" d="M61,298L61,296L61,294L61,292L62,290L63,288L63,287L62,284L63,282L61,281L61,279L60,278L59,276L58,274L57,272L56,270L56,268L57,266L58,264L59,262L59,260L59,258L58,256L59,254L59,252L59,249L60,248L61,246L62,244L63,242L63,240L65,240L65,237L64,235L64,231L64,229L64,227L63,225L64,223L65,221L68,220L69,219L71,216L71,213L72,211L70,210L68,211L66,211L66,209L65,207L64,205L63,202L63,200L62,198L61,196L59,195L59,193L60,191L60,188L59,186L57,185L57,183L56,181L56,179L54,177L53,176L53,175L53,175L51,176L51,178L50,181L47,181L48,182L48,184L48,186L49,188L50,190L50,192L50,194L50,196L51,198L51,200L51,202L51,204L51,207L51,209L51,211L51,213L49,214L51,216L50,218L51,220L51,222L51,225L52,227L52,229L51,230L51,232L51,235L51,237L51,239L51,241L51,243L50,245L50,247L50,249L49,251L49,253L49,255L50,257L50,259L50,261L49,262L49,265L49,267L50,269L50,271L51,273L51,275L52,277L53,279L52,281L52,283L52,285L52,287L51,289L51,291L51,293L51,295L50,297L49,299L49,299L62,299Z" data-oid="CHL" />

<path data-regid="0.0" data-iso="COL" d="M45,82L46,80L46,78L46,75L47,73L47,71L47,69L48,66L48,64L48,62L47,60L46,59L44,57L43,55L43,53L43,52L44,52L46,51L48,50L50,51L49,49L47,48L45,48L45,46L45,44L47,43L49,44L52,43L55,43L56,41L57,43L60,41L61,40L63,43L64,46L65,46L65,45L64,43L64,42L63,40L62,38L60,36L59,35L61,33L61,31L60,29L59,27L59,25L59,23L59,21L59,19L60,17L61,15L61,13L59,12L57,13L55,13L53,13L51,13L49,14L47,13L45,11L44,9L42,8L40,7L38,8L36,8L34,8L32,8L30,8L29,6L27,4L27,2L28,0L28,0L0,0L0,56L1,55L3,55L4,57L6,57L8,58L9,58L12,59L13,60L14,62L15,64L17,64L19,65L20,67L21,69L23,70L23,72L24,73L27,72L29,73L31,72L32,71L34,71L36,72L38,71L40,72L42,73L44,74L43,76L42,78L40,80L41,82L43,83L45,84Z" data-oid="COL" />

<path data-regid="0.0" data-iso="ECU" d="M1,74L2,73L4,71L5,70L7,68L7,66L9,64L8,62L7,60L6,58L8,58L6,57L4,57L3,55L1,55L0,56L0,75Z" data-oid="ECU" />

<path data-regid="0.0" data-iso="FRA" d="M153,38L155,37L157,38L159,38L161,38L163,36L164,34L164,32L166,30L167,28L169,26L169,26L169,25L167,23L167,21L165,20L163,19L161,17L159,16L157,16L155,15L153,15L152,17L151,18L150,20L150,23L151,25L152,27L153,29L153,31L152,32L152,34L151,36L149,37L151,39Z" data-oid="FRA" />

<path data-regid="0.0" data-iso="GUY" d="M123,43L125,43L127,42L129,41L132,40L133,41L136,40L136,40L135,40L134,38L133,36L131,34L131,32L130,31L128,29L127,28L125,26L126,24L127,22L127,20L129,20L131,18L131,16L131,16L132,14L131,12L129,11L127,9L125,7L123,7L121,10L122,8L122,6L123,4L121,2L120,1L119,0L111,0L110,0L108,1L107,3L108,5L109,7L107,8L105,8L104,10L104,12L102,14L104,15L105,17L107,18L107,18L109,18L111,18L112,20L112,22L113,23L114,25L115,27L114,29L113,30L113,32L112,35L113,37L114,39L114,41L116,43L117,44L119,45L122,45Z" data-oid="GUY" />

<path data-regid="0.0" data-iso="PER" d="M50,181L51,178L51,176L53,175L53,175L52,173L53,171L54,170L55,168L54,166L53,164L52,162L53,160L53,158L53,156L54,154L55,152L54,150L54,148L54,146L54,144L55,142L55,139L53,137L52,134L50,132L49,130L47,130L45,131L43,131L42,129L42,126L42,124L42,121L40,122L38,124L36,125L33,125L32,123L31,122L28,121L25,121L26,119L25,117L23,115L22,114L21,112L20,110L19,108L21,107L20,105L22,103L23,102L24,99L24,97L25,95L25,93L27,91L28,90L30,88L32,87L34,86L36,86L38,85L40,84L42,84L44,85L45,84L43,83L41,82L40,80L42,78L43,76L44,74L42,73L40,72L38,71L36,72L34,71L32,71L31,72L29,73L27,72L24,73L23,72L23,70L21,69L20,67L19,65L17,64L15,64L14,62L13,60L12,59L9,58L8,58L6,58L7,60L8,62L9,64L7,66L7,68L5,70L4,71L2,73L1,74L0,75L0,140L0,141L2,142L3,144L4,146L5,148L7,149L7,152L6,153L7,155L9,157L10,158L11,160L13,161L14,162L16,164L18,165L21,166L23,167L25,168L27,169L29,170L31,171L34,171L35,172L37,173L39,174L41,175L42,177L43,178L45,180L47,181Z" data-oid="PER" />

<path data-regid="0.0" data-iso="PRY" d="M140,238L142,238L144,238L145,236L147,235L149,233L150,231L150,229L150,227L150,226L151,224L151,221L152,219L152,217L151,215L149,215L147,216L145,214L144,212L144,210L143,208L143,206L141,204L139,204L137,204L135,204L133,204L131,204L129,203L128,201L128,199L129,197L129,195L128,193L127,191L127,190L127,188L125,187L123,185L121,184L119,184L117,184L114,185L112,185L109,186L107,186L105,187L103,188L103,190L101,192L101,194L101,196L100,199L100,202L99,204L99,205L101,206L102,208L103,210L105,211L106,212L108,213L109,215L111,216L113,216L116,216L118,218L120,219L122,220L124,221L126,222L128,223L130,224L132,225L130,227L130,229L128,231L128,233L127,235L126,236L126,238L128,238L130,238L132,239L134,239L136,239L139,239Z" data-oid="PRY" />

<path data-regid="0.0" data-iso="SUR" d="M139,39L139,37L142,37L144,36L146,36L148,37L149,37L151,36L152,34L152,32L153,31L153,29L152,27L151,25L150,23L150,20L151,18L152,17L153,16L152,14L150,13L148,13L146,14L144,13L142,13L140,14L138,14L135,13L133,13L132,14L131,16L131,18L129,20L127,20L127,22L126,24L125,26L127,28L128,29L130,31L131,32L131,34L133,36L134,38L135,40L136,40L138,41Z" data-oid="SUR" />

<path data-regid="0.0" data-iso="URY" d="M151,288L153,287L156,285L157,283L158,281L157,279L157,276L159,275L158,273L156,272L155,270L154,269L152,268L151,266L148,265L147,264L145,263L143,263L142,261L141,260L139,259L137,257L135,257L134,258L132,258L131,260L131,262L131,264L130,266L130,268L130,270L129,273L129,273L129,273L130,275L130,277L129,278L128,280L129,282L130,284L132,285L134,286L136,286L138,287L139,288L141,289L143,288L145,288L147,289L149,289Z" data-oid="URY" />

<path data-regid="0.0" data-iso="VEN" d="M76,48L77,47L79,46L81,45L83,44L84,42L86,41L88,40L89,38L87,38L85,37L84,35L83,33L83,31L82,29L81,28L79,26L82,26L84,27L86,27L88,28L91,29L92,30L93,28L94,27L97,26L99,26L101,25L103,24L105,23L107,22L107,19L105,17L104,15L102,14L104,12L104,10L105,8L107,8L109,7L108,5L107,3L108,1L110,0L111,0L28,0L28,0L27,2L27,4L29,6L30,8L32,8L34,8L36,8L38,8L40,7L42,8L44,9L45,11L47,13L49,14L51,13L53,13L55,13L57,13L59,12L61,13L61,15L60,17L59,19L59,21L59,23L59,25L59,27L60,29L61,31L61,33L59,35L60,36L62,38L63,40L64,42L64,43L65,45L65,46L68,49L70,49L72,48L74,48L74,50Z" data-oid="VEN" />

</g>

<g id="BRA">

<path data-iso="BRA" d="M195,221L194,221L193,222Z M175,57L175,57L173,59Z M170,62L172,60L172,57L171,57L169,59L168,61L168,63Z M179,65L181,65L183,65L185,64L187,64L189,62L190,61L191,59L191,57L190,55L188,55L186,54L184,55L182,55L180,54L178,54L176,55L176,57L175,59L177,60L175,61L176,64L177,65Z M184,53L184,53L183,54Z M183,52L181,51L179,53L182,53Z M178,50L178,50L178,52Z M180,49L180,49L179,51Z M159,280L160,279L162,277L163,275L164,273L165,270L164,268L166,267L167,265L168,264L170,262L170,260L171,257L173,258L175,258L174,260L172,262L171,263L171,266L169,267L167,268L165,268L165,271L167,269L170,267L172,265L173,264L174,262L177,257L178,255L179,252L182,249L185,247L186,245L187,243L187,241L187,239L188,237L187,235L187,233L186,231L187,230L188,228L188,226L190,226L191,224L192,222L195,221L198,219L199,217L201,216L203,215L205,215L208,214L209,213L211,212L213,212L213,210L216,210L218,210L220,210L222,210L223,208L224,210L226,210L228,210L230,208L231,207L233,205L235,205L236,204L236,201L237,199L238,197L239,196L241,195L242,192L243,190L244,189L246,187L246,185L246,182L246,179L248,177L249,176L250,174L250,171L251,169L251,167L252,165L253,163L252,161L252,159L252,156L252,154L253,152L253,150L253,148L252,146L254,144L254,142L256,142L256,144L258,142L260,141L261,139L262,137L263,135L265,133L265,131L267,130L269,128L271,127L272,126L274,124L275,122L277,121L278,119L280,117L281,115L281,113L282,111L282,109L283,107L283,105L282,103L282,101L281,98L281,96L280,94L280,92L278,91L276,90L274,90L272,90L270,89L268,89L266,87L265,87L263,85L261,83L260,82L258,80L256,79L255,77L253,76L251,75L249,74L247,74L245,74L242,74L240,74L238,74L236,73L234,73L232,73L230,71L228,71L226,70L224,71L222,72L220,72L221,70L219,71L219,73L218,75L216,76L217,74L217,72L218,70L218,68L217,70L218,68L217,66L216,65L214,64L212,65L211,63L210,62L208,62L206,60L204,60L203,59L201,59L199,57L197,58L195,58L193,59L193,61L191,62L191,64L189,63L188,65L186,66L185,68L184,70L183,71L184,69L184,68L183,66L182,67L180,66L178,67L177,66L175,64L175,62L174,60L171,62L169,63L167,64L165,65L164,63L165,62L167,62L169,60L169,58L171,56L172,55L173,53L175,52L177,50L178,48L180,47L181,46L181,44L181,42L179,41L177,40L176,38L175,36L174,34L174,32L173,30L173,27L172,25L170,24L169,26L169,26L167,28L166,30L164,32L164,34L163,36L161,38L159,38L157,38L155,37L153,38L151,39L149,37L148,37L146,36L144,36L142,37L139,37L139,39L138,41L136,40L136,40L133,41L132,40L129,41L127,42L125,43L123,43L122,45L119,45L117,44L116,43L114,41L114,39L113,37L112,35L113,32L113,30L114,29L115,27L114,25L113,23L112,22L112,20L111,18L109,18L107,18L107,18L107,19L107,22L105,23L103,24L101,25L99,26L97,26L94,27L93,28L92,30L91,29L88,28L86,27L84,27L82,26L79,26L81,28L82,29L83,31L83,33L84,35L85,37L87,38L89,38L88,40L86,41L84,42L83,44L81,45L79,46L77,47L76,48L74,50L74,48L72,48L70,49L68,49L65,46L64,46L63,43L61,40L60,41L57,43L56,41L55,43L52,43L49,44L47,43L45,44L45,46L45,48L47,48L49,49L50,51L48,50L46,51L44,52L43,52L43,53L43,55L44,57L46,59L47,60L48,62L48,64L48,66L47,69L47,71L47,73L46,75L46,78L46,80L45,82L45,84L44,85L42,84L40,84L38,85L36,86L34,86L32,87L30,88L28,90L27,91L25,93L25,95L24,97L24,99L23,102L22,103L20,105L21,107L19,108L20,110L21,112L22,114L23,115L25,117L26,119L25,121L28,121L31,122L32,123L33,125L36,125L38,124L40,122L42,121L42,124L42,126L42,129L43,131L45,131L47,130L49,130L51,130L53,130L55,131L57,131L58,129L60,128L62,127L63,126L65,125L67,124L68,122L70,122L73,121L75,121L77,121L77,123L77,125L77,127L78,129L77,131L78,133L80,134L81,136L82,137L84,139L86,139L88,139L91,140L93,140L94,141L96,142L98,143L100,144L101,145L103,146L106,145L108,146L110,147L111,149L111,151L112,153L112,155L111,157L112,159L112,159L113,161L113,164L115,164L117,164L120,164L122,164L125,165L124,167L125,169L126,171L128,172L129,173L130,175L130,177L130,179L129,181L129,183L128,185L127,187L129,189L127,190L127,191L128,193L129,195L129,197L128,199L128,201L129,203L131,204L133,204L135,204L137,204L139,204L141,204L143,206L143,208L144,210L144,212L145,214L147,216L149,215L151,215L152,217L152,219L151,221L151,224L150,226L151,227L153,226L155,227L155,229L156,231L155,233L156,235L154,237L152,239L150,239L148,241L146,242L145,243L144,245L142,246L141,248L139,249L138,251L137,253L135,255L134,256L132,258L134,258L135,257L137,257L139,259L141,260L142,261L143,263L145,263L147,264L148,265L151,266L152,268L154,269L155,270L156,272L158,273L159,275L157,276L157,279L158,281Z" />

</g>

</svg>

