<?xml version="1.0" standalone="no"?>
<!DOCTYPE svg PUBLIC "-//W3C//DTD SVG 1.1//EN" "http://www.w3.org/Graphics/SVG/1.1/DTD/svg11.dtd">

<svg style="stroke-width:1px; stroke-linejoin: round; stroke:#444; fill:white;" xmlns="http://www.w3.org/2000/svg" font-family="Helvetica, Arial, FreeSans, Sans, sans, sans-serif" height="301px" viewBox="0 0 304 301" width="304px" version="1.1" xmlns:xlink="http://www.w3.org/1999/xlink" enable-background="new 0 0 304 301">

<defs>

<style type="text/css">path { fill-rule: evenodd; }
#context path { fill: #eee; stroke: #bbb; }</style>

</defs>

<metadata>

<view>

<proj>

laea</proj>

<center>

42.171613,-2.770333</center>

<bbox>

4171694.04,2208015.32,984691.70,971498.56</bbox>

<padding>

0.0</padding>

</view>

</metadata>

<g id="FRA">

<path data-iso="FRA" d="M252,230L254,229L253,226L252,224L250,224L248,223L249,221L248,219L251,220L252,218L251,216L252,214L254,213L256,212L256,210L258,209L259,207L261,206L264,205L266,204L268,204L267,202L266,200L264,200L264,198L265,196L266,196L268,197L270,197L272,196L274,195L274,195L275,194L278,194L279,193L281,191L284,190L284,188L285,185L285,183L283,182L280,180L280,177L278,176L276,175L275,173L275,170L277,170L279,168L279,166L278,164L275,162L275,160L273,159L273,157L273,154L272,152L271,150L268,149L265,150L263,152L261,152L260,154L259,156L261,158L259,160L256,161L254,161L254,159L256,158L256,156L257,154L255,152L253,155L252,157L250,158L247,157L246,156L244,157L243,159L241,157L240,156L238,155L237,153L234,152L233,151L231,152L229,152L228,154L228,156L227,158L226,161L225,163L224,161L223,160L221,161L219,161L217,160L216,162L215,164L213,164L211,164L209,164L207,165L205,164L204,162L202,164L202,166L202,168L203,170L203,172L201,174L201,177L201,179L203,181L204,183L207,186L208,189L208,191L209,193L211,193L214,192L216,192L218,192L218,195L220,195L221,197L221,199L220,201L219,203L218,204L217,206L216,208L214,209L211,210L210,211L208,214L208,215L209,217L210,219L211,221L212,224L213,226L214,228L216,228L220,228L222,227L223,228L225,227L227,228L229,228L229,227L231,227L232,229L234,229L237,228L239,227L241,227L242,229L244,229L247,229L248,231L250,232Z" data-oid="1265" />

<path data-iso="FRA" d="M129,100L128,98L129,96L131,94L131,91L131,89L128,87L128,85L126,83L126,81L124,80L121,78L119,78L118,76L119,73L117,72L118,70L118,68L116,66L116,64L115,61L115,59L112,60L110,62L108,63L104,65L102,63L99,62L96,62L94,62L90,62L87,61L84,61L82,62L82,60L80,57L80,55L81,53L80,51L75,51L74,52L72,52L69,51L67,51L65,52L67,53L67,56L67,58L68,60L69,62L70,64L71,66L73,68L73,70L73,72L74,74L74,77L74,81L74,83L76,85L78,87L75,87L73,87L74,88L75,90L76,92L78,93L80,92L82,91L85,92L87,92L89,92L91,93L93,93L95,93L97,92L100,91L103,91L104,89L106,90L106,91L108,93L108,95L111,95L112,94L114,92L117,92L118,93L118,96L120,97L122,99L125,99L126,100L128,101Z" data-oid="2661" />

<path data-iso="FRA" d="M38,132L38,131L35,131L36,133Z M55,127L57,127L58,126L61,126L62,125L62,122L64,120L66,120L69,120L72,118L74,117L77,115L79,116L82,115L83,113L83,111L85,109L86,108L85,106L85,103L85,101L85,99L85,97L85,94L85,92L82,91L80,92L78,93L76,92L75,90L74,88L73,87L73,87L70,88L67,87L67,85L64,86L64,87L64,90L63,88L62,87L60,89L58,88L56,88L57,85L55,87L53,88L51,89L50,91L48,90L45,89L45,87L43,85L42,83L41,81L39,82L39,80L38,80L36,82L35,80L31,81L29,81L28,82L29,84L27,85L25,84L22,85L22,87L20,85L18,85L16,85L14,87L12,87L10,86L8,87L6,88L4,89L2,90L1,92L1,94L1,97L4,97L6,96L9,95L12,94L10,97L12,98L14,99L11,99L9,98L6,97L4,99L6,100L6,103L7,101L9,101L11,102L12,104L10,105L1,107L4,108L6,108L8,110L10,113L9,115L14,115L14,113L16,113L18,114L20,113L21,115L23,116L25,116L28,117L29,117L31,119L33,118L35,117L33,118L34,120L37,120L37,118L39,119L37,122L38,123L38,126L39,124L41,123L43,124L42,122L44,123L46,122L48,123L47,125L44,125L46,126L48,126L50,126L53,125L55,126L54,128Z" data-oid="2662" />

<path data-iso="FRA" d="M85,181L83,179L82,177L81,176L79,175L80,178L81,180L83,181L84,183Z M77,169L76,169L78,170L81,170Z M113,206L113,204L116,203L118,202L120,200L119,198L120,196L123,194L124,192L125,190L126,188L128,186L130,183L132,182L132,180L133,178L135,176L133,175L132,172L132,170L132,167L134,166L136,164L138,163L140,162L140,161L139,159L138,157L135,156L133,155L133,152L133,150L131,149L128,145L127,143L125,143L123,144L121,144L119,143L119,141L117,140L116,139L113,138L113,137L111,137L110,139L109,140L107,139L105,139L102,140L99,140L98,142L97,143L93,143L90,144L92,146L93,148L95,150L95,152L96,155L97,157L97,159L97,163L98,165L97,166L94,167L92,166L90,166L88,165L86,166L86,168L84,169L84,171L85,172L86,174L86,176L87,178L86,180L86,182L86,184L89,187L87,186L85,184L83,185L83,187L85,188L87,189L89,191L94,195L95,197L96,200L98,200L100,201L102,201L103,203L104,205L106,206L108,207L110,207Z" data-oid="2663" />

<path data-iso="FRA" d="M60,144L60,144L58,143L59,144L61,146Z M97,166L98,165L97,163L97,159L97,157L96,155L95,152L95,150L93,148L92,146L90,144L93,143L97,143L98,142L99,140L102,140L105,139L107,139L109,140L110,139L111,137L113,137L113,134L114,131L115,129L115,127L116,123L118,122L121,121L123,120L124,118L126,116L128,115L128,112L129,110L129,108L128,106L129,104L130,102L128,101L126,100L125,99L122,99L120,97L118,96L118,93L117,92L114,92L112,94L111,95L108,95L108,93L106,91L106,90L104,89L103,91L100,91L97,92L95,93L93,93L91,93L89,92L87,92L85,92L85,94L85,97L85,99L85,101L85,103L85,106L86,108L85,109L83,111L83,113L82,115L79,116L77,115L74,117L72,118L69,120L66,120L64,120L62,122L62,125L61,126L58,126L57,127L55,127L54,128L53,129L53,131L54,133L52,133L55,134L57,134L59,134L61,133L65,133L67,134L69,135L71,136L68,135L66,134L64,133L61,134L61,137L60,139L64,140L65,142L64,144L62,146L61,148L63,150L65,152L67,154L68,156L69,158L70,161L72,162L74,163L77,163L78,166L81,166L83,167L86,166L88,165L90,166L92,166L94,167Z" data-oid="2664" />

<path data-iso="FRA" d="M103,286L106,286L108,285L108,283L109,281L109,279L111,278L111,276L113,274L114,272L115,270L115,268L116,266L115,263L114,261L113,259L110,259L109,257L110,256L110,254L110,252L110,249L110,247L113,247L115,246L115,248L117,246L119,246L120,244L122,245L124,244L127,243L129,242L132,243L133,241L134,240L136,239L137,237L138,234L136,232L138,231L141,230L140,228L139,226L140,224L142,223L143,220L145,219L146,217L147,215L149,214L149,211L149,209L148,207L147,205L144,204L143,202L144,200L144,198L144,196L144,194L141,193L141,191L139,191L138,189L135,189L133,189L131,189L131,187L129,186L128,186L126,188L125,190L124,192L123,194L120,196L119,198L120,200L118,202L116,203L113,204L113,206L110,207L108,207L106,206L104,205L103,203L102,201L100,201L98,200L96,200L97,207L98,209L100,209L102,211L99,210L101,212L100,214L100,212L99,210L97,208L96,206L95,201L94,199L90,195L88,194L87,192L86,195L85,202L85,207L84,224L84,221L86,219L88,221L87,223L85,223L84,226L84,228L84,230L83,235L82,245L81,249L80,251L79,257L79,259L78,262L76,264L74,266L71,266L71,268L72,270L74,270L75,271L77,270L80,271L81,273L80,275L79,277L80,279L82,277L84,276L84,278L86,279L88,279L90,280L92,281L94,281L97,281L98,284L100,285L102,287Z" data-oid="2665" />

<path data-iso="FRA" d="M272,267L272,267L270,268Z M263,266L265,265L267,265L270,266L270,264L273,263L275,264L275,262L277,262L279,260L281,261L282,259L282,257L280,257L282,255L283,253L284,252L287,251L288,248L290,247L292,246L292,244L293,243L295,241L297,240L299,239L300,238L300,234L301,232L302,230L303,228L303,226L302,224L300,225L295,227L292,226L289,224L286,224L285,222L283,221L282,218L282,216L281,214L282,213L283,211L283,209L286,209L284,207L284,204L282,203L280,203L277,201L276,198L274,197L274,195L272,196L270,197L268,197L266,196L265,196L264,198L264,200L266,200L267,202L268,204L266,204L264,205L261,206L259,207L258,209L256,210L256,212L254,213L252,214L251,216L252,218L251,220L248,219L249,221L248,223L250,224L252,224L253,226L254,229L252,230L250,232L248,231L247,229L244,229L242,229L241,227L239,227L237,228L234,229L232,229L231,227L229,227L229,228L229,229L231,231L231,233L232,235L234,238L233,240L231,241L230,243L230,246L229,248L227,248L225,250L226,252L224,254L222,255L221,257L228,256L230,258L231,260L234,258L233,256L232,252L233,254L233,256L235,258L237,259L237,257L239,257L241,256L240,254L242,253L243,254L245,255L243,256L240,258L242,259L245,259L249,258L249,261L250,263L252,263L254,262L256,264L258,264L260,264L261,267Z" data-oid="2667" />

<path data-iso="FRA" d="M170,297L172,297L175,296L178,297L179,299L181,298L183,297L185,296L187,296L189,294L191,293L193,294L195,295L198,294L197,292L195,290L194,286L194,284L193,282L191,280L193,278L194,276L194,274L195,272L196,270L197,268L201,264L203,264L206,261L209,259L210,257L208,259L210,256L212,254L215,253L213,254L216,254L218,254L219,256L221,257L222,255L224,254L226,252L225,250L227,248L229,248L230,246L230,243L231,241L233,240L234,238L232,235L231,233L231,231L229,229L229,228L227,228L225,227L223,228L222,227L220,228L216,228L214,228L213,226L212,224L211,221L210,219L209,217L208,215L208,214L206,213L204,212L202,210L200,212L198,212L196,209L195,208L193,209L191,211L189,212L188,214L188,217L187,219L189,222L190,224L191,226L191,228L192,230L192,232L194,234L197,234L196,236L196,238L198,239L200,240L198,242L197,244L195,246L193,247L191,247L191,249L191,251L189,251L187,253L184,254L182,254L180,256L181,258L182,260L179,261L177,261L174,262L171,261L170,263L168,263L166,262L163,263L161,263L161,265L159,266L158,268L159,270L160,272L162,272L165,274L165,276L166,278L166,280L165,282L163,283L164,285L166,286L169,286L169,288L166,289L165,292L163,291L161,292L160,293L160,295L162,295L165,296L166,298L168,299Z M210,257L212,255L210,257Z" data-oid="2668" />

<path data-iso="FRA" d="M163,291L165,292L166,289L169,288L169,286L166,286L164,285L163,283L165,282L166,280L166,278L165,276L165,274L162,272L160,272L159,270L158,268L159,266L161,265L161,263L163,263L166,262L168,263L170,263L171,261L174,262L177,261L179,261L182,260L181,258L180,256L182,254L184,254L187,253L189,251L191,251L191,249L191,247L193,247L195,246L197,244L198,242L200,240L198,239L196,238L196,236L197,234L194,234L192,232L192,230L191,228L191,226L190,224L189,222L187,219L186,218L185,216L184,214L183,212L181,211L180,210L177,215L176,217L174,219L172,220L170,219L167,220L166,218L166,214L164,212L164,209L161,210L159,210L156,211L155,209L153,208L151,208L151,207L149,209L149,211L149,214L147,215L146,217L145,219L143,220L142,223L140,224L139,226L140,228L141,230L138,231L136,232L138,234L137,237L136,239L134,240L133,241L132,243L129,242L127,243L124,244L122,245L120,244L119,246L117,246L115,248L115,246L113,247L110,247L110,249L110,252L110,254L110,256L109,257L110,259L113,259L114,261L115,263L116,266L115,268L115,270L114,272L113,274L111,276L111,278L109,279L109,281L108,283L108,285L111,286L113,288L114,289L116,290L120,289L122,288L124,290L126,289L128,289L133,289L132,287L133,285L134,284L137,284L139,285L141,285L144,287L146,288L150,287L151,289L153,291L155,289L157,290L161,292Z" data-oid="2669" />

<path data-iso="FRA" d="M170,219L172,220L174,219L176,217L177,215L180,210L181,211L183,212L184,214L185,216L186,218L187,219L188,217L188,214L189,212L191,211L193,209L195,208L196,209L198,212L200,212L202,210L204,212L206,213L208,214L210,211L211,210L214,209L216,208L217,206L218,204L219,203L220,201L221,199L221,197L220,195L218,195L218,192L216,192L214,192L211,193L209,193L208,191L208,189L207,186L204,183L203,181L201,179L201,177L201,174L203,172L203,170L202,168L202,166L202,164L204,162L207,159L206,158L206,155L203,154L202,154L200,152L199,150L198,148L196,147L195,149L193,150L192,148L190,149L188,148L186,148L184,147L183,146L180,146L177,148L175,149L173,151L173,153L174,155L172,155L169,156L166,158L165,160L167,162L169,163L171,164L172,167L173,169L174,171L174,174L174,176L173,177L171,179L171,181L172,182L173,185L172,187L173,189L174,191L173,194L170,194L170,196L169,198L167,200L167,202L166,204L165,206L165,208L164,209L164,212L166,214L166,218L167,220Z" data-oid="2670" />

<path data-iso="FRA" d="M209,164L211,164L213,164L215,164L216,162L217,160L219,161L221,161L223,160L224,161L225,163L226,161L227,158L228,156L228,154L229,152L231,152L233,151L234,152L237,153L238,152L240,151L238,149L239,147L239,145L238,142L237,140L238,138L236,137L234,135L235,132L237,131L239,126L239,123L237,120L236,119L237,117L238,115L237,113L235,113L235,114L233,114L231,113L229,112L227,112L225,111L224,109L225,107L224,105L222,103L220,101L218,101L216,101L214,103L208,105L206,104L204,105L202,105L200,104L199,102L196,98L193,98L192,96L192,94L189,91L187,90L185,91L182,92L180,92L179,94L179,96L178,97L177,99L177,99L179,100L180,102L182,104L181,106L179,108L180,110L179,112L177,113L176,114L178,116L178,118L178,120L178,122L179,124L178,126L179,128L180,130L181,133L182,135L183,137L183,139L183,142L183,144L183,146L184,147L186,148L188,148L190,149L192,148L193,150L195,149L196,147L198,148L199,150L200,152L202,154L203,154L206,155L206,158L207,159L204,162L205,164L207,165Z" data-oid="2671" />

<path data-iso="FRA" d="M144,162L146,163L149,161L151,161L153,161L154,159L156,159L159,159L161,160L163,160L165,160L166,158L169,156L172,155L174,155L173,153L173,151L175,149L177,148L180,146L183,146L183,144L183,142L183,139L183,137L182,135L181,133L180,130L179,128L178,126L179,124L178,122L178,120L178,118L178,116L176,114L177,113L179,112L180,110L179,108L181,106L182,104L180,102L179,100L177,99L177,99L173,100L172,101L167,100L167,98L165,97L165,95L162,95L160,94L159,96L155,96L155,94L153,92L152,91L150,89L149,87L148,85L145,83L146,81L145,79L144,77L143,75L142,76L141,78L139,80L138,81L135,81L133,81L131,83L128,85L128,87L131,89L131,91L131,94L129,96L128,98L129,100L128,101L130,102L129,104L128,106L129,108L129,110L128,112L128,115L126,116L124,118L123,120L121,121L118,122L116,123L115,127L115,129L114,131L113,134L113,137L113,138L116,139L117,140L119,141L119,143L121,144L123,144L125,143L127,143L128,145L131,149L133,150L133,152L133,155L135,156L138,157L139,159L140,161L140,162L142,163Z" data-oid="2672" />

<path data-iso="FRA" d="M131,83L133,81L135,81L138,81L139,80L141,78L142,76L143,75L142,73L142,71L145,70L147,64L147,64L149,64L148,62L147,59L147,57L147,55L146,53L146,50L146,48L147,46L146,44L145,42L141,38L138,36L136,38L134,40L123,43L120,45L117,47L114,49L112,50L111,53L110,57L113,57L116,58L119,57L118,58L115,59L115,61L116,64L116,66L118,68L118,70L117,72L119,73L118,76L119,78L121,78L124,80L126,81L126,83L128,85Z" data-oid="2673" />

<path data-iso="FRA" d="M173,100L177,99L178,97L179,96L179,94L180,92L182,92L185,91L187,90L187,88L187,86L188,84L189,82L188,80L186,78L186,76L188,75L185,74L184,73L180,69L179,67L177,67L175,68L172,68L170,68L168,68L165,67L161,65L159,66L157,65L155,65L153,66L151,66L148,66L147,64L145,70L142,71L142,73L143,75L144,77L145,79L146,81L145,83L148,85L149,87L150,89L152,91L153,92L155,94L155,96L159,96L160,94L162,95L165,95L165,97L167,98L167,100L172,101Z" data-oid="2680" />

<path data-iso="FRA" d="M159,210L161,210L164,209L165,208L165,206L166,204L167,202L167,200L169,198L170,196L170,194L173,194L174,191L173,189L172,187L173,185L172,182L171,181L171,179L173,177L174,176L174,174L174,171L173,169L172,167L171,164L169,163L167,162L165,160L163,160L161,160L159,159L156,159L154,159L153,161L151,161L149,161L146,163L144,162L142,163L140,162L138,163L136,164L134,166L132,167L132,170L132,172L133,175L135,176L133,178L132,180L132,182L130,183L128,186L129,186L131,187L131,189L133,189L135,189L138,189L139,191L141,191L141,193L144,194L144,196L144,198L144,200L143,202L144,204L147,205L148,207L149,209L151,207L151,208L153,208L155,209L156,211Z" data-oid="2681" />

<path data-iso="FRA" d="M235,114L235,113L235,111L237,111L239,111L242,110L242,108L242,106L244,103L245,101L243,99L241,98L240,96L240,94L240,92L239,90L237,90L235,88L233,88L234,86L231,84L229,83L227,82L226,81L223,79L223,77L222,75L220,73L220,71L222,69L222,67L221,65L221,63L220,60L221,58L221,56L222,54L222,51L221,49L222,47L224,47L226,47L228,45L228,45L226,44L224,43L222,42L220,41L218,40L215,40L215,38L215,36L213,34L215,30L214,28L213,28L211,32L209,34L206,36L201,36L201,37L202,40L201,42L202,44L200,46L198,48L199,50L198,52L198,54L199,56L197,56L195,57L191,58L191,60L191,62L192,64L190,66L190,68L191,70L190,72L188,75L186,76L186,78L188,80L189,82L188,84L187,86L187,88L187,90L189,91L192,94L192,96L193,98L196,98L199,102L200,104L202,105L204,105L206,104L208,105L214,103L216,101L218,101L220,101L222,103L224,105L225,107L224,109L225,111L227,112L229,112L231,113L233,114Z" data-oid="2682" />

<path data-iso="FRA" d="M173,35L174,34L177,35L180,35L182,35L184,35L186,34L188,34L190,33L194,34L196,35L199,35L199,33L200,31L198,30L199,28L198,26L197,24L195,23L192,23L190,23L188,25L187,23L187,20L185,19L182,19L179,19L178,16L178,13L176,11L174,9L171,11L169,13L166,11L164,9L163,7L163,5L162,3L161,1L160,1L156,1L153,3L148,4L144,6L142,8L141,9L141,12L141,14L141,17L142,20L142,23L142,26L144,27L145,26L148,26L150,28L153,30L155,31L158,30L160,30L162,31L160,32L161,34L162,33L164,33L166,34L168,33L169,35L171,36Z" data-oid="2683" />

<path data-iso="FRA" d="M190,72L191,70L190,68L190,66L192,64L191,62L191,60L191,58L195,57L197,56L199,56L198,54L198,52L199,50L198,48L200,46L202,44L201,42L202,40L201,37L201,36L199,35L196,35L194,34L190,33L188,34L186,34L184,35L182,35L180,35L177,35L174,34L173,35L171,36L169,35L168,33L166,34L164,33L162,33L161,34L160,32L162,31L160,30L158,30L155,31L153,30L150,28L148,26L145,26L144,27L142,26L142,25L141,28L143,30L144,32L140,32L139,34L138,36L141,38L145,42L146,44L147,46L146,48L146,50L146,53L147,55L147,57L147,59L148,62L149,64L147,64L147,64L148,66L151,66L153,66L155,65L157,65L159,66L161,65L165,67L168,68L170,68L172,68L175,68L177,67L179,67L180,69L184,73L185,74L188,75Z" data-oid="2684" />

<path data-iso="FRA" d="M244,157L246,156L247,157L250,158L252,157L253,155L255,152L255,150L256,149L256,146L259,143L261,141L262,139L262,136L262,135L263,133L267,130L267,128L269,126L271,124L273,122L273,120L273,118L271,117L272,115L274,113L276,113L276,113L275,111L273,109L273,107L272,105L268,102L268,102L266,101L263,100L261,100L259,101L257,99L255,100L253,100L252,100L251,98L249,99L247,99L245,101L244,103L242,106L242,108L242,110L239,111L237,111L235,111L235,113L237,113L238,115L237,117L236,119L237,120L239,123L239,126L237,131L235,132L234,135L236,137L238,138L237,140L238,142L239,145L239,147L238,149L240,151L238,152L237,153L238,155L240,156L241,157L243,159Z" data-oid="2685" />

<path data-iso="FRA" d="M280,114L283,113L283,111L284,109L285,107L284,106L284,104L283,101L284,98L284,96L285,94L283,93L283,90L284,88L285,85L285,83L286,81L285,79L286,77L286,75L286,73L288,70L289,68L290,66L292,65L292,62L293,60L291,60L285,58L283,59L280,59L279,62L277,62L274,63L273,63L272,62L269,61L268,59L267,61L266,64L267,66L269,66L270,68L273,67L274,69L274,71L274,73L274,76L273,77L271,79L271,82L272,84L274,85L272,91L271,93L270,96L270,99L269,101L268,102L272,105L273,107L273,109L275,111L276,113L276,113L277,113L278,115Z" data-oid="2686" />

<path data-iso="FRA" d="M269,101L270,99L270,96L271,93L272,91L274,85L272,84L271,82L271,79L273,77L274,76L274,73L274,71L274,69L273,67L270,68L269,66L267,66L266,64L267,61L268,59L269,61L272,62L273,63L274,63L277,62L279,62L280,59L279,58L277,57L275,55L273,57L271,57L268,57L266,58L266,56L264,55L262,55L262,57L259,57L258,56L257,54L255,51L253,48L249,48L247,47L245,48L244,49L240,48L238,48L236,47L234,47L232,48L230,47L228,45L226,47L224,47L222,47L221,49L222,51L222,54L221,56L221,58L220,60L221,63L221,65L222,67L222,69L220,71L220,73L222,75L223,77L223,79L226,81L227,82L229,83L231,84L234,86L233,88L235,88L237,90L239,90L240,92L240,94L240,96L241,98L243,99L245,101L247,99L249,99L251,98L252,100L253,100L255,100L257,99L259,101L261,100L263,100L266,101L268,102L268,102Z" data-oid="2687" />

</g>

</svg>

