<?xml version="1.0" standalone="no"?>
<!DOCTYPE svg PUBLIC "-//W3C//DTD SVG 1.1//EN" "http://www.w3.org/Graphics/SVG/1.1/DTD/svg11.dtd">

<svg style="stroke-width:1px; stroke-linejoin: round; stroke:#444; fill:white;" xmlns="http://www.w3.org/2000/svg" font-family="Helvetica, Arial, FreeSans, Sans, sans, sans-serif" height="301px" viewBox="0 0 600 301" width="600px" version="1.1" xmlns:xlink="http://www.w3.org/1999/xlink" enable-background="new 0 0 600 301">

<defs>

<style type="text/css">path { fill-rule: evenodd; }
#context path { fill: #eee; stroke: #bbb; }</style>

</defs>

<metadata>

<view>

<proj>

laea</proj>

<center>

42.171613,-2.770333</center>

<bbox>

4171694.04,2208015.32,984691.70,971498.56</bbox>

<padding>

30.0</padding>

</view>

</metadata>

<g id="bg">

<rect y="0" width="600.0" style="stroke:none;fill:#d0ddf0" height="299" x="0" />

</g>

<g id="context">

<path data-regid="0.0" data-iso="AND" d="M304,266L306,265L306,264L306,262L302,261L300,263L300,264L300,266L302,267Z" data-oid="AND" />

<path data-regid="0.0" data-iso="AUT" d="M458,129L459,127L460,125L462,127L463,129L464,129L466,128L469,130L471,130L473,130L474,128L474,125L477,123L480,123L482,122L484,121L486,121L488,120L490,119L494,119L493,121L494,122L496,123L497,125L499,127L501,127L504,127L506,127L508,128L514,127L516,128L519,127L521,127L524,127L526,127L528,127L531,127L533,128L537,127L539,127L541,126L543,125L544,123L545,121L547,120L548,118L551,118L556,118L557,116L558,114L561,114L563,113L566,114L564,112L564,110L566,108L566,108L568,105L569,104L572,103L571,101L570,99L569,97L570,95L569,93L571,91L572,89L571,87L570,86L566,86L568,84L569,83L572,84L575,83L578,82L577,80L576,78L577,75L577,73L576,73L575,71L573,70L572,68L571,66L569,65L569,63L570,60L569,58L569,58L566,56L564,56L562,55L559,55L558,58L555,58L552,58L550,57L548,56L546,57L544,56L541,55L539,55L537,56L535,55L532,57L533,59L533,62L531,63L530,66L529,68L527,68L525,69L524,70L522,70L518,70L517,68L515,67L513,66L514,69L514,71L513,73L511,72L508,73L508,76L508,78L506,81L504,82L502,84L500,85L499,87L499,89L501,91L502,92L504,94L503,98L506,98L507,100L506,102L506,104L504,104L501,102L500,100L498,100L495,101L493,101L491,101L490,103L486,104L483,105L480,106L479,108L477,108L475,111L473,111L472,113L469,112L467,109L465,110L461,110L459,111L460,113L459,115L458,117L456,118L455,116L453,116L453,114L450,112L448,112L446,111L445,113L443,113L445,115L445,117L445,119L444,121L444,122L446,124L446,126L447,126L451,127L452,129L454,129L457,130Z" data-oid="AUT" />

<path data-regid="0.0" data-iso="BEL" d="M365,68L367,68L369,66L369,66L369,66L369,65L369,65L369,64L369,64L369,64L369,64L369,63L369,63L369,62L368,62L368,62L368,62L368,62L368,62L368,62L368,62L367,61L367,61L367,61L367,61L367,61L366,60L366,59L366,59L366,59L366,59L366,59L366,59L366,58L366,58L366,57L366,57L366,56L366,56L366,56L367,56L367,55L367,55L367,54L367,54L367,54L367,54L367,53L368,53L368,53L368,52L368,52L368,52L369,51L369,50L370,50L370,50L371,50L371,50L371,50L372,50L372,50L372,50L372,51L372,51L372,51L372,50L372,50L372,50L372,50L373,49L372,49L372,48L372,48L373,48L373,47L374,47L374,46L374,45L375,45L376,45L376,45L376,45L376,45L375,43L375,42L375,42L375,42L375,42L375,42L374,41L374,41L375,41L373,40L373,40L373,41L373,41L372,41L372,41L372,40L372,40L372,40L372,40L372,40L372,40L371,39L372,39L372,38L373,38L371,37L370,35L368,35L368,35L368,34L368,34L368,34L368,34L368,34L366,34L366,34L364,34L363,34L363,34L363,34L363,34L363,34L363,34L363,34L363,33L362,33L362,33L362,33L361,33L361,32L361,32L361,32L362,30L363,29L363,29L363,27L363,26L363,26L364,26L364,25L364,25L364,25L364,25L364,25L364,24L364,24L364,23L364,23L363,23L363,23L362,23L361,23L361,23L360,23L360,23L358,21L358,20L357,20L356,21L353,22L352,20L351,20L351,20L351,20L351,19L350,19L350,18L350,17L349,16L349,16L349,16L349,16L349,17L348,17L348,17L348,18L347,18L346,18L345,18L345,18L346,18L346,18L346,17L346,17L345,16L345,16L345,16L345,16L344,16L343,18L342,18L342,18L342,18L341,18L341,18L341,18L341,18L341,17L340,17L340,17L339,17L338,19L338,19L339,19L339,20L339,20L338,20L338,20L337,20L336,20L337,22L336,20L336,21L335,21L334,23L331,25L331,25L331,25L329,25L328,25L328,24L325,23L324,24L324,24L324,25L323,25L323,25L322,25L321,24L321,22L321,21L317,23L314,25L310,28L307,30L308,32L308,35L309,37L311,38L313,40L315,39L316,38L318,38L320,40L320,42L321,44L323,45L325,45L327,45L328,47L330,49L333,49L335,48L336,50L337,52L338,54L337,57L339,59L341,58L343,59L347,57L347,54L349,52L350,54L349,56L350,58L350,61L352,62L354,63L356,64L358,64L359,66L361,66L363,69Z" data-oid="BEL" />

<path data-regid="0.0" data-iso="BIH" d="M600,149L599,148L598,149L598,149L597,150L597,150L596,149L595,149L594,148L594,148L594,148L593,149L593,148L593,148L593,148L593,148L592,148L592,148L592,148L592,148L592,148L592,147L591,147L591,147L591,148L591,148L591,149L590,149L590,149L590,149L590,150L590,150L590,150L590,150L587,150L585,150L584,151L583,154L582,154L583,155L583,155L582,155L582,157L582,157L581,157L580,157L580,157L579,157L577,155L576,154L575,154L575,154L575,154L575,153L575,153L573,153L571,154L571,154L571,155L571,158L571,159L572,160L571,162L571,163L573,164L572,165L572,166L573,167L574,167L574,167L574,168L574,168L576,167L576,167L576,167L576,167L576,168L576,168L577,167L577,167L577,168L577,168L577,168L578,169L578,169L578,169L579,169L579,169L579,170L579,170L579,170L579,170L579,171L580,171L581,171L582,172L583,174L583,174L582,175L582,175L582,175L583,175L583,175L584,175L584,175L584,176L584,176L584,176L584,177L585,179L585,179L587,180L588,182L588,182L589,182L590,182L590,183L590,183L590,183L590,183L591,184L592,184L594,185L595,186L596,187L596,187L597,188L597,188L599,189L600,190L600,190Z" data-oid="BIH" />

<path data-regid="0.0" data-iso="CHE" d="M407,163L409,162L412,160L415,161L418,161L418,159L420,158L421,156L422,153L421,151L423,150L424,148L425,146L427,146L427,148L428,151L430,152L432,154L434,154L436,155L435,157L437,158L438,160L440,161L440,158L439,156L440,154L440,152L442,150L443,148L443,146L442,144L443,142L445,142L447,145L448,147L451,146L452,145L455,144L456,145L458,147L460,146L458,144L459,142L457,141L456,139L457,137L460,137L461,138L464,138L464,135L462,133L462,131L463,129L462,127L460,125L459,127L458,129L457,130L454,129L452,129L451,127L447,126L446,126L444,125L443,123L444,121L445,119L445,117L445,115L443,113L437,111L437,111L435,111L433,111L431,112L429,110L427,111L426,109L424,109L422,110L422,113L424,112L425,114L423,114L421,115L419,114L417,115L415,116L413,116L410,117L408,116L407,117L405,119L404,121L402,121L400,122L398,120L396,120L395,122L394,125L397,125L396,127L395,130L393,131L392,133L391,135L389,136L388,138L388,140L387,142L385,144L383,147L383,149L382,151L384,152L383,155L383,156L381,157L382,159L384,159L385,158L386,155L386,153L388,151L390,150L393,149L396,151L397,153L397,155L397,158L399,160L401,161L402,163L403,164L405,164Z" data-oid="CHE" />

<path data-regid="0.0" data-iso="CZE" d="M525,69L527,68L529,68L530,66L531,63L533,62L533,59L532,57L535,55L537,56L539,55L541,55L544,56L546,57L548,56L550,57L552,58L555,58L558,58L559,55L562,55L564,56L566,56L569,58L569,58L570,57L570,54L571,51L573,50L576,50L578,50L582,48L583,45L583,43L586,42L586,40L586,37L586,35L589,32L590,30L591,28L594,27L596,26L595,25L594,23L592,22L590,21L589,18L588,16L585,17L583,18L582,17L579,16L577,17L575,18L573,16L571,15L571,13L571,11L570,10L569,11L566,12L564,11L561,10L559,10L556,10L557,12L559,13L558,15L556,17L555,19L554,20L552,18L550,16L548,15L546,14L544,13L545,11L547,10L547,8L545,6L543,7L541,7L539,9L539,7L537,8L535,6L533,6L527,6L525,4L525,2L522,2L520,3L521,6L518,7L517,8L515,7L513,6L512,4L510,4L508,4L509,6L510,8L508,9L505,11L503,12L502,14L500,15L497,16L497,18L495,18L493,20L492,22L490,23L489,25L485,25L484,27L481,28L480,30L479,32L479,34L478,32L476,30L475,32L477,34L477,36L479,37L483,38L484,40L484,42L484,44L484,46L486,48L487,49L488,51L490,53L492,54L494,54L496,55L497,56L500,59L503,59L504,61L506,63L508,62L510,64L512,65L513,66L515,67L517,68L518,70L522,70L524,70Z" data-oid="CZE" />

<path data-regid="0.0" data-iso="DEU" d="M458,117L459,115L460,113L459,111L461,110L465,110L467,109L469,112L472,113L473,111L475,111L477,108L479,108L480,106L483,105L486,104L490,103L491,101L493,101L495,101L498,100L500,100L501,102L504,104L506,104L506,102L507,100L506,98L503,98L504,94L502,92L501,91L499,89L499,87L500,85L502,84L504,82L506,81L508,78L508,76L508,73L511,72L513,73L514,71L514,69L513,66L512,65L510,64L508,62L506,63L504,61L503,59L500,59L497,56L496,55L494,54L492,54L490,53L488,51L487,49L486,48L484,46L484,44L484,42L484,40L483,38L479,37L477,36L477,34L475,32L476,30L478,32L479,34L479,32L480,30L481,28L484,27L485,25L489,25L490,23L492,22L493,20L495,18L497,18L497,16L500,15L502,14L503,12L505,11L508,9L510,8L509,6L508,4L510,4L512,4L513,6L515,7L517,8L518,7L518,5L519,3L519,0L377,0L376,1L373,2L371,4L369,3L367,3L365,4L363,5L364,7L366,9L367,11L369,14L369,16L369,18L368,21L369,22L368,24L366,26L364,26L365,28L367,28L368,30L368,32L368,34L368,34L368,34L368,34L368,35L368,35L370,35L371,37L373,38L372,38L372,39L371,39L372,40L372,40L372,40L372,40L372,40L372,40L372,41L372,41L373,41L373,41L373,40L373,40L375,41L374,41L374,41L375,42L375,42L375,42L375,42L375,42L375,43L376,45L376,45L376,45L376,45L375,45L374,45L374,46L374,47L373,47L373,48L372,48L372,48L372,49L373,49L372,50L372,50L372,50L372,50L372,51L372,51L372,52L372,54L374,56L376,58L378,59L380,59L380,62L379,64L378,66L378,69L379,68L382,70L383,72L384,74L385,75L387,76L389,74L391,75L392,77L394,76L396,76L397,74L399,75L401,76L403,77L405,77L408,77L411,78L412,80L411,82L409,84L408,86L407,88L408,91L407,93L407,95L406,97L406,99L405,101L405,103L406,105L406,108L405,110L405,113L406,115L408,116L410,117L413,116L415,116L417,115L419,114L421,115L423,114L425,114L424,112L422,113L422,110L424,109L426,109L427,111L429,110L431,112L433,111L435,111L437,111L437,111L445,113L446,111L448,112L450,112L453,114L453,116L455,116L456,118Z" data-oid="DEU" />

<path data-regid="0.0" data-iso="ESP" d="M313,299L315,298L318,296L319,293L321,292L323,291L327,288L331,286L333,285L335,282L338,280L339,278L338,276L337,274L336,272L336,270L339,270L338,268L337,266L335,265L333,264L330,265L328,266L326,267L324,268L322,269L320,267L317,267L315,267L314,269L311,269L310,267L308,266L306,265L304,266L302,267L300,266L300,264L300,263L300,262L298,260L294,260L293,258L291,258L289,257L287,257L285,257L284,259L284,261L281,261L279,260L277,261L275,260L273,261L271,262L269,260L267,259L265,258L263,259L261,259L259,258L257,257L256,255L254,255L251,254L249,253L247,253L244,251L243,253L241,251L243,249L243,247L241,246L239,247L237,245L236,245L235,243L233,244L231,244L228,245L226,245L224,245L220,243L217,243L215,241L213,241L211,243L211,245L208,244L207,243L204,242L202,240L200,239L197,240L195,242L194,240L192,241L190,241L187,242L183,242L181,242L176,242L174,241L172,240L169,239L167,239L165,238L163,237L159,237L157,236L154,234L153,236L149,237L147,236L144,236L142,237L140,236L137,236L135,236L133,236L130,238L130,236L128,236L126,235L124,232L122,231L120,232L118,231L118,230L116,231L114,232L114,230L112,231L110,232L106,235L106,237L108,237L106,238L108,239L107,241L106,239L104,239L101,241L99,241L96,241L95,240L93,241L92,243L90,244L88,245L86,246L86,248L86,250L88,252L88,254L90,255L92,255L90,256L89,258L89,260L91,261L93,260L93,258L96,258L95,260L93,262L93,264L91,264L92,265L94,266L97,265L95,266L93,268L93,270L95,269L97,268L96,269L94,271L92,272L91,274L92,279L94,278L95,277L97,276L99,275L103,275L105,274L105,276L107,276L106,278L104,280L105,282L107,283L109,282L111,280L113,282L115,282L117,283L119,282L120,284L123,283L125,281L127,280L129,280L131,281L133,280L135,281L138,281L139,284L138,287L140,289L142,289L144,290L145,292L143,294L141,297L140,298L138,299L312,299Z" data-oid="ESP" />

<path data-regid="0.0" data-iso="GBR" d="M244,45L244,42L241,41L241,41L239,42L237,45L239,45L242,46Z M279,24L278,22L276,22L277,24Z M174,62L174,59L175,58L177,57L179,56L180,54L182,53L186,53L188,52L191,54L191,51L192,53L194,54L196,55L198,56L200,56L200,54L202,53L202,51L203,49L203,47L204,44L205,46L207,44L210,44L212,43L214,43L217,44L221,48L221,46L223,45L228,46L230,46L230,44L228,42L230,44L232,43L235,42L237,43L239,41L241,40L238,37L241,39L244,39L246,40L247,39L248,41L251,41L254,40L257,40L261,39L264,40L267,41L269,40L271,39L275,38L278,36L281,36L281,34L283,32L285,31L287,30L288,27L287,25L288,23L282,24L280,24L275,24L274,23L275,21L271,21L273,20L275,19L277,19L279,18L279,16L278,14L276,14L278,13L279,11L281,13L283,12L283,10L284,8L281,8L284,6L285,8L287,6L288,5L290,2L290,0L192,0L192,0L188,3L186,4L183,4L182,6L181,7L178,7L176,8L174,9L173,11L175,11L176,13L175,15L178,16L180,14L179,16L177,17L178,19L180,17L182,17L184,15L186,15L188,14L189,16L191,16L193,18L190,18L190,20L192,20L194,20L195,18L198,19L199,21L200,22L202,24L207,25L209,23L210,21L213,21L215,20L217,19L220,16L222,15L220,16L218,19L217,21L215,22L213,25L212,26L212,28L210,30L207,30L204,30L201,29L197,29L195,29L192,29L190,31L190,34L187,35L185,36L185,38L185,40L183,43L181,44L180,46L178,47L179,48L178,47L176,48L176,50L174,51L173,53L170,55L168,56L166,56L164,58L164,61L167,60L168,58L171,59L172,61L173,63Z" data-oid="GBR" />

<path data-regid="1.0" data-iso="GGY" d="M220,78L219,76L217,78Z" data-oid="GGY" />

<path data-regid="0.0" data-iso="HRV" d="M592,210L591,209L589,211L590,212Z M600,206L600,204L600,204L598,204L598,205L596,206L598,206Z M599,203L600,202L600,199L599,199L595,200L594,202L596,203Z M591,200L591,201L594,201Z M571,194L569,193L571,194Z M572,190L570,189L568,189L570,190L572,191Z M563,185L565,187L567,187Z M568,191L565,190L563,189L562,187L560,187L562,188L564,190L565,191Z M566,180L564,179L561,178L559,176L561,176L559,175L557,174L555,173L557,176L559,178L562,179L563,180Z M548,176L547,175L547,177L549,177L551,178Z M555,170L553,168L553,168L552,170L554,170L556,172Z M549,173L548,171L548,169L547,166L546,165L545,163L543,161L543,163L544,164L546,167L545,169L546,170L547,172L548,175L550,175Z M553,164L550,162L549,160L547,158L547,159L547,161L546,163L548,164L550,165L553,166Z M587,198L590,197L593,197L595,197L598,198L600,198L600,190L599,189L597,188L596,187L596,187L595,186L594,185L592,184L591,184L590,183L590,183L590,183L590,183L590,182L589,182L588,182L588,182L587,180L586,180L585,179L584,177L584,176L584,176L584,176L584,175L584,175L583,175L583,175L582,175L582,175L582,175L583,174L583,174L582,173L581,171L580,171L579,171L579,170L579,170L579,170L579,170L579,169L579,169L578,169L578,169L578,169L577,168L577,168L577,168L577,167L577,167L576,168L576,168L576,167L576,167L576,167L576,167L574,168L574,168L574,167L574,167L573,167L572,166L572,165L573,164L571,163L571,162L571,161L571,159L571,158L571,157L571,154L571,154L573,153L575,153L575,153L575,154L575,154L575,154L576,154L577,155L577,155L579,157L580,157L580,157L581,157L582,157L582,157L582,155L583,155L583,155L582,154L583,154L583,153L585,150L585,150L587,150L590,150L590,150L590,150L590,150L590,149L590,149L590,149L591,149L591,148L591,148L591,147L591,147L592,147L592,148L592,148L592,148L592,148L592,148L593,148L593,148L593,148L593,148L593,149L594,148L594,148L594,148L595,149L596,149L597,150L597,150L598,149L598,149L599,148L600,149L600,127L599,127L596,127L594,127L593,125L591,124L588,123L586,122L584,120L582,118L580,118L578,117L576,116L575,116L573,116L572,116L571,119L572,121L569,121L569,123L567,125L565,126L564,127L562,128L561,130L563,132L564,134L564,136L564,138L562,139L560,140L558,143L560,144L559,146L560,148L560,150L557,151L554,150L552,150L551,151L548,150L546,149L545,147L544,149L543,152L542,153L540,153L537,154L535,154L534,156L531,155L528,155L526,155L527,157L528,159L529,161L529,163L530,165L532,164L531,167L533,168L535,170L536,172L538,172L539,170L539,168L539,166L541,167L541,165L541,163L542,161L542,157L544,156L548,158L550,159L552,160L554,162L556,165L556,168L556,170L557,172L561,175L563,177L567,179L569,180L571,181L569,181L566,181L564,182L565,184L566,185L568,187L570,188L572,190L574,191L576,192L578,193L580,193L582,194L583,196L583,198L585,199Z" data-oid="HRV" />

<path data-regid="0.0" data-iso="HUN" d="M600,74L600,74L598,75L596,76L591,77L588,77L586,76L584,75L579,73L577,73L577,75L576,78L577,80L578,82L575,83L572,84L569,83L568,84L566,86L570,86L571,87L572,89L571,91L569,93L570,95L569,97L570,99L571,101L572,103L569,104L568,105L566,108L566,108L567,109L570,109L571,111L573,112L574,114L576,116L578,117L580,118L582,118L584,120L586,122L588,123L591,124L593,125L594,127L596,127L599,127L600,127Z" data-oid="HUN" />

<path data-regid="0.0" data-iso="IRL" d="M88,4L87,4L86,5Z M98,16L100,16L102,17L104,17L106,17L108,16L110,16L112,15L114,16L113,14L117,15L117,13L119,13L121,11L121,9L119,8L122,8L123,8L124,10L127,9L129,9L130,7L132,6L134,6L135,3L137,2L140,2L142,1L144,2L145,0L146,2L147,0L94,0L93,1L91,2L89,3L89,5L86,6L87,8L89,8L91,9L93,9L95,8L97,7L99,7L97,8L95,9L93,11L91,12L90,13L92,13L94,12L97,12L99,12L101,10L101,12L99,13L96,15L99,15L96,16L96,18Z M153,1L155,1L155,0L148,0L149,1L151,2Z" data-oid="IRL" />

<path data-regid="0.0" data-iso="ITA" d="M561,283L560,282L559,283Z M444,291L444,291L443,293Z M474,297L473,295L472,293L470,292L471,290L469,290L468,287L467,288L466,286L464,286L462,284L461,285L460,287L458,288L457,290L456,292L455,294L453,295L451,297L449,298L447,298L444,298L442,296L443,298L442,299L475,299Z M476,241L478,240L480,240L480,238L479,238L477,239L474,239L474,241Z M595,295L596,293L599,294L600,295L600,255L599,255L597,254L595,252L595,249L597,247L599,245L599,243L597,241L595,241L590,242L587,243L583,244L580,244L577,245L575,244L573,243L570,243L568,242L566,240L564,239L561,237L560,236L556,234L552,231L551,229L549,227L547,221L546,219L544,216L543,215L538,207L536,206L533,206L531,205L524,200L521,199L519,199L517,198L515,197L513,195L512,194L510,192L509,190L508,186L507,182L506,180L507,177L509,178L510,177L510,174L509,173L507,172L506,170L505,168L503,167L503,165L503,163L503,161L505,160L506,158L508,158L507,159L506,161L508,160L509,159L512,157L516,154L517,152L518,150L520,149L522,149L523,151L525,149L525,147L527,148L530,150L530,152L531,152L532,150L530,148L527,147L525,145L525,142L523,142L523,140L524,137L522,136L520,136L520,134L521,132L522,131L524,129L524,127L521,127L519,127L516,128L514,127L508,128L506,127L504,127L501,127L499,127L497,125L496,123L494,122L493,121L494,119L490,119L488,120L486,121L484,121L482,122L480,123L477,123L474,125L474,128L473,130L471,130L469,130L466,128L464,129L463,129L462,131L462,133L464,135L464,138L461,138L460,137L457,137L456,139L457,141L459,142L458,144L460,146L458,147L456,145L455,144L452,145L451,146L448,147L447,145L445,142L443,142L442,144L443,146L443,148L442,150L440,152L440,154L439,156L440,158L440,161L438,160L437,158L435,157L436,155L434,154L432,154L430,152L428,151L427,148L427,146L425,146L424,148L423,150L421,151L422,153L421,156L420,158L418,159L418,161L415,161L412,160L409,162L407,163L405,164L403,164L402,163L402,163L400,165L398,166L398,168L400,170L402,171L402,173L404,175L405,176L406,178L406,181L404,182L402,184L401,185L398,185L397,186L398,188L399,189L400,191L403,192L405,192L406,194L406,197L405,198L404,200L403,202L405,204L404,206L406,208L408,209L410,209L413,211L415,211L418,210L420,211L421,213L420,215L419,216L418,219L420,220L424,218L427,217L430,215L431,212L432,210L433,208L435,206L435,204L437,202L439,201L441,199L443,200L445,200L448,201L451,201L453,202L456,203L458,204L460,205L462,206L464,206L467,206L469,208L471,209L472,212L474,218L476,221L478,223L480,227L481,230L481,232L481,234L484,234L486,236L486,238L490,239L492,241L494,242L496,243L496,246L495,247L497,248L498,246L501,247L504,247L507,250L510,253L511,255L514,255L516,256L519,258L520,260L521,262L523,262L525,264L528,266L530,267L533,268L536,269L538,271L541,271L542,270L545,269L549,271L550,270L553,269L554,270L558,273L559,275L563,279L565,279L567,278L569,279L571,281L570,282L569,285L571,283L573,283L576,281L578,281L580,283L583,287L582,289L583,291L585,292L587,292L589,294L591,295L593,296Z M515,201L513,202L513,202Z" data-oid="ITA" />

<path data-regid="1.0" data-iso="JEY" d="M229,84L227,83L225,83L227,84Z" data-oid="JEY" />

<path data-regid="0.0" data-iso="LIE" d="M446,124L444,122L444,121L443,123L444,125L446,126Z" data-oid="LIE" />

<path data-regid="0.0" data-iso="LUX" d="M374,68L376,68L378,69L378,66L379,64L380,62L380,59L378,59L376,58L374,56L372,54L372,52L372,51L372,51L372,51L372,50L372,50L372,50L371,50L371,50L371,50L370,50L370,50L370,50L369,50L369,51L368,52L368,52L368,52L368,53L368,53L367,53L367,54L367,54L367,54L367,54L367,55L367,55L367,56L366,56L366,56L366,56L366,57L366,57L366,58L366,58L366,59L366,59L366,59L366,59L366,59L366,59L366,60L367,61L367,61L367,61L367,61L367,61L368,62L368,62L368,62L368,62L368,62L368,62L368,62L369,62L369,63L369,63L369,64L369,64L369,64L369,64L369,65L369,65L369,66L369,66L369,66L369,68L372,69Z" data-oid="LUX" />

<path data-regid="0.0" data-iso="NLD" d="M331,25L331,25L332,24L334,23L335,21L336,21L336,20L334,20L331,20L329,21L327,21L327,21L323,20L321,22L321,24L322,25L323,25L323,25L324,25L324,24L324,24L325,23L326,23L328,25L329,25L329,25Z M333,13L331,11L330,10L328,10L326,12L329,12L331,14Z M363,34L363,34L364,34L364,34L366,34L368,34L368,32L368,30L367,28L365,28L364,26L366,26L368,24L369,22L368,21L369,18L369,16L369,14L367,11L366,9L364,7L363,5L365,4L367,3L369,3L371,4L373,2L376,1L377,0L335,0L333,3L330,4L331,6L331,8L330,9L332,10L333,12L334,14L333,16L335,16L337,17L335,18L333,17L331,16L328,14L324,15L323,18L325,19L327,19L330,20L332,18L334,19L336,20L337,20L338,20L338,20L339,20L339,20L339,19L338,19L338,19L339,17L340,17L340,17L341,17L341,18L341,18L341,18L341,18L342,18L342,18L342,18L343,18L343,18L345,16L345,16L345,16L345,16L346,17L346,17L346,18L345,18L345,18L346,18L347,18L348,18L348,17L348,17L349,17L349,16L349,16L349,16L349,16L350,17L350,18L350,19L351,19L351,20L351,20L351,20L352,20L353,22L354,21L357,20L358,20L358,21L359,21L360,23L361,23L361,23L362,23L363,23L363,23L364,23L364,23L364,24L364,24L364,25L364,25L364,25L364,25L364,25L364,26L363,26L363,26L363,27L363,29L363,29L362,30L361,32L361,32L361,32L361,33L362,33L362,33L362,33L363,33L363,34L363,34L363,34L363,34L363,34Z" data-oid="NLD" />

<path data-regid="0.0" data-iso="POL" d="M600,0L519,0L519,3L518,5L518,7L521,6L520,3L522,2L525,2L525,4L527,6L533,6L535,6L537,8L539,7L539,9L541,7L543,7L545,6L547,8L547,10L545,11L544,13L546,14L548,15L550,16L552,18L554,20L555,19L556,17L558,15L559,13L557,12L556,10L559,10L561,10L564,11L566,12L569,11L570,10L571,11L571,13L571,15L573,16L575,18L577,17L579,16L582,17L583,18L585,17L588,16L589,18L590,21L592,22L594,23L595,25L596,26L597,25L598,27L600,27Z" data-oid="POL" />

<path data-regid="0.0" data-iso="PRT" d="M140,298L141,297L143,294L145,292L144,290L142,289L140,289L138,287L139,284L138,281L135,281L133,280L131,281L129,280L127,280L125,281L123,283L120,284L119,282L117,283L115,282L113,282L111,280L109,282L107,283L105,282L104,280L106,278L107,276L105,276L105,274L103,275L99,275L97,276L95,277L94,278L93,280L91,281L90,283L91,285L93,285L91,286L92,289L92,291L92,293L93,295L93,297L93,299L138,299Z" data-oid="PRT" />

<path data-regid="0.0" data-iso="SVK" d="M596,76L598,75L600,74L600,74L600,27L598,27L597,25L596,26L594,27L591,28L590,30L589,32L586,35L586,37L586,40L586,42L583,43L583,45L582,48L578,50L576,50L573,50L571,51L570,54L570,57L569,58L570,60L569,63L569,65L571,66L572,68L573,70L575,71L576,73L577,73L579,73L584,75L586,76L588,77L591,77Z" data-oid="SVK" />

<path data-regid="0.0" data-iso="SVN" d="M535,154L537,154L540,153L542,153L543,152L544,149L545,147L546,149L548,150L551,151L552,150L554,150L557,151L560,150L560,148L559,146L560,144L558,143L560,140L562,139L564,138L564,136L564,134L563,132L561,130L562,128L564,127L565,126L567,125L569,123L569,121L572,121L571,119L572,116L573,116L575,116L576,116L574,114L573,112L571,111L570,109L567,109L566,108L564,110L564,112L566,114L563,113L561,114L558,114L557,116L556,118L551,118L548,118L547,120L545,121L544,123L543,125L541,126L539,127L537,127L533,128L531,127L528,127L526,127L524,127L524,129L522,131L521,132L520,134L520,136L522,136L524,137L523,140L523,142L525,142L525,145L527,147L530,148L532,150L531,152L530,152L531,153L528,155L531,155L534,156Z" data-oid="SVN" />

</g>

<g id="FRA">

<path data-iso="FRA" d="M380,214L382,213L381,211L380,209L377,209L376,207L377,205L379,205L379,203L380,201L382,201L383,199L384,197L385,196L387,195L389,194L392,193L393,192L392,190L390,189L391,187L393,188L395,186L397,186L398,185L400,185L402,184L404,182L406,181L406,178L405,176L404,175L402,173L401,171L399,170L398,168L399,166L401,165L402,163L401,161L399,160L398,158L397,156L397,154L396,152L395,150L391,150L389,151L386,152L386,154L387,156L385,158L383,159L381,160L381,157L383,156L384,153L382,152L381,153L380,155L379,156L376,156L374,156L372,157L371,155L369,154L368,152L366,151L365,151L363,152L361,152L361,154L360,156L359,159L359,161L357,159L356,158L354,158L352,158L351,160L350,162L347,161L345,161L343,161L342,159L340,161L340,163L341,165L340,168L338,169L340,171L339,173L340,174L342,177L344,179L345,182L345,184L347,184L350,183L352,183L353,185L354,186L355,188L354,190L354,192L353,194L351,195L350,197L348,198L346,199L345,201L345,202L346,204L347,207L349,210L349,212L351,212L353,213L355,212L357,211L359,212L361,212L362,211L364,212L365,213L367,212L369,211L371,213L373,213L376,214L378,215Z" data-oid="1265" />

<path data-iso="FRA" d="M281,109L281,107L283,106L284,103L283,101L281,100L281,98L280,97L279,95L278,94L275,92L273,91L273,89L272,87L273,85L272,83L272,81L271,79L270,77L268,78L267,79L265,80L261,82L258,80L256,80L254,80L250,80L248,79L246,79L244,80L244,78L242,74L243,73L242,71L240,70L238,72L236,72L233,71L231,72L232,73L232,75L233,77L233,80L235,80L236,82L238,84L237,85L237,87L238,89L237,92L237,94L238,96L239,98L241,99L237,100L237,101L238,103L240,104L242,103L244,102L246,103L249,103L251,103L252,105L254,104L256,104L258,103L261,102L263,102L263,103L265,104L266,106L268,105L270,104L272,103L273,105L274,107L276,109L279,110L281,111Z" data-oid="2661" />

<path data-iso="FRA" d="M209,135L209,135L206,134L207,136Z M223,132L225,131L227,130L228,128L229,126L231,126L233,126L236,125L237,123L240,122L242,123L244,122L245,120L246,118L247,116L247,114L247,112L246,110L247,107L246,105L246,103L244,102L242,103L240,104L238,103L237,101L237,100L237,100L235,100L233,100L232,98L229,99L230,101L230,103L229,101L228,100L226,101L225,100L223,99L221,100L219,102L217,102L215,100L213,98L212,96L210,96L210,94L209,94L206,94L204,95L202,94L202,97L200,99L198,98L196,98L196,100L194,99L193,98L190,98L189,99L187,99L184,100L183,101L180,101L179,103L179,105L181,107L183,107L185,106L188,105L185,108L187,107L188,109L185,109L183,108L182,110L184,111L186,111L188,112L186,114L181,116L183,116L185,118L186,120L186,122L189,122L190,120L192,121L194,120L195,122L197,123L200,123L202,123L203,125L206,123L205,125L207,126L209,125L208,127L209,129L209,131L210,129L212,129L212,126L213,128L215,127L217,128L216,129L214,131L216,131L219,130L221,130L223,131L221,132Z" data-oid="2662" />

<path data-iso="FRA" d="M245,173L244,172L242,172L243,174L246,176Z M240,165L239,165L241,166L243,166Z M269,195L269,193L272,192L273,191L274,188L275,186L277,184L279,182L280,180L281,178L282,177L284,176L284,173L285,172L285,170L284,169L284,167L283,164L285,163L287,162L288,160L290,160L290,157L289,156L286,155L285,153L285,151L283,149L280,144L278,145L276,145L273,144L273,142L271,141L269,140L269,139L267,141L264,141L262,141L260,142L257,143L256,144L253,144L251,145L252,147L254,149L254,151L255,153L256,155L256,157L256,160L258,161L256,162L254,163L251,163L249,162L247,163L247,164L246,165L246,167L247,169L247,171L248,174L247,175L248,177L250,179L248,178L245,178L246,180L248,181L250,183L253,185L254,187L255,190L255,190L258,190L260,191L261,193L263,194L264,195L266,196Z" data-oid="2663" />

<path data-iso="FRA" d="M226,145L226,145L224,144L226,145L227,147Z M247,163L249,162L251,163L254,163L256,162L258,161L256,160L256,157L256,155L255,153L254,151L254,149L252,147L251,145L253,144L256,144L257,143L260,142L262,141L264,141L267,141L269,139L269,137L270,134L271,132L271,129L271,127L274,127L276,126L278,125L279,123L280,122L281,119L282,117L282,115L282,113L283,111L281,111L279,110L276,109L274,107L273,105L272,103L270,104L268,105L266,106L265,104L263,103L263,102L261,102L258,103L256,104L254,104L252,105L251,103L249,103L246,103L246,105L247,107L246,110L247,112L247,114L247,116L246,118L245,120L244,122L242,123L240,122L237,123L236,125L233,126L231,126L229,126L228,128L227,130L225,131L223,132L221,132L221,133L220,134L220,136L223,137L226,137L227,136L231,136L233,137L235,139L233,138L231,137L229,136L227,137L227,139L226,141L229,142L230,144L228,146L228,148L229,150L231,153L233,154L233,156L235,159L237,160L240,160L241,162L243,162L245,164Z" data-oid="2664" />

<path data-iso="FRA" d="M261,259L263,259L265,258L265,255L265,253L267,252L268,250L269,248L270,247L270,245L271,242L270,240L268,237L266,236L266,234L266,232L267,230L266,228L268,228L270,227L272,227L274,226L276,225L278,225L280,224L282,223L284,224L285,222L286,221L288,219L288,217L289,215L291,214L290,212L290,210L292,208L293,206L295,205L295,203L297,201L297,199L298,197L297,196L296,194L294,193L294,191L293,188L293,186L292,185L291,183L289,181L287,181L285,181L284,180L281,179L281,178L280,180L279,182L277,184L275,186L274,188L273,191L272,192L269,193L269,195L266,196L264,195L263,194L261,193L260,191L258,190L255,190L255,190L257,197L258,198L259,200L258,198L256,197L255,195L255,191L254,189L250,186L248,183L247,186L247,191L246,196L245,209L246,207L247,205L249,208L247,208L246,210L245,212L245,214L245,218L244,226L243,231L242,235L241,239L240,241L238,242L235,243L236,245L237,245L239,247L241,246L243,247L243,249L241,251L243,253L245,252L247,253L250,254L252,255L254,255L256,256L258,257L259,259Z" data-oid="2665" />

<path data-iso="FRA" d="M461,279L462,277L463,276L463,273L464,272L463,268L463,264L465,261L465,259L465,255L464,253L463,251L463,248L461,247L461,245L461,244L461,241L460,238L460,236L458,237L458,239L458,241L459,243L457,244L454,245L452,247L450,248L448,250L447,251L446,253L445,255L445,257L447,259L445,260L445,262L447,263L449,264L448,265L446,267L449,268L451,268L450,271L449,273L451,273L454,274L452,275L452,277L454,278L456,279L458,279L459,281L461,281Z" data-oid="2666" />

<path data-iso="FRA" d="M389,241L391,242L393,243L394,241L396,241L398,240L401,239L403,239L404,237L403,235L404,233L405,231L408,231L408,229L409,227L412,227L412,225L413,224L415,223L417,221L418,220L418,217L419,216L420,214L421,212L420,209L418,210L414,211L412,211L409,209L407,209L405,207L404,206L405,204L403,202L404,200L405,197L407,196L406,194L405,192L402,192L400,191L399,189L398,188L397,186L395,186L393,188L391,187L390,189L392,190L393,192L392,193L389,194L387,195L385,196L384,197L383,199L382,201L380,201L379,203L379,205L377,205L376,207L377,209L380,209L381,211L382,213L380,214L378,215L376,214L373,213L371,213L369,211L367,212L365,213L364,212L362,211L361,212L362,213L363,215L364,217L365,219L365,221L364,222L362,224L362,226L362,229L360,228L358,231L358,232L356,234L355,235L362,235L363,238L366,237L365,236L365,236L365,236L365,236L368,236L370,235L371,234L371,232L372,233L374,233L373,235L371,236L372,237L374,237L377,238L378,240L380,240L382,240L384,241L387,242L388,243Z M365,236L365,235L364,232L365,233Z" data-oid="2667" />

<path data-iso="FRA" d="M314,268L316,267L319,267L321,268L323,268L325,268L327,266L329,265L331,264L333,265L335,265L336,263L334,262L333,258L333,255L331,254L332,252L333,250L334,248L333,247L335,246L336,244L339,242L341,241L343,238L345,237L347,235L344,237L346,235L349,233L352,232L350,233L353,233L355,235L356,234L358,232L358,231L360,228L362,229L362,226L362,224L364,222L365,221L365,219L364,217L363,215L362,213L361,212L359,212L357,211L355,212L353,213L351,212L349,212L349,210L347,207L346,204L345,202L345,201L343,200L341,198L339,199L337,199L334,196L332,197L330,199L329,201L328,203L328,205L330,207L330,209L331,211L331,213L332,216L334,217L335,219L336,221L338,222L337,224L335,226L334,227L332,227L331,229L330,231L328,232L325,233L323,234L323,236L324,238L322,239L318,239L316,239L314,240L312,240L310,240L307,240L307,242L305,243L305,245L306,247L308,248L310,249L311,251L310,253L311,255L310,257L311,259L313,258L314,260L311,262L309,263L307,263L307,263L306,265L308,266L311,267L312,269Z M347,235L348,234L347,235Z" data-oid="2668" />

<path data-iso="FRA" d="M309,263L311,262L314,260L313,258L311,259L310,257L311,255L310,253L311,251L310,249L308,248L306,247L305,245L305,243L307,242L307,240L310,240L312,240L314,240L316,239L318,239L322,239L324,238L323,236L323,234L325,233L328,232L330,231L331,229L332,227L334,227L335,226L337,224L338,222L336,221L335,219L334,217L332,216L331,213L331,211L330,209L330,207L328,205L327,204L327,202L325,200L323,199L322,197L320,202L319,204L317,205L314,205L312,206L311,204L311,201L310,199L309,197L307,198L305,198L303,198L302,197L299,196L298,197L297,199L297,201L295,203L295,205L293,206L292,208L290,210L290,212L291,214L289,215L288,217L288,219L286,221L285,222L284,224L282,223L280,224L278,225L276,225L274,226L272,227L270,227L268,228L266,228L267,230L266,232L266,234L266,236L268,237L270,240L271,242L270,245L270,247L269,248L268,250L267,252L265,253L265,255L265,258L267,259L269,260L271,262L273,261L275,260L277,262L279,261L281,261L285,261L284,259L284,257L287,257L289,258L291,258L294,259L295,260L298,260L300,262L302,262L304,262L307,263Z" data-oid="2669" />

<path data-iso="FRA" d="M314,205L317,205L319,204L320,202L322,197L323,199L325,200L327,202L327,204L328,205L328,203L329,201L330,199L332,197L334,196L337,199L339,199L341,198L343,200L345,201L346,199L348,198L350,197L351,195L353,194L354,192L354,190L355,188L354,186L353,185L352,183L350,183L347,184L345,184L345,182L344,179L342,177L340,174L339,173L340,171L338,169L340,168L341,165L340,163L340,161L342,159L344,158L343,156L343,154L341,153L339,152L338,150L337,149L335,147L334,149L332,148L330,149L328,149L326,148L325,146L323,147L321,148L319,149L317,150L317,152L316,154L314,154L312,156L311,158L311,158L313,160L315,161L316,163L317,165L318,168L318,170L317,172L315,173L315,175L317,177L317,179L317,181L317,183L317,185L314,185L314,187L312,189L312,191L311,193L310,195L309,197L310,199L311,201L311,204L312,206Z" data-oid="2670" />

<path data-iso="FRA" d="M351,160L352,158L354,158L356,158L357,159L359,161L359,159L360,156L361,154L361,152L363,152L365,151L366,151L368,152L370,150L369,148L370,146L369,144L368,142L369,141L367,140L366,138L366,136L368,134L369,131L369,127L368,125L368,123L368,121L366,121L366,121L364,120L362,119L360,119L358,118L358,116L358,114L356,113L354,111L352,111L350,112L345,114L343,114L340,114L338,114L337,112L336,110L333,109L332,107L332,105L330,103L328,102L327,103L325,103L323,104L321,106L321,108L320,109L322,110L323,112L324,114L323,115L322,118L321,120L320,122L321,123L321,126L321,128L321,130L321,132L322,133L323,135L324,138L325,140L325,142L325,144L325,146L326,148L328,149L330,149L332,148L334,149L335,147L337,149L338,150L339,152L341,153L343,154L343,156L344,158L342,159L343,161L345,161L347,161L350,162Z" data-oid="2671" />

<path data-iso="FRA" d="M293,159L295,160L298,159L300,159L301,157L303,157L305,157L308,158L311,158L312,156L314,154L316,154L317,152L317,150L319,149L321,148L323,147L325,146L325,144L325,142L325,140L324,138L323,135L322,133L321,132L321,130L321,128L321,126L321,123L320,122L321,120L322,118L323,115L324,114L323,112L322,110L320,109L317,109L316,111L311,110L312,109L311,107L309,106L307,106L305,106L303,106L302,104L300,103L298,101L297,99L296,98L295,96L294,94L294,91L293,90L292,90L291,92L290,94L288,95L285,95L283,96L281,98L281,100L283,101L284,103L283,106L281,107L281,109L281,111L283,111L282,113L282,115L282,117L281,119L280,122L279,123L278,125L276,126L274,127L271,127L271,129L271,132L270,134L269,137L269,139L269,140L271,141L273,142L273,144L276,145L278,145L280,144L283,149L285,151L285,153L286,155L289,156L290,157L290,160L292,160Z" data-oid="2672" />

<path data-iso="FRA" d="M283,96L285,95L288,95L290,94L291,92L292,90L293,90L292,89L292,87L295,86L296,81L296,81L297,79L296,76L297,74L295,73L295,70L295,68L296,66L294,64L291,61L289,59L287,61L285,62L277,65L274,66L272,68L268,70L266,74L268,76L270,76L272,76L270,77L271,79L272,81L272,83L273,85L272,87L273,89L273,91L275,92L278,94L279,95L280,97L281,98Z" data-oid="2673" />

<path data-iso="FRA" d="M317,109L320,109L321,108L321,106L323,104L325,103L327,103L328,102L328,100L329,98L329,96L328,94L328,92L328,90L327,90L325,88L323,86L322,84L319,84L317,84L315,85L313,84L311,84L307,82L304,82L302,82L300,83L298,83L296,81L295,86L292,87L292,89L293,90L294,91L294,94L295,96L296,98L297,99L298,101L300,103L302,104L303,106L305,106L307,106L309,106L311,107L312,109L311,110L316,111Z" data-oid="2680" />

<path data-iso="FRA" d="M307,198L309,197L310,195L311,193L312,191L312,189L314,187L314,185L317,185L317,183L317,181L317,179L317,177L315,175L315,173L317,172L318,170L318,168L317,165L316,163L315,161L313,160L311,158L311,158L308,158L305,157L303,157L301,157L300,159L298,159L295,160L293,159L292,160L290,160L288,160L287,162L285,163L283,164L284,167L284,169L285,170L285,172L284,173L284,176L282,177L281,178L281,179L284,180L285,181L287,181L289,181L291,183L292,185L293,186L293,188L294,191L294,193L296,194L297,196L298,197L299,196L302,197L303,198L305,198Z" data-oid="2681" />

<path data-iso="FRA" d="M366,121L368,118L370,119L372,117L372,114L374,113L375,111L373,110L371,108L370,106L371,104L369,102L367,101L365,100L365,98L362,96L359,95L357,93L356,90L355,88L355,86L356,84L355,82L355,80L354,77L355,74L356,71L356,69L357,68L359,68L361,66L361,66L359,65L357,64L355,63L352,62L350,61L351,59L349,57L350,55L349,52L349,52L347,55L346,57L343,59L339,59L340,60L339,62L340,65L338,67L337,69L337,71L337,73L337,75L335,75L333,76L331,77L331,80L332,81L330,82L330,84L331,85L330,87L328,90L328,92L328,94L329,96L329,98L328,100L328,102L330,103L332,105L332,107L333,109L336,110L337,112L338,114L340,114L343,114L345,114L350,112L352,111L354,111L356,113L358,114L358,116L358,118L360,119L362,119L364,120L366,121Z" data-oid="2682" />

<path data-iso="FRA" d="M317,57L319,58L322,58L324,58L326,58L329,57L331,57L333,57L335,58L338,58L337,57L338,55L337,54L337,51L335,49L333,49L331,49L328,49L328,47L327,45L325,44L323,45L321,44L320,42L319,39L318,38L315,38L314,40L312,39L310,37L309,36L308,33L307,31L306,31L303,31L300,32L297,33L293,35L291,37L292,39L291,41L291,43L292,46L292,48L292,50L293,51L294,51L296,51L299,52L300,53L302,55L304,54L306,54L308,54L308,56L310,57L313,56L313,58L316,58Z" data-oid="2683" />

<path data-iso="FRA" d="M328,90L330,87L331,85L330,84L330,82L332,81L331,80L331,77L333,76L335,75L337,75L337,73L337,71L337,69L338,67L340,65L339,62L340,60L339,59L338,58L335,58L333,57L331,57L329,57L326,58L324,58L322,58L319,58L317,57L316,58L313,58L313,56L310,57L308,56L308,54L306,54L304,54L302,55L300,53L299,52L296,51L294,51L293,51L292,50L291,51L292,54L294,55L291,55L290,57L289,59L291,61L294,64L296,66L295,68L295,70L295,73L297,74L296,76L297,79L296,81L296,81L298,83L300,83L302,82L304,82L307,82L311,84L313,84L315,85L317,84L319,84L322,84L323,86L325,88L327,90Z" data-oid="2684" />

<path data-iso="FRA" d="M374,156L376,156L379,156L380,155L381,153L382,152L382,151L383,149L383,147L385,144L387,142L388,140L388,138L389,136L391,135L392,132L393,131L395,128L396,126L397,124L394,124L396,122L397,120L399,120L399,119L398,118L397,116L396,114L393,112L392,112L390,110L388,109L386,110L382,109L381,110L380,109L378,108L377,110L375,111L374,113L372,114L372,117L370,119L368,118L366,121L368,121L368,123L368,125L369,127L369,131L368,134L366,136L366,138L367,140L369,141L368,142L369,144L370,146L369,148L370,150L368,152L369,154L371,155L372,157Z" data-oid="2685" />

<path data-iso="FRA" d="M402,121L404,120L405,118L407,116L405,114L405,112L405,110L405,107L406,105L405,103L405,101L406,99L406,97L407,95L407,92L408,91L407,88L409,86L410,84L412,82L413,78L411,78L407,77L405,77L403,77L402,78L400,80L397,80L397,80L395,79L392,78L392,80L391,82L393,83L394,85L396,84L398,86L397,88L398,90L396,92L395,92L395,94L396,97L397,98L396,102L395,104L395,107L394,109L393,112L396,114L397,116L398,118L399,119L399,120L400,122Z" data-oid="2686" />

<path data-iso="FRA" d="M394,109L395,107L395,104L396,102L397,98L396,97L395,94L395,92L396,92L398,90L397,88L398,86L396,84L394,85L393,83L391,82L392,80L392,78L395,79L397,80L397,80L400,80L402,78L403,77L402,77L400,76L399,74L397,74L396,76L394,76L392,77L391,75L389,74L387,76L385,75L384,73L382,71L381,69L377,68L375,68L373,69L371,69L369,68L366,68L364,68L362,68L361,66L359,68L357,68L356,69L356,71L355,74L354,77L355,80L355,82L356,84L355,86L355,88L356,90L357,93L359,95L362,96L365,98L365,100L367,101L369,102L371,104L370,106L371,108L373,110L375,111L377,110L378,108L380,109L381,110L382,109L386,110L388,109L390,110L392,112L393,112Z" data-oid="2687" />

</g>

</svg>

