<?xml version="1.0" standalone="no"?>
<!DOCTYPE svg PUBLIC "-//W3C//DTD SVG 1.1//EN" "http://www.w3.org/Graphics/SVG/1.1/DTD/svg11.dtd">

<svg style="stroke-width:0.7pt; stroke-linejoin: round; stroke:#444; fill:white;" xmlns="http://www.w3.org/2000/svg" font-family="Helvetica, Arial, FreeSans, Sans, sans, sans-serif" height="1001px" viewBox="0 0 804 1001" width="804px" version="1.1" xmlns:xlink="http://www.w3.org/1999/xlink" enable-background="new 0 0 804 1001">

<defs>

<style type="text/css">path { fill-rule: evenodd; }
#context path { fill: #eee; stroke: #bbb; } #graticule path { fill: none; stroke-width:0.25pt;  } #graticule .equator { stroke-width: 0.5pt } </style>

</defs>

<metadata>

<view>

<proj>

satellite</proj>

<center>

30.000000,20.000000</center>

<bbox>

923.53,73.18,332.64,413.37</bbox>

<padding>

70.0</padding>

</view>

</metadata>

<g id="sea">

<path style="fill:#d0ddf0" id="sea" d="M804.709,26.877L773.613,17.666L740.005,8.345L707.736,0.000L0.000,0.000L0.000,999.000L804.709,999.000Z" />

</g>

<g id="graticule">

<path data-lat="36" d="M0.000000,881.187411L72.841004,921.338883L72.841004,921.338883L161.670850,970.678805L161.670850,970.678805L212.284477,999.000000" />

<path data-lat="38" d="M0.000000,627.250312L54.132329,654.501606L54.132329,654.501606L134.831434,695.882306L134.831434,695.882306L217.912336,739.238273L217.912336,739.238273L303.055415,784.423520L303.055415,784.423520L389.910614,831.270073L389.910614,831.270073L478.101511,879.589606L478.101511,879.589606L567.230173,929.175628L567.230173,929.175628L656.882696,979.806166L656.882696,979.806166L690.371649,999.000000" />

<path data-lat="40" d="M0.000000,412.846473L50.291099,435.085719L50.291099,435.085719L122.682853,468.125895L122.682853,468.125895L197.554539,503.324996L197.554539,503.324996L274.668794,540.605385L274.668794,540.605385L353.758687,579.868391L353.758687,579.868391L434.529928,620.994586L434.529928,620.994586L516.663797,663.844522L516.663797,663.844522L599.820741,708.259944L599.820741,708.259944L683.644583,754.065453L683.644583,754.065453L767.767229,801.070598L767.767229,801.070598L804.708660,822.169072" />

<path data-lat="42" d="M0.000000,240.657446L59.296466,262.690362L59.296466,262.690362L123.640165,287.796425L123.640165,287.796425L190.413266,315.048059L190.413266,315.048059L259.446763,344.420641L259.446763,344.420641L330.545540,375.871922L330.545540,375.871922L403.489292,409.341489L403.489292,409.341489L478.034006,444.750545L478.034006,444.750545L553.914007,482.002039L553.914007,482.002039L630.844543,520.981162L630.844543,520.981162L708.524886,561.556231L708.524886,561.556231L786.641863,603.579936L786.641863,603.579936L804.708660,613.582138" />

<path data-lat="44" d="M0.000000,111.047118L24.297865,117.654534L24.297865,117.654534L78.757206,133.743882L78.757206,133.743882L135.591459,151.814136L135.591459,151.814136L194.705761,171.888986L194.705761,171.888986L255.983836,193.979687L255.983836,193.979687L319.287784,218.084029L319.287784,218.084029L384.458240,244.185442L384.458240,244.185442L451.314931,272.252302L451.314931,272.252302L519.657644,302.237445L519.657644,302.237445L589.267629,334.077943L589.267629,334.077943L659.909409,367.695146L659.909409,367.695146L731.333006,402.995024L731.333006,402.995024L803.276523,439.868798L803.276523,439.868798L804.708660,440.629081" />

<path data-lat="46" d="M0.000000,21.731556L12.722318,23.793188L12.722318,23.793188L58.413328,32.490890L58.413328,32.490890L106.285570,42.895458L106.285570,42.895458L156.293895,55.055355L156.293895,55.055355L208.377126,69.011450L208.377126,69.011450L262.457402,84.795988L262.457402,84.795988L318.439724,102.431592L318.439724,102.431592L376.211736,121.930333L376.211736,121.930333L435.643764,143.292893L435.643764,143.292893L496.589145,166.507842L496.589145,166.507842L558.884851,191.551071L558.884851,191.551071L622.352434,218.385388L622.352434,218.385388L686.799279,246.960316L686.799279,246.960316L752.020168,277.212099L752.020168,277.212099L804.708660,302.725199" />

<path data-lat="48" d="M226.736817,0.000000L229.400060,0.522249L229.400060,0.522249L276.953853,11.101674L276.953853,11.101674L326.238625,23.323093L326.238625,23.323093L377.176555,37.214743L377.176555,37.214743L429.676073,52.796725L429.676073,52.796725L483.631856,70.080268L483.631856,70.080268L538.925010,89.067078L538.925010,89.067078L595.423476,109.748770L595.423476,109.748770L652.982666,132.106425L652.982666,132.106425L711.446317,156.110274L711.446317,156.110274L770.647574,181.719529L770.647574,181.719529L804.708660,197.200690" />

<path data-lat="50" d="M451.731894,0.000000L479.407249,7.177728L479.407249,7.177728L528.195272,21.031038L528.195272,21.031038L578.149623,36.421159L578.149623,36.421159L629.163692,53.349667L629.163692,53.349667L681.120877,71.809835L681.120877,71.809835L733.895164,91.786299L733.895164,91.786299L787.351878,113.254818L787.351878,113.254818L804.708660,120.624615" />

<path data-lat="52" d="M596.251945,0.000000L614.252645,4.960394L614.252645,4.960394L660.131972,18.723485L660.131972,18.723485L706.837240,33.861133L706.837240,33.861133L754.267267,50.367435L754.267267,50.367435L802.313936,68.229491L802.313936,68.229491L804.708660,69.176440" />

<path data-lat="54" d="M679.736368,0.000000L688.448223,2.359777L688.448223,2.359777L730.272662,14.711477L730.272662,14.711477L772.730023,28.279188L772.730023,28.279188L804.708660,39.268597" />

<path data-lat="56" d="M714.290001,1.032001L751.608687,11.077495L751.608687,11.077495L789.472667,22.189857L789.472667,22.189857L804.708660,27.029333" />

<path data-lon="18.0" d="M0.000000,28.761434L12.722318,23.793188L12.722318,23.793188L77.531273,1.876781L77.531273,1.876781L84.112815,0.000000" />

<path data-lon="16.0" d="M0.000000,90.250353L40.582302,70.831291L40.582302,70.831291L106.285570,42.895458L106.285570,42.895458L169.258680,19.526513L169.258680,19.526513L229.400060,0.522249L229.400060,0.522249L231.411669,0.000000" />

<path data-lon="14.0" d="M0.000000,179.947956L9.843719,173.714385L9.843719,173.714385L78.757206,133.743882L78.757206,133.743882L144.985842,98.896787L144.985842,98.896787L208.377126,69.011450L208.377126,69.011450L268.819340,43.893604L268.819340,43.893604L326.238625,23.323093L326.238625,23.323093L380.595607,7.060245L380.595607,7.060245L410.254746,0.000000" />

<path data-lon="12.0" d="M0.000000,307.144483L59.296466,262.690362L59.296466,262.690362L128.382472,214.549858L128.382472,214.549858L194.705761,171.888986L194.705761,171.888986L258.099075,134.574556L258.099075,134.574556L318.439724,102.431592L318.439724,102.431592L375.646506,75.250954L375.646506,75.250954L429.676073,52.796725L429.676073,52.796725L480.518931,34.813156L480.518931,34.813156L528.195272,21.031038L528.195272,21.031038L572.750796,11.173384L572.750796,11.173384L614.252645,4.960394L614.252645,4.960394L652.785544,2.113681L652.785544,2.113681L688.448223,2.359777L688.448223,2.359777L721.350163,5.432968L721.350163,5.432968L751.608687,11.077495" />

<path data-lon="10.0" d="M0.000000,481.984253L50.291099,435.085719L50.291099,435.085719L121.648132,372.161213L121.648132,372.161213L190.413266,315.048059L190.413266,315.048059L256.353909,263.718458L256.353909,263.718458L319.287784,218.084029L319.287784,218.084029L379.080770,178.003864L379.080770,178.003864L435.643764,143.292893L435.643764,143.292893L488.928851,113.730208L488.928851,113.730208L538.925010,89.067078L538.925010,89.067078L585.653582,69.034431L585.653582,69.034431L629.163692,53.349667L629.163692,53.349667L669.527760,41.722689L669.527760,41.722689L706.837240,33.861133L706.837240,33.861133L741.198661,29.474782L741.198661,29.474782L772.730023,28.279188L772.730023,28.279188L801.557579,29.998576L801.557579,29.998576L804.708660,30.522987" />

<path data-lon="8.0" d="M0.000000,715.347665L54.132329,654.501606L54.132329,654.501606L127.002108,576.001642L127.002108,576.001642L197.554539,503.324996L197.554539,503.324996L265.485728,436.599052L265.485728,436.599052L330.545540,375.871922L330.545540,375.871922L392.537110,321.119261L392.537110,321.119261L451.314931,272.252302L451.314931,272.252302L506.781792,229.126599L506.781792,229.126599L558.884851,191.551071L558.884851,191.551071L607.611129,159.296963L607.611129,159.296963L652.982666,132.106425L652.982666,132.106425L695.051575,109.700492L695.051575,109.700492L733.895164,91.786299L733.895164,91.786299L769.611273,78.063448L769.611273,78.063448L802.313936,68.229491L802.313936,68.229491L804.708660,67.727907" />

<path data-lon="6.0" d="M13.805447,999.000000L72.841004,921.338883L72.841004,921.338883L146.349156,827.598803L146.349156,827.598803L217.912336,739.238273L217.912336,739.238273L287.155920,656.583544L287.155920,656.583544L353.758687,579.868391L353.758687,579.868391L417.454815,509.237226L417.454815,509.237226L478.034006,444.750545L478.034006,444.750545L535.339980,386.392201L535.339980,386.392201L589.267629,334.077943L589.267629,334.077943L639.759120,287.664727L639.759120,287.664727L686.799279,246.960316L686.799279,246.960316L730.410516,211.732773L730.410516,211.732773L770.647574,181.719529L770.647574,181.719529L804.708660,158.593651" />

<path data-lon="4.0" d="M268.684137,999.000000L322.410275,923.719773L322.410275,923.719773L389.910614,831.270073L389.910614,831.270073L454.754770,744.558726L454.754770,744.558726L516.663797,663.844522L516.663797,663.844522L575.415711,589.292831L575.415711,589.292831L630.844543,520.981162L630.844543,520.981162L682.837852,458.906671L682.837852,458.906671L731.333006,402.995024L731.333006,402.995024L776.312573,353.110089L776.312573,353.110089L804.708660,322.962042" />

<path data-lon="2.0" d="M521.697776,999.000000L567.230173,929.175628L567.230173,929.175628L627.034233,838.626035L627.034233,838.626035L683.644583,754.065453L683.644583,754.065453L736.886824,675.683757L736.886824,675.683757L786.641863,603.579936L786.641863,603.579936L804.708660,577.844755" />

<path data-lon="0.0" d="M765.252998,999.000000L800.930743,937.204333L800.930743,937.204333L804.708660,930.660790" />

</g>

<g id="countries">

<path data-iso="AUT" d="M804.709,171.949L797.236,168.217L795.219,165.264L797.270,165.051L796.066,163.056L792.262,159.928L790.718,158.607L788.671,157.431L786.137,159.140L783.581,160.136L781.358,160.957L778.315,161.045L776.306,160.331L773.802,160.734L771.890,159.402L770.182,157.446L764.923,154.399L762.878,153.640L759.373,152.968L758.237,154.684L755.638,155.097L752.832,156.191L750.262,156.613L742.343,155.596L739.892,155.075L731.233,152.068L722.850,150.000L719.719,149.684L716.091,149.118L710.667,147.660L707.639,147.632L704.178,147.118L701.488,146.766L700.060,148.546L702.082,152.476L702.784,154.519L704.274,156.370L704.589,159.937L696.128,160.704L694.000,161.513L697.987,163.433L701.141,164.789L701.531,167.104L699.727,168.138L696.315,168.359L693.904,169.300L692.381,170.921L689.680,170.849L687.570,169.690L685.179,168.783L683.316,166.825L681.272,164.064L680.284,161.808L683.407,161.042L682.262,158.718L679.344,157.059L677.224,156.177L673.447,155.162L668.501,154.541L665.921,153.585L664.231,151.948L663.485,149.668L659.632,148.628L655.202,146.543L653.513,144.266L650.570,145.356L648.510,146.418L645.200,146.237L631.937,140.590L625.600,138.779L623.522,138.814L620.563,137.289L615.786,135.388L612.095,133.782L608.814,133.690L606.556,134.247L603.305,133.845L599.201,132.257L596.361,131.209L592.772,132.108L590.626,131.931L588.043,130.959L585.049,130.527L582.369,130.502L580.867,128.921L578.196,127.835L571.566,126.848L566.387,122.953L565.232,120.900L563.004,118.997L565.638,118.525L563.492,117.629L560.555,117.070L558.233,115.659L552.247,111.964L549.749,111.310L545.836,111.046L543.599,110.031L542.690,107.802L540.564,108.912L538.759,110.472L537.224,111.760L533.752,112.349L531.358,112.299L528.403,111.916L525.609,112.228L522.014,112.173L516.942,111.401L513.825,109.621L516.114,109.344L519.231,107.772L514.949,106.941L513.043,106.231L512.613,104.265L515.395,103.788L515.026,101.563L512.888,100.584L512.282,98.618L509.712,97.721L506.604,96.583L506.396,94.257L504.412,93.822L502.316,93.800L499.108,94.073L497.121,93.744L493.462,92.495L490.429,90.913L489.781,92.936L492.048,94.936L488.514,96.143L484.611,96.196L482.117,96.758L478.738,96.780L474.995,97.073L475.448,98.089L474.000,99.558L471.777,100.132L473.037,102.103L470.537,103.510L467.704,103.579L468.601,104.047L472.716,105.379L481.057,111.215L478.956,111.969L478.673,113.960L483.671,116.863L485.471,119.110L487.506,120.298L490.464,121.170L493.809,121.682L495.970,121.245L498.693,120.834L500.709,121.643L503.198,121.652L505.395,121.394L507.882,121.393L510.522,121.807L511.275,123.660L511.942,125.906L508.531,127.245L509.524,128.472L511.812,129.479L518.807,131.192L520.693,131.973L523.069,135.194L521.132,135.729L523.174,136.412L524.890,137.622L527.193,138.480L528.786,139.695L532.281,140.577L535.066,141.953L537.331,142.266L540.374,142.026L542.674,141.657L545.333,141.192L548.811,140.250L556.274,140.676L561.161,141.839L565.738,143.241L567.611,144.228L570.749,146.009L575.478,146.188L577.581,147.618L579.787,148.485L583.311,149.528L586.153,151.016L588.152,151.865L590.994,153.943L593.600,154.218L596.572,155.170L599.543,155.454L602.848,156.024L606.002,156.791L610.416,158.466L618.219,159.890L622.423,162.735L620.218,162.793L615.472,161.981L613.680,163.153L612.969,163.998L611.022,165.165L612.823,166.191L614.493,168.190L617.629,169.904L616.098,171.349L614.043,172.427L615.597,173.784L616.966,175.938L617.762,178.989L619.730,180.397L622.774,182.007L625.635,184.290L629.485,185.634L632.386,187.037L633.972,188.503L636.282,189.207L638.013,190.349L640.366,192.689L654.440,199.327L658.971,201.976L662.787,205.379L665.255,206.527L672.338,208.813L674.849,210.197L679.890,213.141L682.520,214.359L688.954,218.675L690.941,219.501L691.860,219.958L696.420,222.588L700.857,224.170L702.619,225.149L708.102,229.329L710.427,230.148L713.137,231.855L715.964,235.123L729.343,241.463L732.553,243.582L735.106,245.411L737.876,248.064L739.658,249.130L742.310,248.344L744.617,248.435L747.660,249.395L750.663,250.027L752.793,249.782L755.258,249.996L757.408,251.078L759.612,251.528L762.017,251.017L765.699,250.057L768.409,250.197L770.653,251.209L773.576,251.721L774.871,253.483L778.727,253.279L782.910,254.551L791.606,259.256L804.709,265.567Z" />

<path data-iso="BIH" d="M804.146,530.059L804.709,530.166L804.709,526.118L804.693,526.122L803.094,526.020L798.641,524.368L799.419,526.256L796.504,523.868L801.778,530.475Z M804.709,362.786L801.357,363.959L800.058,364.606L798.149,363.967L795.875,362.421L794.344,361.074L793.235,359.980L792.323,358.965L791.595,357.690L788.805,352.796L788.411,349.896L788.419,348.543L788.231,347.539L786.283,345.894L786.176,345.757L785.896,345.381L787.096,344.596L787.097,344.595L785.798,343.064L783.803,342.284L779.569,340.088L777.362,338.946L774.222,337.729L772.735,337.382L770.257,337.269L768.147,338.209L765.830,341.049L763.071,342.237L760.406,344.096L758.961,346.173L755.896,346.762L754.068,348.085L753.708,348.629L753.765,350.045L753.887,352.613L753.878,352.668L751.304,353.012L748.044,352.677L747.679,353.139L747.387,354.731L748.151,357.705L749.152,359.311L749.190,359.717L749.435,360.745L749.507,360.874L751.369,361.540L754.152,362.250L756.519,362.419L756.520,362.421L756.367,363.965L756.202,364.473L756.157,364.635L756.444,365.183L758.067,365.660L758.327,365.808L758.408,366.077L758.198,367.721L758.033,368.265L758.488,369.538L759.335,370.338L760.492,371.084L761.855,373.243L761.603,373.983L761.377,374.444L761.370,374.444L760.538,374.298L760.482,374.328L757.784,374.964L757.394,377.070L758.632,377.794L760.605,378.267L762.382,378.949L763.411,380.348L762.612,382.633L762.127,385.975L761.203,387.813L760.831,388.017L759.670,388.034L758.506,388.370L758.902,388.346L761.003,389.799L761.928,390.949L762.101,392.037L762.038,392.203L761.761,392.428L760.914,393.053L759.857,393.467L758.041,394.563L757.683,395.008L756.631,398.527L756.759,401.344L758.429,405.603L758.497,406.174L758.511,410.166L759.469,412.162L760.997,413.636L761.085,413.685L763.412,414.919L763.792,416.111L763.744,416.655L763.538,418.032L763.856,418.526L766.368,420.764L767.564,423.133L768.425,426.689L769.453,428.714L770.346,430.475L770.918,432.497L771.194,433.473L772.868,437.199L772.596,438.114L772.154,439.411L772.285,441.650L775.524,446.549L777.440,449.451L781.130,456.942L784.137,463.289L785.345,466.353L787.734,470.455L790.937,474.080L798.087,479.162L799.182,480.597L799.184,480.986L799.188,482.733L797.854,483.815L793.982,486.948L793.619,489.390L793.410,490.790L794.330,494.867L795.724,497.474L796.089,498.158L797.630,500.360L797.484,502.061L797.312,502.831L797.567,505.096L797.861,505.861L804.709,514.863Z" />

<path data-iso="CHE" d="M459.639,137.722L458.736,135.914L460.559,134.459L463.475,134.397L465.262,132.837L462.921,131.676L461.391,130.051L464.748,128.446L467.368,127.544L470.328,127.530L474.184,126.824L480.768,128.337L482.771,129.506L480.586,130.780L482.522,131.976L484.087,133.516L486.279,134.221L491.074,136.539L494.505,135.814L495.826,133.503L494.408,130.724L496.602,130.626L498.709,129.737L501.466,129.798L503.010,128.305L506.573,128.042L508.531,127.245L511.942,125.906L511.275,123.660L510.522,121.807L507.882,121.393L505.395,121.394L503.198,121.652L500.709,121.643L498.693,120.834L495.970,121.245L493.809,121.682L490.464,121.170L487.506,120.298L485.471,119.110L483.671,116.863L478.673,113.960L478.956,111.969L481.057,111.215L472.716,105.379L468.601,104.047L467.704,103.579L466.290,103.282L463.758,100.988L466.438,100.858L468.442,98.551L470.331,97.739L474.995,97.073L478.738,96.780L482.117,96.758L484.611,96.196L488.514,96.143L492.048,94.936L489.781,92.936L490.429,90.913L480.949,82.901L479.095,82.024L476.990,80.735L473.920,79.698L468.176,77.430L465.387,77.166L462.969,76.674L459.925,74.216L458.227,72.498L455.411,72.554L453.077,70.672L455.063,69.947L453.501,68.185L451.371,67.355L449.348,66.447L446.756,66.653L442.852,65.666L440.820,65.653L438.727,66.035L435.924,65.760L433.802,66.851L435.455,68.231L437.533,68.677L439.728,68.924L444.469,70.503L442.085,70.410L440.061,71.289L438.340,70.256L436.262,69.280L432.324,69.225L430.134,68.847L426.654,67.721L424.346,65.586L422.236,64.709L418.579,63.880L416.229,63.663L413.957,63.425L411.415,63.425L408.613,62.813L402.303,59.789L398.482,58.322L396.463,58.442L393.506,58.311L387.327,56.798L385.571,55.555L388.676,55.341L385.338,54.751L381.211,54.174L377.173,54.839L374.760,55.115L371.802,54.180L369.781,54.990L365.856,54.787L360.651,53.307L357.268,52.323L357.008,50.035L354.920,49.052L351.965,48.415L350.136,47.551L347.650,47.215L345.649,48.347L343.173,48.199L340.426,48.275L336.977,48.174L334.460,48.535L341.179,50.168L343.066,51.549L340.661,51.504L337.981,51.461L335.717,51.345L333.026,52.327L327.506,52.055L324.809,52.074L322.583,52.272L316.754,52.222L314.762,51.932L311.936,52.318L309.395,52.086L307.332,52.862L304.822,53.043L299.287,52.853L292.273,51.793L288.602,51.528L284.656,53.330L282.031,53.884L278.927,54.528L277.127,55.708L275.084,55.751L272.618,55.553L269.153,55.656L263.773,55.264L251.643,55.390L249.731,56.686L246.020,56.943L241.702,57.476L239.265,58.131L236.942,58.695L237.632,61.444L232.226,62.425L228.285,63.707L225.607,63.104L221.195,62.762L218.011,64.138L216.143,64.950L219.004,65.417L222.653,66.849L225.087,67.022L230.342,66.675L235.541,66.854L238.073,66.740L238.156,64.648L240.198,63.464L242.519,63.262L245.610,63.011L248.508,62.993L252.373,63.747L254.446,64.090L261.418,64.344L265.368,65.101L268.849,66.170L275.691,69.981L273.295,70.844L269.282,72.126L269.251,74.488L264.458,75.214L261.360,75.911L258.253,77.307L262.068,79.471L259.853,79.824L258.607,81.394L260.733,82.009L260.917,85.151L259.150,87.311L259.504,89.085L261.638,90.414L265.390,91.363L269.891,91.909L273.111,92.175L276.968,93.646L279.231,93.977L284.349,94.131L286.555,94.392L289.052,94.611L291.575,94.571L296.243,96.909L296.874,98.938L299.124,99.576L301.116,100.815L303.798,101.860L306.172,101.471L309.319,100.981L311.592,101.085L317.594,102.189L320.790,101.752L323.421,100.685L326.105,100.249L328.135,100.715L332.156,100.759L335.273,100.222L337.242,99.110L339.235,96.164L342.756,96.336L347.346,97.050L352.713,96.695L354.886,96.943L356.917,96.940L359.379,95.894L361.473,95.856L363.595,96.079L367.225,96.891L367.619,98.884L364.106,100.495L358.564,102.338L357.101,103.789L358.633,105.160L360.137,107.114L361.277,111.065L363.872,112.911L365.890,112.989L367.692,114.329L370.319,116.550L368.119,116.966L365.065,117.130L363.311,118.546L365.288,121.633L364.384,123.757L362.535,124.641L360.391,125.302L363.205,125.847L366.094,127.588L369.551,127.380L374.434,125.616L372.661,124.426L373.599,122.442L376.732,122.461L378.572,120.766L382.412,121.167L385.068,120.810L387.173,119.769L389.342,119.563L397.468,119.619L400.218,119.619L402.411,119.516L405.276,118.753L410.920,117.573L412.730,115.851L414.371,114.328L416.361,113.194L420.474,112.892L423.530,113.765L424.736,115.876L426.736,115.806L429.240,116.232L424.467,121.117L423.740,123.236L425.486,124.647L433.601,127.348L437.024,126.329L439.641,127.367L441.778,128.004L447.000,128.724L450.962,129.960L452.373,132.041L450.536,133.461L451.711,135.816L450.226,137.281L452.180,138.027L455.305,138.617L457.634,138.858Z" />

<path data-iso="CZE" d="M804.709,105.809L802.916,106.085L800.860,106.075L796.894,104.955L792.340,102.045L790.137,101.318L787.338,100.541L783.886,99.998L781.290,98.772L777.237,97.244L774.857,96.508L771.181,96.281L769.110,95.830L766.388,95.248L763.477,95.140L761.131,94.806L758.802,94.822L756.696,95.735L754.700,94.795L756.001,92.939L754.175,92.027L753.187,90.131L749.348,90.009L747.142,90.103L749.462,93.221L747.658,94.085L748.679,96.231L755.364,100.782L756.062,102.667L756.540,104.774L753.334,104.847L750.755,104.802L748.733,104.851L744.845,104.895L746.291,106.592L746.725,108.908L748.258,110.325L747.363,112.156L748.685,113.937L748.043,116.202L750.654,118.224L752.066,121.006L755.117,122.459L757.314,122.757L760.415,124.759L761.677,127.100L763.060,128.734L765.208,133.362L766.664,134.989L770.931,137.045L772.087,138.780L772.421,141.685L773.638,143.453L775.931,145.282L779.042,145.375L781.596,147.203L782.809,149.331L784.549,151.343L787.600,153.946L788.671,157.431L790.718,158.607L792.262,159.928L796.066,163.056L797.270,165.051L795.219,165.264L797.236,168.217L804.709,171.949Z" />

<path data-iso="DEU" d="M684.206,3.568L686.180,4.070L686.711,4.118Z M740.296,13.694L737.926,13.315L740.486,14.109L741.662,14.417L743.697,14.654Z M732.416,11.172L730.195,10.844L732.570,11.490L735.542,12.000Z M725.709,8.167L723.428,8.044L726.606,8.429Z M735.763,10.857L732.178,9.800L729.809,9.459L732.392,10.243L734.736,10.907Z M693.904,169.300L696.315,168.359L699.727,168.138L701.531,167.104L701.141,164.789L697.987,163.433L694.000,161.513L696.128,160.704L704.589,159.937L704.274,156.370L702.784,154.519L702.082,152.476L700.060,148.546L701.488,146.766L704.178,147.118L707.639,147.632L710.667,147.660L716.091,149.118L719.719,149.684L722.850,150.000L731.233,152.068L739.892,155.075L742.343,155.596L750.262,156.613L752.832,156.191L755.638,155.097L758.237,154.684L759.373,152.968L762.878,153.640L764.923,154.399L770.182,157.446L771.890,159.402L773.802,160.734L776.306,160.331L778.315,161.045L781.358,160.957L783.581,160.136L786.137,159.140L788.671,157.431L787.600,153.946L784.549,151.343L782.809,149.331L781.596,147.203L779.042,145.375L775.931,145.282L773.638,143.453L772.421,141.685L772.087,138.780L770.931,137.045L766.664,134.989L765.208,133.362L763.060,128.734L761.677,127.100L760.415,124.759L757.314,122.757L755.117,122.459L752.066,121.006L750.654,118.224L748.043,116.202L748.685,113.937L747.363,112.156L748.258,110.325L746.725,108.908L746.291,106.592L744.845,104.895L748.733,104.851L750.755,104.802L753.334,104.847L756.540,104.774L756.062,102.667L755.364,100.782L748.679,96.231L747.658,94.085L749.462,93.221L747.142,90.103L749.348,90.009L753.187,90.131L754.175,92.027L756.001,92.939L754.700,94.795L756.696,95.735L758.802,94.822L761.131,94.806L763.477,95.140L766.388,95.248L769.110,95.830L771.181,96.281L774.857,96.508L777.237,97.244L781.290,98.772L783.886,99.998L787.338,100.541L790.137,101.318L792.340,102.045L796.894,104.955L800.860,106.075L802.916,106.085L804.709,105.809L804.709,35.446L803.401,34.912L800.907,33.772L798.638,33.002L796.581,32.482L793.859,31.687L790.460,31.087L788.355,30.524L790.554,30.829L792.521,31.309L794.883,31.574L792.569,30.521L780.108,26.563L782.134,27.152L784.181,27.761L788.073,28.808L790.331,29.278L792.739,29.282L790.635,28.440L793.289,28.679L790.861,27.949L788.705,27.311L785.847,26.112L783.954,25.380L781.502,24.577L779.131,23.646L776.810,23.025L773.264,22.007L772.578,21.808L770.617,21.127L768.133,20.441L764.607,19.043L756.892,16.495L754.283,15.595L750.307,14.359L747.121,13.482L744.476,12.652L743.038,12.381L740.646,12.421L742.571,13.829L744.643,14.603L746.741,15.753L744.297,15.343L742.356,14.829L739.937,14.248L737.652,13.638L733.123,12.269L729.381,11.240L726.803,10.725L729.094,11.459L726.771,10.785L723.921,10.420L726.088,11.207L728.818,11.857L731.528,12.685L735.663,13.914L738.860,14.722L736.834,14.341L734.435,13.754L731.364,13.092L728.760,13.176L731.550,13.852L734.200,15.070L731.817,14.827L729.251,14.151L726.412,13.124L724.460,12.620L726.300,14.426L728.545,15.024L730.765,15.846L736.101,17.524L738.701,18.520L741.377,20.726L742.757,22.468L746.311,24.019L750.690,25.848L745.882,24.094L743.647,23.060L741.628,22.244L739.954,20.489L738.238,18.639L736.113,17.782L734.132,17.157L730.775,16.107L727.024,15.055L724.161,14.280L718.882,12.773L715.946,11.775L713.333,10.567L711.037,9.871L708.643,9.328L705.996,8.900L702.838,8.519L699.372,8.016L697.330,8.096L695.364,8.779L692.735,8.223L690.260,8.026L688.220,7.890L691.411,7.936L694.780,8.232L689.758,6.176L687.308,5.422L684.739,4.935L681.707,4.699L683.518,5.734L681.359,5.461L678.331,4.915L676.228,4.043L674.534,2.800L677.250,3.502L679.661,2.365L676.784,1.425L671.351,0.000L438.802,0.000L439.731,0.531L441.825,1.902L444.847,3.173L442.880,3.568L440.316,4.069L433.689,3.878L431.442,3.928L427.638,3.855L425.208,4.307L420.916,5.231L421.876,5.461L424.198,5.822L427.125,7.364L427.128,9.467L424.737,9.975L426.010,13.022L424.180,14.140L427.808,15.395L430.154,15.558L432.249,14.826L434.572,15.589L436.601,16.123L439.560,17.609L437.455,19.133L441.306,19.234L443.413,20.601L448.917,22.426L451.218,22.409L453.372,22.847L455.474,22.723L458.029,23.139L459.973,24.908L460.909,26.759L462.872,27.479L465.062,29.069L467.050,29.538L469.047,30.242L471.321,30.601L474.780,32.108L478.744,33.215L484.145,36.553L486.938,38.541L483.408,38.682L475.168,39.323L471.527,38.812L469.109,38.886L466.924,38.313L464.556,38.749L461.533,38.581L459.020,38.524L455.865,38.151L451.465,38.248L449.364,38.683L447.111,39.849L444.788,39.813L441.927,40.159L439.644,40.331L437.049,40.820L435.111,41.969L432.841,42.263L430.234,42.008L427.612,42.636L425.088,42.963L416.822,43.467L414.616,43.606L412.096,44.073L409.634,46.606L406.946,47.351L402.726,47.839L400.461,48.022L398.610,48.802L396.356,48.894L392.964,49.579L390.148,50.880L388.115,50.937L387.165,52.708L385.386,54.739L388.676,55.341L385.571,55.555L387.327,56.798L393.506,58.311L396.463,58.442L398.482,58.322L402.303,59.789L408.613,62.813L411.415,63.425L413.957,63.425L416.229,63.663L418.579,63.880L422.236,64.709L424.346,65.586L426.654,67.721L430.134,68.847L432.324,69.225L436.262,69.280L438.340,70.256L440.061,71.289L442.085,70.410L444.469,70.503L439.728,68.924L437.533,68.677L435.455,68.231L433.802,66.851L435.924,65.760L438.727,66.035L440.820,65.653L442.852,65.666L446.756,66.653L449.348,66.447L451.371,67.355L453.501,68.185L455.063,69.947L453.077,70.672L455.411,72.554L458.227,72.498L459.925,74.216L462.969,76.674L465.387,77.166L468.176,77.430L473.920,79.698L476.990,80.735L479.095,82.024L480.949,82.901L493.462,92.495L497.121,93.744L499.108,94.073L502.316,93.800L504.412,93.822L506.396,94.257L506.604,96.583L509.712,97.721L512.282,98.618L512.888,100.584L515.026,101.563L515.395,103.788L512.613,104.265L513.043,106.231L514.949,106.941L519.231,107.772L516.114,109.344L513.825,109.621L516.942,111.401L522.014,112.173L525.609,112.228L528.403,111.916L531.358,112.299L533.752,112.349L537.224,111.760L538.759,110.472L540.564,108.912L542.690,107.802L543.599,110.031L545.836,111.046L549.749,111.310L552.247,111.964L558.233,115.659L560.555,117.070L563.492,117.629L565.638,118.525L563.004,118.997L565.232,120.900L566.387,122.953L571.566,126.848L578.196,127.835L580.867,128.921L582.369,130.502L585.049,130.527L588.043,130.959L590.626,131.931L592.772,132.108L596.361,131.209L599.201,132.257L603.305,133.845L606.556,134.247L608.814,133.690L612.095,133.782L615.786,135.388L620.563,137.289L623.522,138.814L625.600,138.779L631.937,140.590L645.200,146.237L648.510,146.418L650.570,145.356L653.513,144.266L655.202,146.543L659.632,148.628L663.485,149.668L664.231,151.948L665.921,153.585L668.501,154.541L673.447,155.162L677.224,156.177L679.344,157.059L682.262,158.718L683.407,161.042L680.284,161.808L681.272,164.064L683.316,166.825L685.179,168.783L687.570,169.690L689.680,170.849L692.381,170.921Z M733.489,9.425L734.269,9.288L736.555,9.777L739.858,10.447L737.256,9.830L729.413,8.257L726.209,7.936L729.342,8.370L732.169,9.186L735.616,10.180L737.884,10.755L744.126,12.563Z" />

<path data-iso="DNK" d="M800.402,29.529L797.729,28.562L795.439,27.527L792.382,26.527L788.467,25.472L790.588,26.341L792.423,27.262L790.348,26.832L792.832,27.747L795.021,28.382L797.885,29.537L795.842,28.778L793.784,28.188L796.372,29.166L798.398,29.735Z M748.821,11.778L750.945,12.194L751.672,12.308Z M804.709,29.635L804.238,29.609L804.709,29.810Z M804.709,28.765L802.279,27.878L804.332,29.032L804.709,29.158Z M804.709,28.419L804.314,28.310L802.101,27.682L804.709,28.757Z M804.709,26.856L804.183,26.696L804.709,26.856Z M804.709,26.856L804.165,26.691L804.709,26.856Z M803.390,26.455L803.159,26.385L803.336,26.439L803.085,26.363L803.159,26.385L802.981,26.331L802.911,26.310L803.085,26.363L803.004,26.338L803.456,26.475L803.336,26.439L804.093,26.669Z M801.126,25.769L800.745,25.654L801.990,26.031Z M800.369,25.540L799.983,25.424L800.745,25.654Z M804.709,27.744L804.153,27.553L804.709,27.739L804.709,26.856L803.492,26.486L804.165,26.691L804.105,26.673L804.183,26.696L804.093,26.669L804.105,26.673L803.456,26.475L803.492,26.486L802.996,26.336L803.004,26.338L802.869,26.297L802.911,26.310L802.736,26.257L802.665,26.235L802.869,26.297L802.866,26.296L802.996,26.336L802.755,26.262L802.866,26.296L802.664,26.235L802.665,26.235L802.587,26.211L802.664,26.235L801.990,26.031L802.755,26.262L799.062,25.147L799.983,25.424L798.784,25.062L798.333,24.927L799.062,25.147L796.974,24.519L797.765,24.756L796.813,24.470L796.584,24.402L796.974,24.519L796.131,24.266L796.584,24.402L796.434,24.357L794.071,22.998L792.118,22.428L788.302,21.938L786.518,20.756L784.517,20.826L783.883,20.641L784.685,20.875L786.704,21.468L786.205,21.321L786.828,21.505L786.704,21.468L788.626,22.034L787.861,21.809L788.393,21.965L788.687,22.052L788.626,22.034L788.713,22.060L788.687,22.052L789.048,22.159L789.203,22.205L788.713,22.060L791.624,22.922L791.600,22.915L791.728,22.953L791.624,22.922L794.111,23.662L795.313,24.021L783.251,20.456L783.883,20.641L783.224,20.448L783.251,20.456L782.831,20.333L782.961,20.371L782.649,20.280L782.496,20.235L782.831,20.333L781.322,19.893L781.774,20.025L780.174,19.559L781.322,19.893L779.217,19.281L779.219,19.282L779.217,19.281L779.217,19.281L776.869,18.602L771.535,17.071L761.722,13.743L759.047,13.041L756.520,12.476L758.674,13.002L761.168,13.656L763.200,14.566L761.010,13.976L758.042,13.161L755.610,12.504L753.506,11.896L755.752,12.298L750.609,11.278L747.062,10.457L742.288,9.388L745.069,10.222L747.522,10.923L749.548,11.351L751.906,12.320L754.470,13.170L757.037,13.928L758.939,14.616L756.690,14.376L754.539,14.016L752.077,13.724L750.132,13.112L747.920,12.435L749.944,12.840L746.746,11.882L743.950,11.621L746.413,12.229L748.573,12.651L751.247,13.614L748.658,13.086L746.603,13.014L744.476,12.652L747.121,13.482L750.307,14.359L754.283,15.595L756.892,16.495L764.607,19.043L768.133,20.441L770.617,21.127L772.578,21.808L773.264,22.007L775.054,22.367L778.753,23.327L781.254,23.991L783.523,24.993L785.552,25.783L787.879,26.179L790.150,26.264L787.612,25.338L785.010,24.365L782.833,23.715L780.693,22.986L782.684,23.589L785.471,24.127L783.145,23.336L785.643,23.951L788.092,24.661L790.167,25.221L792.341,25.950L794.712,26.631L796.723,26.240L798.857,26.889L800.994,27.399L798.326,26.489L794.912,25.407L797.460,26.156L799.522,26.763L801.708,27.425L804.679,28.330L804.709,28.338Z M798.186,24.883L797.765,24.756L798.333,24.927Z M796.131,24.266L795.313,24.021L795.461,24.065Z M791.600,22.915L790.617,22.623L791.488,22.881Z M790.617,22.623L789.203,22.205L789.388,22.259Z M787.861,21.809L786.828,21.505L787.284,21.638Z M783.155,20.427L782.961,20.371L783.224,20.448Z M782.321,20.184L781.774,20.025L782.496,20.235Z M779.215,19.281L777.045,18.653L779.217,19.281Z" />

<path data-iso="FRA" d="M97.442,327.160L99.229,325.650L96.352,325.736L98.598,324.954L100.508,323.812L104.805,323.364L106.674,321.870L108.624,320.315L111.313,320.397L113.501,320.017L116.430,320.279L117.619,318.025L114.275,316.946L116.635,316.305L118.925,316.445L121.648,316.458L123.832,316.961L125.458,315.201L127.688,314.574L130.007,314.377L135.154,310.411L139.280,306.467L144.622,302.961L147.081,301.063L149.863,300.527L159.505,298.439L163.782,297.167L167.962,296.619L169.959,295.400L171.804,293.600L181.731,286.181L183.120,283.678L185.477,281.549L187.935,280.233L189.785,278.317L191.582,276.700L195.596,273.829L197.126,271.630L197.336,269.290L195.658,272.233L194.743,269.603L196.193,267.863L197.479,266.228L199.345,264.768L201.148,263.497L209.444,259.759L211.541,258.340L216.305,253.445L218.190,251.221L219.810,249.347L218.106,247.673L215.421,246.635L212.670,247.088L210.999,248.888L209.799,250.517L206.194,250.946L203.968,252.770L200.378,254.569L199.390,256.701L196.775,258.736L193.880,259.780L188.986,259.189L188.124,257.329L184.855,255.280L182.773,254.300L179.933,253.868L171.978,255.533L169.124,255.326L160.723,253.392L154.981,252.996L151.151,253.237L148.267,253.856L145.951,252.186L143.740,252.109L140.162,253.363L137.056,253.472L135.111,255.530L132.724,256.170L130.096,257.324L126.210,257.044L124.302,257.802L122.106,257.396L119.672,257.684L117.993,259.078L121.353,259.442L123.279,261.120L119.878,261.113L120.934,262.832L121.183,265.563L118.936,265.479L115.952,264.767L113.596,264.723L111.064,265.105L109.924,267.080L108.805,268.778L106.004,270.303L108.543,271.562L108.877,273.618L111.459,275.021L110.617,276.929L109.603,278.757L107.139,278.626L104.852,278.342L101.822,279.462L98.014,279.844L94.579,278.784L93.989,281.621L91.625,283.066L94.551,283.330L99.111,284.579L102.306,284.720L104.265,285.533L104.485,287.651L102.090,288.315L99.352,289.911L96.637,289.485L97.395,291.495L94.242,291.424L91.069,290.583L89.340,292.531L86.981,292.718L84.815,293.002L86.553,294.784L91.669,295.871L89.825,297.577L92.704,299.024L95.818,302.338L93.277,302.383L91.013,303.113L86.203,302.696L83.894,302.384L81.058,304.931L79.986,306.812L80.649,309.289L81.935,311.058L83.432,312.466L85.011,313.931L87.691,315.765L88.733,317.968L92.455,318.290L90.914,319.603L90.988,321.660L89.570,323.989L91.391,325.043L92.549,327.422L94.750,328.040Z M25.105,177.344L24.817,177.124L22.718,177.145L20.489,178.026L22.657,178.191Z M59.878,177.385L65.149,176.026L67.354,175.426L69.296,174.619L63.223,172.725L65.439,172.322L69.157,172.711L71.227,172.219L74.270,171.723L76.544,171.815L80.688,170.113L83.960,169.427L85.471,170.957L89.667,171.518L91.697,172.190L94.084,171.764L100.757,169.801L104.086,169.342L107.088,169.312L109.777,170.298L113.320,171.532L115.763,170.890L120.366,168.703L122.672,168.291L124.831,168.693L127.444,168.771L129.973,168.307L132.166,168.931L134.080,170.117L137.113,169.651L139.510,169.655L142.222,168.986L144.452,169.992L145.347,169.831L147.292,170.489L149.285,169.735L151.322,169.943L154.705,166.484L156.998,165.972L161.842,165.473L164.570,164.955L169.707,164.755L173.422,164.203L175.380,163.488L177.788,163.013L180.534,162.799L182.430,160.892L182.644,158.856L184.002,157.100L178.502,156.508L165.909,154.451L163.599,153.634L162.800,151.712L160.763,150.502L157.667,146.667L156.034,145.506L152.724,142.989L151.254,141.021L150.978,138.912L152.001,137.058L153.284,134.972L156.769,133.804L159.082,132.892L159.391,130.097L162.718,128.643L167.434,128.571L173.422,127.676L175.870,126.138L177.960,125.904L180.902,126.337L184.013,127.018L185.240,124.665L187.383,122.724L189.779,120.644L186.958,118.899L182.871,117.810L180.817,115.626L180.628,113.366L184.318,111.532L185.186,109.570L183.897,107.468L184.797,105.449L187.869,105.241L190.695,105.374L192.737,105.917L195.073,105.939L197.359,106.718L199.966,108.725L203.045,108.253L205.796,108.526L207.822,108.585L211.426,108.134L214.160,108.389L217.797,109.673L220.407,109.214L222.948,109.175L224.577,107.833L226.758,106.718L230.275,106.421L233.063,105.956L235.163,104.985L233.896,102.355L233.020,100.367L232.063,98.444L235.727,95.752L238.198,94.336L235.651,91.983L234.017,89.592L236.900,87.610L239.339,86.708L242.182,86.554L245.879,87.084L247.835,87.669L251.017,88.041L254.584,87.795L256.928,87.296L259.150,87.311L260.917,85.151L260.733,82.009L258.607,81.394L259.853,79.824L262.068,79.471L258.253,77.307L261.360,75.911L264.458,75.214L269.251,74.488L269.282,72.126L273.295,70.844L275.691,69.981L268.849,66.170L265.368,65.101L261.418,64.344L254.446,64.090L252.373,63.747L248.508,62.993L245.610,63.011L242.519,63.262L240.198,63.464L238.156,64.648L238.073,66.740L235.541,66.854L230.342,66.675L225.087,67.022L222.653,66.849L219.004,65.417L216.143,64.950L218.011,64.138L221.195,62.762L225.607,63.104L228.285,63.707L232.226,62.425L237.632,61.444L236.942,58.695L239.265,58.131L241.702,57.476L246.020,56.943L249.731,56.686L251.643,55.390L263.773,55.264L269.153,55.656L272.618,55.553L275.084,55.751L277.127,55.708L278.927,54.528L282.031,53.884L284.656,53.330L288.602,51.528L292.273,51.793L299.287,52.853L304.822,53.043L307.332,52.862L309.395,52.086L311.936,52.318L314.762,51.932L316.754,52.222L322.583,52.272L324.809,52.074L327.506,52.055L333.026,52.327L335.717,51.345L337.981,51.461L340.661,51.504L343.066,51.549L341.179,50.168L334.460,48.535L336.977,48.174L340.426,48.275L343.173,48.199L345.649,48.347L347.650,47.215L350.136,47.551L351.965,48.415L354.920,49.052L357.008,50.035L357.268,52.323L360.651,53.307L365.856,54.787L369.781,54.990L371.802,54.180L374.760,55.115L377.173,54.839L381.211,54.174L385.338,54.751L385.386,54.739L387.165,52.708L388.115,50.937L390.148,50.880L392.964,49.579L396.356,48.894L398.610,48.802L400.461,48.022L402.726,47.839L406.946,47.351L409.634,46.606L412.096,44.073L414.616,43.606L416.822,43.467L425.088,42.963L427.612,42.636L430.234,42.008L432.841,42.263L435.111,41.969L437.049,40.820L439.644,40.331L441.927,40.159L444.788,39.813L447.111,39.849L449.364,38.683L451.465,38.248L455.865,38.151L459.020,38.524L461.533,38.581L464.556,38.749L466.924,38.313L469.109,38.886L471.527,38.812L475.168,39.323L483.408,38.682L486.938,38.541L484.145,36.553L478.744,33.215L474.780,32.108L471.321,30.601L469.047,30.242L467.050,29.538L465.062,29.069L462.872,27.479L460.909,26.759L459.973,24.908L458.029,23.139L455.474,22.723L453.372,22.847L451.218,22.409L448.917,22.426L443.413,20.601L441.306,19.234L437.455,19.133L439.560,17.609L436.601,16.123L434.572,15.589L432.249,14.826L430.154,15.558L427.808,15.395L424.180,14.140L426.010,13.022L424.737,9.975L427.128,9.467L427.125,7.364L424.198,5.822L421.876,5.461L420.916,5.231L420.017,4.964L418.068,3.604L415.851,2.807L412.728,2.351L409.580,2.098L407.004,1.859L402.685,0.000L0.000,0.000L0.000,140.605L0.512,140.778L0.000,140.930L0.000,156.656L0.349,158.993L2.389,158.833L5.151,159.793L5.128,162.354L7.030,163.352L8.031,165.369L3.867,166.605L5.516,168.120L7.638,168.559L10.656,168.148L12.610,168.623L11.489,166.469L14.086,167.739L17.728,168.415L19.550,170.180L23.643,171.992L21.437,173.016L19.320,173.143L23.625,173.506L25.619,172.813L28.341,171.675L31.064,171.796L35.236,173.326L35.627,175.612L38.553,176.267L40.610,174.508L42.857,174.087L44.799,174.614L48.103,174.816L50.100,175.569L52.342,175.652L55.755,175.449L56.969,177.863Z" />

<path data-iso="HRV" d="M741.755,509.112L741.080,508.210L736.656,505.294L732.600,503.926L731.325,505.489L732.267,507.637L734.662,507.838L736.028,509.748L739.623,510.576Z M799.500,544.929L796.368,541.787L794.391,539.952L789.686,535.742L786.176,533.213L784.116,530.582L780.412,528.569L778.629,527.494L776.968,525.391L776.559,524.753L772.221,523.480L773.368,526.218L775.994,527.237L800.022,546.884Z M766.642,506.442L764.359,504.223L759.283,499.971L750.149,495.869L746.787,495.168L742.688,493.023L739.001,490.228L736.253,487.273L732.975,485.322L730.253,485.196L733.882,488.427L728.284,488.594L731.080,489.883L734.188,492.454L741.781,497.847L745.591,499.388L752.181,501.049L755.453,502.607L761.716,507.143L767.118,509.331L769.060,510.382Z M804.709,534.815L804.594,535.025L804.709,535.203Z M804.709,530.166L804.146,530.059L801.783,530.497L803.206,532.285L804.709,532.698Z M804.709,536.259L804.405,536.019L800.960,531.607L799.531,529.279L797.005,527.105L795.695,525.339L794.026,523.768L791.652,523.506L789.921,521.421L789.151,519.283L787.880,516.991L785.998,514.535L776.807,505.775L771.058,502.026L763.247,498.086L760.253,494.582L761.292,496.878L759.933,498.515L761.917,500.719L764.120,502.364L772.943,507.182L774.189,508.811L776.357,510.651L780.432,516.417L784.936,519.733L786.270,521.540L784.918,523.016L790.183,527.994L793.977,530.674L797.184,534.003L800.299,536.261L803.384,539.290L804.709,541.731Z M702.862,464.798L705.634,463.997L703.787,462.983L701.080,461.960L701.697,461.854L699.916,460.244L696.984,458.684L693.889,457.580L689.764,456.963L691.419,459.807L689.934,461.574L692.584,462.761L700.209,464.982Z M775.905,495.274L772.680,493.275L765.729,489.867L761.803,486.834L756.111,483.309L754.019,481.921L745.164,477.113L743.541,474.640L742.876,472.706L741.711,470.682L739.684,469.336L737.153,468.626L735.973,466.956L733.134,466.104L734.540,467.816L735.552,470.111L733.416,469.059L732.134,467.032L730.526,465.050L725.923,463.368L722.658,462.741L720.169,461.599L722.797,464.094L724.438,465.860L726.473,467.270L731.621,471.905L740.793,477.988L778.147,497.569Z M764.261,473.933L762.417,472.696L761.335,470.386L759.407,469.695L760.135,469.192L752.225,463.112L738.182,455.420L735.764,453.207L733.753,452.174L733.813,455.563L731.823,456.231L729.778,456.425L734.012,461.351L738.017,464.600L742.484,467.431L756.390,474.323L759.097,475.272L762.536,475.354Z M727.790,451.812L726.446,448.787L724.783,446.802L723.615,445.528L719.596,443.202L717.299,444.307L719.009,445.414L721.925,448.129L725.384,452.423L728.907,453.606Z M732.069,442.557L730.621,441.309L725.985,439.575L723.601,439.711L725.687,440.746L727.599,441.368L731.062,443.670L734.553,444.743Z M691.369,410.301L690.504,407.896L688.094,407.018L691.157,410.803L694.826,413.646Z M675.834,391.496L675.115,389.463L672.005,383.695L669.775,382.972L670.659,385.126L671.912,386.839L673.308,389.773L677.002,393.440Z M686.333,385.998L685.015,384.355L685.517,382.364L683.706,381.121L681.310,377.733L679.179,377.090L679.948,380.630L681.453,382.798L682.251,385.154L684.373,387.688L686.569,388.418Z M679.223,372.154L672.329,361.675L672.200,364.438L673.127,367.234L674.875,370.595L676.975,372.286L678.480,373.647L678.915,375.628Z M657.353,355.161L655.276,354.932L657.701,356.160Z M666.829,379.030L666.532,376.683L668.686,379.924L671.079,379.749L667.734,375.321L667.214,372.861L665.701,371.310L663.996,366.969L665.106,364.835L663.828,363.046L662.219,361.372L661.897,359.193L659.503,355.675L657.974,353.729L657.701,356.160L660.491,362.346L662.740,365.173L662.503,369.696L663.187,371.598L663.842,375.254L664.856,377.454L668.348,380.428Z M656.861,344.749L654.871,345.170L656.471,346.453L658.638,346.947Z M650.898,339.392L648.431,337.262L651.298,340.814Z M664.329,341.815L665.807,340.141L663.663,339.056L660.652,341.295L661.837,343.096L663.817,343.817Z M640.244,311.290L642.158,310.360L639.782,310.500L637.433,312.272L639.227,313.614Z M691.105,357.053L689.467,354.964L691.741,357.610L694.055,358.377L692.942,356.523L691.429,354.186L688.253,347.574L686.043,345.449L685.841,348.118L686.964,350.299L684.723,347.466L683.026,340.633L680.578,337.441L682.499,338.710L684.100,340.282L686.373,343.715L688.776,346.242L688.445,342.988L685.739,340.324L685.429,338.280L684.464,336.356L682.845,334.468L679.989,335.234L678.319,332.960L677.095,327.563L675.511,324.470L675.308,327.462L678.202,336.374L678.805,339.975L676.688,339.928L679.812,343.153L682.367,347.010L683.235,350.008L685.353,350.505L687.070,352.361L684.480,352.050L683.361,353.981L684.272,356.459L686.720,358.591L686.999,356.404L689.441,358.608L691.866,359.107Z M651.542,327.035L648.984,321.455L648.294,318.037L649.893,315.196L651.047,313.227L648.061,311.756L646.737,314.187L646.470,317.675L644.454,317.836L644.174,319.081L646.785,319.468L648.392,321.267L647.737,323.257L649.464,327.565Z M685.253,326.752L684.874,324.220L683.309,322.248L681.564,319.281L683.644,318.538L681.569,317.929L678.867,317.108L679.598,319.831L677.297,318.894L674.865,317.586L676.977,320.706L679.563,321.218L680.948,323.113L682.404,326.543L683.518,328.289Z M657.198,319.801L658.310,318.050L657.743,315.729L659.093,314.018L660.696,312.653L662.045,311.120L663.251,308.560L664.596,306.970L666.672,305.353L669.508,304.560L669.946,302.494L667.873,300.477L667.883,298.134L668.398,295.969L669.782,293.847L671.938,291.478L669.212,290.005L666.410,290.238L664.062,292.269L665.519,296.474L664.663,300.087L663.743,302.105L661.643,303.889L659.746,303.027L658.744,300.693L656.704,299.483L655.927,302.240L654.108,305.429L655.047,307.725L653.187,309.951L654.717,311.315L652.401,313.243L652.199,316.669L653.540,319.816Z M694.317,312.843L693.424,307.895L690.420,306.453L689.532,303.722L690.757,301.113L688.072,299.212L690.450,298.263L691.271,296.079L689.660,294.528L687.430,295.323L685.227,296.062L683.617,297.393L680.698,298.202L677.286,296.928L675.130,297.434L672.724,297.206L673.433,299.848L675.889,302.342L680.924,305.301L683.998,305.819L681.395,308.532L682.982,309.829L686.197,313.143L688.729,313.983L690.360,312.821L692.552,314.279Z M804.709,526.118L804.709,514.834L797.567,505.096L797.323,504.454L797.484,502.061L797.630,500.360L797.165,499.517L795.724,497.474L794.320,494.872L793.619,489.390L794.008,486.941L797.854,483.815L799.188,482.733L799.184,480.986L799.182,480.597L798.087,479.162L797.578,478.498L790.943,474.105L787.734,470.455L785.366,466.353L784.137,463.289L783.669,462.124L781.130,456.942L777.442,449.434L775.524,446.549L772.262,441.650L772.154,439.411L772.596,438.114L772.868,437.199L772.935,436.548L770.918,432.497L769.453,428.714L768.444,426.684L767.564,423.133L767.520,422.955L766.368,420.764L766.182,420.497L763.856,418.526L763.538,418.032L763.744,416.655L763.792,416.111L763.412,414.919L763.022,414.570L760.997,413.636L759.469,412.162L758.511,410.166L758.318,409.031L758.429,405.603L758.301,404.680L756.731,401.350L756.631,398.527L756.964,396.964L758.041,394.563L759.857,393.467L760.914,393.053L761.761,392.428L762.038,392.203L762.101,392.037L761.928,390.949L761.003,389.799L760.819,389.579L758.902,388.346L758.506,388.370L759.670,388.034L760.831,388.017L761.203,387.813L762.119,385.983L763.091,381.460L762.382,378.949L760.605,378.267L757.394,377.070L757.265,376.993L757.798,374.965L760.482,374.328L760.538,374.298L761.370,374.444L761.377,374.444L761.603,373.983L761.855,373.243L761.955,372.865L760.492,371.084L759.335,370.338L758.488,369.538L758.033,368.265L758.198,367.721L758.408,366.077L758.327,365.808L758.067,365.660L756.444,365.183L756.157,364.635L756.202,364.473L756.367,363.965L756.520,362.421L756.519,362.419L754.903,362.009L752.652,362.094L749.507,360.874L749.435,360.745L749.190,359.717L749.152,359.311L748.151,357.705L747.793,357.023L747.679,353.139L748.044,352.677L748.045,352.675L751.298,353.006L753.887,352.613L754.074,351.430L753.708,348.629L754.068,348.085L755.912,346.767L758.973,346.176L760.406,344.096L760.527,343.669L763.071,342.237L765.840,341.053L768.162,338.209L770.277,337.279L772.735,337.382L774.222,337.729L777.357,338.950L779.569,340.088L783.806,342.274L785.798,343.064L787.096,344.596L785.896,345.381L786.176,345.757L786.283,345.894L786.284,345.895L788.419,348.543L788.411,349.896L788.791,352.788L791.595,357.690L792.323,358.965L793.235,359.980L794.344,361.074L795.869,362.422L800.058,364.606L801.357,363.959L804.709,362.786L804.709,289.776L804.160,289.482L800.704,289.194L798.502,289.584L796.418,290.251L795.393,292.594L796.978,294.890L798.648,298.094L796.043,298.795L792.502,301.966L790.554,303.257L788.882,305.175L785.754,304.357L783.142,303.145L778.450,300.606L775.303,299.810L773.071,298.736L770.802,299.872L761.249,297.067L756.135,296.738L756.903,298.777L758.523,300.235L760.538,300.677L760.009,303.073L757.904,302.564L754.367,302.237L752.427,303.047L751.571,305.049L751.397,307.425L752.838,310.024L749.187,309.904L747.026,308.830L739.366,306.772L736.540,305.129L733.167,300.327L729.557,298.141L727.490,296.779L725.784,294.587L723.355,294.814L721.025,295.191L717.676,294.291L715.363,291.018L709.889,285.556L710.308,283.517L708.894,281.655L708.967,279.477L709.887,277.549L707.745,277.235L704.821,277.787L701.196,277.927L698.656,279.208L696.013,279.914L690.691,279.468L687.426,278.916L684.229,277.618L681.430,275.934L678.077,273.380L676.130,272.812L670.372,271.353L667.200,269.437L665.009,266.710L661.342,265.291L659.965,267.210L654.755,266.340L652.742,266.378L648.160,263.142L646.041,260.875L637.236,257.166L636.091,254.824L634.813,254.127L632.192,251.657L630.263,252.515L628.527,254.690L626.459,258.712L626.938,260.918L629.248,262.265L627.079,262.064L625.419,263.322L624.446,265.142L622.420,266.395L621.286,268.138L619.686,269.600L622.341,270.496L625.535,271.847L627.954,273.512L621.871,271.052L619.526,270.773L619.288,273.731L620.604,275.896L621.518,279.680L622.754,282.281L622.364,284.681L620.725,285.918L622.310,288.080L619.546,287.399L621.122,288.917L621.713,290.997L623.300,292.300L623.202,294.586L624.572,292.075L626.327,293.461L628.082,294.852L630.604,295.930L630.426,293.556L632.827,293.286L634.141,291.678L637.196,292.561L639.096,291.891L641.090,291.173L644.100,290.760L644.364,288.586L644.086,291.134L641.984,292.045L644.219,291.948L646.974,292.632L648.929,293.399L651.931,292.049L652.084,289.859L654.018,289.067L656.378,289.336L658.372,287.442L659.991,288.727L662.666,288.461L665.448,287.345L669.440,284.720L671.978,283.682L674.655,282.980L678.828,282.779L680.666,284.229L682.974,285.685L688.426,290.722L690.627,290.922L691.093,294.394L692.327,296.129L693.565,299.825L698.144,305.879L701.223,308.883L701.472,311.490L700.474,318.894L697.763,319.916L692.349,322.806L689.919,325.435L688.833,327.522L686.845,328.458L686.472,330.603L688.620,340.123L690.061,342.485L691.569,343.884L692.460,345.895L693.504,349.770L698.898,360.501L704.575,366.047L705.580,368.814L710.556,372.272L708.181,372.026L702.088,368.066L698.422,364.116L696.793,362.756L694.535,360.842L695.898,363.067L693.761,363.021L692.004,364.634L690.999,362.221L687.751,359.859L686.504,361.540L684.374,360.219L683.681,358.324L681.697,359.398L681.736,362.461L679.752,362.806L682.298,367.538L682.419,369.625L683.693,373.134L684.885,376.501L686.675,378.854L687.159,381.219L688.876,387.338L690.309,388.879L692.147,390.254L692.887,393.182L694.089,395.171L697.618,398.729L698.250,400.833L695.950,399.888L698.854,402.364L698.961,405.040L703.470,407.562L705.167,409.476L707.500,412.401L708.319,414.568L710.006,416.214L712.757,418.527L711.423,420.135L708.976,419.120L711.549,421.563L707.868,420.098L706.792,422.909L704.939,424.206L706.437,426.597L707.925,428.210L705.763,429.070L708.770,430.518L709.999,432.203L711.899,433.254L715.176,434.917L719.674,437.204L719.133,435.181L717.342,433.217L726.369,437.639L729.851,438.659L731.884,439.382L734.648,439.891L741.687,443.611L744.039,445.759L740.387,445.195L736.741,444.220L742.252,447.049L745.130,448.994L746.618,450.400L751.058,456.614L755.557,459.819L758.992,463.141L767.826,468.853L768.833,470.915L770.272,472.793L773.338,481.978L773.927,484.412L775.463,487.043L776.203,489.273L777.505,490.881L779.100,493.450L787.333,502.434L788.954,507.847L790.460,510.561L792.705,510.591L791.837,512.604L793.707,514.050L791.070,513.818L794.534,514.542L796.827,515.716L793.692,515.554L793.571,518.152L794.557,520.731L796.944,522.321L798.639,524.354L804.693,526.122Z" />

<path data-iso="ITA" d="M77.120,675.000L75.444,672.509L73.554,671.442L71.505,670.610L71.348,672.692L73.739,673.469L75.107,675.615Z M57.509,660.041L57.831,657.282L55.396,657.000L55.028,659.628L57.377,660.905Z M223.236,910.852L225.904,904.345L226.558,900.400L227.559,898.259L230.228,896.981L242.089,889.646L244.933,888.560L247.427,888.800L251.003,889.147L253.087,889.331L255.771,889.679L257.167,887.816L261.406,888.051L262.754,889.807L264.522,888.236L264.146,885.874L262.201,885.075L262.641,882.836L264.596,883.687L266.751,881.688L266.573,878.729L263.538,875.774L263.399,873.511L265.617,870.790L263.470,870.891L263.017,867.878L264.214,864.458L266.993,863.349L268.744,862.070L269.792,864.524L272.319,863.832L272.896,865.757L273.753,863.105L273.586,860.794L272.618,858.936L269.733,856.614L265.733,849.385L266.877,846.021L273.545,836.880L274.985,835.350L276.608,834.047L280.228,832.435L287.542,830.593L291.362,827.981L293.365,826.330L296.450,824.261L299.000,821.794L300.986,821.426L302.681,819.628L303.075,817.439L305.181,815.487L309.959,813.759L313.255,813.483L316.180,812.397L320.001,810.503L335.383,804.785L352.068,800.201L357.844,796.878L364.904,792.890L367.561,790.972L369.686,790.447L376.194,791.263L377.856,790.549L375.100,788.462L371.524,784.090L367.350,782.166L361.927,782.909L355.989,782.581L353.251,782.591L345.034,780.859L342.262,779.839L339.523,777.981L339.414,775.462L341.524,772.743L340.148,774.516L333.031,777.820L328.987,778.977L323.241,777.789L319.383,777.314L317.770,775.528L316.898,772.895L314.075,771.573L311.061,768.529L310.230,765.326L306.995,763.604L304.290,763.423L296.753,761.294L294.927,760.466L291.081,758.617L285.341,760.061L281.430,760.671L277.392,760.700L264.355,758.343L259.805,756.828L257.923,754.327L252.536,753.910L247.189,752.501L242.082,750.157L232.732,743.533L228.418,742.168L225.327,739.473L221.240,736.335L213.163,734.079L209.703,734.408L205.712,733.261L200.644,732.891L198.509,732.302L193.653,728.864L192.147,726.527L188.777,723.867L187.396,721.405L186.150,717.835L184.410,715.714L184.345,713.447L186.260,711.226L185.124,708.642L174.482,704.005L175.668,700.089L177.865,696.542L176.213,693.219L176.829,691.086L174.596,690.683L171.437,690.145L169.339,688.847L167.041,690.346L164.521,690.065L162.259,688.878L160.663,687.646L158.645,685.250L156.810,684.415L154.143,685.909L149.560,686.448L149.146,688.491L147.884,690.427L145.923,691.573L141.599,691.880L132.672,690.833L128.806,689.411L127.417,685.021L125.661,681.797L126.261,677.418L128.456,670.930L126.958,668.759L124.738,669.674L123.254,671.904L121.592,673.966L118.813,674.343L116.867,672.746L114.697,672.643L111.203,674.188L107.504,674.330L105.595,672.233L102.208,672.521L98.390,673.362L95.191,672.920L94.206,675.341L92.504,676.440L90.055,678.380L85.394,680.543L84.057,682.149L83.057,684.599L81.049,685.880L77.728,688.332L74.331,687.773L73.128,690.320L73.018,693.109L71.512,695.387L70.309,698.628L70.000,700.955L71.009,704.459L74.215,706.188L75.290,709.193L74.583,715.674L75.196,718.109L78.176,719.957L85.836,722.533L92.691,725.845L98.730,729.983L100.514,732.291L100.790,736.206L100.139,740.088L102.772,740.545L112.164,747.587L112.936,750.480L113.234,752.894L114.521,755.366L114.421,760.669L115.656,762.372L116.130,764.469L118.230,768.131L120.055,773.124L121.540,775.886L123.810,778.420L127.230,781.029L129.532,783.361L130.810,786.184L133.090,796.030L134.511,799.096L136.670,801.847L139.811,804.441L142.168,807.296L144.636,813.614L149.138,816.294L152.337,816.543L162.527,821.055L165.377,823.301L170.220,829.947L173.628,836.623L176.410,847.398L176.529,851.158L173.695,869.622L179.484,874.782L182.036,876.985L186.267,883.072L186.152,885.379L190.900,888.895L191.439,890.916L192.705,892.528L200.466,893.183L203.903,894.481L206.342,897.255L208.202,901.236L209.783,903.296L212.106,902.792L213.947,904.185L214.862,906.261L214.997,908.499L215.760,910.578L217.259,911.972L219.451,912.512Z M329.807,750.708L329.588,748.030L328.988,745.223L326.430,746.370L325.904,749.794L328.173,752.286Z M331.492,743.183L331.710,740.833L334.396,741.503L333.624,739.382L334.883,737.624L330.332,736.017L328.456,737.026L327.391,739.442L328.637,741.938L330.991,743.815Z M331.215,729.999L330.097,727.559L326.933,726.033L324.332,726.114L325.540,729.117L328.684,731.110Z M305.875,717.024L305.811,714.801L304.163,713.659L303.215,716.169L305.771,718.007Z M201.551,646.009L199.804,644.445L196.930,645.583L198.700,646.694Z M375.916,727.454L376.907,725.498L374.285,725.136L372.046,725.443L374.425,728.148Z M397.211,526.762L397.342,524.613L391.616,521.429L389.639,521.845L388.203,523.857L391.145,526.078L393.948,526.902L396.198,527.397Z M5.078,322.019L7.085,320.456L9.592,320.308L15.145,321.098L16.853,319.081L17.927,317.764L15.361,318.192L13.299,317.650L11.565,319.003L9.231,319.524L5.500,319.986L3.045,321.351L0.910,322.092L3.156,323.176Z M100.552,342.406L98.105,343.901L96.130,345.002L98.593,345.463Z M0.163,447.101L2.165,446.172L3.996,444.925L5.875,444.111L7.713,442.532L10.017,439.853L11.919,438.281L14.128,436.769L16.280,435.654L18.307,434.573L19.372,432.830L21.543,431.426L24.041,429.868L25.386,427.774L28.128,425.894L36.235,422.122L36.846,419.699L37.048,417.426L36.461,414.860L39.098,410.153L43.064,406.400L46.821,404.897L51.467,404.266L54.782,402.992L58.011,402.600L61.756,402.471L65.521,400.672L70.794,398.875L73.527,397.083L76.319,395.130L75.825,392.985L76.886,391.114L76.563,388.799L81.316,383.902L82.556,380.132L84.136,377.866L84.744,373.596L86.814,374.322L88.691,372.815L90.828,372.770L90.221,370.820L88.942,369.003L88.641,366.954L90.187,365.532L87.148,365.486L84.701,363.776L83.341,361.664L88.095,362.404L91.420,361.013L94.513,360.301L95.971,361.843L98.522,362.010L96.505,359.635L94.693,358.762L91.465,358.400L93.344,356.955L90.882,356.172L95.828,354.174L98.311,353.509L98.661,351.377L98.282,349.399L96.217,348.346L94.080,349.155L91.986,349.525L89.809,350.368L92.705,347.976L92.315,345.415L94.681,344.611L92.369,343.640L90.971,340.353L88.687,340.313L86.407,339.901L87.831,338.175L85.704,339.005L87.046,335.495L87.509,334.489L83.961,334.017L80.327,334.731L75.967,337.829L73.875,337.711L69.237,337.967L62.422,336.298L59.697,337.308L57.637,337.740L53.725,337.998L49.876,338.899L45.601,339.279L39.874,340.987L37.719,341.349L30.935,341.026L28.260,339.785L20.472,340.011L18.301,340.477L16.020,340.699L9.005,340.109L6.133,338.992L3.356,336.748L0.000,334.833L0.000,447.267Z M98.548,341.965L100.167,340.492L98.317,339.547L96.055,340.297L94.931,342.091L98.099,342.854Z M234.593,305.778L234.657,304.938L232.289,305.841Z M277.158,323.345L277.617,320.938L276.025,319.575L274.076,320.936L275.754,323.736Z M235.218,285.527L232.682,286.387L235.204,287.349Z M268.075,288.197L268.666,286.263L271.429,285.974L273.304,284.557L274.087,283.978L276.040,283.441L275.739,281.181L273.396,281.390L271.021,282.371L268.502,282.470L266.955,281.171L263.287,279.664L261.472,280.576L258.687,279.434L257.187,277.871L255.083,276.984L253.055,276.568L249.135,277.095L247.772,278.574L249.169,280.686L254.995,283.174L257.562,283.571L260.707,284.985L264.058,285.389L263.945,287.902L265.364,289.549Z M248.282,257.879L249.986,256.692L248.548,255.367L245.092,256.464L246.218,258.262Z M394.471,840.179L397.929,838.981L401.255,836.871L410.545,828.634L414.196,826.575L434.881,821.184L439.348,820.679L450.180,821.741L453.527,822.492L458.584,822.426L460.792,821.705L467.655,820.228L472.977,814.125L474.593,811.870L477.277,805.099L481.178,797.998L481.752,794.942L483.577,793.101L485.760,792.106L487.826,791.389L492.289,788.864L495.616,788.428L502.311,789.176L504.725,788.674L509.610,788.566L521.591,790.385L531.176,793.171L533.178,794.100L535.914,796.857L536.689,800.099L539.073,800.163L541.908,800.938L543.808,802.407L543.372,804.574L545.903,803.496L548.663,802.970L553.263,801.988L556.499,798.262L559.008,797.380L556.564,793.291L556.756,789.047L558.376,786.370L563.413,782.306L566.164,778.709L566.081,774.716L567.433,772.324L571.384,767.997L578.516,764.010L575.745,762.181L573.517,759.389L571.974,756.346L571.124,751.988L569.769,749.266L566.553,746.766L564.376,742.095L560.377,736.413L560.416,732.945L558.815,729.733L556.537,727.557L546.327,721.453L544.200,719.014L541.812,715.001L540.991,711.316L544.004,709.341L543.299,706.088L543.950,703.284L545.924,700.953L549.212,699.130L554.903,696.853L560.861,696.216L563.578,695.111L567.137,694.443L567.428,691.236L568.969,686.541L571.834,683.928L574.850,682.977L581.632,682.438L587.407,680.342L590.219,679.955L595.550,676.459L599.156,674.943L617.992,669.595L625.922,668.791L633.445,670.011L639.972,674.221L642.551,676.716L642.913,679.094L644.920,679.625L646.965,679.675L649.199,681.762L653.317,684.723L651.154,684.475L647.563,681.768L645.590,681.337L645.034,684.578L642.700,684.709L640.592,685.959L642.220,688.014L646.000,691.774L649.161,696.153L650.754,697.684L652.615,700.712L655.231,702.029L659.670,707.412L687.847,724.807L688.903,729.396L689.132,731.962L687.388,734.977L687.644,738.180L688.940,740.768L690.029,744.213L689.857,746.825L688.004,748.197L684.705,748.906L686.986,751.895L685.940,754.226L683.523,755.584L684.825,764.680L686.270,766.465L688.271,769.750L689.654,773.111L691.252,774.988L693.667,777.946L698.312,781.028L701.858,786.998L704.238,788.126L706.717,786.599L711.355,781.819L712.853,778.672L714.827,777.291L717.136,775.066L721.393,772.526L727.289,772.166L729.556,770.135L732.646,769.653L733.459,767.528L733.854,764.979L734.709,752.697L732.495,742.973L730.924,739.768L730.526,735.919L728.460,731.437L728.196,728.366L726.362,726.583L720.880,719.243L716.853,711.386L719.696,707.470L718.846,704.111L718.183,701.842L714.815,700.650L716.125,698.870L713.997,696.367L708.184,692.000L703.207,683.625L695.886,675.696L689.762,670.586L687.799,667.605L685.362,665.252L683.019,658.675L681.229,655.512L679.344,653.465L678.562,648.635L677.196,645.278L673.459,639.073L664.946,628.290L653.398,617.846L651.163,615.745L650.221,613.892L634.545,599.489L632.525,596.364L631.076,593.339L626.959,589.921L617.891,578.699L606.646,566.428L605.445,563.870L601.265,560.221L598.259,555.577L597.212,553.097L596.786,550.601L597.453,547.696L599.307,544.758L602.076,542.563L605.467,541.868L615.652,543.310L619.619,543.307L625.027,542.666L628.658,543.478L631.069,543.345L634.604,542.568L636.196,540.509L637.514,537.690L637.587,534.511L637.468,531.890L635.610,530.165L629.970,525.755L609.152,517.205L596.911,510.320L582.995,505.215L579.525,503.383L571.503,497.455L562.554,492.986L558.670,489.733L556.766,486.715L555.150,484.969L554.058,481.130L551.467,478.884L545.886,475.127L543.874,473.011L541.439,468.984L538.972,466.916L539.546,464.119L541.454,461.352L541.124,458.926L538.394,457.069L535.033,453.853L533.321,451.493L528.932,440.857L528.708,436.254L527.517,433.929L524.151,429.217L521.794,424.460L518.336,411.766L518.922,409.833L518.526,403.425L518.807,400.877L520.022,395.783L525.990,381.387L529.495,376.197L530.469,373.797L531.062,368.203L532.593,366.061L532.679,363.935L538.591,344.592L537.931,342.576L536.486,341.084L536.454,338.560L534.435,336.309L532.375,336.447L530.202,334.883L527.552,332.763L526.292,331.068L520.991,324.680L510.140,304.092L506.620,301.105L504.342,297.808L501.339,296.117L497.932,293.263L496.818,291.500L495.994,289.583L493.782,284.107L492.470,282.039L491.754,278.090L490.592,275.551L490.383,271.624L491.916,268.312L492.864,265.614L494.248,263.925L497.735,258.639L499.903,256.604L504.400,252.636L505.527,249.957L507.458,247.947L510.077,246.466L514.982,243.674L518.964,244.932L519.791,247.190L521.927,248.782L523.970,247.079L525.530,245.493L527.723,244.962L529.134,246.451L526.901,246.973L526.443,248.991L529.748,248.775L532.717,247.954L536.364,246.684L538.508,245.829L540.070,244.098L537.469,243.685L536.092,240.608L535.748,238.284L534.441,236.730L533.352,238.740L531.382,238.012L533.373,237.121L532.549,235.025L531.907,233.092L533.663,234.173L535.217,232.472L537.275,230.379L538.128,228.259L534.632,228.629L532.728,226.609L534.789,225.331L536.531,223.455L534.365,223.716L531.730,223.370L533.486,220.973L535.260,222.149L537.640,222.557L540.088,221.297L542.547,221.301L544.213,220.095L546.228,218.919L548.942,218.414L552.617,218.453L556.068,218.961L558.171,220.647L560.796,220.994L559.184,219.197L561.367,220.090L563.257,221.220L565.256,220.265L569.158,221.285L570.210,223.077L572.287,223.754L569.971,223.550L567.073,223.626L564.872,222.743L562.246,221.978L560.059,222.448L557.380,223.531L559.803,223.814L562.484,224.582L564.809,224.742L572.525,226.496L586.381,229.007L600.691,230.710L603.449,231.533L610.518,234.190L613.007,233.663L617.721,233.661L614.662,233.053L613.024,231.008L616.126,231.031L618.315,230.128L620.041,231.838L622.158,231.749L625.908,232.957L627.080,234.659L634.077,239.291L635.377,241.749L632.755,241.977L634.749,242.518L636.899,242.712L639.572,242.888L641.542,243.542L644.119,243.125L646.489,241.708L649.436,242.570L652.903,245.765L655.295,250.344L655.612,252.382L653.573,252.873L654.913,255.784L651.276,254.027L649.126,254.270L652.487,255.585L654.375,257.355L657.645,258.626L662.982,257.985L661.388,256.368L660.572,250.312L657.076,247.426L654.205,244.329L652.103,243.214L650.787,240.745L652.609,239.538L658.034,238.317L660.618,236.039L658.149,235.264L655.564,234.741L653.554,233.942L652.303,231.131L655.412,230.294L657.866,230.164L667.742,231.173L670.263,228.968L666.774,227.387L665.017,224.924L662.778,223.402L660.229,222.981L658.361,220.342L659.287,218.131L661.461,218.460L665.471,217.826L668.434,218.347L670.507,218.592L674.225,219.285L676.568,219.351L678.852,219.223L681.122,219.352L684.948,220.913L687.839,220.958L690.941,219.501L688.954,218.675L682.520,214.359L679.890,213.141L674.849,210.197L672.338,208.813L665.255,206.527L662.787,205.379L658.971,201.976L654.440,199.327L640.366,192.689L638.013,190.349L636.282,189.207L633.972,188.503L632.386,187.037L629.485,185.634L625.635,184.290L622.774,182.007L619.730,180.397L617.762,178.989L616.966,175.938L615.597,173.784L614.043,172.427L616.098,171.349L617.629,169.904L614.493,168.190L612.823,166.191L611.022,165.165L612.969,163.998L613.680,163.153L615.472,161.981L620.218,162.793L622.423,162.735L618.219,159.890L610.416,158.466L606.002,156.791L602.848,156.024L599.543,155.454L596.572,155.170L593.600,154.218L590.994,153.943L588.152,151.865L586.153,151.016L583.311,149.528L579.787,148.485L577.581,147.618L575.478,146.188L570.749,146.009L567.611,144.228L565.738,143.241L561.161,141.839L556.274,140.676L548.811,140.250L545.333,141.192L542.674,141.657L540.374,142.026L537.331,142.266L535.066,141.953L532.281,140.577L528.786,139.695L527.193,138.480L524.890,137.622L523.174,136.412L521.132,135.729L523.069,135.194L520.693,131.973L518.807,131.192L511.812,129.479L509.524,128.472L508.531,127.245L506.573,128.042L503.010,128.305L501.466,129.798L498.709,129.737L496.602,130.626L494.408,130.724L495.826,133.503L494.505,135.814L491.074,136.539L486.279,134.221L484.087,133.516L482.522,131.976L480.586,130.780L482.771,129.506L480.768,128.337L474.184,126.824L470.328,127.530L467.368,127.544L464.748,128.446L461.391,130.051L462.921,131.676L465.262,132.837L463.475,134.397L460.559,134.459L458.736,135.914L459.639,137.722L457.634,138.858L455.305,138.617L452.180,138.027L450.226,137.281L451.711,135.816L450.536,133.461L452.373,132.041L450.962,129.960L447.000,128.724L441.778,128.004L439.641,127.367L437.024,126.329L433.601,127.348L425.486,124.647L423.740,123.236L424.467,121.117L429.240,116.232L426.736,115.806L424.736,115.876L423.530,113.765L420.474,112.892L416.361,113.194L414.371,114.328L412.730,115.851L410.920,117.573L405.276,118.753L402.411,119.516L400.218,119.619L397.468,119.619L389.342,119.563L387.173,119.769L385.068,120.810L382.412,121.167L378.572,120.766L376.732,122.461L373.599,122.442L372.661,124.426L374.434,125.616L369.551,127.380L366.094,127.588L363.205,125.847L360.391,125.302L362.535,124.641L364.384,123.757L365.288,121.633L363.311,118.546L365.065,117.130L368.119,116.966L370.319,116.550L367.692,114.329L365.890,112.989L363.872,112.911L361.277,111.065L360.137,107.114L358.633,105.160L357.101,103.789L358.564,102.338L364.106,100.495L367.619,98.884L367.225,96.891L363.595,96.079L361.473,95.856L359.379,95.894L356.917,96.940L354.886,96.943L352.713,96.695L347.346,97.050L342.756,96.336L339.235,96.164L337.242,99.110L335.273,100.222L332.156,100.759L328.135,100.715L326.105,100.249L323.421,100.685L320.790,101.752L317.594,102.189L311.592,101.085L309.319,100.981L306.172,101.471L303.798,101.860L301.116,100.815L299.124,99.576L296.874,98.938L296.243,96.909L291.575,94.571L289.052,94.611L286.555,94.392L284.349,94.131L279.231,93.977L276.968,93.646L273.111,92.175L269.891,91.909L265.390,91.363L261.638,90.414L259.504,89.085L259.150,87.311L256.928,87.296L254.584,87.795L251.017,88.041L247.835,87.669L245.879,87.084L242.182,86.554L239.339,86.708L236.900,87.610L234.017,89.592L235.651,91.983L238.198,94.336L235.727,95.752L232.063,98.444L233.020,100.367L233.896,102.355L235.163,104.985L233.063,105.956L230.275,106.421L226.758,106.718L224.577,107.833L222.948,109.175L220.407,109.214L217.797,109.673L214.160,108.389L211.426,108.134L207.822,108.585L205.796,108.526L203.045,108.253L199.966,108.725L197.359,106.718L195.073,105.939L192.737,105.917L190.695,105.374L187.869,105.241L184.797,105.449L183.897,107.468L185.186,109.570L184.318,111.532L180.628,113.366L180.817,115.626L182.871,117.810L186.958,118.899L189.779,120.644L187.383,122.724L185.240,124.665L184.013,127.018L180.902,126.337L177.960,125.904L175.870,126.138L173.422,127.676L167.434,128.571L162.718,128.643L159.391,130.097L159.082,132.892L156.769,133.804L153.284,134.972L152.001,137.058L150.978,138.912L151.254,141.021L152.724,142.989L156.034,145.506L157.667,146.667L160.763,150.502L162.800,151.712L163.599,153.634L165.909,154.451L178.502,156.508L184.002,157.100L182.644,158.856L182.430,160.892L180.534,162.799L177.788,163.013L175.380,163.488L173.422,164.203L169.707,164.755L164.570,164.955L161.842,165.473L156.998,165.972L154.705,166.484L151.322,169.943L153.295,171.113L155.419,171.407L162.742,173.946L165.706,174.528L170.226,174.591L182.707,176.993L189.308,177.104L192.100,177.512L194.908,177.031L196.988,177.269L200.383,176.895L202.862,175.828L205.364,175.236L210.713,174.703L213.302,173.908L215.485,172.738L218.491,172.254L221.468,172.069L223.996,172.206L228.217,172.891L230.312,173.087L232.557,172.534L234.776,171.681L237.553,171.272L239.799,170.178L242.399,169.851L249.164,170.065L251.739,169.933L253.854,170.344L260.551,170.790L262.823,170.869L265.663,170.838L268.469,171.349L272.197,172.920L273.567,174.566L276.354,175.626L278.127,176.840L280.330,178.418L286.810,182.287L286.192,184.880L289.125,185.804L291.263,185.144L293.378,186.406L296.372,191.611L298.277,194.386L300.542,195.219L301.456,197.142L303.880,200.474L305.297,203.313L307.436,204.507L308.457,206.404L309.588,209.079L312.692,211.527L313.883,209.699L316.039,209.642L318.078,212.324L320.355,215.474L322.769,215.595L324.511,216.948L327.147,220.060L326.794,222.472L328.218,224.614L327.971,226.883L326.158,231.186L324.683,233.148L311.807,244.794L308.177,249.840L309.798,252.194L309.978,256.920L307.672,264.854L306.186,267.227L303.719,269.240L302.129,271.426L299.236,272.805L297.357,274.518L292.368,276.629L290.236,277.136L287.567,277.203L286.203,281.549L289.098,280.935L292.746,281.639L295.989,283.075L298.698,284.923L302.318,289.564L300.496,290.663L298.449,292.096L295.474,293.554L292.911,293.615L301.206,300.261L303.495,302.864L304.086,306.803L302.992,308.564L305.692,312.540L305.101,315.591L304.492,317.950L306.324,319.689L305.285,322.582L303.354,323.726L300.112,324.929L296.920,323.676L293.329,323.070L292.197,325.217L293.792,327.412L294.941,329.122L297.085,329.235L300.366,328.067L302.699,328.160L304.812,329.184L310.619,332.816L312.693,333.966L313.946,335.962L317.035,339.547L319.874,341.662L323.884,349.202L323.850,351.462L322.412,357.827L320.794,360.573L320.650,363.519L321.108,365.959L321.368,368.639L327.005,371.035L328.575,373.083L329.752,375.861L331.554,377.578L331.633,379.835L335.102,386.343L335.229,388.489L334.954,391.202L333.646,394.075L331.404,396.582L331.520,399.688L334.409,402.467L336.544,404.796L339.725,412.690L341.396,421.313L343.111,429.986L345.786,431.250L349.744,436.482L356.669,440.472L358.109,442.476L359.134,444.777L360.234,451.289L359.904,455.092L358.788,457.687L359.989,460.029L361.975,460.510L365.332,459.812L368.710,460.539L374.254,460.959L381.138,463.129L384.013,464.595L392.394,473.910L394.508,476.266L395.215,478.376L397.717,479.449L398.677,477.053L401.977,477.204L408.278,480.505L411.684,481.981L413.550,487.570L415.008,497.890L414.104,502.281L412.940,505.650L414.570,508.190L413.113,519.419L411.424,522.350L407.995,524.623L410.401,527.242L411.690,525.189L413.392,523.948L415.546,525.191L420.995,530.727L424.454,529.428L426.791,529.960L429.084,530.869L431.211,533.118L433.350,538.251L433.739,540.234L435.347,541.524L436.951,543.328L437.871,546.364L435.733,548.322L427.666,548.616L425.231,549.435L422.784,548.640L420.531,548.359L417.421,550.870L419.415,551.954L424.187,552.463L426.646,552.326L432.833,553.684L434.397,555.780L436.204,557.334L438.627,558.133L444.891,558.091L450.035,560.684L453.468,560.609L456.642,561.202L458.599,562.890L459.757,565.210L460.567,567.697L461.083,570.575L461.179,574.137L459.456,587.968L458.281,591.254L454.313,593.660L452.035,593.760L449.909,593.325L448.800,595.560L446.878,596.850L443.192,597.809L443.138,599.959L446.336,603.227L447.864,607.023L448.370,609.316L450.311,611.258L453.170,612.029L455.491,613.595L458.644,621.404L459.864,623.324L460.670,626.564L460.327,629.205L457.720,629.832L459.542,630.726L462.342,631.749L464.160,635.079L465.520,636.774L469.535,638.689L473.991,638.288L478.502,637.439L480.603,637.281L483.129,637.804L489.021,641.377L489.728,643.429L490.611,645.417L490.738,649.269L492.053,654.835L491.061,658.108L491.411,662.525L490.657,664.606L487.418,668.252L486.800,670.537L481.770,681.006L481.887,684.009L480.684,687.622L480.202,690.410L478.928,693.831L480.364,696.346L481.364,699.401L481.646,702.367L479.171,717.514L477.891,720.774L466.617,742.099L465.036,753.196L465.107,755.448L467.399,758.035L468.007,761.275L467.211,763.208L464.655,766.892L461.413,770.213L457.785,772.764L454.126,774.166L450.721,774.420L447.360,773.794L441.610,769.881L437.493,767.943L433.693,767.443L426.116,767.368L421.820,766.384L419.712,766.200L417.063,767.984L417.138,770.490L418.327,772.224L419.167,775.816L418.726,778.960L416.707,781.943L412.792,785.051L398.267,792.243L393.491,795.864L389.728,796.614L379.222,794.013L375.482,793.496L372.576,794.487L370.748,797.746L369.888,800.231L368.745,801.976L367.047,803.202L363.272,805.353L362.827,807.346L362.950,811.356L360.211,811.732L358.693,813.240L358.191,815.569L358.524,818.444L359.253,820.512L360.502,822.753L362.155,824.916L364.085,826.681L380.428,834.562L386.332,838.837L391.020,840.379Z M479.187,290.266L481.242,289.578L483.069,287.949L480.948,286.592L478.094,286.192L475.283,286.304L473.258,287.129L473.002,288.551L476.723,290.754Z" />

<path data-iso="LIE" d="M470.537,103.510L473.037,102.103L471.777,100.132L474.000,99.558L475.448,98.089L474.995,97.073L470.331,97.739L468.442,98.551L466.438,100.858L463.758,100.988L466.290,103.282L467.704,103.579Z" />

<path data-iso="LUX" d="M425.208,4.307L427.638,3.855L431.442,3.928L433.689,3.878L440.316,4.069L442.880,3.568L444.847,3.173L441.825,1.902L439.731,0.531L438.802,0.000L402.685,0.000L407.004,1.859L409.580,2.098L412.728,2.351L415.851,2.807L418.068,3.604L420.017,4.964L420.916,5.231Z" />

<path data-iso="MCO" d="M144.452,169.992L142.222,168.986L139.510,169.655L141.112,170.332Z" />

<path data-iso="MLT" d="M106.777,964.877L109.958,965.556L111.617,964.285L113.049,961.679L113.173,958.973L111.690,955.247L112.440,953.212L110.468,950.948L108.137,945.666L103.487,940.776L105.650,940.429L102.640,939.443L99.254,939.704L98.742,943.048L96.516,946.684L94.215,949.718L95.011,952.091L94.895,955.330L97.282,959.343L100.660,962.942L103.529,964.917L104.806,966.668Z M104.354,931.798L102.750,928.593L101.027,926.589L93.787,924.059L92.750,926.154L92.490,928.660L93.717,930.292L95.180,931.722L98.540,933.307L101.637,933.657L104.835,934.354Z" />

<path data-iso="SMR" d="M479.201,290.248L481.252,289.558L483.130,287.273L480.962,286.574L478.114,286.173L475.297,286.286L473.014,288.530L474.429,289.953L476.734,290.733Z" />

<path data-iso="SVN" d="M751.397,307.425L751.571,305.049L752.427,303.047L754.367,302.237L757.904,302.564L760.009,303.073L760.538,300.677L758.523,300.235L756.903,298.777L756.135,296.738L761.249,297.067L770.802,299.872L773.071,298.736L775.303,299.810L778.450,300.606L783.142,303.145L785.754,304.357L788.882,305.175L790.554,303.257L792.502,301.966L796.043,298.795L798.648,298.094L796.978,294.890L795.393,292.594L796.418,290.251L798.502,289.584L800.704,289.194L804.160,289.482L804.709,289.776L804.709,265.567L791.606,259.256L782.910,254.551L778.727,253.279L774.871,253.483L773.576,251.721L770.653,251.209L768.409,250.197L765.699,250.057L762.017,251.017L759.612,251.528L757.408,251.078L755.258,249.996L752.793,249.782L750.663,250.027L747.660,249.395L744.617,248.435L742.310,248.344L739.658,249.130L737.876,248.064L735.106,245.411L732.553,243.582L729.343,241.463L715.964,235.123L713.137,231.855L710.427,230.148L708.102,229.329L702.619,225.149L700.857,224.170L696.420,222.588L691.860,219.958L690.941,219.501L687.839,220.958L684.948,220.913L681.122,219.352L678.852,219.223L676.568,219.351L674.225,219.285L670.507,218.592L668.434,218.347L665.471,217.826L661.461,218.460L659.287,218.131L658.361,220.342L660.229,222.981L662.778,223.402L665.017,224.924L666.774,227.387L670.263,228.968L667.742,231.173L657.866,230.164L655.412,230.294L652.303,231.131L653.554,233.942L655.564,234.741L658.149,235.264L660.618,236.039L658.034,238.317L652.609,239.538L650.787,240.745L652.103,243.214L654.205,244.329L657.076,247.426L660.572,250.312L661.388,256.368L662.982,257.985L657.645,258.626L654.375,257.355L652.487,255.585L649.126,254.270L649.922,257.101L637.922,253.841L636.091,254.824L637.236,257.166L646.041,260.875L648.160,263.142L652.742,266.378L654.755,266.340L659.965,267.210L661.342,265.291L665.009,266.710L667.200,269.437L670.372,271.353L676.130,272.812L678.077,273.380L681.430,275.934L684.229,277.618L687.426,278.916L690.691,279.468L696.013,279.914L698.656,279.208L701.196,277.927L704.821,277.787L707.745,277.235L709.887,277.549L708.967,279.477L708.894,281.655L710.308,283.517L709.889,285.556L715.363,291.018L717.676,294.291L721.025,295.191L723.355,294.814L725.784,294.587L727.490,296.779L729.557,298.141L733.167,300.327L736.540,305.129L739.366,306.772L747.026,308.830L749.187,309.904L752.838,310.024Z" />

</g>

</svg>

