<?xml version="1.0" standalone="no"?>
<!DOCTYPE svg PUBLIC "-//W3C//DTD SVG 1.1//EN" "http://www.w3.org/Graphics/SVG/1.1/DTD/svg11.dtd">

<svg style="stroke-width:1px; stroke-linejoin: round; stroke:#444; fill:white;" xmlns="http://www.w3.org/2000/svg" font-family="Helvetica, Arial, FreeSans, Sans, sans, sans-serif" height="664px" viewBox="0 0 1080 664" width="1080px" version="1.1" xmlns:xlink="http://www.w3.org/1999/xlink" enable-background="new 0 0 1080 664"><defs><style type="text/css">path { fill-rule: evenodd; }
#context path { fill: #eee; stroke: #bbb; }</style></defs><metadata><view><proj>laea</proj><center>39.622000,-98.606000</center><bbox>2171807.43,1921680.26,4578391.65,2812066.25</bbox><padding>0.0</padding></view></metadata><g id="USA"><path data-iso="USA" d="M914,658L914,657L912,660Z M939,642L940,639L941,637L941,634L940,636L939,639L938,641L937,644Z M541,655L541,653L541,655Z M540,651L540,652L541,653Z M540,649L539,647L537,639L536,634L536,627L535,630L536,633L536,637L536,640L538,643L539,646L540,650L540,651Z M537,623L538,619L540,615L543,611L541,613L538,618L537,620L536,623L536,626Z M930,574L927,571L929,574L930,576L933,582L936,586Z M544,609L546,607L546,604L545,607L544,610Z M551,601L555,599L558,597L557,597L555,598L552,600L550,601L549,604Z M560,595L562,593L559,595Z M920,555L920,553L918,553L918,556L920,559Z M690,571L690,571L687,572Z M592,573L594,570L593,572L591,574L588,576Z M702,559L701,559L704,560Z M663,562L662,559L660,559L657,560L660,561L663,562Z M815,541L815,541L812,541Z M818,542L820,541L822,539L815,542Z M730,545L729,542L730,545L730,548Z M720,542L720,541L718,543Z M734,537L730,537L735,537Z M746,535L744,535L741,536Z M778,527L776,527L773,528L771,529L768,529L764,531Z M892,498L892,495L891,498L892,500Z M76,435L74,432L72,430L72,434L75,435Z M78,420L76,419L73,417L76,419L76,422L79,423Z M46,396L44,395L41,395L42,398L45,399Z M57,398L54,398L51,396L49,396L51,399Z M959,386L962,384L960,385L957,389Z M971,377L974,376L973,376L970,377L966,379Z M980,372L981,370L983,367L981,369L980,372L978,377Z M988,361L990,359L988,360L986,363Z M995,356L995,353L994,347L993,344L994,347L994,350L995,352L995,355L992,358Z M989,341L987,340L989,342Z M982,286L983,283L984,279L984,275L983,278L983,281L982,284L982,287Z M987,212L988,210L985,212L985,214Z M1000,207L1003,205L1002,205L1000,206L998,208Z M1005,205L1007,203L1010,200L1008,202L1006,204L1002,206Z M995,208L998,206L1002,204L1004,203L1007,201L1009,200L1012,199L1014,197L1016,195L1019,194L1021,191L1023,189L1026,186L1023,188L1021,190L1019,190L1017,191L1015,194L1013,195L1014,192L1015,190L1018,187L1016,188L1014,190L1012,193L1010,194L1007,195L1003,196L1000,198L998,200L995,200L994,203L992,204L989,206L988,210L991,210L993,209L991,211Z M1059,170L1057,167L1057,169L1056,171Z M1045,172L1048,171L1046,169L1044,171L1043,174Z M1031,173L1031,171L1031,174Z M1034,172L1032,169L1034,172Z M1056,92L1053,91L1055,93Z M1063,82L1063,81L1060,81L1059,84L1062,84Z M95,27L93,26L93,27L95,29Z M93,26L93,26L93,26Z M93,23L93,19L95,19L95,16L93,16L91,19L93,22L92,24L93,26Z M89,10L87,8L87,10L89,11Z M93,7L92,6L90,8L92,9L92,7L93,9Z M537,660L539,659L542,659L541,656L539,658L540,656L538,654L538,652L536,649L534,647L535,644L534,641L533,638L534,636L532,634L533,631L534,628L533,626L530,626L528,624L528,621L531,624L533,623L533,625L535,623L537,619L538,617L538,614L536,613L535,610L538,610L540,611L543,607L543,604L541,606L540,604L543,602L545,602L546,600L547,602L549,600L549,597L549,594L551,596L552,598L556,596L557,594L555,592L553,590L552,587L554,589L556,591L559,590L558,587L560,589L563,588L564,590L567,590L563,593L566,591L570,590L572,587L568,588L573,587L576,586L579,584L582,582L585,579L586,576L588,574L591,571L592,569L592,566L590,563L588,560L592,562L593,559L596,559L596,562L596,565L599,565L597,566L596,569L598,567L605,563L608,562L612,560L615,559L613,556L616,552L617,554L615,557L617,559L619,558L624,557L627,557L630,557L635,558L639,559L642,561L648,561L652,562L655,560L658,559L656,557L653,556L656,555L659,554L661,554L663,556L666,556L668,558L669,561L672,561L674,561L676,559L675,561L676,564L678,566L676,564L674,567L676,568L681,568L683,569L687,570L689,569L690,567L692,565L694,563L697,565L699,567L699,570L702,569L703,566L703,563L704,561L701,560L699,558L702,558L707,560L709,561L708,563L713,564L716,564L718,567L721,567L720,569L719,572L721,570L722,567L725,568L727,566L725,564L723,561L720,561L718,560L715,560L714,558L711,557L709,555L712,555L710,553L713,553L715,554L714,551L715,549L718,550L717,547L715,545L717,543L714,544L713,546L711,548L708,547L707,545L709,544L710,541L708,543L705,542L702,545L700,545L697,545L693,544L693,541L695,538L698,536L701,536L703,539L705,539L708,540L711,540L714,540L715,538L717,535L719,536L722,535L725,532L728,532L732,534L735,533L738,533L740,531L743,533L745,531L745,527L745,525L746,522L748,524L749,527L749,530L751,531L752,534L749,534L747,535L750,535L752,534L756,532L759,531L761,529L759,532L764,530L765,528L766,524L768,527L769,524L771,526L768,528L765,530L769,528L774,527L777,527L780,525L783,525L785,523L789,523L790,526L787,526L784,526L781,527L784,527L788,527L791,528L796,530L798,529L796,528L798,527L800,528L801,531L804,530L805,533L802,532L804,535L808,536L810,539L809,541L807,539L809,542L811,541L815,540L817,539L820,538L823,537L825,535L828,533L831,532L830,529L832,528L835,527L837,526L842,528L845,529L847,531L849,534L851,535L853,537L854,539L857,541L859,542L861,544L863,547L866,546L868,546L870,549L871,551L873,553L874,556L874,559L874,563L874,566L873,570L872,572L873,575L872,579L873,581L876,584L875,582L877,584L878,581L878,579L875,578L877,576L879,577L881,579L882,577L883,580L881,582L880,584L879,587L879,588L877,590L880,591L881,594L882,596L884,598L887,602L889,604L892,603L890,601L893,601L895,599L893,601L894,604L894,608L895,611L898,610L900,607L899,610L897,613L900,612L901,615L902,618L903,620L905,623L907,626L909,625L912,626L915,627L916,630L918,632L919,634L921,637L924,638L925,640L921,639L921,642L923,644L926,643L929,641L932,642L934,640L936,639L939,639L939,636L940,633L939,630L940,627L940,625L941,622L943,620L943,623L942,613L942,609L942,606L942,601L941,595L939,592L938,589L936,587L933,586L936,586L931,579L929,575L919,560L918,557L916,554L915,551L914,548L916,549L917,552L920,552L921,554L921,558L922,562L923,565L925,567L927,569L923,564L922,559L922,555L921,553L918,549L916,547L911,541L908,537L906,533L904,531L902,527L901,524L899,521L898,518L896,514L895,510L894,507L893,505L891,501L891,499L890,496L891,493L889,491L892,493L892,490L894,487L892,485L890,484L892,484L893,482L895,478L892,478L893,476L895,478L895,475L893,473L895,473L896,470L895,468L898,469L899,467L899,463L902,461L901,458L900,456L899,453L900,455L903,454L905,457L907,453L905,455L906,453L904,451L902,451L904,450L907,450L909,450L910,447L913,447L915,445L917,443L916,441L917,439L919,441L920,438L922,436L922,433L925,433L927,431L929,429L929,426L928,424L930,426L930,421L932,418L934,412L936,410L939,407L942,406L944,405L948,403L951,403L952,400L952,397L953,400L953,396L954,393L956,389L958,386L961,384L959,382L960,380L962,382L964,380L966,378L970,376L974,373L975,376L975,373L978,373L979,370L980,367L977,367L975,369L972,370L969,370L967,369L964,366L967,368L970,369L972,368L974,366L972,363L975,362L974,359L970,359L966,358L963,357L966,358L969,358L972,356L971,354L974,353L972,355L974,357L977,356L979,357L982,356L984,354L985,351L987,349L988,347L987,344L987,341L984,339L984,341L982,342L982,347L980,345L980,343L980,340L977,340L974,342L971,342L969,344L966,342L964,340L965,336L965,339L968,341L971,341L973,338L970,336L973,337L976,337L974,335L976,337L977,334L975,332L978,333L980,333L979,331L981,333L983,334L981,331L979,329L977,327L976,324L979,325L977,323L978,321L979,323L980,325L982,328L983,331L984,333L985,335L987,337L990,340L992,342L990,340L986,334L983,331L982,328L980,323L977,318L975,316L972,316L968,318L965,318L963,316L961,315L960,312L959,312L961,312L963,314L967,315L967,313L966,311L963,310L961,309L958,307L957,304L959,306L962,308L965,308L965,305L967,304L966,302L964,300L962,300L959,299L957,297L954,296L952,294L950,293L949,290L946,289L949,290L951,292L953,294L956,296L958,297L961,299L964,299L964,296L964,293L963,291L959,290L957,288L954,287L952,287L949,287L947,286L945,283L943,285L940,284L939,282L940,278L941,276L943,274L943,271L944,274L942,277L941,279L940,282L942,284L943,282L946,282L947,284L950,283L952,285L956,285L958,285L961,287L960,284L958,282L956,281L953,280L952,277L951,274L953,278L955,280L958,279L955,277L954,274L953,272L952,269L953,266L950,263L953,263L951,260L949,258L952,257L951,254L954,254L954,251L956,253L957,251L957,248L959,246L959,250L961,247L960,250L959,252L962,252L961,252L957,253L956,256L956,260L959,260L958,263L955,264L956,266L958,264L960,266L960,269L957,269L957,272L959,271L962,271L964,273L961,273L959,273L961,275L959,278L962,279L966,281L966,278L967,281L969,277L968,280L969,283L972,284L973,287L975,287L975,290L974,293L973,295L972,298L973,301L972,304L972,307L975,309L976,306L976,302L976,300L978,299L978,296L979,293L980,288L980,285L980,282L982,280L983,277L984,275L982,273L984,273L984,270L983,267L980,268L982,266L981,263L979,263L976,260L974,257L972,255L971,252L969,251L967,249L967,246L966,243L967,239L968,237L971,235L973,233L972,236L969,237L967,239L967,243L968,245L969,248L973,250L975,251L978,253L980,252L982,254L984,258L985,255L986,252L986,248L988,247L989,244L989,241L991,239L992,236L992,233L992,231L992,228L992,225L993,228L994,232L993,229L993,226L992,223L992,218L991,216L987,215L985,215L985,212L987,209L988,207L988,204L988,201L987,198L986,195L985,192L986,195L988,197L989,201L989,204L989,207L989,205L991,203L992,200L993,198L996,196L998,194L1000,192L1002,190L1004,188L1007,187L1009,186L1013,185L1015,184L1017,182L1020,181L1023,180L1026,179L1030,176L1030,172L1029,169L1030,167L1032,167L1034,165L1033,169L1035,173L1038,170L1039,167L1041,166L1041,163L1043,165L1044,168L1047,166L1048,164L1051,163L1053,161L1056,158L1054,155L1053,152L1050,151L1047,152L1050,151L1052,154L1054,156L1052,158L1049,160L1045,160L1043,157L1041,155L1039,153L1037,151L1034,150L1032,151L1032,148L1032,145L1033,143L1035,140L1032,138L1030,136L1030,133L1031,128L1031,125L1031,123L1032,120L1033,117L1034,114L1035,112L1034,109L1034,107L1036,104L1038,107L1038,104L1041,106L1039,103L1037,101L1038,98L1038,101L1040,103L1041,106L1041,103L1041,100L1043,102L1043,99L1045,101L1046,98L1049,97L1050,95L1049,92L1049,89L1050,87L1049,84L1051,82L1052,80L1053,83L1054,85L1057,84L1058,82L1057,79L1060,79L1061,77L1063,78L1065,80L1065,77L1067,77L1067,74L1068,72L1070,74L1072,72L1073,70L1075,68L1077,66L1078,64L1079,61L1077,60L1076,62L1076,59L1075,57L1073,55L1071,54L1069,55L1066,53L1066,51L1065,47L1062,46L1059,46L1056,45L1055,41L1054,39L1053,35L1052,32L1050,29L1049,25L1048,22L1046,19L1045,15L1043,11L1040,10L1038,8L1035,7L1032,7L1030,9L1028,11L1026,13L1024,15L1020,12L1019,10L1016,11L1015,14L1014,16L1014,19L1013,22L1012,25L1012,28L1011,30L1010,33L1011,36L1012,41L1011,45L1010,48L1011,50L1011,53L1013,56L1012,59L1012,61L1010,64L1009,68L1011,71L1008,72L1008,76L1005,75L1003,77L1001,77L1000,79L1000,82L998,85L995,87L991,88L988,89L984,90L981,91L977,92L974,93L970,94L967,96L963,97L960,98L956,99L953,100L949,101L946,102L943,103L939,105L937,106L934,110L932,113L931,115L929,118L928,121L927,124L924,126L923,130L921,132L919,134L918,137L918,141L917,144L915,148L911,149L907,150L903,151L898,152L894,153L890,154L886,155L880,157L877,159L874,162L877,167L878,172L880,174L882,176L880,179L878,181L875,183L873,185L870,187L868,189L865,191L862,193L860,195L855,197L851,199L846,201L841,203L839,205L836,208L834,210L832,212L829,214L827,216L824,219L822,221L817,222L813,221L811,220L808,217L806,214L806,210L807,207L809,205L811,203L814,199L816,197L816,194L815,192L815,189L816,186L816,184L816,180L817,177L818,173L818,170L816,165L814,159L812,154L810,149L808,144L806,138L804,133L801,126L797,125L792,123L788,121L784,119L780,118L781,115L781,112L778,110L774,111L771,111L769,109L769,106L767,104L765,101L762,102L760,104L756,100L754,97L753,94L750,93L748,92L745,91L743,90L740,89L738,88L735,87L733,86L731,85L727,83L723,81L719,80L715,78L711,76L707,75L704,73L700,72L697,70L693,69L690,67L685,66L681,68L677,71L674,73L672,75L669,76L666,76L662,76L658,76L655,74L649,76L646,76L644,74L642,72L639,74L636,77L633,78L631,78L628,76L625,75L623,73L621,71L618,72L616,74L614,71L613,69L610,69L610,67L605,65L600,65L597,67L594,68L591,68L589,66L587,65L582,64L577,64L575,62L574,59L574,56L572,51L572,49L569,48L566,47L566,51L566,54L566,57L563,57L559,58L555,58L551,58L547,58L544,58L540,58L536,58L532,58L528,58L525,58L521,58L517,58L513,58L509,58L506,58L502,58L498,58L494,58L490,58L486,58L483,58L479,58L475,58L471,58L467,58L464,58L460,58L456,58L452,57L448,57L445,57L441,57L437,57L433,57L430,56L426,56L422,56L418,56L414,56L411,55L407,55L403,55L399,55L395,54L392,54L388,54L384,53L380,53L376,53L373,52L369,52L365,52L361,51L358,51L354,51L350,50L346,50L342,49L339,49L335,48L331,48L327,48L324,47L320,47L316,46L312,46L309,45L305,45L301,44L297,44L294,43L290,42L286,42L282,41L279,41L275,40L271,40L267,39L264,38L260,38L256,37L253,36L249,36L245,35L241,34L238,34L234,33L230,32L227,32L223,31L219,30L215,29L212,29L208,28L204,27L201,26L197,26L193,25L190,24L186,23L182,22L179,21L175,21L171,20L168,19L164,18L160,17L157,16L153,15L149,14L146,13L142,12L138,12L135,11L131,10L127,9L124,8L120,7L117,6L113,5L109,4L106,3L102,2L99,0L96,2L96,5L99,6L99,9L97,11L96,14L94,13L96,15L96,17L95,20L94,23L96,25L97,22L97,25L99,27L96,28L95,31L93,33L92,35L92,38L91,41L90,44L87,43L86,46L82,47L80,46L78,47L79,45L77,45L80,44L82,42L83,40L83,43L83,46L84,43L86,41L87,44L88,41L89,39L89,36L90,34L92,32L92,30L91,27L90,30L87,32L86,34L83,34L81,36L79,39L77,39L79,37L81,35L84,33L86,31L87,29L87,32L89,29L90,27L89,24L90,21L87,23L85,22L84,19L82,20L78,18L75,17L73,16L71,15L68,12L65,11L63,8L60,5L60,8L58,11L58,14L57,17L58,20L59,23L59,26L59,30L59,35L58,38L58,42L57,45L60,44L62,46L58,46L57,48L58,51L60,53L58,54L57,57L58,60L55,59L56,57L56,54L54,59L53,62L56,63L59,64L61,65L64,67L66,70L64,69L63,66L60,67L56,66L54,64L54,68L53,70L52,73L51,77L50,79L48,82L47,86L47,88L46,91L44,94L43,96L41,99L41,101L40,104L38,110L36,113L35,117L33,120L32,122L32,127L30,128L28,130L28,133L25,134L24,137L22,140L21,142L19,144L17,147L17,149L18,152L17,155L16,158L15,160L15,163L16,168L17,171L16,173L15,176L16,180L15,182L15,186L14,188L12,191L11,193L11,196L7,201L10,200L7,201L5,203L3,205L1,208L2,211L1,214L4,218L6,222L7,227L7,230L7,233L6,236L4,241L4,244L5,246L4,249L3,251L5,255L7,257L9,264L11,266L12,270L13,273L15,277L13,275L11,279L13,277L14,279L15,282L18,284L21,284L21,282L21,279L24,277L27,281L29,281L32,282L35,283L37,282L35,284L38,283L40,285L38,283L35,284L32,283L29,282L27,281L24,282L22,284L23,286L24,289L25,292L25,295L26,298L24,296L22,293L20,291L21,289L20,286L18,288L17,292L18,295L18,298L17,301L18,303L19,306L20,309L24,310L26,312L27,315L25,319L23,319L22,322L22,325L22,328L23,330L25,333L26,337L28,339L28,342L30,345L30,348L33,350L34,353L36,355L37,358L36,361L38,363L40,365L39,368L39,372L38,374L37,377L38,380L39,383L42,383L47,384L50,385L52,387L55,388L58,388L60,390L63,394L64,397L66,398L70,401L73,402L77,403L79,406L80,409L80,412L82,411L85,412L88,417L91,419L93,422L96,426L98,431L99,436L98,440L98,443L100,445L100,448L104,448L107,449L110,449L113,450L116,450L120,450L123,450L126,451L129,451L133,451L136,452L139,452L142,452L146,453L149,453L153,454L151,456L151,459L159,464L168,468L176,473L185,478L193,483L202,487L210,492L220,497L223,499L226,500L229,502L233,502L235,503L238,503L241,503L244,504L247,504L250,504L253,505L255,505L258,505L261,506L264,506L267,506L270,507L273,507L275,507L278,508L281,508L284,508L287,509L290,509L292,507L292,504L292,501L293,499L295,498L298,498L301,498L304,498L306,499L309,499L312,499L315,500L318,500L321,500L324,500L327,501L329,501L332,502L334,504L335,507L337,510L340,511L342,513L344,515L346,518L348,519L350,521L352,524L355,527L357,528L360,530L362,532L364,534L365,536L365,539L367,541L368,544L369,547L368,549L369,553L371,556L372,559L374,561L378,564L380,566L382,568L385,570L388,571L391,573L393,574L395,576L398,577L400,578L403,578L405,575L407,574L408,571L410,569L410,566L411,564L413,561L415,559L418,558L421,556L424,557L427,558L432,558L434,559L438,559L442,559L444,561L445,563L447,565L449,567L452,570L454,571L456,573L457,576L460,577L460,581L461,583L463,585L464,588L466,591L466,594L467,596L468,599L470,601L473,602L474,605L476,607L477,610L478,612L481,614L482,615L485,617L486,619L487,622L486,625L488,627L487,630L488,632L490,634L492,637L493,639L494,643L495,645L496,648L499,648L502,649L504,651L506,652L510,653L513,653L514,656L517,657L520,657L523,657L527,657L529,658L532,660L534,661Z M928,424L928,424L928,424Z M928,424L927,424L929,421Z M957,312L953,312L951,312L947,311L950,311L953,310L956,311L958,312L959,312L958,312L958,312Z M82,40L79,40L79,39Z" /></g></svg>