<?xml version="1.0" standalone="no"?>
<!DOCTYPE svg PUBLIC "-//W3C//DTD SVG 1.1//EN" "http://www.w3.org/Graphics/SVG/1.1/DTD/svg11.dtd">

<svg style="stroke-width:1px; stroke-linejoin: round; stroke:#444; fill:white;" xmlns="http://www.w3.org/2000/svg" font-family="Helvetica, Arial, FreeSans, Sans, sans, sans-serif" height="301px" width="301px" version="1.1" xmlns:xlink="http://www.w3.org/1999/xlink" viewBox="0 0 301 301" enable-background="new 0 0 301 301">

<defs>

<style type="text/css"><![CDATA[
path { fill-rule: evenodd; }
#context path { fill: #eee; stroke: #bbb; }]]></style>

</defs>

<metadata>

<view>

<proj>

laea</proj>

<center>

-10.782781,-53.093972</center>

<bbox>

2024652.76,1446617.54,4309487.80,4288837.97</bbox>

<padding>

18.0</padding>

</view>

</metadata>

<g id="bg">

<rect y="0" width="301.44443545" style="stroke:none;fill:#d0ddf0" height="299" x="0" />

</g>

<g id="context">

<path data-regid="0.0" data-iso="ARG" d="M139,298L137,298L135,296L135,294L136,292L135,291L133,289L131,288L129,287L128,285L128,283L128,281L128,279L129,277L130,275L129,273L129,273L130,270L130,268L130,266L131,264L131,262L131,260L132,258L134,256L135,255L137,253L138,251L139,249L141,248L142,246L144,245L145,243L146,242L148,241L150,239L152,239L154,237L156,235L155,233L156,231L155,229L155,227L153,226L151,227L150,226L150,227L150,229L150,231L149,233L147,235L145,236L144,238L142,238L140,238L139,239L136,239L134,239L132,239L130,238L128,238L126,238L126,236L127,235L128,233L128,231L130,229L130,227L132,225L130,224L128,223L126,222L124,221L122,220L120,219L118,218L116,216L113,216L111,216L109,215L108,213L106,212L105,211L103,210L102,208L101,206L99,205L98,204L96,203L92,204L90,205L89,207L88,209L87,207L86,205L84,205L80,205L78,204L78,204L76,203L74,206L73,207L71,208L70,210L72,211L71,213L71,216L69,219L68,220L65,221L64,223L63,225L64,227L64,229L64,231L64,235L65,237L65,240L63,240L63,242L62,244L61,246L60,248L59,249L59,252L59,254L58,256L59,258L59,260L59,262L58,264L57,266L56,268L56,270L57,272L58,274L59,276L60,278L61,279L61,281L63,282L62,284L63,287L63,288L62,290L61,292L61,294L61,296L61,298L62,299L139,299Z" data-oid="ARG" />

<path data-regid="0.0" data-iso="BOL" d="M70,210L71,208L73,207L74,206L76,203L78,204L78,204L80,205L84,205L86,205L87,207L88,209L89,207L90,205L92,204L96,203L98,204L99,205L99,204L100,202L100,199L101,196L101,194L101,192L103,190L103,188L105,187L107,186L109,186L112,185L114,185L117,184L119,184L121,184L123,185L125,187L127,188L127,190L129,189L127,187L128,185L129,183L129,181L130,179L130,177L130,175L129,173L128,172L126,171L125,169L124,167L125,165L122,164L120,164L117,164L115,164L113,164L113,161L112,159L112,159L111,157L112,155L112,153L111,151L111,149L110,147L108,146L106,145L103,146L101,145L100,144L98,143L96,142L94,141L93,140L91,140L88,139L86,139L84,139L82,137L81,136L80,134L78,133L77,131L78,129L77,127L77,125L77,123L77,121L75,121L73,121L70,122L68,122L67,124L65,125L63,126L62,127L60,128L58,129L57,131L55,131L53,130L51,130L49,130L50,132L52,134L53,137L55,139L55,142L54,144L54,146L54,148L54,150L55,152L54,154L53,156L53,158L53,160L52,162L53,164L54,166L55,168L54,170L53,171L52,173L53,175L53,176L54,177L56,179L56,181L57,183L57,185L59,186L60,188L60,191L59,193L59,195L61,196L62,198L63,200L63,202L64,205L65,207L66,209L66,211L68,211Z" data-oid="BOL" />

<path data-regid="0.0" data-iso="CHL" d="M61,298L61,296L61,294L61,292L62,290L63,288L63,287L62,284L63,282L61,281L61,279L60,278L59,276L58,274L57,272L56,270L56,268L57,266L58,264L59,262L59,260L59,258L58,256L59,254L59,252L59,249L60,248L61,246L62,244L63,242L63,240L65,240L65,237L64,235L64,231L64,229L64,227L63,225L64,223L65,221L68,220L69,219L71,216L71,213L72,211L70,210L68,211L66,211L66,209L65,207L64,205L63,202L63,200L62,198L61,196L59,195L59,193L60,191L60,188L59,186L57,185L57,183L56,181L56,179L54,177L53,176L53,175L53,175L51,176L51,178L50,181L47,181L48,182L48,184L48,186L49,188L50,190L50,192L50,194L50,196L51,198L51,200L51,202L51,204L51,207L51,209L51,211L51,213L49,214L51,216L50,218L51,220L51,222L51,225L52,227L52,229L51,230L51,232L51,235L51,237L51,239L51,241L51,243L50,245L50,247L50,249L49,251L49,253L49,255L50,257L50,259L50,261L49,262L49,265L49,267L50,269L50,271L51,273L51,275L52,277L53,279L52,281L52,283L52,285L52,287L51,289L51,291L51,293L51,295L50,297L49,299L49,299L62,299Z" data-oid="CHL" />

<path data-regid="0.0" data-iso="COL" d="M45,82L46,80L46,78L46,75L47,73L47,71L47,69L48,66L48,64L48,62L47,60L46,59L44,57L43,55L43,53L43,52L44,52L46,51L48,50L50,51L49,49L47,48L45,48L45,46L45,44L47,43L49,44L52,43L55,43L56,41L57,43L60,41L61,40L63,43L64,46L65,46L65,45L64,43L64,42L63,40L62,38L60,36L59,35L61,33L61,31L60,29L59,27L59,25L59,23L59,21L59,19L60,17L61,15L61,13L59,12L57,13L55,13L53,13L51,13L49,14L47,13L45,11L44,9L42,8L40,7L38,8L36,8L34,8L32,8L30,8L29,6L27,4L27,2L28,0L28,0L0,0L0,56L1,55L3,55L4,57L6,57L8,58L9,58L12,59L13,60L14,62L15,64L17,64L19,65L20,67L21,69L23,70L23,72L24,73L27,72L29,73L31,72L32,71L34,71L36,72L38,71L40,72L42,73L44,74L43,76L42,78L40,80L41,82L43,83L45,84Z" data-oid="COL" />

<path data-regid="0.0" data-iso="ECU" d="M1,74L2,73L4,71L5,70L7,68L7,66L9,64L8,62L7,60L6,58L8,58L6,57L4,57L3,55L1,55L0,56L0,75Z" data-oid="ECU" />

<path data-regid="0.0" data-iso="FRA" d="M153,38L155,37L157,38L159,38L161,38L163,36L164,34L164,32L166,30L167,28L169,26L169,26L169,25L167,23L167,21L165,20L163,19L161,17L159,16L157,16L155,15L153,15L152,17L151,18L150,20L150,23L151,25L152,27L153,29L153,31L152,32L152,34L151,36L149,37L151,39Z" data-oid="FRA" />

<path data-regid="0.0" data-iso="GUY" d="M123,43L125,43L127,42L129,41L132,40L133,41L136,40L136,40L135,40L134,38L133,36L131,34L131,32L130,31L128,29L127,28L125,26L126,24L127,22L127,20L129,20L131,18L131,16L131,16L132,14L131,12L129,11L127,9L125,7L123,7L121,10L122,8L122,6L123,4L121,2L120,1L119,0L111,0L110,0L108,1L107,3L108,5L109,7L107,8L105,8L104,10L104,12L102,14L104,15L105,17L107,18L107,18L109,18L111,18L112,20L112,22L113,23L114,25L115,27L114,29L113,30L113,32L112,35L113,37L114,39L114,41L116,43L117,44L119,45L122,45Z" data-oid="GUY" />

<path data-regid="0.0" data-iso="PER" d="M50,181L51,178L51,176L53,175L53,175L52,173L53,171L54,170L55,168L54,166L53,164L52,162L53,160L53,158L53,156L54,154L55,152L54,150L54,148L54,146L54,144L55,142L55,139L53,137L52,134L50,132L49,130L47,130L45,131L43,131L42,129L42,126L42,124L42,121L40,122L38,124L36,125L33,125L32,123L31,122L28,121L25,121L26,119L25,117L23,115L22,114L21,112L20,110L19,108L21,107L20,105L22,103L23,102L24,99L24,97L25,95L25,93L27,91L28,90L30,88L32,87L34,86L36,86L38,85L40,84L42,84L44,85L45,84L43,83L41,82L40,80L42,78L43,76L44,74L42,73L40,72L38,71L36,72L34,71L32,71L31,72L29,73L27,72L24,73L23,72L23,70L21,69L20,67L19,65L17,64L15,64L14,62L13,60L12,59L9,58L8,58L6,58L7,60L8,62L9,64L7,66L7,68L5,70L4,71L2,73L1,74L0,75L0,140L0,141L2,142L3,144L4,146L5,148L7,149L7,152L6,153L7,155L9,157L10,158L11,160L13,161L14,162L16,164L18,165L21,166L23,167L25,168L27,169L29,170L31,171L34,171L35,172L37,173L39,174L41,175L42,177L43,178L45,180L47,181Z" data-oid="PER" />

<path data-regid="0.0" data-iso="PRY" d="M140,238L142,238L144,238L145,236L147,235L149,233L150,231L150,229L150,227L150,226L151,224L151,221L152,219L152,217L151,215L149,215L147,216L145,214L144,212L144,210L143,208L143,206L141,204L139,204L137,204L135,204L133,204L131,204L129,203L128,201L128,199L129,197L129,195L128,193L127,191L127,190L127,188L125,187L123,185L121,184L119,184L117,184L114,185L112,185L109,186L107,186L105,187L103,188L103,190L101,192L101,194L101,196L100,199L100,202L99,204L99,205L101,206L102,208L103,210L105,211L106,212L108,213L109,215L111,216L113,216L116,216L118,218L120,219L122,220L124,221L126,222L128,223L130,224L132,225L130,227L130,229L128,231L128,233L127,235L126,236L126,238L128,238L130,238L132,239L134,239L136,239L139,239Z" data-oid="PRY" />

<path data-regid="0.0" data-iso="SUR" d="M139,39L139,37L142,37L144,36L146,36L148,37L149,37L151,36L152,34L152,32L153,31L153,29L152,27L151,25L150,23L150,20L151,18L152,17L153,16L152,14L150,13L148,13L146,14L144,13L142,13L140,14L138,14L135,13L133,13L132,14L131,16L131,18L129,20L127,20L127,22L126,24L125,26L127,28L128,29L130,31L131,32L131,34L133,36L134,38L135,40L136,40L138,41Z" data-oid="SUR" />

<path data-regid="0.0" data-iso="URY" d="M151,288L153,287L156,285L157,283L158,281L157,279L157,276L159,275L158,273L156,272L155,270L154,269L152,268L151,266L148,265L147,264L145,263L143,263L142,261L141,260L139,259L137,257L135,257L134,258L132,258L131,260L131,262L131,264L130,266L130,268L130,270L129,273L129,273L129,273L130,275L130,277L129,278L128,280L129,282L130,284L132,285L134,286L136,286L138,287L139,288L141,289L143,288L145,288L147,289L149,289Z" data-oid="URY" />

<path data-regid="0.0" data-iso="VEN" d="M76,48L77,47L79,46L81,45L83,44L84,42L86,41L88,40L89,38L87,38L85,37L84,35L83,33L83,31L82,29L81,28L79,26L82,26L84,27L86,27L88,28L91,29L92,30L93,28L94,27L97,26L99,26L101,25L103,24L105,23L107,22L107,19L105,17L104,15L102,14L104,12L104,10L105,8L107,8L109,7L108,5L107,3L108,1L110,0L111,0L28,0L28,0L27,2L27,4L29,6L30,8L32,8L34,8L36,8L38,8L40,7L42,8L44,9L45,11L47,13L49,14L51,13L53,13L55,13L57,13L59,12L61,13L61,15L60,17L59,19L59,21L59,23L59,25L59,27L60,29L61,31L61,33L59,35L60,36L62,38L63,40L64,42L64,43L65,45L65,46L68,49L70,49L72,48L74,48L74,50Z" data-oid="VEN" />

</g>

<g id="BRA">

<path data-iso="BRA" d="M195,221L194,221L193,222Z M175,57L175,57L173,59Z M170,62L172,60L172,57L171,57L169,59L168,61L168,63Z M179,65L181,65L183,65L185,64L187,64L189,62L190,61L191,59L191,57L190,55L188,55L186,54L184,55L182,55L180,54L178,54L176,55L176,57L175,59L177,60L175,61L176,64L177,65Z M184,53L184,53L183,54Z M183,52L181,51L179,53L182,53Z M178,50L178,50L178,52Z M180,49L180,49L179,51Z M159,280L160,279L162,277L163,275L164,273L165,270L164,268L166,267L167,265L168,264L170,262L170,260L171,257L173,258L175,258L174,260L172,262L171,263L171,266L169,267L167,268L165,268L165,271L167,269L170,267L172,265L173,264L174,262L177,257L178,255L179,252L182,249L185,247L186,245L187,243L187,241L187,239L188,237L187,235L187,233L186,231L187,230L188,228L188,226L190,226L191,224L192,222L195,221L198,219L199,217L201,216L203,215L205,215L208,214L209,213L211,212L213,212L213,210L216,210L218,210L220,210L222,210L223,208L224,210L226,210L228,210L230,208L231,207L233,205L235,205L236,204L236,201L237,199L238,197L239,196L241,195L242,192L243,190L244,189L246,187L246,185L246,182L246,179L248,177L249,176L250,174L250,171L251,169L251,167L252,165L253,163L252,161L252,159L252,156L252,154L253,152L253,150L253,148L252,146L254,144L254,142L256,142L256,144L258,142L260,141L261,139L262,137L263,135L265,133L265,131L267,130L269,128L271,127L272,126L274,124L275,122L277,121L278,119L280,117L281,115L281,113L282,111L282,109L283,107L283,105L282,103L282,101L281,98L281,96L280,94L280,92L278,91L276,90L274,90L272,90L270,89L268,89L266,87L265,87L263,85L261,83L260,82L258,80L256,79L255,77L253,76L251,75L249,74L247,74L245,74L242,74L240,74L238,74L236,73L234,73L232,73L230,71L228,71L226,70L224,71L222,72L220,72L221,70L219,71L219,73L218,75L216,76L217,74L217,72L218,70L218,68L217,70L218,68L217,66L216,65L214,64L212,65L211,63L210,62L208,62L206,60L204,60L203,59L201,59L199,57L197,58L195,58L193,59L193,61L191,62L191,64L189,63L188,65L186,66L185,68L184,70L183,71L184,69L184,68L183,66L182,67L180,66L178,67L177,66L175,64L175,62L174,60L171,62L169,63L167,64L165,65L164,63L165,62L167,62L169,60L169,58L171,56L172,55L173,53L175,52L177,50L178,48L180,47L181,46L181,44L181,42L179,41L177,40L176,38L175,36L174,34L174,32L173,30L173,27L172,25L170,24L169,26L169,26L167,28L166,30L164,32L164,34L163,36L161,38L159,38L157,38L155,37L153,38L151,39L149,37L148,37L146,36L144,36L142,37L139,37L139,39L138,41L136,40L136,40L133,41L132,40L129,41L127,42L125,43L123,43L122,45L119,45L117,44L116,43L114,41L114,39L113,37L112,35L113,32L113,30L114,29L115,27L114,25L113,23L112,22L112,20L111,18L109,18L107,18L107,18L107,19L107,22L105,23L103,24L101,25L99,26L97,26L94,27L93,28L92,30L91,29L88,28L86,27L84,27L82,26L79,26L81,28L82,29L83,31L83,33L84,35L85,37L87,38L89,38L88,40L86,41L84,42L83,44L81,45L79,46L77,47L76,48L74,50L74,48L72,48L70,49L68,49L65,46L64,46L63,43L61,40L60,41L57,43L56,41L55,43L52,43L49,44L47,43L45,44L45,46L45,48L47,48L49,49L50,51L48,50L46,51L44,52L43,52L43,53L43,55L44,57L46,59L47,60L48,62L48,64L48,66L47,69L47,71L47,73L46,75L46,78L46,80L45,82L45,84L44,85L42,84L40,84L38,85L36,86L34,86L32,87L30,88L28,90L27,91L25,93L25,95L24,97L24,99L23,102L22,103L20,105L21,107L19,108L20,110L21,112L22,114L23,115L25,117L26,119L25,121L28,121L31,122L32,123L33,125L36,125L38,124L40,122L42,121L42,124L42,126L42,129L43,131L45,131L47,130L49,130L51,130L53,130L55,131L57,131L58,129L60,128L62,127L63,126L65,125L67,124L68,122L70,122L73,121L75,121L77,121L77,123L77,125L77,127L78,129L77,131L78,133L80,134L81,136L82,137L84,139L86,139L88,139L91,140L93,140L94,141L96,142L98,143L100,144L101,145L103,146L106,145L108,146L110,147L111,149L111,151L112,153L112,155L111,157L112,159L112,159L113,161L113,164L115,164L117,164L120,164L122,164L125,165L124,167L125,169L126,171L128,172L129,173L130,175L130,177L130,179L129,181L129,183L128,185L127,187L129,189L127,190L127,191L128,193L129,195L129,197L128,199L128,201L129,203L131,204L133,204L135,204L137,204L139,204L141,204L143,206L143,208L144,210L144,212L145,214L147,216L149,215L151,215L152,217L152,219L151,221L151,224L150,226L151,227L153,226L155,227L155,229L156,231L155,233L156,235L154,237L152,239L150,239L148,241L146,242L145,243L144,245L142,246L141,248L139,249L138,251L137,253L135,255L134,256L132,258L134,258L135,257L137,257L139,259L141,260L142,261L143,263L145,263L147,264L148,265L151,266L152,268L154,269L155,270L156,272L158,273L159,275L157,276L157,279L158,281Z" />

</g>

<g id="layer" style="fill:#50BF32;opacity:.4;stroke:none">

<path data-iso="" d="M36,3L37,1L38,0L36,0L36,0L34,1L33,3L35,3Z M0,26L2,24L2,22L3,20L2,18L1,16L1,14L2,12L1,10L0,9L0,27Z M128,184L128,182L129,181L130,180L130,179L130,178L131,178L130,177L128,177L127,175L129,174L127,173L125,174L123,174L121,173L122,172L124,170L122,171L120,172L118,170L118,168L115,168L114,166L116,166L118,165L117,164L115,165L112,165L110,164L109,162L107,161L109,161L111,160L109,158L111,156L111,155L111,154L109,153L109,151L109,149L108,147L108,147L106,146L105,146L103,146L101,145L99,144L97,143L95,142L94,141L91,140L89,139L91,139L93,138L94,140L96,141L98,142L100,141L102,141L104,143L105,143L107,142L109,141L111,142L111,140L109,139L107,140L106,139L105,138L104,139L102,139L101,137L101,136L100,134L98,133L96,132L95,132L93,133L91,133L89,134L87,135L85,134L87,133L89,132L90,131L92,130L94,129L96,130L98,129L96,129L96,127L95,124L93,125L93,123L91,122L91,120L93,119L96,119L96,121L97,123L99,123L101,125L102,127L103,128L105,129L106,132L108,133L110,134L112,133L114,132L117,132L119,133L121,132L122,133L124,133L127,133L125,135L126,137L128,137L130,139L129,141L131,143L132,144L134,144L136,142L136,145L137,145L138,143L138,141L137,140L137,139L138,137L136,135L136,133L137,135L139,137L140,136L141,137L143,138L144,140L146,142L147,144L149,144L152,144L154,144L156,145L158,145L160,144L162,144L164,143L166,141L168,140L169,139L171,138L173,137L171,137L171,134L169,133L168,131L166,130L166,127L166,125L164,123L162,124L160,125L159,126L158,128L159,130L160,132L162,133L165,133L166,135L167,137L166,139L165,141L165,139L165,137L165,134L163,133L160,133L159,131L157,132L156,134L157,136L159,137L160,139L160,139L160,141L160,139L158,138L157,140L156,142L157,140L157,138L156,136L154,137L152,138L152,140L150,142L150,140L151,138L153,137L154,135L155,133L156,132L156,130L155,131L153,129L151,130L149,130L149,133L147,134L146,136L146,135L147,133L148,131L149,129L151,129L153,128L156,129L158,128L159,126L159,124L157,123L157,123L156,121L157,120L158,118L160,117L161,115L163,115L164,113L166,115L167,117L167,119L166,121L168,121L170,122L170,123L172,122L172,122L172,121L173,120L175,122L176,122L178,122L178,119L177,118L178,116L180,116L178,116L179,114L178,112L177,110L176,109L177,107L175,109L173,109L171,108L169,108L169,109L168,111L168,113L167,114L165,112L164,111L165,109L166,108L168,109L167,108L167,106L169,105L171,105L172,105L172,104L172,104L173,105L173,105L175,106L177,105L177,103L179,102L177,102L175,100L175,99L173,99L171,99L169,100L166,100L166,98L168,98L171,98L173,98L175,98L177,98L179,97L180,96L181,94L183,94L183,91L181,92L180,90L182,88L183,87L183,84L181,83L180,83L178,83L177,80L175,80L173,78L171,77L170,75L172,77L174,78L176,78L178,79L180,81L181,79L183,78L183,81L184,83L185,85L185,87L188,87L187,89L188,88L190,87L192,88L195,88L197,87L195,85L195,85L196,83L194,82L195,80L196,78L197,77L195,77L196,75L197,73L196,71L195,69L194,68L194,70L193,72L192,71L192,68L191,70L189,71L189,70L190,68L189,67L188,68L186,69L185,70L184,72L182,74L182,71L182,69L183,67L185,67L184,65L184,66L182,66L180,66L178,66L179,65L181,65L182,63L183,63L185,64L184,63L185,61L184,59L183,57L182,56L180,56L180,54L178,54L176,56L175,58L174,59L172,61L171,63L169,63L167,64L165,65L166,67L167,69L167,71L167,73L166,76L165,76L164,78L164,78L163,78L161,77L159,78L159,76L161,75L163,75L165,73L166,72L166,70L165,68L164,66L163,68L161,67L159,68L157,68L155,69L153,70L151,70L149,72L148,73L146,72L146,74L145,75L144,76L145,74L145,72L144,70L142,70L140,69L138,69L139,67L138,67L136,68L134,69L133,71L131,71L132,70L133,68L135,68L136,67L138,65L140,66L142,66L144,66L146,66L147,65L146,63L144,63L142,62L140,61L141,59L143,61L142,59L143,57L145,59L146,60L148,61L147,63L149,64L151,63L153,63L155,62L157,62L158,62L159,61L160,59L161,58L163,58L162,60L161,62L163,61L165,60L167,61L168,61L169,59L167,59L166,58L167,56L169,55L171,54L170,52L172,51L172,49L172,47L173,45L174,43L174,41L174,39L173,38L173,35L173,33L172,31L170,30L170,28L169,26L168,24L168,23L167,23L166,22L166,22L165,22L165,22L164,20L162,18L161,18L159,17L157,16L156,15L154,15L152,16L152,17L152,16L152,15L152,14L151,14L151,14L150,16L149,14L148,14L147,15L145,15L144,17L143,15L141,14L139,15L137,14L137,14L135,14L134,15L132,15L131,14L131,13L129,12L128,11L127,9L125,8L123,7L122,5L121,3L120,1L119,0L119,0L97,0L98,1L98,1L98,2L99,3L101,3L102,5L101,7L99,6L99,4L97,4L97,6L95,6L93,4L91,4L92,6L91,8L90,7L88,8L89,10L87,10L86,8L87,6L86,4L84,4L83,2L83,3L82,3L82,3L80,4L78,3L79,2L81,2L82,0L84,0L83,0L81,0L81,1L79,2L77,1L75,0L73,0L73,0L73,0L71,2L69,2L67,1L67,4L68,4L69,4L71,3L70,5L71,5L72,7L71,7L69,7L67,8L65,10L63,11L63,12L62,14L61,16L60,17L59,19L58,21L58,24L58,26L56,28L54,27L55,25L53,25L55,24L56,22L54,24L52,25L50,26L48,26L46,25L44,26L42,27L42,28L40,29L37,30L36,31L34,32L33,32L31,33L32,35L31,35L30,37L28,37L27,37L26,39L28,38L30,37L28,39L26,40L26,42L27,44L25,43L24,42L24,39L22,40L20,41L18,41L18,39L17,37L16,35L15,34L16,32L17,30L17,28L16,29L14,31L13,32L13,31L12,32L11,34L11,36L9,37L9,40L7,41L6,42L5,45L7,45L8,43L8,41L10,41L10,41L12,42L12,44L11,46L11,48L11,51L9,49L8,51L7,53L5,52L3,52L3,55L4,56L2,55L2,54L1,53L0,53L0,52L0,118L1,119L2,121L3,123L3,125L2,127L3,129L5,130L6,129L7,127L7,129L8,131L7,133L8,135L9,137L11,138L13,139L13,142L15,143L18,143L18,145L18,145L16,144L16,144L16,147L18,148L20,149L22,148L24,148L26,149L29,149L27,149L24,150L22,149L21,151L19,150L17,151L20,151L22,152L23,153L24,153L25,151L27,151L28,152L30,151L30,153L32,154L34,155L35,152L37,152L37,150L37,147L39,147L41,148L42,150L44,151L45,150L47,151L48,153L51,152L52,155L53,156L54,158L56,160L58,160L58,163L60,163L61,166L62,167L64,168L66,168L68,168L68,170L66,171L67,171L69,171L71,170L73,171L75,171L76,173L78,174L80,175L82,176L84,176L87,177L89,177L89,179L88,181L89,182L92,182L92,180L91,178L92,177L91,175L90,173L90,171L91,170L91,168L90,166L89,164L90,165L92,167L94,168L95,171L96,170L98,169L99,167L101,167L103,168L105,168L107,167L107,165L105,164L104,163L104,161L106,161L107,163L108,165L110,167L110,168L112,169L110,171L109,172L112,173L112,175L113,177L115,178L117,179L119,180L120,181L122,182L124,183L126,184Z M126,16L128,16L127,15L127,13L126,12L125,10L125,12L124,13L125,13L125,15L124,17Z M90,12L90,12L89,12L88,14L88,14Z M50,35L52,34L54,34L56,32L57,31L55,31L53,30L51,31L49,31L48,31L47,34L48,35Z M48,31L45,31L47,32Z M41,35L39,34L39,36Z M114,40L116,38L117,37L118,34L116,33L114,33L115,31L117,30L118,28L120,27L118,27L116,26L114,25L115,23L113,22L112,21L110,20L108,20L106,19L105,18L104,15L103,14L101,14L99,14L98,16L100,18L98,19L99,21L101,22L103,22L105,23L107,23L105,24L103,25L102,27L101,29L103,30L104,32L102,33L104,34L105,36L107,35L108,35L110,34L112,34L110,35L111,37L110,38L108,39L109,41L111,40L113,41Z M36,44L35,42L36,42L34,41L33,43L35,45Z M111,44L113,42L111,42L109,43L107,44L107,44L109,45L111,46Z M36,45L35,47L36,48Z M71,57L69,57L71,57Z M115,64L115,62L113,62L111,62L110,62L110,64L112,65L114,66L116,66Z M140,64L140,62L139,64Z M77,71L77,69L77,71Z M124,74L126,73L128,71L128,70L126,71L124,71L123,73L122,75Z M72,71L70,71L70,72Z M106,78L107,77L107,76L105,77L103,78L105,78Z M149,80L151,80L153,80L155,79L157,79L155,78L153,79L150,79L148,80L148,77L147,75L146,75L147,77L147,80L146,81L148,82Z M100,80L97,80L99,80Z M98,86L99,84L97,83L99,82L97,81L95,81L96,83L97,85L95,87L94,87L96,87Z M8,93L10,92L13,92L14,90L14,88L12,89L10,90L8,90L6,89L5,87L5,89L6,91L6,93L6,93Z M161,95L159,94L158,94L160,96Z M64,115L63,115L63,117Z M64,126L64,124L67,124L65,123L63,122L61,123L59,121L58,121L59,123L60,125L62,127Z M79,128L78,126L80,125L78,124L77,126L76,128L76,129L78,129Z M71,135L71,133L71,135Z M20,144L18,145L20,146Z M48,143L46,143L48,145Z M61,148L60,149L63,149Z M58,159L58,156L58,159Z M98,167L98,165L96,166L97,167Z M146,20L145,19L145,22L147,22Z M80,33L79,33L79,33L79,34Z M15,48L17,47L18,45L16,44L15,44L15,45L14,46L14,47L14,50Z M102,53L104,53L105,54L107,54L105,53L107,52L105,52L106,50L106,48L107,46L107,44L106,43L104,42L102,43L100,44L98,45L97,46L98,48L100,49L101,48L102,47L103,46L104,47L102,49L102,51L101,53L101,55Z M85,60L87,60L87,58L87,57L90,57L88,56L87,55L85,56L83,55L82,53L83,52L83,51L85,53L87,52L89,52L89,54L91,54L92,52L93,51L93,54L93,56L95,56L97,54L98,53L99,51L97,51L96,50L94,50L93,50L94,48L92,48L92,50L90,50L88,49L86,50L85,49L83,49L81,49L80,51L80,53L81,55L83,55L81,57L79,57L79,59L80,61L82,60L84,61Z M68,72L66,72L66,72Z M7,95L6,93L5,95L7,95Z M59,144L61,144L63,143L64,141L65,141L63,141L61,142L60,143L59,141L57,142L56,144L55,144L57,145Z M123,178L122,175L122,178Z M74,6L74,4L75,3L77,3L75,2L73,3L73,3L74,4L73,6L72,7L73,8Z M134,19L134,18L133,19Z M68,24L68,24L67,24Z M52,55L54,55L57,55L58,53L56,52L54,51L56,50L54,49L56,48L57,46L55,45L53,45L50,45L52,43L54,43L55,42L57,43L59,42L60,41L62,42L62,40L61,38L59,36L58,36L59,35L61,34L62,32L61,30L60,28L60,30L57,28L58,31L58,33L56,33L54,35L52,36L50,36L48,37L47,38L47,40L46,42L45,43L47,44L48,46L49,48L47,48L45,49L44,50L43,47L41,48L39,48L39,51L39,53L41,52L42,50L43,50L44,50L45,51L46,49L48,51L49,49L49,49L49,51L49,53L49,55Z M176,66L174,66L172,65L171,66L173,66L175,67Z M83,76L82,74L80,73L79,73L80,75L81,77L82,78Z M36,80L34,80L34,81L35,82L37,82Z M55,144L55,143L54,144Z M66,26L66,25L65,26Z M177,64L178,62L176,61L175,61L175,63L176,65L176,66L178,66Z M147,127L149,127L152,127L153,126L154,124L153,122L152,120L151,118L151,116L150,114L148,113L146,112L144,112L143,112L141,111L139,111L137,110L139,110L138,108L136,108L134,106L132,105L131,103L129,101L128,99L126,99L124,97L122,99L121,100L121,103L120,105L118,106L117,107L119,107L121,107L121,105L122,103L124,103L126,103L126,104L128,105L130,106L131,109L132,111L132,111L134,112L136,112L137,113L135,113L133,113L131,113L129,112L128,112L126,113L124,112L124,110L123,112L122,114L124,113L124,115L126,114L128,115L130,116L132,116L134,116L136,118L136,120L136,121L138,121L140,121L138,120L137,119L139,119L141,119L143,119L145,119L147,120L149,122L150,123L150,126L148,126L146,126L144,125L142,124L141,126L143,127L145,128Z M82,164L82,162L82,161L81,159L81,157L80,155L80,153L80,152L81,154L81,156L81,158L83,160L85,161L87,162L89,161L87,159L86,158L84,156L85,154L84,152L83,149L85,151L86,149L86,152L88,152L89,151L89,151L88,150L88,148L90,149L92,150L94,151L95,153L97,151L95,149L95,147L94,145L93,143L91,145L89,145L87,143L86,141L86,140L85,141L83,140L81,140L80,138L79,139L78,137L78,135L77,136L76,134L76,133L75,135L74,137L72,138L71,140L70,139L70,138L69,136L68,134L68,136L69,139L69,141L69,142L68,141L68,139L68,136L67,139L67,141L67,143L66,145L66,148L66,150L66,152L64,153L66,154L68,155L68,158L69,156L71,155L72,153L74,154L76,155L75,157L75,159L75,159L75,159L75,161L75,163L77,163L78,163L79,164L80,165Z M0,56L0,56L0,56Z M100,64L99,62L98,62L97,61L98,62L96,61L94,61L93,60L95,60L93,58L93,60L91,59L90,59L91,60L93,61L95,62L97,63L99,64Z M71,11L71,9L70,11Z M147,16L146,16L147,17Z M69,22L70,21L69,22Z M82,21L80,21L81,23Z M84,23L82,23L82,25Z M74,31L72,32L74,33Z M47,45L45,46L46,47Z M64,45L63,47L64,47Z M142,50L144,50L145,48L146,46L144,45L144,42L145,41L143,40L141,39L140,38L139,39L138,42L138,44L139,46L141,47L143,46L142,47L141,48L140,50L141,50Z M39,53L39,51L37,51L38,53Z M25,57L26,54L26,52L26,50L24,49L24,51L22,52L21,54L23,53L24,54L25,57Z M39,54L37,56L38,56Z M26,61L28,62L27,60L27,57L26,56L25,57L25,60L25,62Z M73,60L74,61L76,60L77,58L75,58L73,58L71,59L71,61Z M61,62L63,61L65,60L64,58L63,56L61,57L59,58L57,59L58,61L59,62Z M65,64L64,62L62,62L62,64L64,64Z M75,63L73,63L72,65L74,65L75,66Z M20,72L18,73L20,74Z M87,70L85,71L86,72Z M27,73L25,73L27,75L28,75Z M110,75L110,75L111,75Z M109,74L108,73L106,71L105,69L105,71L106,73L108,74L110,75Z M128,75L128,73L130,71L128,72L127,74L127,76L128,77Z M12,101L14,100L16,99L14,97L13,99L11,100L10,102L11,103Z M105,101L103,100L103,102Z M29,108L26,108L25,106L26,109L27,110L29,111Z M87,115L89,115L89,114L89,112L91,110L92,109L92,107L91,105L88,105L86,105L87,107L86,109L84,109L84,107L83,105L83,103L82,105L82,107L81,105L80,107L80,109L81,112L79,111L77,112L77,114L79,115L81,116L83,116L85,117Z M176,112L174,111L172,110L174,112L174,112Z M102,115L103,113L105,114L104,111L102,110L100,110L99,111L98,113L100,115Z M174,114L173,112L171,110L170,112L172,114L174,114L176,116Z M84,118L81,118L82,119Z M73,123L75,123L77,122L76,120L75,121L75,121L73,122L70,122L68,122L70,123Z M176,118L174,117L174,119Z M121,125L119,123L118,126L120,126Z M88,127L86,126L84,126L82,126L83,128L85,129L88,129L89,129Z M141,127L140,125L139,123L137,122L135,122L133,124L131,124L128,124L129,126L131,127L133,127L135,127L136,128L137,128L139,128L141,129Z M57,131L58,129L56,129L54,130L55,132Z M71,131L69,131L70,132Z M141,131L139,132L140,133Z M96,140L98,139L100,138L98,137L96,138L95,140Z M65,145L66,143L64,142L64,144L62,144L60,145L62,146L64,147Z M106,167L105,164L103,165L105,167Z M128,178L127,179L129,180Z M24,0L23,0L24,1Z M69,0L69,0L70,1Z M86,1L87,1L88,0L84,0L84,0L84,2Z M66,1L65,1L65,0L61,0L61,0L61,1L63,2L65,2Z M15,9L16,7L16,5L14,3L15,1L15,0L14,0L13,0L12,2L12,3L12,5L11,7L13,8L14,10Z M29,3L28,2L30,1L30,0L30,0L29,0L28,1L29,3Z M34,0L33,0L34,0Z M48,0L48,0L48,0L48,0L45,0L44,0L46,1L48,1Z M56,3L57,3L58,1L56,1L58,0L57,0L53,0L53,0L51,1L50,2L51,2L53,2L55,3Z M93,1L94,1L94,0L92,0L91,2Z M44,3L44,3L45,2L45,2L42,2L41,2L39,0L38,2L40,3L42,3Z M3,8L5,7L7,6L6,4L3,4L2,3L0,2L0,9L1,9Z M31,6L32,4L31,3L30,5L29,3L27,4L26,5L27,6L29,8L30,8Z M59,2L61,2L59,1L57,3L57,3Z M74,4L75,3L75,2L74,4Z M82,3L83,3L83,2L81,2L82,3Z M9,8L10,7L8,6L9,9Z M40,6L41,4L39,4L37,5L38,7Z M51,5L53,5L53,4L51,4L50,6Z M54,5L57,5L55,4L53,5Z M64,5L64,4L61,4L59,4L61,5Z M63,11L63,11L64,9L65,8L66,6L67,6L68,4L67,4L65,5L64,5L64,5L62,5L63,6L63,7L63,7L61,6L59,7L57,8L57,8L59,7L61,8L63,9L62,10L60,10L57,10L59,11L61,12L63,12Z M35,8L33,6L31,7L33,8Z M30,14L31,12L31,10L29,9L27,8L27,10L29,11L29,13L28,14L27,15L29,15Z M49,7L47,7L44,7L42,8L42,8L45,8L47,9Z M57,8L57,7L54,7L54,8Z M36,12L36,9L34,10L35,12Z M21,9L20,10L20,12Z M90,12L89,12L90,12Z M126,12L125,12L125,13Z M154,15L156,15L155,15L153,14L151,13L149,13L147,13L145,13L143,13L141,13L139,14L137,13L135,13L133,13L131,14L132,15L133,14L135,14L137,14L137,14L139,15L141,14L142,13L144,14L146,14L148,14L149,14L151,14L151,14L152,14L152,15L152,16Z M55,18L55,18L53,18Z M161,16L159,16L157,16L159,17L161,18Z M134,19L134,18L133,19Z M173,31L173,29L173,27L172,25L171,24L169,23L168,22L166,21L164,19L162,18L164,20L165,22L165,22L166,22L166,22L167,23L168,23L169,26L169,25L171,25L172,28L173,29L173,32L174,33Z M43,22L45,22L43,21L41,23Z M48,24L50,23L49,23L49,23L47,24Z M20,24L20,25L20,27Z M114,27L112,26L110,26L111,28L113,28Z M3,35L2,33L2,36Z M5,38L4,37L3,35L2,36L3,37L3,39Z M25,34L22,34L23,35Z M2,39L2,38L1,40Z M0,43L1,43L2,42L2,40L1,40L1,41L0,42L0,44Z M111,40L110,38L108,39L109,41Z M1,48L3,48L4,47L5,45L4,45L3,47L0,47L0,46L0,49Z M182,43L181,42L179,42L180,43L182,44Z M176,51L177,49L176,47L174,48L175,49L176,51Z M44,50L44,50L43,50Z M142,50L143,49L142,47L141,48L141,48L141,50Z M181,52L179,53L179,53Z M83,59L83,59L83,58L83,59L81,57L80,59L82,59Z M86,57L84,57L83,58L84,58L86,59Z M169,58L168,56L167,59Z M198,58L196,57L194,57L194,60L195,60L197,60L199,61Z M191,57L189,57L191,59Z M204,59L202,58L201,61L203,61Z M193,62L194,60L192,59L191,60L191,63Z M213,64L212,63L210,61L208,61L207,63L209,64L211,65L213,66Z M204,83L205,81L203,79L205,79L207,79L207,77L209,75L208,73L207,71L208,69L206,69L204,67L204,69L202,69L200,70L198,72L199,73L201,74L202,76L200,75L201,77L200,79L199,81L200,83L202,83Z M226,72L226,70L224,69L222,71L224,72L226,73Z M236,73L234,72L232,73L234,75L236,75Z M238,76L236,77L238,78Z M258,85L259,83L258,82L257,83L256,85L258,85Z M206,87L207,85L208,83L206,83L205,84L203,86L202,87L203,88L205,89Z M252,84L251,86L253,86Z M239,89L239,87L238,88L238,90Z M271,90L269,90L271,92Z M201,90L200,89L201,91Z M249,94L251,93L250,91L248,92L247,94L248,96Z M185,99L185,97L187,96L188,95L190,93L188,92L188,90L186,91L185,92L184,95L184,97L183,98L185,99Z M204,93L202,93L203,95Z M241,95L239,96L242,96Z M221,109L222,107L223,105L223,103L225,102L225,100L223,98L222,96L222,98L220,99L219,100L217,101L215,102L214,103L213,104L211,106L209,106L211,107L213,106L215,105L217,106L218,104L220,104L222,104L220,105L220,107L220,109L219,111L221,112Z M219,99L221,97L219,98L219,100Z M247,101L248,99L245,99L244,101L246,101Z M208,102L206,101L206,99L205,101L203,102L205,103L207,103Z M188,104L188,102L188,102L186,101L184,102L184,104L186,105Z M260,103L258,103L260,104Z M236,110L236,108L237,106L237,104L235,103L236,104L235,107L235,109L236,111Z M226,116L226,113L227,112L229,112L228,113L227,115L229,114L231,114L231,112L232,111L234,110L233,108L231,108L229,109L228,110L226,112L224,112L225,110L225,108L226,106L226,104L224,104L223,106L223,108L222,111L221,112L223,114L223,116Z M239,106L238,105L238,107Z M172,104L172,104L172,105L173,105Z M183,104L181,105L183,106Z M281,115L282,114L283,111L283,109L282,107L282,110L281,112L280,114L281,116Z M169,109L169,108L169,107L171,105L169,105L167,106L167,108L168,109L168,111Z M240,107L238,107L238,108Z M186,106L186,109L186,109Z M200,113L201,111L201,108L200,110L200,112L201,115Z M205,113L205,111L206,109L205,111L203,112L202,114L204,113L206,115Z M144,114L144,112L143,112L142,112L140,112L139,112L137,110L134,110L132,111L134,112L136,112L137,113L139,113L141,114L143,115L145,116Z M259,115L261,115L262,113L260,114L258,114L258,116Z M239,112L238,113L239,114Z M233,114L231,114L230,115L231,115L233,116Z M208,116L207,114L208,116Z M258,116L257,117L257,119Z M221,127L222,125L223,123L225,123L225,120L223,121L222,123L221,120L218,120L220,119L221,118L221,115L220,118L218,119L217,121L217,123L215,124L215,126L216,125L218,124L220,124L219,126L221,127Z M165,117L163,116L164,119Z M265,121L263,119L262,121L265,122Z M241,127L241,125L243,124L242,121L240,120L239,122L240,124L239,126L238,127L239,128Z M266,124L266,122L263,123L261,124L264,124L266,124Z M256,123L253,123L253,125L255,125Z M234,123L232,123L234,123Z M121,125L119,123L118,126L120,126Z M224,134L224,132L224,130L224,128L223,126L223,128L222,130L220,130L221,132L222,134L224,136Z M267,131L268,129L270,129L271,127L269,127L267,128L266,130L267,132Z M217,129L218,127L216,127L216,129Z M139,128L139,127L137,128Z M228,134L227,132L227,130L225,132L226,134L228,135Z M141,131L139,132L140,133Z M13,143L11,142L10,139L11,141L11,143L13,144Z M107,138L105,136L104,137L101,137L102,139L104,139L105,138L106,139L107,140Z M219,142L220,140L220,138L219,140L218,142L219,144Z M249,141L247,139L245,138L246,141L245,142L247,143L249,143Z M139,141L138,138L137,140L138,141Z M114,141L113,139L113,141L114,143Z M160,139L160,139L160,139L160,141Z M69,142L68,142L68,144Z M115,158L115,157L117,157L116,155L118,155L118,153L116,152L115,154L114,152L116,152L116,150L114,148L114,148L113,148L111,148L113,147L115,147L114,145L112,144L111,145L109,144L107,142L105,143L104,143L106,143L106,146L108,147L108,147L109,148L111,149L111,149L112,152L112,154L113,156L111,155L111,156L112,158L113,159Z M136,145L136,142L134,144L136,145Z M244,149L242,147L240,146L238,146L238,144L237,146L239,147L241,147L243,149L245,150Z M79,148L79,146L79,144L79,145L78,147L78,150L80,150Z M131,145L131,143L130,143L129,145L130,147Z M221,150L221,148L221,146L219,147L219,149L221,148L221,151Z M224,150L224,148L224,146L223,148L222,150L224,151Z M231,149L231,147L230,146L230,148L231,151Z M115,147L113,147L114,148L114,148Z M200,153L200,151L202,150L201,148L203,147L200,147L200,149L199,151L200,154Z M109,148L109,148L111,149Z M23,153L23,153L22,153Z M28,152L27,152L25,154L27,154Z M89,151L88,151L89,151Z M217,158L218,157L219,155L217,154L218,151L215,151L216,154L218,155L216,157L216,159Z M148,155L147,153L146,155L148,155Z M126,165L127,164L128,161L130,162L131,160L132,158L132,156L132,154L130,153L130,156L129,158L128,159L126,161L126,163L126,165Z M167,156L167,154L165,155L167,157Z M121,159L123,158L122,156L120,157L118,157L118,159L120,160Z M218,161L219,159L217,160L216,162Z M80,164L80,161L81,159L80,160L79,161L78,163L79,164Z M133,165L132,163L131,164L132,166Z M250,168L249,169L250,170Z M127,171L129,170L129,168L127,167L126,169L127,171Z M139,171L138,169L139,171Z M135,174L137,174L139,175L138,173L136,173L134,174L133,176Z M143,176L144,175L143,173L141,175L139,175L140,176L141,177Z M110,177L107,177L109,178Z M133,181L134,179L133,178L132,181L131,179L130,181L133,181Z M142,185L143,183L144,182L144,180L142,180L140,179L138,180L137,181L136,183L138,182L140,182L142,182L141,184L140,185Z M246,184L245,182L244,184L244,186L246,187Z M151,181L151,179L150,181L150,183Z M90,196L91,194L92,192L92,190L94,190L93,187L92,185L90,185L89,187L88,189L86,189L86,187L88,185L86,184L85,182L84,184L85,185L85,188L85,190L86,192L87,194L89,194L90,196Z M244,184L242,185L244,186Z M148,187L147,184L147,187L148,189Z M170,187L168,187L170,188Z M134,191L134,189L132,188L132,191Z M139,192L139,190L138,188L137,189L138,191L139,193Z M160,196L162,196L163,193L163,191L161,190L161,193L160,194L160,197Z M165,192L163,191L165,193Z M85,197L87,196L87,194L84,194L84,197Z M135,202L134,200L134,198L134,196L134,194L132,194L133,196L133,198L132,200L132,202L132,204L134,205Z M167,195L166,193L164,195L164,197L167,197Z M131,195L129,196L130,196Z M157,197L157,195L154,194L155,197L156,198Z M92,201L91,199L89,198L87,198L85,198L82,198L82,201L84,199L85,200L88,201L90,201L91,203Z M131,199L130,196L129,196L129,197L130,199Z M149,199L148,197L148,199L150,200Z M206,205L208,203L210,205L211,206L212,204L210,203L207,203L206,201L203,201L202,202L201,204L201,206L201,205L203,205L204,207L206,207Z M88,205L86,203L85,204L87,205L88,207Z M208,207L208,207L211,207L213,207L213,204L212,204L211,206L210,205L208,203L206,205L206,207L207,208Z M228,206L230,205L228,205L225,206L223,204L223,207L224,207L226,207Z M82,224L83,222L84,220L85,218L85,216L86,218L87,216L88,214L88,212L86,210L87,208L86,206L84,205L83,207L85,208L83,209L84,211L84,213L84,215L83,217L82,219L82,221L81,223L82,225Z M144,206L145,204L143,204L143,207Z M203,205L201,205L201,206L202,207Z M145,208L146,206L144,207L145,208Z M92,209L91,207L90,209L92,210Z M204,207L202,207L203,209Z M156,207L154,207L155,208Z M141,208L139,208L140,210Z M190,220L192,219L194,218L196,218L198,218L201,217L202,215L204,215L206,216L208,215L210,214L212,213L213,211L215,211L216,209L214,209L212,210L210,211L209,212L207,213L205,214L202,214L200,215L199,216L196,216L198,215L196,215L194,216L192,217L190,218L189,220Z M142,211L143,210L141,209L140,211Z M137,212L137,211L136,211L135,212Z M151,222L151,220L151,218L150,218L148,218L147,217L145,216L145,216L144,216L143,214L142,212L141,212L139,211L137,212L135,213L134,215L137,215L138,214L139,215L139,216L138,216L139,218L140,221L140,222L142,222L143,221L145,220L146,222L149,222L150,224Z M144,219L142,220L143,221Z M145,216L146,216L146,214L145,216Z M149,216L148,218L149,218Z M88,224L89,223L90,221L89,219L87,217L87,220L86,221L85,223L86,225Z M88,221L87,222L87,223Z M164,219L163,221L165,221Z M185,233L186,231L186,229L188,227L186,226L188,225L190,226L190,226L192,224L193,222L190,221L188,221L188,223L186,224L186,226L185,229L185,231L183,232L183,233Z M176,224L175,222L174,223L176,225Z M172,225L170,223L171,225Z M156,225L156,223L155,225Z M156,225L155,225L155,227Z M84,231L86,229L84,227L84,229L84,232Z M164,227L162,226L160,226L161,228L163,228L166,228Z M173,229L173,227L171,227L172,229L173,231Z M151,237L152,235L152,234L152,231L152,229L154,228L152,227L150,228L150,230L150,231L151,233L149,235L148,236L149,238Z M144,234L146,233L148,234L149,232L150,230L148,229L147,231L145,229L146,229L145,227L144,228L141,229L141,230L142,231L142,232L143,234L142,235L144,235Z M152,235L153,233L154,231L152,229L152,231L152,234L152,235Z M155,233L156,231L154,233L154,235L155,235Z M183,233L183,232L183,232L182,234L184,234Z M82,243L83,241L84,239L85,237L82,236L82,238L81,240L80,242L80,244L82,245Z M179,239L182,239L182,239L183,237L181,237L179,235L178,234L177,235L177,237L177,237L178,239Z M184,234L182,234L182,236Z M155,238L155,235L154,235L153,235L152,236L151,238L153,239Z M180,241L180,240L178,239L177,237L177,237L176,236L176,238L177,240L178,242Z M183,240L182,239L182,239L182,240L183,241Z M181,247L181,245L182,243L183,241L182,241L180,241L180,243L179,245L178,247Z M82,247L81,248L83,248Z M180,249L182,248L181,246L181,248L179,249L179,250L179,251Z M179,249L179,249L177,250L179,250Z M178,253L178,252L177,253L174,253L175,254L177,255Z" />

</g>

</svg>

