<?xml version="1.0" standalone="no"?>
<!DOCTYPE svg PUBLIC "-//W3C//DTD SVG 1.1//EN" "http://www.w3.org/Graphics/SVG/1.1/DTD/svg11.dtd">

<svg style="stroke-width:1px; stroke-linejoin: round; stroke:#444; fill:white;" xmlns="http://www.w3.org/2000/svg" font-family="Helvetica, Arial, FreeSans, Sans, sans, sans-serif" height="301px" viewBox="0 0 226 301" width="226px" version="1.1" xmlns:xlink="http://www.w3.org/1999/xlink" enable-background="new 0 0 226 301">

<defs>

<style type="text/css">path { fill-rule: evenodd; }
#context path { fill: #eee; stroke: #bbb; }</style>

</defs>

<metadata>

<view>

<proj>

laea</proj>

<center>

51.106213,10.381548</center>

<bbox>

4003595.53,2786171.23,641248.56,850253.33</bbox>

<padding>

0.0</padding>

</view>

</metadata>

<g id="DEU">

<path data-regid="0.0" data-iso="DEU" d="M27,49L25,49L27,50Z M35,46L35,46L30,47Z M42,45L42,45L38,46Z M48,44L48,44L45,44Z M52,44L52,43L50,44Z M138,35L137,34L135,36L137,37Z M196,39L198,39L200,38L200,36L195,31L194,31L192,29L189,28L191,30L191,33L193,33L195,32L197,34L195,35L193,35L194,38L193,40Z M78,17L79,15L76,16L78,17Z M132,17L131,16L129,15L127,16L126,18L128,18L130,19L133,20Z M174,14L175,12L174,12L173,16Z M180,24L182,22L183,21L187,21L189,23L189,20L187,18L185,17L185,15L187,13L185,11L181,11L180,9L180,7L178,10L178,12L180,11L182,13L183,14L182,15L180,14L179,12L177,13L176,15L178,16L177,18L177,20L175,21L175,23L177,24L179,25L182,25Z M66,7L66,7L65,9L67,10Z M71,8L71,6L69,6L67,7L69,8Z M109,299L111,297L113,295L114,292L113,290L114,288L116,289L118,288L123,289L125,289L126,291L128,294L131,294L133,293L135,294L137,292L138,291L141,290L143,289L144,287L146,287L149,286L151,286L153,285L160,284L160,282L161,281L162,282L165,282L167,283L169,284L171,283L173,282L175,284L175,286L177,288L180,290L182,290L182,288L182,286L183,283L182,281L180,281L178,280L179,278L180,274L179,272L177,271L176,269L174,266L175,264L177,262L179,261L181,259L184,258L188,257L191,254L192,252L192,249L192,247L193,246L197,247L199,248L200,246L201,243L200,240L200,238L199,236L196,234L195,232L193,231L191,232L190,231L189,228L187,226L185,226L183,224L180,221L179,219L177,218L175,218L173,217L171,215L169,213L168,210L167,209L166,207L166,204L164,203L163,201L165,200L165,198L166,195L165,193L163,192L159,189L157,188L157,186L156,184L155,181L154,180L157,180L159,182L159,184L161,185L160,183L161,181L163,179L164,177L166,176L169,176L171,174L173,174L175,175L177,174L178,172L180,172L182,170L185,168L186,166L188,168L190,166L190,164L192,163L195,163L197,162L199,160L200,159L203,159L206,157L208,155L211,155L209,153L207,151L209,149L212,150L214,150L216,152L215,154L217,154L218,157L220,157L222,155L223,153L224,150L225,147L225,144L225,142L226,140L225,138L224,136L224,133L222,131L220,130L217,129L218,126L217,124L216,122L215,120L214,118L215,116L216,114L217,110L218,108L216,105L216,103L216,101L213,100L212,98L211,95L213,93L213,90L213,88L211,86L208,85L207,83L204,81L202,80L201,79L201,76L202,73L205,71L206,69L206,66L207,64L207,62L206,60L205,57L204,53L203,51L203,48L202,45L200,44L198,43L196,43L193,41L191,39L192,36L191,34L190,32L191,30L188,28L186,29L184,31L182,29L181,28L180,27L178,25L176,24L174,23L174,20L172,18L170,19L169,21L167,20L164,20L162,21L159,23L159,25L158,23L159,21L160,20L162,19L164,19L166,18L170,17L168,17L162,17L160,18L159,20L158,22L156,24L153,27L152,29L151,31L150,28L145,30L142,29L141,31L140,33L138,35L137,37L136,38L133,38L132,36L130,35L126,36L124,36L122,36L121,34L123,32L125,30L128,27L128,25L128,22L129,21L127,21L124,21L122,23L119,23L117,22L113,20L110,19L108,20L107,22L108,20L108,18L106,16L101,17L103,16L104,14L104,12L104,10L102,9L103,8L103,6L101,5L99,6L97,4L95,4L93,3L91,4L88,4L86,4L85,2L79,0L76,0L73,0L73,2L74,5L74,7L77,9L76,12L78,13L81,16L79,18L77,19L75,19L73,21L71,23L73,25L75,24L78,24L80,23L78,25L77,26L76,29L78,30L80,31L81,32L79,34L76,34L78,38L80,40L82,40L87,41L89,43L90,46L92,47L92,49L93,51L96,52L99,54L96,53L93,51L91,47L89,46L87,42L85,41L83,41L80,42L78,42L75,42L73,40L71,40L70,42L69,44L68,47L68,49L69,51L69,54L68,56L68,59L68,55L68,53L66,52L64,50L62,51L63,54L64,56L62,58L60,57L58,56L58,54L60,53L60,51L58,49L57,47L56,46L49,47L44,46L41,47L37,48L35,51L36,53L34,53L34,56L35,60L40,61L38,62L37,64L37,67L37,69L37,73L36,76L34,79L33,81L33,86L31,87L28,87L25,88L25,90L24,92L25,94L28,95L31,95L32,97L32,99L31,102L30,104L28,106L26,108L24,109L23,111L25,114L23,116L21,116L19,116L17,117L14,118L12,116L10,116L8,117L6,117L5,119L4,121L6,122L6,124L7,127L10,130L10,133L10,135L8,138L6,141L6,143L8,144L6,145L4,147L2,149L0,149L2,151L4,151L4,153L5,155L4,157L3,159L4,161L6,162L7,165L9,166L8,167L7,169L9,170L11,171L11,173L11,175L11,178L9,179L7,180L6,182L5,184L4,186L5,188L5,190L6,192L7,194L9,196L11,197L13,197L14,199L13,201L11,204L10,205L9,208L11,211L14,213L15,217L16,219L18,221L18,223L21,223L21,221L23,221L26,222L27,224L29,225L32,226L34,224L36,224L38,225L39,227L41,228L43,229L45,228L49,229L53,231L56,232L54,234L53,238L51,239L50,240L48,242L46,244L45,245L45,248L44,250L44,252L43,254L43,256L42,258L41,260L39,263L39,265L38,267L39,269L39,271L38,274L37,276L37,278L37,280L37,282L38,284L39,286L41,287L43,287L45,285L47,287L52,286L54,285L56,284L57,286L60,286L62,285L64,285L64,283L61,284L60,282L61,281L62,279L65,278L67,278L68,280L68,282L70,281L72,283L74,284L76,283L81,284L83,284L92,289L94,288L97,287L98,288L101,289L102,291L104,294L105,295L107,296L106,299Z M65,2L67,1L70,1L73,0L67,0L67,0L65,0L65,0L65,5Z" data-oid="DEU" />

</g>

</svg>

