<?xml version="1.0" standalone="no"?>
<!DOCTYPE svg PUBLIC "-//W3C//DTD SVG 1.1//EN" "http://www.w3.org/Graphics/SVG/1.1/DTD/svg11.dtd">

<svg style="stroke-width:1px; stroke-linejoin: round; stroke:#444; fill:white;" xmlns="http://www.w3.org/2000/svg" font-family="Helvetica, Arial, FreeSans, Sans, sans, sans-serif" height="301px" viewBox="0 0 600 301" width="600px" version="1.1" xmlns:xlink="http://www.w3.org/1999/xlink" enable-background="new 0 0 600 301">

<defs>

<style type="text/css">path { fill-rule: evenodd; }
#context path { fill: #eee; stroke: #bbb; }</style>

</defs>

<metadata>

<view>

<proj>

laea</proj>

<center>

51.106213,10.381548</center>

<bbox>

4003595.53,2786171.23,641248.56,850253.33</bbox>

<padding>

30.0</padding>

</view>

</metadata>

<g id="bg">

<rect y="0" width="600.0" style="stroke:none;fill:#d0ddf0" height="299" x="0" />

</g>

<g id="context">

<path data-regid="0.0" data-iso="AUT" d="M391,292L393,291L395,289L396,287L398,287L400,285L403,285L407,285L409,286L411,284L412,283L415,283L417,282L420,282L419,280L419,278L421,277L423,276L424,274L425,272L427,272L429,272L429,270L428,268L428,265L428,263L428,260L431,259L432,256L432,254L431,252L428,252L427,251L428,250L430,249L433,250L435,251L437,250L440,248L439,246L439,244L440,241L441,240L440,239L439,237L438,236L437,234L436,232L435,230L434,228L434,226L435,223L435,221L434,221L433,218L430,218L428,216L426,216L424,216L422,218L419,218L416,218L413,216L411,215L409,216L407,215L403,213L401,212L399,213L397,213L395,212L393,213L394,216L393,218L392,219L390,221L389,223L387,225L385,225L384,224L383,226L381,227L379,226L375,225L374,223L372,222L370,221L370,223L370,225L369,227L367,228L364,227L363,228L363,230L362,233L360,235L357,236L354,237L353,238L351,239L349,241L349,243L350,245L352,247L353,249L353,252L352,254L354,254L356,256L355,258L355,260L354,262L351,260L350,258L349,256L347,256L345,257L343,257L341,256L339,255L337,255L338,257L332,258L330,259L327,259L325,259L323,261L321,262L320,263L318,264L316,264L314,265L312,265L310,263L309,261L307,261L304,260L302,261L301,259L300,262L300,264L299,266L297,268L294,269L295,266L293,266L293,264L291,262L290,261L288,261L286,259L285,261L281,261L281,261L283,263L283,265L282,267L281,269L281,269L282,271L283,273L282,276L284,276L288,278L289,280L291,281L294,282L296,281L297,279L299,278L301,279L301,282L302,282L305,282L307,284L310,285L312,285L314,283L314,280L318,278L320,278L322,278L324,277L327,277L329,278L332,276L334,276L338,276L336,278L337,280L340,281L340,284L341,285L343,287L345,287L347,287L350,288L352,289L359,289L361,290L365,290L367,290L371,291L373,291L375,291L379,292L381,293L385,293L387,293L390,294Z" data-oid="AUT" />

<path data-regid="0.0" data-iso="BEL" d="M200,196L201,196L202,196L202,196L202,195L203,195L204,195L204,195L206,195L206,195L207,194L207,194L207,194L207,193L208,193L208,192L208,192L208,192L207,191L207,190L207,190L207,190L207,190L207,190L207,190L207,190L207,190L206,190L206,190L206,188L206,188L206,188L205,188L205,187L205,187L205,186L205,186L205,185L205,185L205,185L206,185L205,185L205,184L205,184L206,183L206,183L206,183L206,182L207,182L207,182L207,181L208,180L208,180L208,180L208,180L208,179L208,179L208,179L208,178L208,178L209,178L210,177L211,176L211,176L212,176L212,176L213,176L213,176L213,176L213,177L213,177L213,177L213,177L214,177L214,177L214,176L214,176L214,176L214,176L214,175L214,175L215,174L215,174L216,174L217,173L217,172L217,172L218,172L219,172L219,172L219,172L219,171L219,171L218,169L219,168L219,168L219,168L219,168L218,168L218,167L218,167L218,166L217,166L217,166L217,166L217,166L217,166L216,166L216,166L216,166L216,166L215,166L215,166L216,165L215,165L215,164L216,164L217,163L217,163L217,162L215,161L214,160L212,159L212,158L212,158L212,158L212,158L212,158L210,158L210,157L207,157L207,157L207,157L207,157L206,157L206,157L206,157L206,156L206,156L206,156L206,156L206,156L205,155L205,155L205,154L205,154L207,153L208,151L207,151L208,149L208,148L208,148L209,148L209,147L209,147L210,147L210,147L210,146L210,146L210,145L210,145L209,145L209,145L209,145L208,144L207,144L206,144L206,143L206,143L204,141L204,140L203,140L201,141L198,141L197,139L196,139L196,139L196,139L196,138L195,137L195,136L195,135L195,134L195,134L194,134L194,134L194,134L194,135L193,135L193,136L192,136L191,136L189,135L189,135L190,135L190,135L190,135L191,134L190,133L190,133L190,133L190,133L189,133L187,135L186,135L186,135L186,135L185,135L185,135L185,135L185,134L185,134L185,133L185,133L184,133L182,135L182,135L182,136L182,136L182,136L182,137L181,137L180,136L179,136L180,138L179,136L178,137L178,137L176,139L173,140L173,140L172,140L170,140L170,140L169,138L166,137L165,137L164,138L164,139L164,139L163,139L162,138L162,137L162,135L162,134L157,135L153,137L149,139L145,142L145,143L146,145L146,146L145,147L145,148L145,149L145,149L145,149L145,149L145,149L146,150L146,150L147,150L147,151L147,151L148,152L148,153L149,153L149,153L150,154L150,154L150,154L150,154L151,154L152,153L152,153L153,152L153,152L154,152L155,152L156,153L156,153L157,155L157,155L157,156L157,156L157,157L158,160L160,162L160,162L161,161L161,161L161,161L161,161L162,161L162,162L162,162L162,162L164,163L165,165L166,168L166,168L166,168L167,167L167,167L169,168L169,168L170,168L170,168L171,167L172,168L173,169L173,169L174,169L174,170L174,171L174,170L174,170L174,170L175,170L175,170L175,171L175,171L174,172L174,173L174,174L174,175L175,176L175,177L175,177L175,177L174,177L174,177L173,178L173,178L173,178L173,178L173,179L173,179L173,179L173,179L174,180L176,180L177,180L180,181L182,180L184,180L184,179L184,178L184,178L184,177L184,177L185,177L187,175L188,176L188,177L188,177L188,177L188,177L187,178L187,178L187,178L187,178L187,179L187,181L187,182L187,182L188,183L188,183L187,183L187,184L187,185L187,185L187,186L188,186L188,186L189,186L189,186L190,186L190,186L192,188L192,188L192,188L192,188L193,189L195,190L195,190L195,190L196,191L196,191L196,191L196,192L196,192L196,192L196,192L197,192L197,192L197,192L198,193L199,195L199,196L199,196Z" data-oid="BEL" />

<path data-regid="0.0" data-iso="BLR" d="M556,112L555,110L558,109L560,109L562,110L565,107L567,104L567,101L568,99L575,98L580,96L583,94L586,94L594,92L600,92L600,0L576,0L575,1L575,4L574,6L575,8L576,10L576,12L574,14L575,16L574,18L575,20L578,20L579,22L579,24L577,25L574,25L575,23L573,21L572,23L568,24L568,26L566,28L564,27L562,29L563,31L563,33L560,34L558,35L556,37L554,37L552,36L550,37L547,37L545,39L542,40L540,39L540,40L541,42L542,44L543,47L543,49L546,53L548,56L550,60L552,62L551,64L552,66L553,68L553,70L554,74L554,77L552,79L547,82L546,83L543,89L544,92L546,92L548,93L550,94L552,95L553,96L554,98L554,100L553,103L554,105L553,107L554,109L554,111L556,113Z" data-oid="BLR" />

<path data-regid="0.0" data-iso="CHE" d="M293,298L293,296L292,294L292,292L293,290L296,291L299,292L301,291L301,289L299,288L299,286L300,284L301,282L301,279L299,278L297,279L296,281L294,282L291,281L289,280L288,278L284,276L282,276L282,276L281,274L280,272L281,269L282,267L283,265L283,263L281,261L276,257L274,256L270,256L268,257L266,255L264,255L264,253L262,253L259,253L257,255L258,257L261,256L261,259L259,258L256,259L254,257L252,258L250,259L247,259L245,258L242,259L240,258L239,258L238,260L236,261L235,263L233,263L231,262L230,260L227,262L226,263L224,265L227,266L226,268L224,270L222,272L220,274L218,276L216,276L214,278L214,280L214,283L212,284L211,285L208,288L207,290L206,293L207,295L206,297L205,298L204,299L209,299L209,298L209,296L211,294L213,294L215,293L218,292L221,294L221,296L222,298L221,299L250,299L252,298L254,297L254,295L257,294L257,296L257,299L257,299L275,299L275,299L275,296L275,294L276,293L279,293L280,297L281,299L285,299L286,298L288,297L290,298L290,299L294,299Z" data-oid="CHE" />

<path data-regid="0.0" data-iso="CZE" d="M383,226L384,224L385,225L387,225L389,223L390,221L392,219L393,218L394,216L393,213L395,212L397,213L399,213L401,212L403,213L407,215L409,216L411,215L413,216L416,218L419,218L422,218L424,216L426,216L428,216L430,218L433,218L434,221L435,221L435,220L437,216L438,214L441,213L444,213L447,214L450,212L452,210L453,209L454,206L456,206L457,204L457,200L458,198L461,197L463,194L465,191L467,190L469,190L471,189L471,188L470,186L468,184L466,183L465,182L464,179L462,178L460,177L458,177L456,176L453,175L451,176L449,177L447,174L445,173L444,172L445,171L446,169L445,167L444,168L442,168L440,169L438,168L436,167L435,166L433,165L431,165L428,165L430,168L432,169L430,171L429,172L427,174L426,175L424,175L423,173L421,171L420,169L418,168L416,167L415,165L417,164L419,163L419,160L417,159L415,158L413,159L411,160L410,158L408,159L406,157L403,156L399,155L397,154L396,153L396,151L394,150L392,149L389,150L390,152L390,154L387,154L385,156L383,155L383,153L382,151L380,150L378,150L376,149L376,151L378,153L376,154L371,157L369,157L368,159L366,160L363,160L362,162L360,163L358,163L357,165L355,166L353,167L351,169L350,170L348,169L346,170L344,171L342,171L340,173L339,174L338,176L336,175L334,174L333,175L335,177L335,180L337,181L340,183L341,185L342,187L341,188L341,190L340,193L342,194L343,196L344,198L345,200L347,202L348,203L350,204L352,205L354,206L356,209L358,211L361,213L362,215L364,215L366,216L368,217L370,220L370,221L372,222L374,223L375,225L379,226L381,227Z" data-oid="CZE" />

<path data-regid="0.0" data-iso="DNK" d="M321,38L324,38L325,36L325,34L324,32L322,31L321,33L317,31L315,29L314,28L312,29L311,31L312,33L311,35L314,36L317,38L319,39Z M296,29L298,30L299,31L301,31Z M333,29L335,28L338,27L336,26L333,26L333,28L331,28L332,30Z M293,31L292,27L290,26L289,25L288,25L286,26L288,28L288,30L290,30L292,32Z M307,29L309,26L309,22L308,25L307,27L305,29L304,31L304,33L306,35Z M384,23L385,21L383,19L381,18L379,17L377,16L376,18L376,20L377,22L381,24L383,25Z M264,13L263,14L265,15Z M303,25L306,25L306,23L307,21L307,18L307,16L305,14L303,13L306,12L305,10L303,8L303,10L302,12L300,14L301,12L300,10L298,8L298,9L295,9L293,10L291,11L289,10L287,12L289,14L289,16L290,18L290,20L292,22L293,23L293,21L295,22L294,24L296,24L299,26L302,26Z M338,9L340,8L338,5L337,7L338,9Z M303,0L302,0L301,2L303,3Z M328,38L329,35L330,33L330,30L328,30L326,29L327,27L329,28L331,26L331,24L330,22L331,20L335,19L336,17L335,15L333,14L331,12L332,10L334,8L336,8L337,7L338,3L338,1L338,0L328,0L329,1L329,4L329,7L327,5L329,4L328,2L327,0L326,0L326,1L325,3L324,5L322,4L323,3L321,2L323,0L323,0L319,0L318,1L317,2L315,4L313,4L311,5L308,4L310,5L312,7L309,7L311,7L312,9L312,11L313,12L314,15L313,17L314,19L316,21L318,20L321,21L323,21L323,23L324,25L322,25L323,25L325,26L325,28L323,29L324,31L325,33L327,36L326,38L328,41Z M282,33L282,32L284,31L286,30L286,32L288,32L288,30L286,27L284,26L282,26L284,25L283,23L285,21L287,21L287,19L286,16L285,14L286,12L284,12L286,11L288,9L290,8L287,7L285,5L288,6L290,6L293,4L293,2L290,1L292,0L263,0L263,0L260,1L260,0L260,0L260,4L260,6L259,9L260,10L262,12L262,9L265,12L267,13L268,15L268,17L268,20L268,23L267,21L265,22L266,24L267,22L269,23L268,25L268,28L268,30L271,30L272,30L278,32L280,33Z M296,0L293,0L296,1Z" data-oid="DNK" />

<path data-regid="0.0" data-iso="FRA" d="M47,291L46,289L46,288L44,287L44,289L45,291L48,294Z M43,281L42,281L44,282L46,283Z M32,256L32,254L30,254L31,256L32,258Z M14,241L13,240L11,239L12,241Z M222,298L221,296L221,294L218,292L215,293L213,294L211,294L209,296L209,298L209,299L221,299Z M205,298L206,297L207,295L206,293L207,290L208,288L211,285L212,284L214,283L214,280L214,278L216,276L218,276L220,274L222,272L224,270L226,268L227,266L224,265L226,263L227,262L230,260L231,262L233,263L235,263L236,261L238,260L239,258L240,258L240,258L239,256L239,254L239,252L240,250L240,247L241,245L240,242L241,240L243,238L243,236L244,234L244,232L245,230L246,227L247,225L248,223L249,222L252,220L253,217L254,216L252,215L249,213L246,213L243,213L241,212L239,210L238,208L236,210L233,210L231,210L230,208L228,207L226,208L224,208L223,206L221,203L220,201L218,198L217,199L215,197L213,197L211,198L209,199L207,197L206,195L206,195L204,195L204,195L203,195L202,195L202,196L202,196L201,196L200,196L199,196L199,196L199,195L199,195L197,192L197,192L197,192L196,192L196,192L196,192L196,192L196,191L196,191L196,191L195,190L195,190L195,190L193,189L192,188L192,188L192,188L192,188L190,186L189,186L189,186L188,186L188,186L187,186L187,185L187,185L187,184L187,183L188,183L188,183L187,182L187,182L187,181L187,179L187,178L187,178L187,178L187,178L188,177L188,177L188,177L188,177L188,176L187,175L187,175L184,177L184,177L184,178L184,178L184,179L184,180L182,180L179,181L177,180L176,180L174,180L173,179L173,179L173,179L173,179L173,178L173,178L173,178L173,178L174,177L174,177L175,177L175,177L175,177L175,176L174,175L174,174L174,173L174,172L175,171L175,171L175,170L175,170L174,170L174,170L174,170L174,171L174,170L174,169L173,169L173,169L172,168L171,167L170,168L170,168L169,168L169,168L169,167L167,167L166,168L166,168L166,168L165,168L165,165L164,163L162,162L162,162L162,162L162,161L161,161L161,161L161,161L161,161L160,162L160,162L159,162L158,160L158,159L157,156L157,156L157,155L157,155L156,153L156,153L155,152L154,152L153,152L153,152L152,153L152,153L151,154L150,154L150,154L150,154L150,154L149,153L149,153L148,153L148,152L147,151L147,151L147,150L146,150L146,150L145,149L145,149L145,149L145,149L145,149L145,148L145,147L146,146L146,145L145,143L145,142L145,142L143,142L140,142L137,143L133,143L127,145L125,146L126,149L125,151L124,153L124,157L124,159L123,162L123,163L124,166L124,168L122,166L120,169L119,170L116,172L114,173L104,175L100,176L97,177L95,178L93,179L92,182L90,185L92,186L95,187L98,186L97,187L91,188L89,189L87,190L83,191L81,189L80,188L77,187L75,187L71,186L69,185L66,185L64,185L64,183L63,181L63,179L64,177L64,175L61,174L59,175L57,175L55,174L53,172L50,173L52,174L52,177L51,179L52,181L52,183L54,184L54,186L55,188L55,191L54,193L55,195L54,198L54,201L54,203L55,205L56,207L52,206L49,207L47,205L47,203L45,203L44,205L44,208L43,205L41,205L39,206L39,204L37,203L34,204L32,204L31,206L29,205L27,204L27,201L26,200L26,198L24,196L22,196L22,194L20,196L19,194L17,194L15,194L13,194L13,196L11,197L9,196L7,196L6,198L4,197L4,195L2,196L0,195L0,221L1,222L2,224L4,224L6,226L8,227L9,229L12,227L12,229L14,230L16,229L14,230L15,233L15,235L15,237L15,235L17,234L19,234L19,232L20,234L22,233L24,234L22,236L20,236L21,237L23,237L26,237L28,238L30,239L28,239L29,241L27,243L28,245L26,244L28,246L30,246L32,247L34,245L39,247L40,248L42,250L40,249L38,247L36,246L33,247L33,249L32,251L35,253L36,255L34,257L33,258L32,260L34,262L35,265L37,267L37,269L38,272L40,273L41,275L44,276L45,278L47,279L49,281L51,279L51,282L49,283L50,285L50,287L51,289L50,291L50,293L48,294L49,296L51,299L49,297L48,295L46,296L47,299L47,299L204,299Z" data-oid="FRA" />

<path data-regid="0.0" data-iso="GBR" d="M71,146L73,145L71,143L69,141L68,141L66,142L63,144L65,145L68,147Z M114,127L111,126L112,129L115,129Z M20,51L19,51L21,53Z M26,58L27,56L29,55L30,54L28,53L28,52L27,50L25,49L22,49L21,51L21,53L22,56L23,58Z M1,23L3,22L4,20L6,18L8,19L10,18L11,16L9,15L10,13L9,11L10,9L12,12L10,14L12,15L13,13L13,11L13,9L12,6L8,5L6,6L8,4L10,3L10,1L10,0L0,0L0,23Z M20,149L22,147L24,146L24,143L25,141L26,139L26,137L27,139L29,139L31,138L33,138L35,138L38,137L41,139L45,144L45,142L48,142L53,144L55,143L55,141L57,141L59,141L61,141L64,141L66,140L68,140L66,136L68,138L70,140L72,141L73,140L73,142L74,140L76,140L76,143L80,143L83,143L86,143L91,143L96,146L98,146L100,146L102,144L107,144L110,142L114,143L114,141L117,139L119,138L121,138L123,136L123,134L123,131L124,130L118,129L116,130L111,128L109,127L111,125L108,124L104,125L106,124L109,124L111,123L113,124L115,122L116,120L115,118L112,118L114,117L116,116L118,115L119,117L122,116L122,114L123,112L121,111L123,111L122,109L124,110L125,112L127,111L128,109L130,108L131,106L131,104L133,101L134,99L135,97L135,95L135,93L135,90L134,87L130,83L127,81L122,80L119,79L117,78L114,78L112,80L111,82L109,83L107,82L106,80L104,80L105,78L108,76L110,74L111,72L111,70L110,65L109,63L108,61L106,59L105,58L103,56L102,53L97,53L95,52L97,53L99,53L103,53L105,56L108,56L109,59L109,56L107,51L105,47L105,45L105,43L107,41L104,39L104,37L102,35L102,33L101,31L100,29L97,26L92,23L90,21L90,19L89,17L88,13L89,11L88,9L87,6L87,4L87,2L87,0L24,0L24,1L23,0L21,0L21,0L21,2L23,6L23,8L25,10L24,8L24,6L25,3L27,3L28,5L31,7L32,9L34,9L35,7L35,5L37,6L39,8L40,7L41,9L43,8L45,7L47,7L49,6L50,4L52,4L59,7L56,6L54,8L52,8L51,11L49,12L48,14L47,17L46,19L48,22L48,25L49,27L51,29L52,27L51,30L50,32L52,33L53,31L55,29L55,31L57,30L59,29L58,31L58,33L57,34L57,37L55,38L52,40L52,43L53,45L52,47L50,50L51,55L52,57L55,58L53,59L51,57L50,53L47,54L48,56L47,58L45,56L43,55L39,56L36,54L34,55L32,55L30,56L28,56L26,58L24,59L23,61L21,62L18,63L15,67L18,67L20,66L22,65L24,65L26,65L28,66L27,68L26,70L28,72L26,73L25,75L26,77L28,77L25,79L25,81L24,82L22,85L19,86L17,87L15,88L12,88L10,89L8,90L5,90L3,90L1,91L0,92L0,93L1,95L0,97L0,97L0,98L0,98L5,99L6,97L5,100L3,100L0,100L1,101L3,103L5,102L7,102L9,101L10,100L12,100L15,101L16,103L18,103L19,105L16,105L16,107L19,107L21,108L22,106L25,107L25,110L27,111L29,114L33,116L35,116L37,114L38,113L41,112L43,112L45,112L47,111L48,109L50,108L52,108L50,109L48,111L45,114L43,115L41,116L39,118L38,120L37,122L35,122L33,122L30,121L26,119L22,118L19,118L14,118L14,120L13,122L11,124L9,123L7,124L6,126L5,130L3,131L1,132L0,134L0,143L0,143L4,143L7,143L10,143L8,142L10,143L11,144L12,146L14,146L16,149L19,150Z" data-oid="GBR" />

<path data-regid="1.0" data-iso="GGY" d="M37,178L37,177L35,178L37,179Z" data-oid="GGY" />

<path data-regid="0.0" data-iso="HRV" d="M447,298L445,298L443,297L442,296L440,293L439,291L437,291L435,290L433,288L431,288L430,287L428,287L428,287L426,288L426,290L426,292L424,292L422,292L422,294L420,295L417,296L416,298L413,299L413,299L448,299Z" data-oid="HRV" />

<path data-regid="0.0" data-iso="HUN" d="M489,298L489,298L490,298L492,298L492,297L493,296L493,296L494,296L494,296L495,296L495,295L495,295L495,295L496,294L496,294L497,293L497,293L497,293L497,293L497,292L497,292L498,292L498,291L498,291L500,291L502,291L503,292L506,290L506,290L508,291L509,290L510,290L510,290L510,291L511,291L511,290L511,290L513,291L514,290L518,289L521,290L523,288L523,286L525,285L527,285L530,285L532,282L532,279L534,278L533,275L533,273L535,272L537,270L537,267L537,265L538,263L539,261L539,259L541,256L541,254L542,252L542,249L543,247L544,245L544,242L546,240L547,239L548,236L549,235L551,234L552,232L555,233L557,232L558,230L559,228L560,226L559,224L559,222L556,222L554,222L552,220L550,218L548,219L547,217L546,215L545,214L543,214L542,215L540,216L538,217L535,218L533,217L532,215L531,213L529,213L527,212L525,213L523,214L520,215L518,214L516,214L514,213L509,215L508,218L507,219L506,224L504,224L502,225L501,227L499,228L497,230L495,229L494,228L492,227L490,228L489,230L488,232L484,233L481,233L479,234L476,235L474,238L474,240L475,242L473,244L471,243L467,244L464,245L462,245L454,246L452,245L450,244L448,243L446,240L443,239L441,240L440,241L439,244L439,246L440,248L437,250L435,251L433,250L430,249L428,250L427,251L428,252L431,252L432,254L432,256L431,259L428,260L428,263L428,265L428,268L429,270L429,272L427,272L425,272L424,274L423,276L421,277L422,277L425,277L426,279L427,281L429,282L428,284L430,286L431,288L433,288L435,290L437,291L439,291L440,293L442,296L443,297L445,298L447,298L448,299L487,299Z" data-oid="HUN" />

<path data-regid="1.0" data-iso="IMN" d="M27,27L29,26L31,24L32,22L31,21L31,19L28,20L25,23L24,25L24,27L26,28Z" data-oid="IMN" />

<path data-regid="0.0" data-iso="ITA" d="M290,298L288,297L286,298L285,299L290,299Z M257,299L257,296L257,294L254,295L254,297L252,298L250,299L257,299Z M280,297L279,293L276,293L275,294L275,296L275,299L275,299L281,299Z M365,297L366,296L368,294L370,293L371,291L367,290L365,290L361,290L359,289L352,289L350,288L347,287L345,287L343,287L341,285L340,284L340,281L337,280L336,278L338,276L334,276L332,276L329,278L327,277L324,277L322,278L320,278L318,278L314,280L314,283L312,285L310,285L307,284L305,282L302,282L301,282L300,284L299,286L299,288L301,289L301,291L299,292L296,291L293,290L292,292L292,294L293,296L293,298L294,299L364,299Z" data-oid="ITA" />

<path data-regid="1.0" data-iso="JEY" d="M47,186L45,185L44,185L42,185L42,187L44,187L46,188Z" data-oid="JEY" />

<path data-regid="0.0" data-iso="LIE" d="M282,276L283,273L282,271L281,269L281,269L280,272L281,274L282,276Z" data-oid="LIE" />

<path data-regid="0.0" data-iso="LTU" d="M488,4L489,3L489,0L489,0L488,0L488,2L487,5Z M545,39L547,37L550,37L552,36L554,37L556,37L558,35L560,34L563,33L563,31L562,29L564,27L566,28L568,26L568,24L572,23L573,21L575,23L574,25L577,25L579,24L579,22L578,20L575,20L574,18L575,16L574,14L576,12L576,10L575,8L574,6L575,4L575,1L576,0L492,0L492,0L491,2L493,3L493,5L495,4L497,6L499,6L501,7L503,8L506,8L507,9L509,9L511,8L515,8L517,8L518,10L520,10L522,12L523,13L523,15L522,18L522,20L522,22L522,24L523,27L524,28L526,27L528,27L529,29L531,29L533,30L536,31L538,32L539,34L539,37L540,39L542,40Z" data-oid="LTU" />

<path data-regid="0.0" data-iso="LUX" d="M217,196L218,194L220,191L221,188L219,188L217,187L215,185L214,183L213,181L213,178L213,177L213,177L213,177L213,177L213,177L213,176L213,176L213,176L212,176L212,176L212,176L211,176L211,176L210,177L209,178L208,178L208,178L208,179L208,179L208,179L208,180L208,180L208,180L208,180L207,181L207,182L207,182L206,182L206,183L206,183L206,183L205,184L205,184L205,185L206,185L205,185L205,185L205,185L205,186L205,186L205,187L205,187L205,188L206,188L206,188L206,188L206,190L206,190L207,190L207,190L207,190L207,190L207,190L207,190L207,190L207,190L207,191L208,192L208,192L208,192L208,193L207,193L207,194L207,194L207,194L207,197L209,199L211,198L213,197L215,197L217,199Z" data-oid="LUX" />

<path data-regid="0.0" data-iso="NLD" d="M173,140L174,140L176,139L178,137L178,137L179,136L178,136L176,135L174,135L172,136L169,135L169,135L165,133L162,135L162,135L162,137L162,138L163,139L164,139L164,139L164,138L165,137L166,137L167,137L170,140L170,140L170,140L173,140Z M177,127L176,125L174,124L172,123L169,125L171,125L173,126L175,128Z M196,83L196,82L195,81L193,82L192,85L194,85Z M197,78L200,77L198,77L197,79Z M207,74L207,73L210,73L206,74L204,74L202,75Z M212,155L214,153L213,151L210,151L210,148L212,148L214,146L216,145L214,143L216,140L217,138L218,136L217,133L215,131L215,129L214,127L213,125L215,124L217,124L219,123L221,125L223,124L227,123L229,122L230,121L228,119L229,117L231,116L233,114L235,112L235,110L235,108L234,106L232,106L230,105L229,103L229,101L230,99L233,100L235,99L236,95L237,93L238,91L239,89L239,85L239,83L239,81L238,81L236,79L234,77L233,75L233,74L231,74L227,74L222,75L217,75L214,76L211,77L209,78L207,79L206,81L205,84L203,85L197,88L194,89L192,88L192,90L191,93L190,95L188,103L187,106L184,110L182,113L179,116L176,116L177,119L177,121L175,121L173,122L176,122L176,124L177,126L178,128L175,129L177,130L179,131L180,133L178,134L176,133L175,131L173,129L172,128L166,128L164,129L165,131L167,132L169,133L171,134L173,134L175,133L177,135L179,136L180,136L181,137L182,137L182,136L182,136L182,136L182,135L182,135L182,134L184,133L185,133L185,133L185,134L185,134L185,135L185,135L185,135L186,135L186,135L186,135L187,135L187,135L190,133L190,133L190,133L190,133L191,134L190,135L190,135L189,135L189,135L191,136L192,136L193,136L193,135L194,135L194,134L194,134L194,134L195,134L195,134L195,135L195,136L195,137L196,138L196,139L196,139L196,139L197,139L198,141L199,141L203,140L204,140L204,141L204,142L206,143L206,144L207,144L208,144L209,145L209,145L209,145L210,145L210,145L210,146L210,146L210,147L210,147L209,147L209,147L209,148L208,148L208,148L208,149L207,151L208,151L207,153L205,154L205,154L205,155L205,155L206,156L206,156L206,156L206,156L206,156L206,157L206,157L206,157L207,157L207,157L207,157L207,157L208,157L210,158L212,158Z M216,73L211,73L213,73Z" data-oid="NLD" />

<path data-regid="0.0" data-iso="POL" d="M495,196L497,196L497,193L499,191L501,189L504,189L506,189L509,188L512,190L515,190L517,188L517,186L519,186L521,185L525,185L527,184L529,185L532,185L534,186L535,188L536,190L538,190L541,191L543,191L545,192L548,192L548,192L550,193L552,193L554,193L554,191L552,190L550,188L551,185L550,183L549,181L548,179L548,177L549,174L550,172L552,169L553,167L555,162L556,160L560,154L562,152L563,150L565,147L569,146L569,143L571,141L570,140L570,138L568,136L566,134L568,133L569,131L566,130L564,128L564,126L563,124L560,122L557,119L558,117L557,115L556,113L554,111L554,109L553,107L554,105L553,103L554,100L554,98L553,96L552,95L550,94L548,93L546,92L544,92L543,89L546,83L547,82L552,79L554,77L554,74L553,70L553,68L552,66L551,64L552,62L550,60L548,56L546,53L543,49L543,47L542,44L541,42L540,40L540,39L539,37L539,34L538,32L536,31L533,30L531,29L529,29L528,27L526,27L524,28L523,29L520,29L515,30L505,31L497,32L491,32L480,33L473,34L467,34L467,34L465,36L463,37L456,39L454,39L449,37L448,35L448,33L446,30L445,28L445,26L447,27L450,28L452,30L451,28L442,25L439,25L434,26L432,27L425,29L420,32L417,35L415,36L412,36L409,39L407,43L404,46L402,46L399,47L396,49L392,50L389,51L384,54L380,55L375,58L373,59L370,59L370,61L370,61L372,62L374,61L378,62L377,64L376,66L377,69L376,67L373,66L371,66L372,69L372,71L373,73L374,76L374,78L375,80L374,82L374,86L372,88L370,89L371,91L371,93L372,94L375,96L376,98L378,99L380,101L380,103L379,106L379,108L380,110L382,111L382,114L383,116L382,119L382,121L381,124L382,126L382,128L384,130L383,132L385,134L388,135L389,139L390,141L390,143L390,145L389,148L388,150L388,152L387,154L390,154L390,152L389,150L392,149L394,150L396,151L396,153L397,154L399,155L403,156L406,157L408,159L410,158L411,160L413,159L415,158L417,159L419,160L419,163L417,164L415,165L416,167L418,168L420,169L421,171L423,173L424,175L426,175L427,174L429,172L430,171L432,169L430,168L428,165L431,165L433,165L435,166L436,167L438,168L440,169L442,168L444,168L445,167L446,169L445,171L444,172L445,173L447,174L449,177L451,176L453,175L456,176L458,177L460,177L462,178L464,179L465,182L466,183L468,184L470,186L471,188L471,189L473,191L475,193L477,192L479,190L479,188L481,187L483,185L484,187L486,189L487,191L488,191L491,192L491,195L490,196L493,197Z" data-oid="POL" />

<path data-regid="0.0" data-iso="ROU" d="M600,223L597,222L596,220L593,220L591,221L588,223L585,222L583,221L581,223L579,222L577,222L574,222L572,223L569,222L567,221L564,221L563,224L561,224L560,226L559,228L558,230L557,232L555,233L552,232L551,234L549,235L548,236L547,239L546,240L544,242L544,245L543,247L542,249L542,252L541,254L541,256L539,259L539,261L538,263L537,265L537,267L537,270L535,272L533,273L533,275L534,278L532,279L532,282L530,285L527,285L525,285L523,286L523,288L521,290L518,289L514,290L513,291L514,293L515,293L516,295L516,295L517,296L519,297L520,297L520,297L520,297L521,297L521,297L521,297L522,299L522,299L522,299L600,299Z" data-oid="ROU" />

<path data-regid="0.0" data-iso="RUS" d="M480,33L491,32L497,32L505,31L515,30L520,29L523,29L524,28L523,27L522,24L522,22L522,20L522,18L523,15L523,13L522,12L520,10L518,10L517,8L515,8L511,8L509,9L507,9L506,8L503,8L501,7L499,6L497,6L495,4L493,5L493,5L492,7L492,9L493,12L493,15L491,16L487,17L485,16L482,15L484,13L486,9L487,7L487,5L485,8L483,13L480,16L478,17L475,17L473,17L471,18L471,20L472,22L472,25L471,27L470,29L469,31L467,34L473,34Z" data-oid="RUS" />

<path data-regid="0.0" data-iso="SRB" d="M522,299L522,299L521,297L521,297L520,297L520,297L520,297L519,297L519,297L516,295L516,295L515,293L514,293L511,290L511,290L511,291L510,291L510,290L510,290L509,290L508,291L508,291L506,290L505,291L502,291L501,291L500,291L500,291L498,291L498,292L497,292L497,292L497,293L497,293L497,293L497,293L496,294L496,294L495,295L495,295L495,295L495,296L494,296L494,296L493,296L493,296L492,297L492,298L492,298L489,298L489,298L488,297L487,299L522,299Z" data-oid="SRB" />

<path data-regid="0.0" data-iso="SVK" d="M462,245L464,245L467,244L471,243L473,244L475,242L474,240L474,238L476,235L479,234L481,233L484,233L488,232L489,230L490,228L492,227L494,228L495,229L497,230L499,228L501,227L502,225L504,224L506,224L507,219L508,218L509,215L514,213L516,214L518,214L520,215L523,214L525,213L527,212L529,213L531,213L532,215L533,217L535,218L538,217L540,216L542,215L543,214L542,211L542,209L544,206L545,204L545,202L545,199L546,197L548,195L548,192L545,192L543,191L541,191L538,190L536,190L535,188L534,186L532,185L529,185L527,184L525,185L521,185L519,186L517,186L517,188L515,190L512,190L509,188L506,189L504,189L501,189L499,191L497,193L497,196L495,196L493,197L490,196L491,195L491,192L488,191L487,191L486,189L484,187L483,185L481,187L479,188L479,190L477,192L475,193L473,191L471,189L469,190L467,190L465,191L463,194L461,197L458,198L457,200L457,204L456,206L454,206L453,209L452,210L450,212L447,214L444,213L441,213L438,214L437,216L435,220L435,221L435,223L434,226L434,228L435,230L436,232L437,234L438,236L439,237L440,239L441,240L443,239L446,240L448,243L450,244L452,245L454,246Z" data-oid="SVK" />

<path data-regid="0.0" data-iso="SVN" d="M413,299L416,298L417,296L420,295L422,294L422,292L424,292L426,292L426,290L426,288L428,287L428,287L430,287L431,288L430,286L428,284L429,282L427,281L426,279L425,277L422,277L421,277L419,278L419,280L420,282L417,282L415,283L412,283L411,284L409,286L407,285L403,285L400,285L398,287L396,287L395,289L393,291L391,292L390,294L387,293L385,293L381,293L379,292L375,291L373,291L371,291L370,293L368,294L366,296L365,297L364,299L413,299Z" data-oid="SVN" />

<path data-regid="0.0" data-iso="SWE" d="M353,15L355,14L357,13L361,13L363,12L365,14L367,13L369,11L370,8L368,6L368,4L366,2L367,0L343,0L344,0L344,3L346,4L346,6L345,8L344,10L345,13L344,14L346,14L348,15L351,16Z" data-oid="SWE" />

<path data-regid="0.0" data-iso="UKR" d="M561,224L563,224L564,221L567,221L569,222L572,223L574,222L577,222L579,222L581,223L583,221L585,222L588,223L591,221L593,220L596,220L597,222L600,223L600,92L594,92L586,94L583,94L580,96L575,98L568,99L567,101L567,104L565,107L562,110L560,109L558,109L555,110L556,112L556,113L557,115L558,117L557,119L560,122L563,124L564,126L564,128L566,130L569,131L568,133L566,134L568,136L570,138L570,140L571,141L569,143L569,146L565,147L563,150L562,152L560,154L556,160L555,162L553,167L552,169L550,172L549,174L548,177L548,179L549,181L550,183L551,185L550,188L552,190L554,191L554,193L552,193L550,193L548,192L548,192L548,195L546,197L545,199L545,202L545,204L544,206L542,209L542,211L543,214L545,214L546,215L547,217L548,219L550,218L552,220L554,222L556,222L559,222L559,224L560,226Z" data-oid="UKR" />

</g>

<g id="DEU">

<path data-iso="DEU" d="M238,67L237,67L234,67Z M243,66L243,66L240,67Z M248,65L248,65L246,66Z M251,65L252,65L249,65Z M320,58L318,58L319,60Z M368,61L370,61L370,59L369,58L365,55L365,55L363,53L361,52L362,54L362,56L364,57L366,56L366,58L364,58L365,60L363,61L365,62Z M315,44L314,42L312,42L312,44L314,45L316,46Z M349,41L350,39L348,40L348,43Z M355,48L356,47L358,47L361,47L360,45L358,44L357,42L359,40L358,39L354,39L354,37L354,36L352,38L352,40L353,40L352,41L350,42L352,43L350,44L351,46L349,47L351,49L353,50L355,50Z M354,41L354,39L353,40L353,39L354,39L354,39L356,40Z M262,36L262,36L263,38Z M267,36L265,35L264,36L266,37Z M297,268L299,266L300,264L300,262L301,259L302,261L304,260L307,261L309,261L310,263L312,265L314,265L316,264L318,264L320,263L321,262L323,261L325,259L327,259L330,259L332,258L338,257L337,255L339,255L341,256L343,257L345,257L347,256L349,256L350,258L351,260L354,262L355,260L355,258L356,256L354,254L352,254L353,252L353,249L352,247L350,245L349,243L349,241L351,239L353,238L354,237L357,236L360,235L362,233L363,230L363,228L364,227L367,228L369,227L370,225L370,223L370,221L370,220L368,217L366,216L364,215L362,215L361,213L358,211L356,209L354,206L352,205L350,204L348,203L347,202L345,200L344,198L343,196L342,194L340,193L341,190L341,188L342,187L341,185L340,183L337,181L335,180L335,177L333,175L334,174L336,175L338,176L339,174L340,173L342,171L344,171L346,170L348,169L350,170L351,169L353,167L355,166L357,165L358,163L360,163L362,162L363,160L366,160L368,159L369,157L371,157L376,154L378,153L376,151L376,149L378,150L380,150L382,151L383,153L383,155L385,156L387,154L388,152L388,150L389,148L390,145L390,143L390,141L389,139L388,135L385,134L383,132L384,130L382,128L382,126L381,124L382,121L382,119L383,116L382,114L382,111L380,110L379,108L379,106L380,103L380,101L378,99L376,98L375,96L372,94L371,93L371,91L370,89L372,88L374,86L374,82L375,80L374,78L374,76L373,73L372,71L372,69L371,66L370,65L368,65L366,64L364,63L363,61L364,59L363,57L361,56L362,54L360,52L358,53L356,54L355,53L353,51L351,50L349,48L348,46L347,44L345,45L343,46L341,46L339,47L337,48L336,50L336,48L337,46L339,45L341,44L344,44L338,43L337,45L336,47L334,50L332,51L331,53L331,55L330,53L325,54L323,54L322,56L320,58L319,59L319,61L317,60L315,60L314,58L311,58L309,60L307,59L306,57L308,56L310,54L312,52L312,49L313,46L311,47L309,47L307,48L305,49L303,47L299,45L297,46L295,47L295,45L294,43L289,44L292,43L293,41L293,38L292,36L291,34L289,34L287,33L284,32L282,33L280,33L278,32L272,30L271,30L268,30L268,31L268,33L269,36L271,37L272,40L274,42L274,44L271,45L269,45L267,46L267,48L267,50L270,49L272,50L270,52L271,54L273,54L274,56L273,57L271,57L273,62L275,62L279,62L281,64L282,66L283,68L284,71L286,72L289,73L286,72L284,71L282,68L281,67L279,63L277,63L274,63L272,64L270,63L268,62L266,63L265,65L264,68L264,70L265,72L264,75L264,77L264,74L264,72L262,71L259,71L259,73L261,75L259,77L257,75L256,73L258,72L257,70L255,68L254,67L248,67L245,67L242,67L239,69L239,71L237,72L236,74L237,78L240,79L241,79L243,79L240,79L239,81L239,83L239,85L239,89L238,91L237,93L236,95L235,99L233,100L230,99L229,101L229,103L230,105L232,106L234,106L235,108L235,110L235,112L233,114L231,116L229,117L228,119L230,121L229,122L227,123L223,124L221,125L219,123L217,124L215,124L213,125L214,127L215,129L215,131L217,133L218,136L217,138L216,140L214,143L216,145L214,146L212,148L210,148L210,151L213,151L214,153L212,155L212,158L212,158L212,158L212,158L212,159L212,159L214,160L215,161L215,161L217,163L217,163L216,164L215,164L215,165L216,165L215,166L215,166L216,166L216,166L216,166L216,166L217,166L217,166L217,166L217,166L217,166L218,166L218,167L218,167L218,168L219,168L219,168L219,168L219,168L218,169L218,169L219,171L219,172L219,172L219,172L218,172L217,172L217,172L217,173L216,174L215,174L215,174L214,175L214,175L214,176L214,176L214,176L214,176L214,177L214,177L213,177L213,178L213,181L214,183L215,185L217,187L219,188L221,188L220,191L218,194L217,196L217,199L218,198L220,201L221,203L223,206L224,208L226,208L228,207L230,208L231,210L233,210L236,210L238,208L239,210L241,212L243,213L246,213L249,213L252,215L254,216L253,217L252,220L249,222L248,223L247,225L246,227L245,230L244,232L244,234L243,236L243,238L241,240L240,242L241,245L240,247L240,250L239,252L239,254L239,256L240,258L242,259L245,258L247,259L250,259L252,258L254,257L256,259L259,258L261,259L261,256L258,257L257,255L259,253L262,253L264,253L264,255L266,255L268,257L270,256L274,256L276,257L281,261L285,261L286,259L288,261L290,261L291,262L293,264L293,266L295,266L294,269Z M263,31L265,30L268,30L263,30L263,28L263,26L261,30L261,34Z" />

</g>

</svg>

