<?xml version="1.0" standalone="no"?>
<!DOCTYPE svg PUBLIC "-//W3C//DTD SVG 1.1//EN" "http://www.w3.org/Graphics/SVG/1.1/DTD/svg11.dtd">

<svg style="stroke-width:1px; stroke-linejoin: round; stroke:#444; fill:white;" xmlns="http://www.w3.org/2000/svg" font-family="Helvetica, Arial, FreeSans, Sans, sans, sans-serif" height="296px" viewBox="0 0 300 296" width="300px" version="1.1" xmlns:xlink="http://www.w3.org/1999/xlink" enable-background="new 0 0 300 296"><defs><style type="text/css">path { fill-rule: evenodd; }
#context path { fill: #eee; stroke: #bbb; }</style></defs><metadata><view><proj>laea</proj><center>42.171613,-2.770333</center><bbox>4171694.04,2208015.32,984691.70,971498.56</bbox><padding>0.0</padding></view></metadata><g id="FRA"><path data-fips="B9" data-iso="FRA" d="M248,227L251,226L250,223L248,221L246,221L244,220L245,218L245,216L248,217L249,215L248,213L248,211L251,210L252,209L252,207L254,206L255,204L258,203L260,202L262,202L265,201L264,199L263,197L261,197L261,195L262,193L263,193L264,195L267,195L268,193L270,192L272,191L274,191L276,190L277,188L280,188L280,185L281,183L281,181L279,179L276,178L276,176L275,174L273,173L271,172L271,169L273,167L275,166L276,164L275,162L271,160L271,158L269,157L269,155L269,152L268,150L268,148L264,147L261,148L259,150L257,150L256,152L256,154L257,156L256,157L253,159L251,159L251,157L253,156L253,154L254,152L252,150L250,153L249,155L247,156L244,155L242,154L240,156L238,156L237,154L235,152L234,151L231,150L230,149L228,150L226,150L225,152L225,154L224,156L223,159L223,161L221,160L220,158L218,159L216,158L214,158L213,160L212,162L210,162L208,162L206,162L204,163L202,162L202,160L199,161L200,163L200,165L200,168L200,170L199,172L199,174L198,176L200,178L201,181L205,184L206,186L205,188L206,190L208,191L211,189L213,189L215,190L215,192L217,193L218,195L216,197L216,199L215,201L214,203L213,205L211,206L209,207L207,209L205,211L205,212L206,214L207,216L208,218L209,221L210,223L211,225L214,225L217,225L219,224L220,225L222,224L224,225L226,225L226,224L228,224L229,226L231,225L233,224L235,224L238,224L238,226L241,226L243,226L245,228L247,229Z" data-oid="1265" /><path data-fips="99" data-iso="FRA" d="M127,99L126,96L127,94L130,93L130,90L129,88L127,86L126,84L124,82L124,80L122,79L120,77L116,76L117,73L116,71L116,69L116,67L115,65L114,63L114,60L113,58L111,59L108,61L106,62L102,64L100,62L98,62L95,61L93,61L89,61L86,60L83,60L81,61L81,59L79,56L78,54L80,52L79,50L75,50L73,52L71,51L68,51L66,50L64,51L66,52L66,55L66,57L67,59L68,61L69,63L70,65L72,67L72,69L72,71L73,73L73,76L73,80L73,82L75,84L77,85L74,86L72,86L73,87L74,89L75,91L77,92L79,90L81,89L84,90L86,91L88,90L90,92L92,92L94,92L96,91L99,90L101,89L103,88L104,89L105,90L107,92L107,94L109,94L111,92L112,91L115,90L117,92L117,94L118,96L120,97L123,98L124,99L127,100Z" data-oid="2661" /><path data-fips="A2" data-iso="FRA" d="M38,130L37,129L35,129L35,131Z M54,126L56,126L58,125L60,125L61,123L62,120L63,119L65,118L68,118L71,117L73,115L76,113L78,114L81,114L81,112L82,110L83,108L85,106L84,104L84,100L84,98L84,95L84,93L84,90L81,89L79,90L77,92L75,91L74,89L73,87L72,86L72,86L69,87L66,86L67,84L63,84L63,86L64,89L63,87L61,86L60,88L58,87L56,86L56,84L54,86L52,87L51,88L49,89L47,89L45,87L45,85L43,84L42,82L40,80L39,81L39,79L37,79L36,81L34,79L31,80L29,79L28,81L29,83L26,84L24,83L22,84L21,86L19,84L17,83L15,84L14,85L12,86L10,85L8,86L6,87L4,88L2,89L1,91L1,93L1,96L4,95L6,95L9,94L12,93L9,96L12,96L14,97L11,97L8,97L6,96L4,98L5,99L5,101L7,100L9,100L11,100L12,103L10,103L1,106L4,106L6,106L8,108L10,111L9,114L14,114L14,112L16,112L18,112L19,111L20,113L22,114L25,114L27,115L29,116L30,118L32,116L34,115L33,117L34,118L36,118L37,116L38,118L36,120L38,122L38,124L39,122L40,121L42,122L42,120L44,121L46,120L48,121L46,123L44,123L45,125L47,124L50,124L52,124L55,124L53,126Z" data-oid="2662" /><path data-fips="B7" data-iso="FRA" d="M83,178L82,176L81,175L80,174L78,173L79,176L80,177L81,179L83,180Z M76,166L75,167L77,168L80,168Z M111,204L112,201L115,200L116,199L118,197L118,195L119,193L122,191L123,189L124,187L125,185L126,183L128,181L130,180L130,177L131,176L133,174L131,173L130,170L130,167L130,165L132,164L134,162L136,161L138,160L137,157L136,155L133,154L132,152L131,150L131,148L129,147L126,143L125,141L123,141L121,142L119,142L117,141L117,139L116,138L114,137L112,136L111,135L110,135L109,137L107,138L106,137L104,137L100,138L98,138L97,140L95,141L92,141L89,142L91,144L91,146L93,148L94,150L95,153L96,155L96,157L96,161L97,162L95,164L93,164L91,163L89,164L87,163L84,164L85,166L82,169L84,170L85,172L85,174L86,176L85,178L84,180L85,182L88,184L86,183L84,181L82,182L82,185L84,185L86,186L88,189L93,192L94,194L95,197L96,197L98,197L100,198L102,199L102,201L104,202L106,204L109,204Z" data-oid="2663" /><path data-fips="A5" data-iso="FRA" d="M59,142L59,142L57,141L59,142L60,144Z M95,164L97,162L96,161L96,157L96,155L95,153L94,150L93,148L91,146L91,144L89,142L92,141L95,141L97,140L98,138L100,138L104,137L106,137L107,138L109,137L110,135L111,135L111,132L112,129L114,127L114,125L114,121L116,120L119,119L121,118L123,116L124,114L126,113L126,111L127,109L128,106L127,104L127,102L129,101L127,100L124,99L123,98L120,97L118,96L117,94L117,92L115,90L112,91L111,92L109,94L107,94L107,92L105,90L104,89L103,88L101,89L99,90L96,91L94,92L92,92L90,92L88,90L86,91L84,90L84,93L84,95L84,98L84,100L84,104L85,106L83,108L82,110L81,112L81,114L78,114L76,113L73,115L71,117L68,118L65,118L63,119L62,120L61,123L60,125L58,125L56,126L54,126L53,126L53,127L52,130L53,131L51,131L54,132L56,133L58,132L60,131L63,131L65,131L67,132L70,134L67,133L65,132L63,131L60,133L60,135L59,137L63,138L64,140L63,142L61,144L61,146L62,148L64,150L66,152L67,154L68,156L69,158L71,159L73,161L76,161L77,163L80,164L82,164L84,164L87,163L89,164L91,163L93,164Z" data-oid="2664" /><path data-fips="97" data-iso="FRA" d="M102,282L105,282L107,281L107,280L107,277L107,275L109,274L110,272L111,271L112,268L113,267L114,264L114,262L113,259L113,257L111,256L109,255L107,254L108,252L109,250L109,248L109,246L109,244L111,244L113,243L114,245L115,243L117,242L118,241L120,241L122,240L126,239L128,238L130,239L131,238L133,236L135,236L135,234L136,231L134,230L136,228L139,228L138,225L137,223L138,221L140,220L141,217L143,216L144,214L145,212L147,211L147,209L147,206L146,204L145,202L143,201L141,200L142,198L142,196L142,194L142,192L139,191L139,189L137,188L136,186L134,186L132,187L129,186L129,184L127,184L126,183L125,185L124,187L123,189L122,191L119,193L118,195L118,197L116,199L115,200L112,201L111,204L109,204L106,204L104,202L102,201L102,199L100,198L98,197L96,197L95,197L96,204L97,206L99,207L100,208L98,207L99,209L99,212L99,209L98,208L96,206L95,203L94,198L93,196L89,193L87,191L85,190L85,192L84,199L83,204L82,221L83,218L85,216L87,218L86,220L84,220L83,223L83,225L83,227L82,232L81,242L80,246L79,248L78,253L78,255L77,258L75,261L73,262L70,263L70,265L71,266L73,266L74,268L76,267L79,267L80,269L79,271L78,273L79,275L81,274L83,272L83,274L85,275L88,276L90,277L93,278L96,278L97,280L98,281L100,283Z" data-oid="2665" /><path data-fips="B8" data-iso="FRA" d="M259,262L261,261L263,262L266,262L267,260L269,260L271,261L271,259L273,258L275,257L277,257L278,256L278,254L276,253L278,252L279,250L281,249L283,247L284,245L286,244L288,243L288,241L289,239L291,238L293,237L295,236L296,234L296,231L297,229L298,227L299,225L299,223L298,221L296,222L291,224L289,223L285,221L282,221L281,219L279,218L279,215L278,213L277,211L279,208L279,206L282,206L281,204L280,201L278,200L276,200L273,198L273,196L270,194L270,192L268,193L267,195L264,195L263,193L262,193L261,195L261,197L263,197L264,199L265,201L262,202L260,202L258,203L255,204L254,206L252,207L252,209L251,210L248,211L248,213L249,215L248,217L245,216L245,218L244,220L246,221L248,221L250,223L251,226L248,227L247,229L245,228L243,226L241,226L238,226L238,224L235,224L233,224L231,225L229,226L228,224L226,224L226,225L226,226L227,228L228,230L229,232L230,235L229,237L228,238L227,240L227,242L226,245L223,245L222,247L223,249L221,250L219,252L218,253L225,253L227,254L228,256L231,255L230,253L229,249L230,251L231,254L233,254L235,253L238,253L237,251L238,249L240,251L242,252L240,253L237,254L239,256L241,256L245,255L246,257L246,259L248,259L250,259L252,260L254,260L256,261L257,263Z" data-oid="2667" /><path data-fips="A9" data-iso="FRA" d="M168,293L170,293L173,292L176,293L177,295L179,294L181,293L184,292L186,290L188,289L191,290L193,291L195,290L194,288L192,286L191,282L191,278L189,277L190,275L191,273L191,271L192,268L193,266L194,264L198,261L201,261L203,257L206,256L208,254L205,255L207,253L209,251L211,250L214,250L211,250L214,250L216,253L218,253L219,252L221,250L223,249L222,247L223,245L226,245L227,242L227,240L228,238L229,237L230,235L229,232L228,230L227,228L226,226L226,225L224,225L222,224L220,225L219,224L217,225L214,225L211,225L210,223L209,221L208,218L207,216L206,214L205,212L205,211L203,210L201,209L199,207L198,209L195,209L192,205L190,206L189,208L187,209L185,211L185,214L184,216L187,219L187,221L188,223L188,225L189,227L190,229L192,231L195,231L194,233L194,235L196,235L197,237L195,239L194,241L192,242L191,244L189,244L188,246L188,248L186,248L184,250L181,251L179,250L178,252L179,254L179,257L177,258L174,258L172,258L169,258L168,260L166,260L164,259L161,259L159,260L159,262L157,262L156,264L156,266L158,268L160,269L163,270L163,272L164,274L164,276L162,278L161,280L162,281L164,282L167,282L167,284L164,286L163,288L161,287L159,288L158,289L158,291L160,291L163,292L164,294L166,295Z M208,254L209,251L208,254Z" data-oid="2668" /><path data-fips="B3" data-iso="FRA" d="M161,287L163,288L164,286L167,284L167,282L164,282L162,281L161,280L162,278L164,276L164,274L163,272L163,270L160,269L158,268L156,266L156,264L157,262L159,262L159,260L161,259L164,259L166,260L168,260L169,258L172,258L174,258L177,258L179,257L179,254L178,252L179,250L181,251L184,250L186,248L188,248L188,246L189,244L191,244L192,242L194,241L195,239L197,237L196,235L194,235L194,233L195,231L192,231L190,229L189,227L188,225L188,223L187,221L187,219L184,216L183,215L183,213L182,211L180,209L179,208L178,207L174,212L173,214L172,216L170,217L168,216L165,217L164,215L164,212L162,209L161,206L159,207L157,208L154,208L153,207L151,205L149,205L149,205L147,206L147,209L147,211L145,212L144,214L143,216L141,217L140,220L138,221L137,223L138,225L139,228L136,228L134,230L136,231L135,234L135,236L133,236L131,238L130,239L128,238L126,239L122,240L120,241L118,241L117,242L115,243L114,245L113,243L111,244L109,244L109,246L109,248L109,250L108,252L107,254L109,255L111,256L113,257L113,259L114,262L114,264L113,267L112,268L111,271L110,272L109,274L107,275L107,277L107,280L107,281L109,283L111,284L113,285L115,286L118,285L120,285L122,286L124,285L127,285L131,285L130,283L131,281L133,280L135,280L137,281L139,282L142,283L144,284L148,284L149,285L151,287L153,285L155,286L159,288Z" data-oid="2669" /><path data-fips="98" data-iso="FRA" d="M168,216L170,217L172,216L173,214L174,212L178,207L179,208L180,209L182,211L183,213L183,215L184,216L185,214L185,211L187,209L189,208L190,206L192,205L195,209L198,209L199,207L201,209L203,210L205,211L207,209L209,207L211,206L213,205L214,203L215,201L216,199L216,197L218,195L217,193L215,192L215,190L213,189L211,189L208,191L206,190L205,188L206,186L205,184L201,181L200,178L198,176L199,174L199,172L200,170L200,168L200,165L200,163L199,161L202,160L204,157L203,155L203,153L201,152L199,151L197,150L196,148L195,146L193,145L193,147L190,147L188,147L186,146L184,147L182,146L180,144L178,144L175,146L173,147L171,149L170,151L171,153L169,153L166,154L164,156L163,157L165,160L167,161L169,162L170,165L171,167L171,169L172,171L171,173L170,175L169,176L169,178L170,180L171,182L170,184L171,187L171,189L170,192L168,192L167,194L165,196L164,198L165,200L163,203L163,205L161,206L162,209L164,212L164,215L165,217Z" data-oid="2670" /><path data-fips="A1" data-iso="FRA" d="M206,162L208,162L210,162L212,162L213,160L214,158L216,158L218,159L220,158L221,160L223,161L223,159L224,156L225,154L225,152L226,150L228,150L230,149L231,150L234,151L235,150L237,149L235,148L236,146L236,143L235,141L234,138L235,137L233,136L231,133L232,130L234,129L236,124L235,121L235,119L234,117L234,115L235,113L234,111L232,112L231,112L229,111L226,111L224,110L222,110L221,108L222,106L221,104L219,101L217,100L215,99L213,100L212,102L206,103L204,103L202,104L199,104L197,103L196,101L193,97L191,97L190,95L189,93L186,90L184,89L183,90L180,90L178,91L176,91L176,94L176,96L175,98L175,98L177,99L178,101L179,103L178,105L177,106L177,108L177,110L175,111L174,113L175,114L176,116L175,118L175,120L176,122L176,125L176,127L178,128L179,131L180,133L181,135L181,138L181,140L181,142L180,144L182,146L184,147L186,146L188,147L190,147L193,147L193,145L195,146L196,148L197,150L199,151L201,152L203,153L203,155L204,157L202,160L202,162L204,163Z" data-oid="2671" /><path data-fips="A3" data-iso="FRA" d="M142,160L144,160L147,159L149,159L151,159L152,157L154,157L157,157L159,157L161,157L163,157L164,156L166,154L169,153L171,153L170,151L171,149L173,147L175,146L178,144L180,144L181,142L181,140L181,138L181,135L180,133L179,131L178,128L176,127L176,125L176,122L175,120L175,118L176,116L175,114L174,113L175,111L177,110L177,108L177,106L178,105L179,103L178,101L177,99L175,98L175,98L171,98L169,99L165,99L165,97L163,95L162,93L160,94L158,93L156,94L153,94L152,93L151,91L150,90L148,88L147,86L146,84L144,83L144,80L143,78L142,76L141,74L140,75L139,77L138,79L136,80L134,80L131,80L129,82L126,84L127,86L129,88L130,90L130,93L127,94L126,96L127,99L127,100L129,101L127,102L127,104L128,106L127,109L126,111L126,113L124,114L123,116L121,118L119,119L116,120L114,121L114,125L114,127L112,129L111,132L111,135L112,136L114,137L116,138L117,139L117,141L119,142L121,142L123,141L125,141L126,143L129,147L131,148L131,150L132,152L133,154L136,155L137,157L138,160L140,160Z" data-oid="2672" /><path data-fips="A7" data-iso="FRA" d="M129,82L131,80L134,80L136,80L138,79L139,77L140,75L141,74L140,72L140,70L143,69L145,64L145,63L147,63L146,61L145,58L145,56L145,54L144,52L144,50L144,47L145,46L144,44L143,41L139,38L136,36L134,38L132,40L121,43L118,44L115,47L112,48L110,49L110,52L109,56L111,57L114,57L118,56L116,57L113,58L114,60L114,63L115,65L116,67L116,69L116,71L117,73L116,76L120,77L122,79L124,80L124,82L126,84Z" data-oid="2673" /><path data-fips="A8" data-iso="FRA" d="M171,98L175,98L176,96L176,94L176,91L178,91L180,90L183,90L184,89L184,87L185,85L186,83L187,81L185,79L184,77L184,75L185,74L183,73L181,72L178,68L177,66L175,66L173,67L171,67L168,67L166,67L163,66L159,65L157,65L155,64L153,64L151,65L149,65L146,65L145,64L143,69L140,70L140,72L141,74L142,76L143,78L144,80L144,83L146,84L147,86L148,88L150,90L151,91L152,93L153,94L156,94L158,93L160,94L162,93L163,95L165,97L165,99L169,99Z" data-oid="2680" /><path data-fips="B1" data-iso="FRA" d="M157,208L159,207L161,206L163,205L163,203L165,200L164,198L165,196L167,194L168,192L170,192L171,189L171,187L170,184L171,182L170,180L169,178L169,176L170,175L171,173L172,171L171,169L171,167L170,165L169,162L167,161L165,160L163,157L161,157L159,157L157,157L154,157L152,157L151,159L149,159L147,159L144,160L142,160L140,160L138,160L136,161L134,162L132,164L130,165L130,167L130,170L131,173L133,174L131,176L130,177L130,180L128,181L126,183L127,184L129,184L129,186L132,187L134,186L136,186L137,188L139,189L139,191L142,192L142,194L142,196L142,198L141,200L143,201L145,202L146,204L147,206L149,205L149,205L151,205L153,207L154,208Z" data-oid="2681" /><path data-fips="A4" data-iso="FRA" d="M232,112L232,110L234,109L236,110L239,108L239,106L239,104L241,102L242,100L240,98L238,96L236,95L237,93L237,91L236,89L234,88L232,87L230,87L231,84L228,83L226,82L224,81L222,80L220,78L220,76L219,74L217,72L217,70L219,68L219,66L218,64L218,62L217,59L218,57L218,55L219,53L219,51L219,49L219,46L221,47L223,47L225,45L225,44L223,43L221,42L219,42L217,40L215,39L212,39L212,38L212,35L211,34L212,30L211,28L210,28L208,31L207,34L203,36L198,35L198,36L199,38L199,40L199,43L197,45L196,47L196,49L196,51L196,53L196,55L194,56L192,56L189,57L188,59L189,61L189,63L188,65L187,67L188,69L187,71L185,74L184,75L184,77L185,79L187,81L186,83L185,85L184,87L184,89L186,90L189,93L190,95L191,97L193,97L196,101L197,103L199,104L202,104L204,103L206,103L212,102L213,100L215,99L217,100L219,101L221,104L222,106L221,108L222,110L224,110L226,111L229,111L231,112Z" data-oid="2682" /><path data-fips="B4" data-iso="FRA" d="M170,35L172,33L175,35L177,35L180,34L182,35L184,33L186,33L188,33L192,33L193,34L196,35L196,33L197,31L196,30L196,28L196,25L194,24L192,23L189,23L187,23L186,25L185,23L184,20L183,19L180,18L177,18L176,16L175,13L174,11L172,9L169,11L167,13L164,10L162,9L161,7L161,5L160,3L159,1L158,1L154,1L151,3L146,4L142,6L141,8L139,9L139,12L139,14L139,16L140,20L140,23L140,25L142,26L144,26L146,26L148,27L151,30L153,30L156,30L158,29L160,30L158,31L158,33L160,32L162,32L164,33L166,33L166,35L168,35Z" data-oid="2683" /><path data-fips="B6" data-iso="FRA" d="M187,71L188,69L187,67L188,65L189,63L189,61L188,59L189,57L192,56L194,56L196,55L196,53L196,51L196,49L196,47L197,45L199,43L199,40L199,38L198,36L198,35L196,35L193,34L192,33L188,33L186,33L184,33L182,35L180,34L177,35L175,35L172,33L170,35L168,35L166,35L166,33L164,33L162,32L160,32L158,33L158,31L160,30L158,29L156,30L153,30L151,30L148,27L146,26L144,26L142,26L140,25L140,25L139,27L141,30L142,31L138,32L138,34L136,36L139,38L143,41L144,44L145,46L144,47L144,50L144,52L145,54L145,56L145,58L146,61L147,63L145,63L145,64L146,65L149,65L151,65L153,64L155,64L157,65L159,65L163,66L166,67L168,67L171,67L173,67L175,66L177,66L178,68L181,72L183,73L185,74Z" data-oid="2684" /><path data-fips="A6" data-iso="FRA" d="M242,154L244,155L247,156L249,155L250,153L252,150L251,149L252,147L253,144L255,141L258,139L259,137L259,135L258,133L259,131L263,128L264,126L265,124L268,121L269,119L269,116L267,115L269,113L270,112L272,111L272,111L272,109L269,107L270,105L269,103L265,101L264,101L262,100L260,99L258,98L256,99L254,98L251,98L249,99L249,98L248,97L246,97L243,98L242,100L241,102L239,104L239,106L239,108L236,110L234,109L232,110L232,112L234,111L235,113L234,115L234,117L235,119L235,121L236,124L234,129L232,130L231,133L233,136L235,137L234,138L235,141L236,143L236,146L235,148L237,149L235,150L234,151L235,152L237,154L238,156L240,156Z" data-oid="2685" /><path data-fips="96" data-iso="FRA" d="M276,113L278,112L280,111L280,109L282,106L281,105L280,103L280,100L280,98L280,96L281,94L280,91L279,89L280,87L281,83L282,81L282,79L282,76L282,74L282,72L284,70L285,68L286,66L288,64L288,61L289,59L287,59L281,58L279,58L277,58L276,61L273,61L270,62L270,62L268,61L266,60L265,59L264,61L263,63L263,65L265,66L267,67L269,67L270,68L270,70L271,72L270,75L269,76L268,78L268,81L268,83L270,84L268,90L268,92L267,95L266,97L265,99L265,101L269,103L270,105L269,107L272,109L272,111L272,111L273,111L274,113Z" data-oid="2686" /><path data-fips="B2" data-iso="FRA" d="M265,99L266,97L267,95L268,92L268,90L270,84L268,83L268,81L268,78L269,76L270,75L271,72L270,70L270,68L269,67L267,67L265,66L263,65L263,63L264,61L265,59L266,60L268,61L270,62L270,62L273,61L276,61L277,58L275,57L273,56L271,54L269,56L267,57L265,57L263,57L262,55L260,54L258,55L258,57L256,57L255,55L254,53L252,50L250,48L246,48L244,47L242,47L240,48L237,48L235,47L233,46L231,46L229,47L226,47L225,45L223,47L221,47L219,46L219,49L219,51L219,53L218,55L218,57L217,59L218,62L218,64L219,66L219,68L217,70L217,72L219,74L220,76L220,78L222,80L224,81L226,82L228,83L231,84L230,87L232,87L234,88L236,89L237,91L237,93L236,95L238,96L240,98L242,100L243,98L246,97L248,97L249,98L249,99L251,98L254,98L256,99L258,98L260,99L262,100L264,101L265,101Z" data-oid="2687" /></g></svg>